M48
; DRILL file {KiCad (6.0.1)} date Thu Aug 11 12:27:22 2022
; FORMAT={-:-/ absolute / metric / decimal}
; #@! TF.CreationDate,2022-08-11T12:27:22+02:00
; #@! TF.GenerationSoftware,Kicad,Pcbnew,(6.0.1)
; #@! TF.FileFunction,Plated,1,4,PTH
FMAT,2
METRIC
; #@! TA.AperFunction,Plated,PTH,ViaDrill
T1C0.400
; #@! TA.AperFunction,Plated,PTH,ComponentDrill
T2C0.800
; #@! TA.AperFunction,Plated,PTH,ComponentDrill
T3C0.920
; #@! TA.AperFunction,Plated,PTH,ComponentDrill
T4C1.000
; #@! TA.AperFunction,Plated,PTH,ComponentDrill
T5C1.100
; #@! TA.AperFunction,Plated,PTH,ComponentDrill
T6C1.320
; #@! TA.AperFunction,Plated,PTH,ComponentDrill
T7C2.330
; #@! TA.AperFunction,Plated,PTH,ComponentDrill
T8C4.300
%
G90
G05
T1
X37.3Y-111.125
X38.55Y-93.05
X49.0Y-113.75
X49.0Y-118.0
X49.187Y-104.0
X49.2Y-93.4
X50.0Y-92.0
X50.0Y-97.0
X50.8Y-104.5
X52.4Y-106.4
X54.7Y-90.5
X55.0Y-103.8
X55.0Y-105.2
X55.25Y-95.25
X56.25Y-124.0
X56.5Y-93.75
X57.0Y-111.2
X57.0Y-116.2
X57.1Y-108.7
X57.1Y-113.7
X59.75Y-125.75
X60.25Y-92.0
X60.75Y-96.75
X61.5Y-121.75
X61.6Y-106.2
X62.2Y-118.4
X62.6Y-107.0
X63.25Y-121.75
X63.4Y-118.2
X64.4Y-115.2
X64.4Y-116.6
X65.8Y-90.2
X67.25Y-92.0
X67.25Y-96.75
X68.25Y-114.25
X69.5Y-106.75
X69.5Y-108.25
X70.25Y-116.0
X70.4Y-90.2
X70.55Y-96.85
X70.99Y-112.933
X71.05Y-92.35
X72.0Y-113.25
X77.55Y-97.6
X77.8Y-92.35
X78.3Y-96.6
X78.4Y-103.2
X78.55Y-93.1
X80.25Y-108.75
X81.2Y-103.6
X81.2Y-104.8
X82.8Y-98.85
X85.2Y-92.4
X87.8Y-89.8
X90.4Y-90.0
X92.25Y-110.475
X108.2Y-89.6
X112.8Y-89.8
T2
X43.4Y-110.05
X43.4Y-114.95
T3
X74.75Y-114.422
X74.75Y-116.422
X77.25Y-114.422
X77.25Y-116.422
T4
X34.2Y-102.65
X34.2Y-105.19
X34.2Y-107.73
X34.2Y-110.27
X34.2Y-112.81
X34.2Y-115.35
X46.2Y-93.075
X46.2Y-95.615
X46.2Y-98.155
T5
X34.55Y-93.55
X34.55Y-98.05
X41.05Y-93.55
X41.05Y-98.05
X88.46Y-115.43
X91.0Y-115.43
X93.54Y-115.43
T6
X44.8Y-82.5
X49.8Y-82.5
X54.8Y-82.5
X64.8Y-82.5
X69.8Y-82.5
X74.8Y-82.5
X84.8Y-82.5
X89.8Y-82.5
X94.8Y-82.5
X104.8Y-82.5
X109.8Y-82.5
X114.8Y-82.5
T7
X69.98Y-119.132
X82.02Y-119.132
T8
X36.4Y-82.4
T0
M30
