G04 #@! TF.GenerationSoftware,KiCad,Pcbnew,(6.0.1)*
G04 #@! TF.CreationDate,2022-08-11T12:27:20+02:00*
G04 #@! TF.ProjectId,DMX,444d582e-6b69-4636-9164-5f7063625858,rev?*
G04 #@! TF.SameCoordinates,Original*
G04 #@! TF.FileFunction,Legend,Bot*
G04 #@! TF.FilePolarity,Positive*
%FSLAX46Y46*%
G04 Gerber Fmt 4.6, Leading zero omitted, Abs format (unit mm)*
G04 Created by KiCad (PCBNEW (6.0.1)) date 2022-08-11 12:27:20*
%MOMM*%
%LPD*%
G01*
G04 APERTURE LIST*
G04 Aperture macros list*
%AMRoundRect*
0 Rectangle with rounded corners*
0 $1 Rounding radius*
0 $2 $3 $4 $5 $6 $7 $8 $9 X,Y pos of 4 corners*
0 Add a 4 corners polygon primitive as box body*
4,1,4,$2,$3,$4,$5,$6,$7,$8,$9,$2,$3,0*
0 Add four circle primitives for the rounded corners*
1,1,$1+$1,$2,$3*
1,1,$1+$1,$4,$5*
1,1,$1+$1,$6,$7*
1,1,$1+$1,$8,$9*
0 Add four rect primitives between the rounded corners*
20,1,$1+$1,$2,$3,$4,$5,0*
20,1,$1+$1,$4,$5,$6,$7,0*
20,1,$1+$1,$6,$7,$8,$9,0*
20,1,$1+$1,$8,$9,$2,$3,0*%
G04 Aperture macros list end*
%ADD10C,0.150000*%
%ADD11C,0.120000*%
%ADD12R,1.980000X3.960000*%
%ADD13O,1.980000X3.960000*%
%ADD14R,1.700000X1.700000*%
%ADD15O,1.700000X1.700000*%
%ADD16C,3.200000*%
%ADD17C,1.700000*%
%ADD18C,3.500000*%
%ADD19C,2.000000*%
%ADD20C,1.500000*%
%ADD21O,3.500000X3.500000*%
%ADD22R,1.905000X2.000000*%
%ADD23O,1.905000X2.000000*%
%ADD24RoundRect,0.250000X-0.350000X-0.450000X0.350000X-0.450000X0.350000X0.450000X-0.350000X0.450000X0*%
%ADD25RoundRect,0.250000X-0.450000X0.350000X-0.450000X-0.350000X0.450000X-0.350000X0.450000X0.350000X0*%
%ADD26RoundRect,0.237500X0.237500X-0.300000X0.237500X0.300000X-0.237500X0.300000X-0.237500X-0.300000X0*%
%ADD27R,3.500000X1.800000*%
%ADD28RoundRect,0.237500X-0.237500X0.300000X-0.237500X-0.300000X0.237500X-0.300000X0.237500X0.300000X0*%
%ADD29C,7.500000*%
%ADD30R,0.650000X1.560000*%
G04 APERTURE END LIST*
D10*
X55876190Y-118052380D02*
X55257142Y-118052380D01*
X55590476Y-118433333D01*
X55447619Y-118433333D01*
X55352380Y-118480952D01*
X55304761Y-118528571D01*
X55257142Y-118623809D01*
X55257142Y-118861904D01*
X55304761Y-118957142D01*
X55352380Y-119004761D01*
X55447619Y-119052380D01*
X55733333Y-119052380D01*
X55828571Y-119004761D01*
X55876190Y-118957142D01*
X54828571Y-118957142D02*
X54780952Y-119004761D01*
X54828571Y-119052380D01*
X54876190Y-119004761D01*
X54828571Y-118957142D01*
X54828571Y-119052380D01*
X54447619Y-118052380D02*
X53828571Y-118052380D01*
X54161904Y-118433333D01*
X54019047Y-118433333D01*
X53923809Y-118480952D01*
X53876190Y-118528571D01*
X53828571Y-118623809D01*
X53828571Y-118861904D01*
X53876190Y-118957142D01*
X53923809Y-119004761D01*
X54019047Y-119052380D01*
X54304761Y-119052380D01*
X54400000Y-119004761D01*
X54447619Y-118957142D01*
X53542857Y-118052380D02*
X53209523Y-119052380D01*
X52876190Y-118052380D01*
X60411904Y-118100000D02*
X60507142Y-118052380D01*
X60650000Y-118052380D01*
X60792857Y-118100000D01*
X60888095Y-118195238D01*
X60935714Y-118290476D01*
X60983333Y-118480952D01*
X60983333Y-118623809D01*
X60935714Y-118814285D01*
X60888095Y-118909523D01*
X60792857Y-119004761D01*
X60650000Y-119052380D01*
X60554761Y-119052380D01*
X60411904Y-119004761D01*
X60364285Y-118957142D01*
X60364285Y-118623809D01*
X60554761Y-118623809D01*
X59935714Y-119052380D02*
X59935714Y-118052380D01*
X59364285Y-119052380D01*
X59364285Y-118052380D01*
X58888095Y-119052380D02*
X58888095Y-118052380D01*
X58650000Y-118052380D01*
X58507142Y-118100000D01*
X58411904Y-118195238D01*
X58364285Y-118290476D01*
X58316666Y-118480952D01*
X58316666Y-118623809D01*
X58364285Y-118814285D01*
X58411904Y-118909523D01*
X58507142Y-119004761D01*
X58650000Y-119052380D01*
X58888095Y-119052380D01*
X51985714Y-114152380D02*
X51985714Y-113152380D01*
X51747619Y-113152380D01*
X51604761Y-113200000D01*
X51509523Y-113295238D01*
X51461904Y-113390476D01*
X51414285Y-113580952D01*
X51414285Y-113723809D01*
X51461904Y-113914285D01*
X51509523Y-114009523D01*
X51604761Y-114104761D01*
X51747619Y-114152380D01*
X51985714Y-114152380D01*
X50985714Y-114152380D02*
X50985714Y-113152380D01*
X50652380Y-113866666D01*
X50319047Y-113152380D01*
X50319047Y-114152380D01*
X49938095Y-113152380D02*
X49271428Y-114152380D01*
X49271428Y-113152380D02*
X49938095Y-114152380D01*
X48985714Y-113152380D02*
X48366666Y-113152380D01*
X48700000Y-113533333D01*
X48557142Y-113533333D01*
X48461904Y-113580952D01*
X48414285Y-113628571D01*
X48366666Y-113723809D01*
X48366666Y-113961904D01*
X48414285Y-114057142D01*
X48461904Y-114104761D01*
X48557142Y-114152380D01*
X48842857Y-114152380D01*
X48938095Y-114104761D01*
X48985714Y-114057142D01*
X89916666Y-109177380D02*
X90250000Y-108701190D01*
X90488095Y-109177380D02*
X90488095Y-108177380D01*
X90107142Y-108177380D01*
X90011904Y-108225000D01*
X89964285Y-108272619D01*
X89916666Y-108367857D01*
X89916666Y-108510714D01*
X89964285Y-108605952D01*
X90011904Y-108653571D01*
X90107142Y-108701190D01*
X90488095Y-108701190D01*
X89535714Y-108272619D02*
X89488095Y-108225000D01*
X89392857Y-108177380D01*
X89154761Y-108177380D01*
X89059523Y-108225000D01*
X89011904Y-108272619D01*
X88964285Y-108367857D01*
X88964285Y-108463095D01*
X89011904Y-108605952D01*
X89583333Y-109177380D01*
X88964285Y-109177380D01*
X51985714Y-109152380D02*
X51985714Y-108152380D01*
X51747619Y-108152380D01*
X51604761Y-108200000D01*
X51509523Y-108295238D01*
X51461904Y-108390476D01*
X51414285Y-108580952D01*
X51414285Y-108723809D01*
X51461904Y-108914285D01*
X51509523Y-109009523D01*
X51604761Y-109104761D01*
X51747619Y-109152380D01*
X51985714Y-109152380D01*
X50985714Y-109152380D02*
X50985714Y-108152380D01*
X50652380Y-108866666D01*
X50319047Y-108152380D01*
X50319047Y-109152380D01*
X49938095Y-108152380D02*
X49271428Y-109152380D01*
X49271428Y-108152380D02*
X49938095Y-109152380D01*
X48366666Y-109152380D02*
X48938095Y-109152380D01*
X48652380Y-109152380D02*
X48652380Y-108152380D01*
X48747619Y-108295238D01*
X48842857Y-108390476D01*
X48938095Y-108438095D01*
X39282380Y-92383333D02*
X38806190Y-92050000D01*
X39282380Y-91811904D02*
X38282380Y-91811904D01*
X38282380Y-92192857D01*
X38330000Y-92288095D01*
X38377619Y-92335714D01*
X38472857Y-92383333D01*
X38615714Y-92383333D01*
X38710952Y-92335714D01*
X38758571Y-92288095D01*
X38806190Y-92192857D01*
X38806190Y-91811904D01*
X38282380Y-93288095D02*
X38282380Y-92811904D01*
X38758571Y-92764285D01*
X38710952Y-92811904D01*
X38663333Y-92907142D01*
X38663333Y-93145238D01*
X38710952Y-93240476D01*
X38758571Y-93288095D01*
X38853809Y-93335714D01*
X39091904Y-93335714D01*
X39187142Y-93288095D01*
X39234761Y-93240476D01*
X39282380Y-93145238D01*
X39282380Y-92907142D01*
X39234761Y-92811904D01*
X39187142Y-92764285D01*
X51985714Y-111652380D02*
X51985714Y-110652380D01*
X51747619Y-110652380D01*
X51604761Y-110700000D01*
X51509523Y-110795238D01*
X51461904Y-110890476D01*
X51414285Y-111080952D01*
X51414285Y-111223809D01*
X51461904Y-111414285D01*
X51509523Y-111509523D01*
X51604761Y-111604761D01*
X51747619Y-111652380D01*
X51985714Y-111652380D01*
X50985714Y-111652380D02*
X50985714Y-110652380D01*
X50652380Y-111366666D01*
X50319047Y-110652380D01*
X50319047Y-111652380D01*
X49938095Y-110652380D02*
X49271428Y-111652380D01*
X49271428Y-110652380D02*
X49938095Y-111652380D01*
X48938095Y-110747619D02*
X48890476Y-110700000D01*
X48795238Y-110652380D01*
X48557142Y-110652380D01*
X48461904Y-110700000D01*
X48414285Y-110747619D01*
X48366666Y-110842857D01*
X48366666Y-110938095D01*
X48414285Y-111080952D01*
X48985714Y-111652380D01*
X48366666Y-111652380D01*
X37407142Y-92633333D02*
X37454761Y-92585714D01*
X37502380Y-92442857D01*
X37502380Y-92347619D01*
X37454761Y-92204761D01*
X37359523Y-92109523D01*
X37264285Y-92061904D01*
X37073809Y-92014285D01*
X36930952Y-92014285D01*
X36740476Y-92061904D01*
X36645238Y-92109523D01*
X36550000Y-92204761D01*
X36502380Y-92347619D01*
X36502380Y-92442857D01*
X36550000Y-92585714D01*
X36597619Y-92633333D01*
X36835714Y-93490476D02*
X37502380Y-93490476D01*
X36454761Y-93252380D02*
X37169047Y-93014285D01*
X37169047Y-93633333D01*
X37727142Y-109958333D02*
X37774761Y-109910714D01*
X37822380Y-109767857D01*
X37822380Y-109672619D01*
X37774761Y-109529761D01*
X37679523Y-109434523D01*
X37584285Y-109386904D01*
X37393809Y-109339285D01*
X37250952Y-109339285D01*
X37060476Y-109386904D01*
X36965238Y-109434523D01*
X36870000Y-109529761D01*
X36822380Y-109672619D01*
X36822380Y-109767857D01*
X36870000Y-109910714D01*
X36917619Y-109958333D01*
X36822380Y-110863095D02*
X36822380Y-110386904D01*
X37298571Y-110339285D01*
X37250952Y-110386904D01*
X37203333Y-110482142D01*
X37203333Y-110720238D01*
X37250952Y-110815476D01*
X37298571Y-110863095D01*
X37393809Y-110910714D01*
X37631904Y-110910714D01*
X37727142Y-110863095D01*
X37774761Y-110815476D01*
X37822380Y-110720238D01*
X37822380Y-110482142D01*
X37774761Y-110386904D01*
X37727142Y-110339285D01*
X89916666Y-107427380D02*
X90250000Y-106951190D01*
X90488095Y-107427380D02*
X90488095Y-106427380D01*
X90107142Y-106427380D01*
X90011904Y-106475000D01*
X89964285Y-106522619D01*
X89916666Y-106617857D01*
X89916666Y-106760714D01*
X89964285Y-106855952D01*
X90011904Y-106903571D01*
X90107142Y-106951190D01*
X90488095Y-106951190D01*
X88964285Y-107427380D02*
X89535714Y-107427380D01*
X89250000Y-107427380D02*
X89250000Y-106427380D01*
X89345238Y-106570238D01*
X89440476Y-106665476D01*
X89535714Y-106713095D01*
X37657142Y-113854600D02*
X37704761Y-113806981D01*
X37752380Y-113664124D01*
X37752380Y-113568886D01*
X37704761Y-113426028D01*
X37609523Y-113330790D01*
X37514285Y-113283171D01*
X37323809Y-113235552D01*
X37180952Y-113235552D01*
X36990476Y-113283171D01*
X36895238Y-113330790D01*
X36800000Y-113426028D01*
X36752380Y-113568886D01*
X36752380Y-113664124D01*
X36800000Y-113806981D01*
X36847619Y-113854600D01*
X36752380Y-114711743D02*
X36752380Y-114521267D01*
X36800000Y-114426028D01*
X36847619Y-114378409D01*
X36990476Y-114283171D01*
X37180952Y-114235552D01*
X37561904Y-114235552D01*
X37657142Y-114283171D01*
X37704761Y-114330790D01*
X37752380Y-114426028D01*
X37752380Y-114616505D01*
X37704761Y-114711743D01*
X37657142Y-114759362D01*
X37561904Y-114806981D01*
X37323809Y-114806981D01*
X37228571Y-114759362D01*
X37180952Y-114711743D01*
X37133333Y-114616505D01*
X37133333Y-114426028D01*
X37180952Y-114330790D01*
X37228571Y-114283171D01*
X37323809Y-114235552D01*
X51985714Y-116652380D02*
X51985714Y-115652380D01*
X51747619Y-115652380D01*
X51604761Y-115700000D01*
X51509523Y-115795238D01*
X51461904Y-115890476D01*
X51414285Y-116080952D01*
X51414285Y-116223809D01*
X51461904Y-116414285D01*
X51509523Y-116509523D01*
X51604761Y-116604761D01*
X51747619Y-116652380D01*
X51985714Y-116652380D01*
X50985714Y-116652380D02*
X50985714Y-115652380D01*
X50652380Y-116366666D01*
X50319047Y-115652380D01*
X50319047Y-116652380D01*
X49938095Y-115652380D02*
X49271428Y-116652380D01*
X49271428Y-115652380D02*
X49938095Y-116652380D01*
X48461904Y-115985714D02*
X48461904Y-116652380D01*
X48700000Y-115604761D02*
X48938095Y-116319047D01*
X48319047Y-116319047D01*
D11*
X59422936Y-114435000D02*
X59877064Y-114435000D01*
X59422936Y-112965000D02*
X59877064Y-112965000D01*
X89522936Y-111990000D02*
X89977064Y-111990000D01*
X89522936Y-113460000D02*
X89977064Y-113460000D01*
X59422936Y-109435000D02*
X59877064Y-109435000D01*
X59422936Y-107965000D02*
X59877064Y-107965000D01*
X54172936Y-112965000D02*
X54627064Y-112965000D01*
X54172936Y-114435000D02*
X54627064Y-114435000D01*
X39565000Y-95572936D02*
X39565000Y-96027064D01*
X38095000Y-95572936D02*
X38095000Y-96027064D01*
X59422936Y-110465000D02*
X59877064Y-110465000D01*
X59422936Y-111935000D02*
X59877064Y-111935000D01*
X36290000Y-95946267D02*
X36290000Y-95653733D01*
X37310000Y-95946267D02*
X37310000Y-95653733D01*
X54172936Y-115465000D02*
X54627064Y-115465000D01*
X54172936Y-116935000D02*
X54627064Y-116935000D01*
X72900000Y-85850000D02*
X79800000Y-85850000D01*
X72900000Y-89150000D02*
X72900000Y-85850000D01*
X72900000Y-89150000D02*
X79800000Y-89150000D01*
X39310000Y-109978733D02*
X39310000Y-110271267D01*
X38290000Y-109978733D02*
X38290000Y-110271267D01*
X112900000Y-89150000D02*
X119800000Y-89150000D01*
X112900000Y-85850000D02*
X119800000Y-85850000D01*
X112900000Y-89150000D02*
X112900000Y-85850000D01*
X51700000Y-89150000D02*
X44800000Y-89150000D01*
X51700000Y-85850000D02*
X44800000Y-85850000D01*
X51700000Y-85850000D02*
X51700000Y-89150000D01*
X89522936Y-109740000D02*
X89977064Y-109740000D01*
X89522936Y-111210000D02*
X89977064Y-111210000D01*
X52900000Y-85850000D02*
X59800000Y-85850000D01*
X52900000Y-89150000D02*
X52900000Y-85850000D01*
X52900000Y-89150000D02*
X59800000Y-89150000D01*
X111700000Y-85850000D02*
X111700000Y-89150000D01*
X111700000Y-89150000D02*
X104800000Y-89150000D01*
X111700000Y-85850000D02*
X104800000Y-85850000D01*
X38290000Y-114021267D02*
X38290000Y-113728733D01*
X39310000Y-114021267D02*
X39310000Y-113728733D01*
X71700000Y-89150000D02*
X64800000Y-89150000D01*
X71700000Y-85850000D02*
X64800000Y-85850000D01*
X71700000Y-85850000D02*
X71700000Y-89150000D01*
X54172936Y-110465000D02*
X54627064Y-110465000D01*
X54172936Y-111935000D02*
X54627064Y-111935000D01*
X54172936Y-109435000D02*
X54627064Y-109435000D01*
X54172936Y-107965000D02*
X54627064Y-107965000D01*
X68640000Y-113900000D02*
X68640000Y-112100000D01*
X71860000Y-112100000D02*
X71860000Y-115050000D01*
X91700000Y-85850000D02*
X84800000Y-85850000D01*
X91700000Y-89150000D02*
X84800000Y-89150000D01*
X91700000Y-85850000D02*
X91700000Y-89150000D01*
X59422936Y-116935000D02*
X59877064Y-116935000D01*
X59422936Y-115465000D02*
X59877064Y-115465000D01*
X92900000Y-89150000D02*
X92900000Y-85850000D01*
X92900000Y-85850000D02*
X99800000Y-85850000D01*
X92900000Y-89150000D02*
X99800000Y-89150000D01*
%LPC*%
D12*
X104800000Y-82500000D03*
D13*
X109800000Y-82500000D03*
X114800000Y-82500000D03*
D12*
X84800000Y-82500000D03*
D13*
X89800000Y-82500000D03*
X94800000Y-82500000D03*
D12*
X64800000Y-82500000D03*
D13*
X69800000Y-82500000D03*
X74800000Y-82500000D03*
D14*
X34200000Y-102650000D03*
D15*
X34200000Y-105190000D03*
X34200000Y-107730000D03*
X34200000Y-110270000D03*
X34200000Y-112810000D03*
X34200000Y-115350000D03*
D12*
X44800000Y-82500000D03*
D13*
X49800000Y-82500000D03*
X54800000Y-82500000D03*
D16*
X36800000Y-123200000D03*
D14*
X77250000Y-114422500D03*
D17*
X74750000Y-114422500D03*
X74750000Y-116422500D03*
X77250000Y-116422500D03*
D18*
X82020000Y-119132500D03*
X69980000Y-119132500D03*
D19*
X34550000Y-93550000D03*
X41050000Y-93550000D03*
X34550000Y-98050000D03*
X41050000Y-98050000D03*
D16*
X90800000Y-123200000D03*
D20*
X43400000Y-110050000D03*
X43400000Y-114950000D03*
D21*
X91000000Y-98770000D03*
D22*
X88460000Y-115430000D03*
D23*
X91000000Y-115430000D03*
X93540000Y-115430000D03*
D14*
X46200000Y-93075000D03*
D15*
X46200000Y-95615000D03*
X46200000Y-98155000D03*
D16*
X124000000Y-82600000D03*
D24*
X58650000Y-113700000D03*
X60650000Y-113700000D03*
X88750000Y-112725000D03*
X90750000Y-112725000D03*
X58650000Y-108700000D03*
X60650000Y-108700000D03*
X53400000Y-113700000D03*
X55400000Y-113700000D03*
D25*
X38830000Y-94800000D03*
X38830000Y-96800000D03*
D24*
X58650000Y-111200000D03*
X60650000Y-111200000D03*
D26*
X36800000Y-96662500D03*
X36800000Y-94937500D03*
D24*
X53400000Y-116200000D03*
X55400000Y-116200000D03*
D27*
X74800000Y-87500000D03*
X79800000Y-87500000D03*
D28*
X38800000Y-109262500D03*
X38800000Y-110987500D03*
D27*
X114800000Y-87500000D03*
X119800000Y-87500000D03*
X49800000Y-87500000D03*
X44800000Y-87500000D03*
D24*
X88750000Y-110475000D03*
X90750000Y-110475000D03*
D27*
X54800000Y-87500000D03*
X59800000Y-87500000D03*
X109800000Y-87500000D03*
X104800000Y-87500000D03*
D26*
X38800000Y-114737500D03*
X38800000Y-113012500D03*
D29*
X36400000Y-82400000D03*
D27*
X69800000Y-87500000D03*
X64800000Y-87500000D03*
D24*
X53400000Y-111200000D03*
X55400000Y-111200000D03*
X53400000Y-108700000D03*
X55400000Y-108700000D03*
D30*
X71200000Y-114350000D03*
X70250000Y-114350000D03*
X69300000Y-114350000D03*
X69300000Y-111650000D03*
X70250000Y-111650000D03*
X71200000Y-111650000D03*
D27*
X89800000Y-87500000D03*
X84800000Y-87500000D03*
D24*
X58650000Y-116200000D03*
X60650000Y-116200000D03*
D27*
X94800000Y-87500000D03*
X99800000Y-87500000D03*
M02*
