G04 #@! TF.GenerationSoftware,KiCad,Pcbnew,(6.0.1)*
G04 #@! TF.CreationDate,2022-08-11T12:27:20+02:00*
G04 #@! TF.ProjectId,DMX,444d582e-6b69-4636-9164-5f7063625858,rev?*
G04 #@! TF.SameCoordinates,Original*
G04 #@! TF.FileFunction,Soldermask,Bot*
G04 #@! TF.FilePolarity,Negative*
%FSLAX46Y46*%
G04 Gerber Fmt 4.6, Leading zero omitted, Abs format (unit mm)*
G04 Created by KiCad (PCBNEW (6.0.1)) date 2022-08-11 12:27:20*
%MOMM*%
%LPD*%
G01*
G04 APERTURE LIST*
G04 Aperture macros list*
%AMRoundRect*
0 Rectangle with rounded corners*
0 $1 Rounding radius*
0 $2 $3 $4 $5 $6 $7 $8 $9 X,Y pos of 4 corners*
0 Add a 4 corners polygon primitive as box body*
4,1,4,$2,$3,$4,$5,$6,$7,$8,$9,$2,$3,0*
0 Add four circle primitives for the rounded corners*
1,1,$1+$1,$2,$3*
1,1,$1+$1,$4,$5*
1,1,$1+$1,$6,$7*
1,1,$1+$1,$8,$9*
0 Add four rect primitives between the rounded corners*
20,1,$1+$1,$2,$3,$4,$5,0*
20,1,$1+$1,$4,$5,$6,$7,0*
20,1,$1+$1,$6,$7,$8,$9,0*
20,1,$1+$1,$8,$9,$2,$3,0*%
G04 Aperture macros list end*
%ADD10R,1.980000X3.960000*%
%ADD11O,1.980000X3.960000*%
%ADD12R,1.700000X1.700000*%
%ADD13O,1.700000X1.700000*%
%ADD14C,3.200000*%
%ADD15C,1.700000*%
%ADD16C,3.500000*%
%ADD17C,2.000000*%
%ADD18C,1.500000*%
%ADD19O,3.500000X3.500000*%
%ADD20R,1.905000X2.000000*%
%ADD21O,1.905000X2.000000*%
%ADD22RoundRect,0.250000X-0.350000X-0.450000X0.350000X-0.450000X0.350000X0.450000X-0.350000X0.450000X0*%
%ADD23RoundRect,0.250000X-0.450000X0.350000X-0.450000X-0.350000X0.450000X-0.350000X0.450000X0.350000X0*%
%ADD24RoundRect,0.237500X0.237500X-0.300000X0.237500X0.300000X-0.237500X0.300000X-0.237500X-0.300000X0*%
%ADD25R,3.500000X1.800000*%
%ADD26RoundRect,0.237500X-0.237500X0.300000X-0.237500X-0.300000X0.237500X-0.300000X0.237500X0.300000X0*%
%ADD27C,7.500000*%
%ADD28R,0.650000X1.560000*%
G04 APERTURE END LIST*
D10*
X104800000Y-82500000D03*
D11*
X109800000Y-82500000D03*
X114800000Y-82500000D03*
D10*
X84800000Y-82500000D03*
D11*
X89800000Y-82500000D03*
X94800000Y-82500000D03*
D10*
X64800000Y-82500000D03*
D11*
X69800000Y-82500000D03*
X74800000Y-82500000D03*
D12*
X34200000Y-102650000D03*
D13*
X34200000Y-105190000D03*
X34200000Y-107730000D03*
X34200000Y-110270000D03*
X34200000Y-112810000D03*
X34200000Y-115350000D03*
D10*
X44800000Y-82500000D03*
D11*
X49800000Y-82500000D03*
X54800000Y-82500000D03*
D14*
X36800000Y-123200000D03*
D12*
X77250000Y-114422500D03*
D15*
X74750000Y-114422500D03*
X74750000Y-116422500D03*
X77250000Y-116422500D03*
D16*
X82020000Y-119132500D03*
X69980000Y-119132500D03*
D17*
X34550000Y-93550000D03*
X41050000Y-93550000D03*
X34550000Y-98050000D03*
X41050000Y-98050000D03*
D14*
X90800000Y-123200000D03*
D18*
X43400000Y-110050000D03*
X43400000Y-114950000D03*
D19*
X91000000Y-98770000D03*
D20*
X88460000Y-115430000D03*
D21*
X91000000Y-115430000D03*
X93540000Y-115430000D03*
D12*
X46200000Y-93075000D03*
D13*
X46200000Y-95615000D03*
X46200000Y-98155000D03*
D14*
X124000000Y-82600000D03*
D22*
X58650000Y-113700000D03*
X60650000Y-113700000D03*
X88750000Y-112725000D03*
X90750000Y-112725000D03*
X58650000Y-108700000D03*
X60650000Y-108700000D03*
X53400000Y-113700000D03*
X55400000Y-113700000D03*
D23*
X38830000Y-94800000D03*
X38830000Y-96800000D03*
D22*
X58650000Y-111200000D03*
X60650000Y-111200000D03*
D24*
X36800000Y-96662500D03*
X36800000Y-94937500D03*
D22*
X53400000Y-116200000D03*
X55400000Y-116200000D03*
D25*
X74800000Y-87500000D03*
X79800000Y-87500000D03*
D26*
X38800000Y-109262500D03*
X38800000Y-110987500D03*
D25*
X114800000Y-87500000D03*
X119800000Y-87500000D03*
X49800000Y-87500000D03*
X44800000Y-87500000D03*
D22*
X88750000Y-110475000D03*
X90750000Y-110475000D03*
D25*
X54800000Y-87500000D03*
X59800000Y-87500000D03*
X109800000Y-87500000D03*
X104800000Y-87500000D03*
D24*
X38800000Y-114737500D03*
X38800000Y-113012500D03*
D27*
X36400000Y-82400000D03*
D25*
X69800000Y-87500000D03*
X64800000Y-87500000D03*
D22*
X53400000Y-111200000D03*
X55400000Y-111200000D03*
X53400000Y-108700000D03*
X55400000Y-108700000D03*
D28*
X71200000Y-114350000D03*
X70250000Y-114350000D03*
X69300000Y-114350000D03*
X69300000Y-111650000D03*
X70250000Y-111650000D03*
X71200000Y-111650000D03*
D25*
X89800000Y-87500000D03*
X84800000Y-87500000D03*
D22*
X58650000Y-116200000D03*
X60650000Y-116200000D03*
D25*
X94800000Y-87500000D03*
X99800000Y-87500000D03*
M02*
