G04 #@! TF.GenerationSoftware,KiCad,Pcbnew,(6.0.1)*
G04 #@! TF.CreationDate,2022-08-11T12:27:20+02:00*
G04 #@! TF.ProjectId,DMX,444d582e-6b69-4636-9164-5f7063625858,rev?*
G04 #@! TF.SameCoordinates,Original*
G04 #@! TF.FileFunction,Copper,L1,Top*
G04 #@! TF.FilePolarity,Positive*
%FSLAX46Y46*%
G04 Gerber Fmt 4.6, Leading zero omitted, Abs format (unit mm)*
G04 Created by KiCad (PCBNEW (6.0.1)) date 2022-08-11 12:27:20*
%MOMM*%
%LPD*%
G01*
G04 APERTURE LIST*
G04 Aperture macros list*
%AMRoundRect*
0 Rectangle with rounded corners*
0 $1 Rounding radius*
0 $2 $3 $4 $5 $6 $7 $8 $9 X,Y pos of 4 corners*
0 Add a 4 corners polygon primitive as box body*
4,1,4,$2,$3,$4,$5,$6,$7,$8,$9,$2,$3,0*
0 Add four circle primitives for the rounded corners*
1,1,$1+$1,$2,$3*
1,1,$1+$1,$4,$5*
1,1,$1+$1,$6,$7*
1,1,$1+$1,$8,$9*
0 Add four rect primitives between the rounded corners*
20,1,$1+$1,$2,$3,$4,$5,0*
20,1,$1+$1,$4,$5,$6,$7,0*
20,1,$1+$1,$6,$7,$8,$9,0*
20,1,$1+$1,$8,$9,$2,$3,0*%
G04 Aperture macros list end*
G04 #@! TA.AperFunction,SMDPad,CuDef*
%ADD10RoundRect,0.237500X-0.237500X0.250000X-0.237500X-0.250000X0.237500X-0.250000X0.237500X0.250000X0*%
G04 #@! TD*
G04 #@! TA.AperFunction,SMDPad,CuDef*
%ADD11RoundRect,0.237500X0.237500X-0.250000X0.237500X0.250000X-0.237500X0.250000X-0.237500X-0.250000X0*%
G04 #@! TD*
G04 #@! TA.AperFunction,ComponentPad*
%ADD12R,1.980000X3.960000*%
G04 #@! TD*
G04 #@! TA.AperFunction,ComponentPad*
%ADD13O,1.980000X3.960000*%
G04 #@! TD*
G04 #@! TA.AperFunction,SMDPad,CuDef*
%ADD14RoundRect,0.237500X0.237500X-0.300000X0.237500X0.300000X-0.237500X0.300000X-0.237500X-0.300000X0*%
G04 #@! TD*
G04 #@! TA.AperFunction,SMDPad,CuDef*
%ADD15RoundRect,0.237500X-0.300000X-0.237500X0.300000X-0.237500X0.300000X0.237500X-0.300000X0.237500X0*%
G04 #@! TD*
G04 #@! TA.AperFunction,ComponentPad*
%ADD16R,1.700000X1.700000*%
G04 #@! TD*
G04 #@! TA.AperFunction,ComponentPad*
%ADD17O,1.700000X1.700000*%
G04 #@! TD*
G04 #@! TA.AperFunction,ComponentPad*
%ADD18C,1.700000*%
G04 #@! TD*
G04 #@! TA.AperFunction,ComponentPad*
%ADD19C,3.500000*%
G04 #@! TD*
G04 #@! TA.AperFunction,ComponentPad*
%ADD20C,2.000000*%
G04 #@! TD*
G04 #@! TA.AperFunction,SMDPad,CuDef*
%ADD21RoundRect,0.237500X0.300000X0.237500X-0.300000X0.237500X-0.300000X-0.237500X0.300000X-0.237500X0*%
G04 #@! TD*
G04 #@! TA.AperFunction,SMDPad,CuDef*
%ADD22RoundRect,0.150000X0.150000X-0.825000X0.150000X0.825000X-0.150000X0.825000X-0.150000X-0.825000X0*%
G04 #@! TD*
G04 #@! TA.AperFunction,SMDPad,CuDef*
%ADD23RoundRect,0.075000X-0.700000X-0.075000X0.700000X-0.075000X0.700000X0.075000X-0.700000X0.075000X0*%
G04 #@! TD*
G04 #@! TA.AperFunction,SMDPad,CuDef*
%ADD24RoundRect,0.075000X-0.075000X-0.700000X0.075000X-0.700000X0.075000X0.700000X-0.075000X0.700000X0*%
G04 #@! TD*
G04 #@! TA.AperFunction,ComponentPad*
%ADD25C,1.500000*%
G04 #@! TD*
G04 #@! TA.AperFunction,SMDPad,CuDef*
%ADD26RoundRect,0.237500X-0.237500X0.300000X-0.237500X-0.300000X0.237500X-0.300000X0.237500X0.300000X0*%
G04 #@! TD*
G04 #@! TA.AperFunction,ComponentPad*
%ADD27R,1.905000X2.000000*%
G04 #@! TD*
G04 #@! TA.AperFunction,ComponentPad*
%ADD28O,1.905000X2.000000*%
G04 #@! TD*
G04 #@! TA.AperFunction,ComponentPad*
%ADD29C,7.500000*%
G04 #@! TD*
G04 #@! TA.AperFunction,ViaPad*
%ADD30C,0.800000*%
G04 #@! TD*
G04 #@! TA.AperFunction,Conductor*
%ADD31C,0.250000*%
G04 #@! TD*
G04 APERTURE END LIST*
D10*
X74550000Y-92437500D03*
X74550000Y-94262500D03*
D11*
X61750000Y-93912500D03*
X61750000Y-92087500D03*
D12*
X104800000Y-82500000D03*
D13*
X109800000Y-82500000D03*
X114800000Y-82500000D03*
D12*
X84800000Y-82500000D03*
D13*
X89800000Y-82500000D03*
X94800000Y-82500000D03*
D12*
X64800000Y-82500000D03*
D13*
X69800000Y-82500000D03*
X74800000Y-82500000D03*
D14*
X65750000Y-108662500D03*
X65750000Y-106937500D03*
D15*
X57637500Y-120500000D03*
X59362500Y-120500000D03*
D11*
X65750000Y-93912500D03*
X65750000Y-92087500D03*
D16*
X34200000Y-102650000D03*
D17*
X34200000Y-105190000D03*
X34200000Y-107730000D03*
X34200000Y-110270000D03*
X34200000Y-112810000D03*
X34200000Y-115350000D03*
D12*
X44800000Y-82500000D03*
D13*
X49800000Y-82500000D03*
X54800000Y-82500000D03*
D14*
X67800000Y-108662500D03*
X67800000Y-106937500D03*
D16*
X77250000Y-114422500D03*
D18*
X74750000Y-114422500D03*
X74750000Y-116422500D03*
X77250000Y-116422500D03*
D19*
X82020000Y-119132500D03*
X69980000Y-119132500D03*
D11*
X81800000Y-94262500D03*
X81800000Y-92437500D03*
D20*
X34550000Y-93550000D03*
X41050000Y-93550000D03*
X34550000Y-98050000D03*
X41050000Y-98050000D03*
D21*
X53862500Y-104500000D03*
X52137500Y-104500000D03*
D14*
X81750000Y-110612500D03*
X81750000Y-108887500D03*
D22*
X72395000Y-101825000D03*
X73665000Y-101825000D03*
X74935000Y-101825000D03*
X76205000Y-101825000D03*
X76205000Y-96875000D03*
X74935000Y-96875000D03*
X73665000Y-96875000D03*
X72395000Y-96875000D03*
D23*
X51325000Y-108750000D03*
X51325000Y-109250000D03*
X51325000Y-109750000D03*
X51325000Y-110250000D03*
X51325000Y-110750000D03*
X51325000Y-111250000D03*
X51325000Y-111750000D03*
X51325000Y-112250000D03*
X51325000Y-112750000D03*
X51325000Y-113250000D03*
X51325000Y-113750000D03*
X51325000Y-114250000D03*
X51325000Y-114750000D03*
X51325000Y-115250000D03*
X51325000Y-115750000D03*
X51325000Y-116250000D03*
D24*
X53250000Y-118175000D03*
X53750000Y-118175000D03*
X54250000Y-118175000D03*
X54750000Y-118175000D03*
X55250000Y-118175000D03*
X55750000Y-118175000D03*
X56250000Y-118175000D03*
X56750000Y-118175000D03*
X57250000Y-118175000D03*
X57750000Y-118175000D03*
X58250000Y-118175000D03*
X58750000Y-118175000D03*
X59250000Y-118175000D03*
X59750000Y-118175000D03*
X60250000Y-118175000D03*
X60750000Y-118175000D03*
D23*
X62675000Y-116250000D03*
X62675000Y-115750000D03*
X62675000Y-115250000D03*
X62675000Y-114750000D03*
X62675000Y-114250000D03*
X62675000Y-113750000D03*
X62675000Y-113250000D03*
X62675000Y-112750000D03*
X62675000Y-112250000D03*
X62675000Y-111750000D03*
X62675000Y-111250000D03*
X62675000Y-110750000D03*
X62675000Y-110250000D03*
X62675000Y-109750000D03*
X62675000Y-109250000D03*
X62675000Y-108750000D03*
D24*
X60750000Y-106825000D03*
X60250000Y-106825000D03*
X59750000Y-106825000D03*
X59250000Y-106825000D03*
X58750000Y-106825000D03*
X58250000Y-106825000D03*
X57750000Y-106825000D03*
X57250000Y-106825000D03*
X56750000Y-106825000D03*
X56250000Y-106825000D03*
X55750000Y-106825000D03*
X55250000Y-106825000D03*
X54750000Y-106825000D03*
X54250000Y-106825000D03*
X53750000Y-106825000D03*
X53250000Y-106825000D03*
D15*
X61387500Y-120500000D03*
X63112500Y-120500000D03*
D10*
X55250000Y-92087500D03*
X55250000Y-93912500D03*
D21*
X58499266Y-122230094D03*
X56774266Y-122230094D03*
D11*
X63750000Y-93912500D03*
X63750000Y-92087500D03*
D21*
X58362500Y-125750000D03*
X56637500Y-125750000D03*
D11*
X79800000Y-94262500D03*
X79800000Y-92437500D03*
D22*
X61845000Y-101975000D03*
X63115000Y-101975000D03*
X64385000Y-101975000D03*
X65655000Y-101975000D03*
X65655000Y-97025000D03*
X64385000Y-97025000D03*
X63115000Y-97025000D03*
X61845000Y-97025000D03*
D25*
X43400000Y-110050000D03*
X43400000Y-114950000D03*
D10*
X83800000Y-92437500D03*
X83800000Y-94262500D03*
D11*
X72550000Y-94262500D03*
X72550000Y-92437500D03*
X51250000Y-93912500D03*
X51250000Y-92087500D03*
D26*
X49000000Y-115137500D03*
X49000000Y-116862500D03*
D15*
X57637500Y-124000000D03*
X59362500Y-124000000D03*
D10*
X76550000Y-92437500D03*
X76550000Y-94262500D03*
D22*
X79895000Y-101825000D03*
X81165000Y-101825000D03*
X82435000Y-101825000D03*
X83705000Y-101825000D03*
X83705000Y-96875000D03*
X82435000Y-96875000D03*
X81165000Y-96875000D03*
X79895000Y-96875000D03*
X51345000Y-101975000D03*
X52615000Y-101975000D03*
X53885000Y-101975000D03*
X55155000Y-101975000D03*
X55155000Y-97025000D03*
X53885000Y-97025000D03*
X52615000Y-97025000D03*
X51345000Y-97025000D03*
D11*
X53250000Y-93912500D03*
X53250000Y-92087500D03*
D27*
X88460000Y-115430000D03*
D28*
X91000000Y-115430000D03*
X93540000Y-115430000D03*
D16*
X46200000Y-93075000D03*
D17*
X46200000Y-95615000D03*
X46200000Y-98155000D03*
D29*
X36400000Y-82400000D03*
D30*
X68250000Y-114250000D03*
X69500000Y-108250000D03*
X70250000Y-116000000D03*
X60250000Y-92000000D03*
X62200000Y-118400000D03*
X82800000Y-98850000D03*
X92250000Y-110475000D03*
X56250000Y-124000000D03*
X61500000Y-121750000D03*
X77550000Y-97600000D03*
X80250000Y-108750000D03*
X37300000Y-111125000D03*
X50000000Y-92000000D03*
X78550000Y-93100000D03*
X67250000Y-96750000D03*
X55000000Y-103800000D03*
X55250000Y-95250000D03*
X71050000Y-92350000D03*
X49000000Y-113750000D03*
X62600000Y-107000000D03*
X78300000Y-96600000D03*
X56500000Y-93750000D03*
X60750000Y-96750000D03*
X38550000Y-93050000D03*
X49000000Y-118000000D03*
X70550000Y-96850000D03*
X77800000Y-92350000D03*
X85200000Y-92400000D03*
X50000000Y-97000000D03*
X52400000Y-106400000D03*
X50800000Y-104500000D03*
X69500000Y-106750000D03*
X67250000Y-92000000D03*
X63250000Y-121750000D03*
X59750000Y-125750000D03*
X90400000Y-90000000D03*
X87800000Y-89800000D03*
X112800000Y-89800000D03*
X108200000Y-89600000D03*
X54700000Y-90500000D03*
X49200000Y-93400000D03*
X70400000Y-90200000D03*
X65800000Y-90200000D03*
X61600000Y-106200000D03*
X55000000Y-105200000D03*
X49186759Y-104000000D03*
X72000000Y-113250000D03*
X70989613Y-112933071D03*
X63400000Y-118200000D03*
X81200000Y-104800000D03*
X64400000Y-116600000D03*
X78400000Y-103200000D03*
X64400000Y-115200000D03*
X81200000Y-103600000D03*
X57100000Y-108700000D03*
X57000000Y-111200000D03*
X57100000Y-113700000D03*
X57000000Y-116200000D03*
D31*
X76750000Y-110000000D02*
X81137500Y-110000000D01*
X93540000Y-114540000D02*
X93540000Y-115430000D01*
X72500000Y-114250000D02*
X76750000Y-110000000D01*
X81137500Y-110000000D02*
X81750000Y-110612500D01*
X68250000Y-114250000D02*
X72500000Y-114250000D01*
X89612500Y-110612500D02*
X93540000Y-114540000D01*
X81750000Y-110612500D02*
X89612500Y-110612500D01*
X67800000Y-108662500D02*
X69087500Y-108662500D01*
X65750000Y-108662500D02*
X67800000Y-108662500D01*
X55155000Y-96925000D02*
X55155000Y-95345000D01*
X55155000Y-95345000D02*
X55250000Y-95250000D01*
X71050000Y-92350000D02*
X71137500Y-92437500D01*
X71137500Y-92437500D02*
X72550000Y-92437500D01*
X54562500Y-103800000D02*
X53862500Y-104500000D01*
X57637500Y-124000000D02*
X56250000Y-124000000D01*
X60337500Y-92087500D02*
X60250000Y-92000000D01*
X57637500Y-119862500D02*
X57637500Y-120500000D01*
X56774266Y-123136766D02*
X57637500Y-124000000D01*
X79800000Y-92437500D02*
X79212500Y-92437500D01*
X49000000Y-115137500D02*
X49000000Y-113750000D01*
X61387500Y-121637500D02*
X61500000Y-121750000D01*
X65655000Y-96925000D02*
X67075000Y-96925000D01*
X57637500Y-124000000D02*
X57500000Y-124000000D01*
X51250000Y-92087500D02*
X50087500Y-92087500D01*
X53750000Y-106825000D02*
X53750000Y-104612500D01*
X58250000Y-118175000D02*
X58250000Y-119250000D01*
X56774266Y-121363234D02*
X57637500Y-120500000D01*
X60250000Y-118175000D02*
X60250000Y-119362500D01*
X83705000Y-97945000D02*
X83705000Y-96775000D01*
X60250000Y-119362500D02*
X61387500Y-120500000D01*
X51325000Y-115750000D02*
X49612500Y-115750000D01*
X56774266Y-122230094D02*
X56774266Y-121363234D01*
X55000000Y-103800000D02*
X54562500Y-103800000D01*
X67075000Y-96925000D02*
X67250000Y-96750000D01*
X76725000Y-96775000D02*
X77550000Y-97600000D01*
X81750000Y-108887500D02*
X80387500Y-108887500D01*
X62675000Y-109250000D02*
X65162500Y-109250000D01*
X69087500Y-108662500D02*
X69500000Y-108250000D01*
X65162500Y-109250000D02*
X65750000Y-108662500D01*
X76205000Y-96775000D02*
X76725000Y-96775000D01*
X53750000Y-104612500D02*
X53862500Y-104500000D01*
X56774266Y-122230094D02*
X56774266Y-123136766D01*
X79212500Y-92437500D02*
X78550000Y-93100000D01*
X58250000Y-119250000D02*
X57637500Y-119862500D01*
X80387500Y-108887500D02*
X80250000Y-108750000D01*
X49612500Y-115750000D02*
X49000000Y-115137500D01*
X56637500Y-124862500D02*
X56637500Y-125750000D01*
X82800000Y-98850000D02*
X83705000Y-97945000D01*
X50087500Y-92087500D02*
X50000000Y-92000000D01*
X61387500Y-120500000D02*
X61387500Y-121637500D01*
X61750000Y-92087500D02*
X60337500Y-92087500D01*
X57500000Y-124000000D02*
X56637500Y-124862500D01*
X34550000Y-98050000D02*
X36000000Y-99500000D01*
X36000000Y-99500000D02*
X36000000Y-111600000D01*
X42050000Y-98050000D02*
X41050000Y-98050000D01*
X34790000Y-112810000D02*
X34200000Y-112810000D01*
X36000000Y-111600000D02*
X34790000Y-112810000D01*
X53000000Y-109000000D02*
X42050000Y-98050000D01*
X53000000Y-111200000D02*
X53000000Y-109000000D01*
X51325000Y-111750000D02*
X52450000Y-111750000D01*
X52450000Y-111750000D02*
X53000000Y-111200000D01*
X62600000Y-107800000D02*
X62200000Y-108200000D01*
X60250000Y-107850000D02*
X60250000Y-106825000D01*
X60600000Y-108200000D02*
X60250000Y-107850000D01*
X62600000Y-107000000D02*
X62600000Y-107800000D01*
X62200000Y-108200000D02*
X60600000Y-108200000D01*
X43400000Y-110050000D02*
X44100000Y-110750000D01*
X44100000Y-110750000D02*
X51325000Y-110750000D01*
X47100000Y-111250000D02*
X43400000Y-114950000D01*
X51325000Y-111250000D02*
X47100000Y-111250000D01*
X65750000Y-106937500D02*
X67800000Y-106937500D01*
X51325000Y-116250000D02*
X49612500Y-116250000D01*
X53250000Y-105612500D02*
X52137500Y-104500000D01*
X50075000Y-96925000D02*
X50000000Y-97000000D01*
X78475000Y-96775000D02*
X78300000Y-96600000D01*
X56337500Y-93912500D02*
X56500000Y-93750000D01*
X53250000Y-106825000D02*
X53250000Y-105612500D01*
X72395000Y-96775000D02*
X70625000Y-96775000D01*
X52137500Y-104500000D02*
X50800000Y-104500000D01*
X76550000Y-92437500D02*
X77712500Y-92437500D01*
X63112500Y-121612500D02*
X63250000Y-121750000D01*
X63112500Y-120500000D02*
X63112500Y-121612500D01*
X59362500Y-124000000D02*
X59362500Y-125362500D01*
X49000000Y-116862500D02*
X49000000Y-118000000D01*
X63937500Y-108750000D02*
X65750000Y-106937500D01*
X79895000Y-96775000D02*
X78475000Y-96775000D01*
X85162500Y-92437500D02*
X85200000Y-92400000D01*
X60925000Y-96925000D02*
X60750000Y-96750000D01*
X58362500Y-125750000D02*
X59750000Y-125750000D01*
X49612500Y-116250000D02*
X49000000Y-116862500D01*
X55250000Y-93912500D02*
X56337500Y-93912500D01*
X59250000Y-118175000D02*
X59250000Y-120387500D01*
X58500000Y-120000000D02*
X58500000Y-122229360D01*
X51345000Y-96925000D02*
X50075000Y-96925000D01*
X58500000Y-122229360D02*
X58499266Y-122230094D01*
X63075000Y-120500000D02*
X63112500Y-120500000D01*
X58362500Y-125137500D02*
X58500000Y-125000000D01*
X60750000Y-118175000D02*
X63075000Y-120500000D01*
X58362500Y-125750000D02*
X58362500Y-125137500D01*
X70625000Y-96775000D02*
X70550000Y-96850000D01*
X67800000Y-106937500D02*
X67987500Y-106750000D01*
X58500000Y-125000000D02*
X58500000Y-122230828D01*
X67987500Y-106750000D02*
X69500000Y-106750000D01*
X58750000Y-119750000D02*
X58500000Y-120000000D01*
X65750000Y-92087500D02*
X67162500Y-92087500D01*
X58500000Y-122230828D02*
X58499266Y-122230094D01*
X62675000Y-108750000D02*
X63937500Y-108750000D01*
X59362500Y-125362500D02*
X59750000Y-125750000D01*
X67162500Y-92087500D02*
X67250000Y-92000000D01*
X83800000Y-92437500D02*
X85162500Y-92437500D01*
X59250000Y-120387500D02*
X59362500Y-120500000D01*
X61845000Y-96925000D02*
X60925000Y-96925000D01*
X77712500Y-92437500D02*
X77800000Y-92350000D01*
X58750000Y-118175000D02*
X58750000Y-119750000D01*
X59362500Y-124000000D02*
X59362500Y-120500000D01*
X74550000Y-96390000D02*
X74935000Y-96775000D01*
X75600000Y-91600000D02*
X75600000Y-91200000D01*
X87400000Y-90800000D02*
X88200000Y-90800000D01*
X87000000Y-90400000D02*
X87400000Y-90800000D01*
X75600000Y-91200000D02*
X76400000Y-90400000D01*
X74550000Y-94262500D02*
X74550000Y-96390000D01*
X74550000Y-94262500D02*
X74550000Y-94250000D01*
X88200000Y-90800000D02*
X89600000Y-90800000D01*
X75600000Y-93000000D02*
X75600000Y-91600000D01*
X74550000Y-94050000D02*
X75600000Y-93000000D01*
X74550000Y-94250000D02*
X74550000Y-94050000D01*
X76550000Y-94262500D02*
X74550000Y-94262500D01*
X76400000Y-90400000D02*
X86800000Y-90400000D01*
X86800000Y-90400000D02*
X87000000Y-90400000D01*
X89600000Y-90800000D02*
X90400000Y-90000000D01*
X74550000Y-90650000D02*
X75400000Y-89800000D01*
X74550000Y-92437500D02*
X74550000Y-90650000D01*
X72725000Y-94262500D02*
X74550000Y-92437500D01*
X73665000Y-96775000D02*
X73665000Y-95377500D01*
X73665000Y-95377500D02*
X72550000Y-94262500D01*
X72550000Y-94262500D02*
X72725000Y-94262500D01*
X75400000Y-89800000D02*
X87800000Y-89800000D01*
X112200000Y-90400000D02*
X107600000Y-90400000D01*
X83625000Y-94262500D02*
X81800000Y-92437500D01*
X92600000Y-90000000D02*
X90600000Y-92000000D01*
X82435000Y-95627500D02*
X83800000Y-94262500D01*
X87400000Y-92000000D02*
X85137500Y-94262500D01*
X107200000Y-90000000D02*
X92600000Y-90000000D01*
X107600000Y-90400000D02*
X107200000Y-90000000D01*
X83800000Y-94262500D02*
X83625000Y-94262500D01*
X82435000Y-96775000D02*
X82435000Y-95627500D01*
X85137500Y-94262500D02*
X83800000Y-94262500D01*
X112800000Y-89800000D02*
X112200000Y-90400000D01*
X90600000Y-92000000D02*
X87400000Y-92000000D01*
X79800000Y-94000000D02*
X80800000Y-93000000D01*
X81165000Y-94897500D02*
X81800000Y-94262500D01*
X80800000Y-92000000D02*
X80800000Y-91800000D01*
X79800000Y-94262500D02*
X79800000Y-94000000D01*
X80800000Y-91800000D02*
X81200000Y-91400000D01*
X108000000Y-89400000D02*
X108200000Y-89600000D01*
X92400000Y-89400000D02*
X108000000Y-89400000D01*
X90400000Y-91400000D02*
X92200000Y-89600000D01*
X80800000Y-93000000D02*
X80800000Y-92000000D01*
X81165000Y-96775000D02*
X81165000Y-94897500D01*
X81800000Y-94262500D02*
X79800000Y-94262500D01*
X81200000Y-91400000D02*
X88000000Y-91400000D01*
X88000000Y-91400000D02*
X90400000Y-91400000D01*
X92200000Y-89600000D02*
X92400000Y-89400000D01*
X53337500Y-92087500D02*
X53250000Y-92087500D01*
X54250000Y-93000000D02*
X55162500Y-92087500D01*
X53885000Y-95115000D02*
X54250000Y-94750000D01*
X55250000Y-91050000D02*
X54700000Y-90500000D01*
X53885000Y-96925000D02*
X53885000Y-95115000D01*
X55250000Y-92087500D02*
X55250000Y-91050000D01*
X54250000Y-93000000D02*
X53337500Y-92087500D01*
X55162500Y-92087500D02*
X55250000Y-92087500D01*
X54250000Y-94750000D02*
X54250000Y-93000000D01*
X51250000Y-93912500D02*
X49712500Y-93912500D01*
X52615000Y-96925000D02*
X52615000Y-95385000D01*
X49712500Y-93912500D02*
X49200000Y-93400000D01*
X53250000Y-94750000D02*
X53250000Y-93912500D01*
X52615000Y-95385000D02*
X53250000Y-94750000D01*
X51250000Y-93912500D02*
X53250000Y-93912500D01*
X68400000Y-91000000D02*
X69600000Y-91000000D01*
X64385000Y-96925000D02*
X64385000Y-95277500D01*
X63750000Y-91650000D02*
X64400000Y-91000000D01*
X64400000Y-91000000D02*
X68400000Y-91000000D01*
X63925000Y-92087500D02*
X65750000Y-93912500D01*
X63750000Y-92087500D02*
X63925000Y-92087500D01*
X63750000Y-92087500D02*
X63750000Y-91650000D01*
X64385000Y-95277500D02*
X65750000Y-93912500D01*
X69600000Y-91000000D02*
X70400000Y-90200000D01*
X62800000Y-91000000D02*
X63200000Y-90600000D01*
X61887500Y-93912500D02*
X62800000Y-93000000D01*
X61750000Y-93912500D02*
X61887500Y-93912500D01*
X63200000Y-90600000D02*
X63600000Y-90200000D01*
X63115000Y-96925000D02*
X63115000Y-94547500D01*
X63115000Y-94547500D02*
X63750000Y-93912500D01*
X63600000Y-90200000D02*
X65800000Y-90200000D01*
X62800000Y-93000000D02*
X62800000Y-91000000D01*
X61750000Y-93912500D02*
X63750000Y-93912500D01*
X61600000Y-106200000D02*
X60975000Y-106825000D01*
X60975000Y-106825000D02*
X60750000Y-106825000D01*
X49186759Y-98601759D02*
X46200000Y-95615000D01*
X49186759Y-104000000D02*
X49186759Y-98601759D01*
X54750000Y-105450000D02*
X54750000Y-106825000D01*
X55000000Y-105200000D02*
X54750000Y-105450000D01*
X72000000Y-111000000D02*
X72000000Y-113250000D01*
X70750000Y-109750000D02*
X72000000Y-111000000D01*
X62675000Y-109750000D02*
X70750000Y-109750000D01*
X70989613Y-112933071D02*
X70989613Y-111739613D01*
X66500000Y-110250000D02*
X62675000Y-110250000D01*
X68600000Y-110550000D02*
X68600000Y-110714732D01*
X70989613Y-111739613D02*
X69500000Y-110250000D01*
X69500000Y-110250000D02*
X68900000Y-110250000D01*
X66800000Y-110714732D02*
X66800000Y-110550000D01*
X68000000Y-110714732D02*
X68000000Y-110550000D01*
X67400000Y-110550000D02*
X67400000Y-110714732D01*
X68000000Y-110714732D02*
G75*
G03*
X68300000Y-111014732I300000J0D01*
G01*
X67700000Y-110250000D02*
G75*
G02*
X68000000Y-110550000I0J-300000D01*
G01*
X68300000Y-111014732D02*
G75*
G03*
X68600000Y-110714732I0J300000D01*
G01*
X66500000Y-110250000D02*
G75*
G02*
X66800000Y-110550000I0J-300000D01*
G01*
X68600000Y-110550000D02*
G75*
G02*
X68900000Y-110250000I300000J0D01*
G01*
X66800000Y-110714732D02*
G75*
G03*
X67100000Y-111014732I300000J0D01*
G01*
X67100000Y-111014732D02*
G75*
G03*
X67400000Y-110714732I0J300000D01*
G01*
X67400000Y-110550000D02*
G75*
G02*
X67700000Y-110250000I300000J0D01*
G01*
X83705000Y-101825000D02*
X83705000Y-102695000D01*
X83705000Y-102695000D02*
X81600000Y-104800000D01*
X62000000Y-116800000D02*
X60200000Y-116800000D01*
X63400000Y-118200000D02*
X62000000Y-116800000D01*
X59750000Y-117250000D02*
X59750000Y-118175000D01*
X60200000Y-116800000D02*
X59750000Y-117250000D01*
X81600000Y-104800000D02*
X81200000Y-104800000D01*
X62675000Y-116250000D02*
X64050000Y-116250000D01*
X79775000Y-101825000D02*
X79895000Y-101825000D01*
X64050000Y-116250000D02*
X64400000Y-116600000D01*
X78400000Y-103200000D02*
X79775000Y-101825000D01*
X81200000Y-101860000D02*
X81165000Y-101825000D01*
X62675000Y-115750000D02*
X63850000Y-115750000D01*
X81165000Y-101825000D02*
X82435000Y-101825000D01*
X81200000Y-103600000D02*
X81200000Y-101860000D01*
X63850000Y-115750000D02*
X64400000Y-115200000D01*
X57250000Y-106825000D02*
X57250000Y-103550000D01*
X65655000Y-102745000D02*
X65655000Y-101975000D01*
X57400000Y-103400000D02*
X65000000Y-103400000D01*
X65000000Y-103400000D02*
X65655000Y-102745000D01*
X57250000Y-103550000D02*
X57400000Y-103400000D01*
X56750000Y-106825000D02*
X56750000Y-102650000D01*
X56750000Y-102650000D02*
X57425000Y-101975000D01*
X57425000Y-101975000D02*
X61845000Y-101975000D01*
X63115000Y-101975000D02*
X64385000Y-101975000D01*
X64800000Y-100200000D02*
X64385000Y-100615000D01*
X58250000Y-106825000D02*
X58250000Y-105150000D01*
X58250000Y-105150000D02*
X59500000Y-103900000D01*
X59500000Y-103900000D02*
X65500000Y-103900000D01*
X66400000Y-103000000D02*
X66400000Y-100600000D01*
X65500000Y-103900000D02*
X66400000Y-103000000D01*
X66000000Y-100200000D02*
X64800000Y-100200000D01*
X64385000Y-100615000D02*
X64385000Y-101975000D01*
X66400000Y-100600000D02*
X66000000Y-100200000D01*
X60000000Y-104900000D02*
X74300000Y-104900000D01*
X59250000Y-106825000D02*
X59250000Y-105650000D01*
X76205000Y-102995000D02*
X76205000Y-101825000D01*
X59250000Y-105650000D02*
X60000000Y-104900000D01*
X74300000Y-104900000D02*
X76205000Y-102995000D01*
X58750000Y-105450000D02*
X59800000Y-104400000D01*
X69820000Y-104400000D02*
X72395000Y-101825000D01*
X59800000Y-104400000D02*
X69820000Y-104400000D01*
X58750000Y-106825000D02*
X58750000Y-105450000D01*
X56250000Y-106825000D02*
X56250000Y-101050000D01*
X53885000Y-100915000D02*
X53885000Y-101975000D01*
X54600000Y-100200000D02*
X53885000Y-100915000D01*
X52615000Y-101975000D02*
X53885000Y-101975000D01*
X55400000Y-100200000D02*
X54600000Y-100200000D01*
X56250000Y-101050000D02*
X55400000Y-100200000D01*
X55750000Y-102570000D02*
X55750000Y-106825000D01*
X55155000Y-101975000D02*
X55750000Y-102570000D01*
X50000000Y-103320000D02*
X50000000Y-105200000D01*
X55250000Y-107950000D02*
X55250000Y-106825000D01*
X51345000Y-101975000D02*
X50000000Y-103320000D01*
X53000000Y-108200000D02*
X55000000Y-108200000D01*
X50000000Y-105200000D02*
X53000000Y-108200000D01*
X55000000Y-108200000D02*
X55250000Y-107950000D01*
X74935000Y-101825000D02*
X74935000Y-100665000D01*
X74935000Y-100665000D02*
X75400000Y-100200000D01*
X60200000Y-105400000D02*
X74800000Y-105400000D01*
X59750000Y-105850000D02*
X60200000Y-105400000D01*
X77200000Y-103000000D02*
X74800000Y-105400000D01*
X76600000Y-100200000D02*
X77200000Y-100800000D01*
X59750000Y-106825000D02*
X59750000Y-105850000D01*
X77200000Y-100800000D02*
X77200000Y-103000000D01*
X75400000Y-100200000D02*
X76600000Y-100200000D01*
X73665000Y-101825000D02*
X74935000Y-101825000D01*
X56200000Y-109600000D02*
X57100000Y-108700000D01*
X53750000Y-114250000D02*
X56200000Y-111800000D01*
X51325000Y-114250000D02*
X53750000Y-114250000D01*
X56200000Y-111800000D02*
X56200000Y-109600000D01*
X57000000Y-112400000D02*
X57000000Y-111200000D01*
X51325000Y-114750000D02*
X54650000Y-114750000D01*
X54650000Y-114750000D02*
X57000000Y-112400000D01*
X51325000Y-115250000D02*
X55550000Y-115250000D01*
X55550000Y-115250000D02*
X57100000Y-113700000D01*
X53250000Y-117150000D02*
X53250000Y-118175000D01*
X57000000Y-116200000D02*
X54200000Y-116200000D01*
X54200000Y-116200000D02*
X53250000Y-117150000D01*
M02*
