G04 #@! TF.GenerationSoftware,KiCad,Pcbnew,(6.0.1)*
G04 #@! TF.CreationDate,2022-08-11T12:27:20+02:00*
G04 #@! TF.ProjectId,DMX,444d582e-6b69-4636-9164-5f7063625858,rev?*
G04 #@! TF.SameCoordinates,Original*
G04 #@! TF.FileFunction,Copper,L3,Inr*
G04 #@! TF.FilePolarity,Positive*
%FSLAX46Y46*%
G04 Gerber Fmt 4.6, Leading zero omitted, Abs format (unit mm)*
G04 Created by KiCad (PCBNEW (6.0.1)) date 2022-08-11 12:27:20*
%MOMM*%
%LPD*%
G01*
G04 APERTURE LIST*
G04 #@! TA.AperFunction,ComponentPad*
%ADD10R,1.980000X3.960000*%
G04 #@! TD*
G04 #@! TA.AperFunction,ComponentPad*
%ADD11O,1.980000X3.960000*%
G04 #@! TD*
G04 #@! TA.AperFunction,ComponentPad*
%ADD12R,1.700000X1.700000*%
G04 #@! TD*
G04 #@! TA.AperFunction,ComponentPad*
%ADD13O,1.700000X1.700000*%
G04 #@! TD*
G04 #@! TA.AperFunction,ComponentPad*
%ADD14C,1.700000*%
G04 #@! TD*
G04 #@! TA.AperFunction,ComponentPad*
%ADD15C,3.500000*%
G04 #@! TD*
G04 #@! TA.AperFunction,ComponentPad*
%ADD16C,2.000000*%
G04 #@! TD*
G04 #@! TA.AperFunction,ComponentPad*
%ADD17C,1.500000*%
G04 #@! TD*
G04 #@! TA.AperFunction,ComponentPad*
%ADD18R,1.905000X2.000000*%
G04 #@! TD*
G04 #@! TA.AperFunction,ComponentPad*
%ADD19O,1.905000X2.000000*%
G04 #@! TD*
G04 #@! TA.AperFunction,ComponentPad*
%ADD20C,7.500000*%
G04 #@! TD*
G04 #@! TA.AperFunction,ViaPad*
%ADD21C,0.800000*%
G04 #@! TD*
G04 APERTURE END LIST*
D10*
X104800000Y-82500000D03*
D11*
X109800000Y-82500000D03*
X114800000Y-82500000D03*
D10*
X84800000Y-82500000D03*
D11*
X89800000Y-82500000D03*
X94800000Y-82500000D03*
D10*
X64800000Y-82500000D03*
D11*
X69800000Y-82500000D03*
X74800000Y-82500000D03*
D12*
X34200000Y-102650000D03*
D13*
X34200000Y-105190000D03*
X34200000Y-107730000D03*
X34200000Y-110270000D03*
X34200000Y-112810000D03*
X34200000Y-115350000D03*
D10*
X44800000Y-82500000D03*
D11*
X49800000Y-82500000D03*
X54800000Y-82500000D03*
D12*
X77250000Y-114422500D03*
D14*
X74750000Y-114422500D03*
X74750000Y-116422500D03*
X77250000Y-116422500D03*
D15*
X82020000Y-119132500D03*
X69980000Y-119132500D03*
D16*
X34550000Y-93550000D03*
X41050000Y-93550000D03*
X34550000Y-98050000D03*
X41050000Y-98050000D03*
D17*
X43400000Y-110050000D03*
X43400000Y-114950000D03*
D18*
X88460000Y-115430000D03*
D19*
X91000000Y-115430000D03*
X93540000Y-115430000D03*
D12*
X46200000Y-93075000D03*
D13*
X46200000Y-95615000D03*
X46200000Y-98155000D03*
D20*
X36400000Y-82400000D03*
D21*
X68250000Y-114250000D03*
X69500000Y-108250000D03*
X70250000Y-116000000D03*
X60250000Y-92000000D03*
X62200000Y-118400000D03*
X82800000Y-98850000D03*
X92250000Y-110475000D03*
X56250000Y-124000000D03*
X61500000Y-121750000D03*
X77550000Y-97600000D03*
X80250000Y-108750000D03*
X37300000Y-111125000D03*
X50000000Y-92000000D03*
X78550000Y-93100000D03*
X67250000Y-96750000D03*
X55000000Y-103800000D03*
X55250000Y-95250000D03*
X71050000Y-92350000D03*
X49000000Y-113750000D03*
X62600000Y-107000000D03*
X78300000Y-96600000D03*
X56500000Y-93750000D03*
X60750000Y-96750000D03*
X38550000Y-93050000D03*
X49000000Y-118000000D03*
X70550000Y-96850000D03*
X77800000Y-92350000D03*
X85200000Y-92400000D03*
X50000000Y-97000000D03*
X52400000Y-106400000D03*
X50800000Y-104500000D03*
X69500000Y-106750000D03*
X67250000Y-92000000D03*
X63250000Y-121750000D03*
X59750000Y-125750000D03*
X90400000Y-90000000D03*
X87800000Y-89800000D03*
X112800000Y-89800000D03*
X108200000Y-89600000D03*
X54700000Y-90500000D03*
X49200000Y-93400000D03*
X70400000Y-90200000D03*
X65800000Y-90200000D03*
X61600000Y-106200000D03*
X55000000Y-105200000D03*
X49186759Y-104000000D03*
X72000000Y-113250000D03*
X70989613Y-112933071D03*
X63400000Y-118200000D03*
X81200000Y-104800000D03*
X64400000Y-116600000D03*
X78400000Y-103200000D03*
X64400000Y-115200000D03*
X81200000Y-103600000D03*
X57100000Y-108700000D03*
X57000000Y-111200000D03*
X57100000Y-113700000D03*
X57000000Y-116200000D03*
G04 #@! TA.AperFunction,Conductor*
G36*
X130667121Y-75295002D02*
G01*
X130713614Y-75348658D01*
X130725000Y-75401000D01*
X130725000Y-91899000D01*
X130704998Y-91967121D01*
X130651342Y-92013614D01*
X130599000Y-92025000D01*
X96504973Y-92025000D01*
X96504973Y-92024977D01*
X96504933Y-92024983D01*
X96500000Y-92022940D01*
X96495027Y-92025000D01*
X96480866Y-92030866D01*
X96472940Y-92050000D01*
X96475000Y-92054973D01*
X96475000Y-92071830D01*
X96474971Y-92072366D01*
X96475000Y-92072567D01*
X96475000Y-127349000D01*
X96454998Y-127417121D01*
X96401342Y-127463614D01*
X96349000Y-127475000D01*
X30901000Y-127475000D01*
X30832879Y-127454998D01*
X30786386Y-127401342D01*
X30775000Y-127349000D01*
X30775000Y-125750000D01*
X59144318Y-125750000D01*
X59164956Y-125906762D01*
X59225464Y-126052841D01*
X59321718Y-126178282D01*
X59447159Y-126274536D01*
X59593238Y-126335044D01*
X59750000Y-126355682D01*
X59758188Y-126354604D01*
X59898574Y-126336122D01*
X59906762Y-126335044D01*
X60052841Y-126274536D01*
X60178282Y-126178282D01*
X60274536Y-126052841D01*
X60335044Y-125906762D01*
X60355682Y-125750000D01*
X60335044Y-125593238D01*
X60274536Y-125447159D01*
X60178282Y-125321718D01*
X60052841Y-125225464D01*
X59906762Y-125164956D01*
X59750000Y-125144318D01*
X59593238Y-125164956D01*
X59447159Y-125225464D01*
X59321718Y-125321718D01*
X59225464Y-125447159D01*
X59164956Y-125593238D01*
X59144318Y-125750000D01*
X30775000Y-125750000D01*
X30775000Y-123242095D01*
X34945028Y-123242095D01*
X34970534Y-123509431D01*
X35034364Y-123770285D01*
X35135182Y-124019192D01*
X35270875Y-124250938D01*
X35273728Y-124254505D01*
X35385225Y-124393925D01*
X35438601Y-124460669D01*
X35634846Y-124643991D01*
X35727039Y-124707948D01*
X35851746Y-124794461D01*
X35851751Y-124794464D01*
X35855499Y-124797064D01*
X35859584Y-124799096D01*
X35859587Y-124799098D01*
X35975718Y-124856872D01*
X36095938Y-124916680D01*
X36100272Y-124918101D01*
X36100275Y-124918102D01*
X36346793Y-124998915D01*
X36346798Y-124998916D01*
X36351126Y-125000335D01*
X36355617Y-125001115D01*
X36355618Y-125001115D01*
X36611936Y-125045620D01*
X36611944Y-125045621D01*
X36615717Y-125046276D01*
X36619554Y-125046467D01*
X36698996Y-125050422D01*
X36699004Y-125050422D01*
X36700567Y-125050500D01*
X36868223Y-125050500D01*
X36870491Y-125050335D01*
X36870503Y-125050335D01*
X37000823Y-125040879D01*
X37067846Y-125036016D01*
X37072301Y-125035032D01*
X37072304Y-125035032D01*
X37325620Y-124979105D01*
X37325624Y-124979104D01*
X37330080Y-124978120D01*
X37497617Y-124914646D01*
X37576941Y-124884593D01*
X37576944Y-124884592D01*
X37581211Y-124882975D01*
X37815976Y-124752574D01*
X37958254Y-124643991D01*
X38025833Y-124592417D01*
X38025837Y-124592413D01*
X38029458Y-124589650D01*
X38217185Y-124397614D01*
X38375225Y-124180491D01*
X38462313Y-124014963D01*
X38498140Y-123946868D01*
X38498143Y-123946862D01*
X38500265Y-123942828D01*
X38559703Y-123774515D01*
X38588165Y-123693916D01*
X38588165Y-123693915D01*
X38589688Y-123689603D01*
X38641620Y-123426122D01*
X38641847Y-123421566D01*
X38650781Y-123242095D01*
X88945028Y-123242095D01*
X88970534Y-123509431D01*
X89034364Y-123770285D01*
X89135182Y-124019192D01*
X89270875Y-124250938D01*
X89273728Y-124254505D01*
X89385225Y-124393925D01*
X89438601Y-124460669D01*
X89634846Y-124643991D01*
X89727039Y-124707948D01*
X89851746Y-124794461D01*
X89851751Y-124794464D01*
X89855499Y-124797064D01*
X89859584Y-124799096D01*
X89859587Y-124799098D01*
X89975718Y-124856872D01*
X90095938Y-124916680D01*
X90100272Y-124918101D01*
X90100275Y-124918102D01*
X90346793Y-124998915D01*
X90346798Y-124998916D01*
X90351126Y-125000335D01*
X90355617Y-125001115D01*
X90355618Y-125001115D01*
X90611936Y-125045620D01*
X90611944Y-125045621D01*
X90615717Y-125046276D01*
X90619554Y-125046467D01*
X90698996Y-125050422D01*
X90699004Y-125050422D01*
X90700567Y-125050500D01*
X90868223Y-125050500D01*
X90870491Y-125050335D01*
X90870503Y-125050335D01*
X91000823Y-125040879D01*
X91067846Y-125036016D01*
X91072301Y-125035032D01*
X91072304Y-125035032D01*
X91325620Y-124979105D01*
X91325624Y-124979104D01*
X91330080Y-124978120D01*
X91497617Y-124914646D01*
X91576941Y-124884593D01*
X91576944Y-124884592D01*
X91581211Y-124882975D01*
X91815976Y-124752574D01*
X91958254Y-124643991D01*
X92025833Y-124592417D01*
X92025837Y-124592413D01*
X92029458Y-124589650D01*
X92217185Y-124397614D01*
X92375225Y-124180491D01*
X92462313Y-124014963D01*
X92498140Y-123946868D01*
X92498143Y-123946862D01*
X92500265Y-123942828D01*
X92559703Y-123774515D01*
X92588165Y-123693916D01*
X92588165Y-123693915D01*
X92589688Y-123689603D01*
X92641620Y-123426122D01*
X92641847Y-123421566D01*
X92654745Y-123162474D01*
X92654745Y-123162468D01*
X92654972Y-123157905D01*
X92629466Y-122890569D01*
X92565636Y-122629715D01*
X92464818Y-122380808D01*
X92329125Y-122149062D01*
X92218211Y-122010371D01*
X92164251Y-121942897D01*
X92164250Y-121942895D01*
X92161399Y-121939331D01*
X91965154Y-121756009D01*
X91805436Y-121645208D01*
X91748254Y-121605539D01*
X91748249Y-121605536D01*
X91744501Y-121602936D01*
X91740416Y-121600904D01*
X91740413Y-121600902D01*
X91568560Y-121515407D01*
X91504062Y-121483320D01*
X91499728Y-121481899D01*
X91499725Y-121481898D01*
X91253207Y-121401085D01*
X91253202Y-121401084D01*
X91248874Y-121399665D01*
X91222439Y-121395075D01*
X90988064Y-121354380D01*
X90988056Y-121354379D01*
X90984283Y-121353724D01*
X90975622Y-121353293D01*
X90901004Y-121349578D01*
X90900996Y-121349578D01*
X90899433Y-121349500D01*
X90731777Y-121349500D01*
X90729509Y-121349665D01*
X90729497Y-121349665D01*
X90599177Y-121359121D01*
X90532154Y-121363984D01*
X90527699Y-121364968D01*
X90527696Y-121364968D01*
X90274380Y-121420895D01*
X90274376Y-121420896D01*
X90269920Y-121421880D01*
X90183058Y-121454789D01*
X90023059Y-121515407D01*
X90023056Y-121515408D01*
X90018789Y-121517025D01*
X89784024Y-121647426D01*
X89780392Y-121650198D01*
X89574167Y-121807583D01*
X89574163Y-121807587D01*
X89570542Y-121810350D01*
X89382815Y-122002386D01*
X89224775Y-122219509D01*
X89165652Y-122331884D01*
X89101860Y-122453132D01*
X89101857Y-122453138D01*
X89099735Y-122457172D01*
X89098215Y-122461477D01*
X89098213Y-122461481D01*
X89038804Y-122629715D01*
X89010312Y-122710397D01*
X88958380Y-122973878D01*
X88958153Y-122978431D01*
X88958153Y-122978434D01*
X88948992Y-123162474D01*
X88945028Y-123242095D01*
X38650781Y-123242095D01*
X38654745Y-123162474D01*
X38654745Y-123162468D01*
X38654972Y-123157905D01*
X38629466Y-122890569D01*
X38565636Y-122629715D01*
X38464818Y-122380808D01*
X38329125Y-122149062D01*
X38218211Y-122010371D01*
X38164251Y-121942897D01*
X38164250Y-121942895D01*
X38161399Y-121939331D01*
X37965154Y-121756009D01*
X37956492Y-121750000D01*
X62644318Y-121750000D01*
X62664956Y-121906762D01*
X62725464Y-122052841D01*
X62821718Y-122178282D01*
X62947159Y-122274536D01*
X63093238Y-122335044D01*
X63250000Y-122355682D01*
X63258188Y-122354604D01*
X63398574Y-122336122D01*
X63406762Y-122335044D01*
X63552841Y-122274536D01*
X63678282Y-122178282D01*
X63774536Y-122052841D01*
X63835044Y-121906762D01*
X63855682Y-121750000D01*
X63835044Y-121593238D01*
X63774536Y-121447159D01*
X63678282Y-121321718D01*
X63552841Y-121225464D01*
X63406762Y-121164956D01*
X63250000Y-121144318D01*
X63093238Y-121164956D01*
X62947159Y-121225464D01*
X62821718Y-121321718D01*
X62725464Y-121447159D01*
X62664956Y-121593238D01*
X62644318Y-121750000D01*
X37956492Y-121750000D01*
X37805436Y-121645208D01*
X37748254Y-121605539D01*
X37748249Y-121605536D01*
X37744501Y-121602936D01*
X37740416Y-121600904D01*
X37740413Y-121600902D01*
X37568560Y-121515407D01*
X37504062Y-121483320D01*
X37499728Y-121481899D01*
X37499725Y-121481898D01*
X37253207Y-121401085D01*
X37253202Y-121401084D01*
X37248874Y-121399665D01*
X37222439Y-121395075D01*
X36988064Y-121354380D01*
X36988056Y-121354379D01*
X36984283Y-121353724D01*
X36975622Y-121353293D01*
X36901004Y-121349578D01*
X36900996Y-121349578D01*
X36899433Y-121349500D01*
X36731777Y-121349500D01*
X36729509Y-121349665D01*
X36729497Y-121349665D01*
X36599177Y-121359121D01*
X36532154Y-121363984D01*
X36527699Y-121364968D01*
X36527696Y-121364968D01*
X36274380Y-121420895D01*
X36274376Y-121420896D01*
X36269920Y-121421880D01*
X36183058Y-121454789D01*
X36023059Y-121515407D01*
X36023056Y-121515408D01*
X36018789Y-121517025D01*
X35784024Y-121647426D01*
X35780392Y-121650198D01*
X35574167Y-121807583D01*
X35574163Y-121807587D01*
X35570542Y-121810350D01*
X35382815Y-122002386D01*
X35224775Y-122219509D01*
X35165652Y-122331884D01*
X35101860Y-122453132D01*
X35101857Y-122453138D01*
X35099735Y-122457172D01*
X35098215Y-122461477D01*
X35098213Y-122461481D01*
X35038804Y-122629715D01*
X35010312Y-122710397D01*
X34958380Y-122973878D01*
X34958153Y-122978431D01*
X34958153Y-122978434D01*
X34948992Y-123162474D01*
X34945028Y-123242095D01*
X30775000Y-123242095D01*
X30775000Y-120901356D01*
X68576601Y-120901356D01*
X68583059Y-120910716D01*
X68599361Y-120925012D01*
X68605901Y-120930030D01*
X68845144Y-121089887D01*
X68852281Y-121094008D01*
X69110349Y-121221272D01*
X69117953Y-121224422D01*
X69390420Y-121316912D01*
X69398383Y-121319046D01*
X69680600Y-121375183D01*
X69688751Y-121376256D01*
X69975881Y-121395075D01*
X69984119Y-121395075D01*
X70271249Y-121376256D01*
X70279400Y-121375183D01*
X70561617Y-121319046D01*
X70569580Y-121316912D01*
X70842047Y-121224422D01*
X70849651Y-121221272D01*
X71107719Y-121094008D01*
X71114856Y-121089887D01*
X71354099Y-120930030D01*
X71360639Y-120925012D01*
X71375074Y-120912353D01*
X71382050Y-120901356D01*
X80616601Y-120901356D01*
X80623059Y-120910716D01*
X80639361Y-120925012D01*
X80645901Y-120930030D01*
X80885144Y-121089887D01*
X80892281Y-121094008D01*
X81150349Y-121221272D01*
X81157953Y-121224422D01*
X81430420Y-121316912D01*
X81438383Y-121319046D01*
X81720600Y-121375183D01*
X81728751Y-121376256D01*
X82015881Y-121395075D01*
X82024119Y-121395075D01*
X82311249Y-121376256D01*
X82319400Y-121375183D01*
X82601617Y-121319046D01*
X82609580Y-121316912D01*
X82882047Y-121224422D01*
X82889651Y-121221272D01*
X83147719Y-121094008D01*
X83154856Y-121089887D01*
X83394099Y-120930030D01*
X83400639Y-120925012D01*
X83415074Y-120912353D01*
X83423472Y-120899114D01*
X83417638Y-120889349D01*
X82032810Y-119504520D01*
X82018869Y-119496908D01*
X82017034Y-119497039D01*
X82010420Y-119501290D01*
X80624116Y-120887595D01*
X80616601Y-120901356D01*
X71382050Y-120901356D01*
X71383472Y-120899114D01*
X71377638Y-120889349D01*
X69992810Y-119504520D01*
X69978869Y-119496908D01*
X69977034Y-119497039D01*
X69970420Y-119501290D01*
X68584116Y-120887595D01*
X68576601Y-120901356D01*
X30775000Y-120901356D01*
X30775000Y-119136619D01*
X67717425Y-119136619D01*
X67736244Y-119423749D01*
X67737317Y-119431900D01*
X67793454Y-119714117D01*
X67795588Y-119722080D01*
X67888078Y-119994547D01*
X67891228Y-120002151D01*
X68018492Y-120260218D01*
X68022613Y-120267355D01*
X68182470Y-120506599D01*
X68187488Y-120513139D01*
X68200147Y-120527574D01*
X68213386Y-120535972D01*
X68223151Y-120530138D01*
X69607980Y-119145310D01*
X69614357Y-119133631D01*
X70344408Y-119133631D01*
X70344539Y-119135466D01*
X70348790Y-119142080D01*
X71735095Y-120528384D01*
X71748856Y-120535899D01*
X71758216Y-120529441D01*
X71772512Y-120513139D01*
X71777530Y-120506599D01*
X71937387Y-120267355D01*
X71941508Y-120260218D01*
X72068772Y-120002151D01*
X72071922Y-119994547D01*
X72164412Y-119722080D01*
X72166546Y-119714117D01*
X72222683Y-119431900D01*
X72223756Y-119423749D01*
X72242575Y-119136619D01*
X79757425Y-119136619D01*
X79776244Y-119423749D01*
X79777317Y-119431900D01*
X79833454Y-119714117D01*
X79835588Y-119722080D01*
X79928078Y-119994547D01*
X79931228Y-120002151D01*
X80058492Y-120260218D01*
X80062613Y-120267355D01*
X80222470Y-120506599D01*
X80227488Y-120513139D01*
X80240147Y-120527574D01*
X80253386Y-120535972D01*
X80263151Y-120530138D01*
X81647980Y-119145310D01*
X81654357Y-119133631D01*
X82384408Y-119133631D01*
X82384539Y-119135466D01*
X82388790Y-119142080D01*
X83775095Y-120528384D01*
X83788856Y-120535899D01*
X83798216Y-120529441D01*
X83812512Y-120513139D01*
X83817530Y-120506599D01*
X83977387Y-120267355D01*
X83981508Y-120260218D01*
X84108772Y-120002151D01*
X84111922Y-119994547D01*
X84204412Y-119722080D01*
X84206546Y-119714117D01*
X84262683Y-119431900D01*
X84263756Y-119423749D01*
X84282575Y-119136619D01*
X84282575Y-119128381D01*
X84263756Y-118841251D01*
X84262683Y-118833100D01*
X84206546Y-118550883D01*
X84204412Y-118542920D01*
X84111922Y-118270453D01*
X84108772Y-118262849D01*
X83981508Y-118004782D01*
X83977387Y-117997645D01*
X83817530Y-117758401D01*
X83812512Y-117751861D01*
X83799853Y-117737426D01*
X83786614Y-117729028D01*
X83776849Y-117734862D01*
X82392020Y-119119690D01*
X82384408Y-119133631D01*
X81654357Y-119133631D01*
X81655592Y-119131369D01*
X81655461Y-119129534D01*
X81651210Y-119122920D01*
X80264905Y-117736616D01*
X80251144Y-117729101D01*
X80241784Y-117735559D01*
X80227488Y-117751861D01*
X80222470Y-117758401D01*
X80062613Y-117997645D01*
X80058492Y-118004782D01*
X79931228Y-118262849D01*
X79928078Y-118270453D01*
X79835588Y-118542920D01*
X79833454Y-118550883D01*
X79777317Y-118833100D01*
X79776244Y-118841251D01*
X79757425Y-119128381D01*
X79757425Y-119136619D01*
X72242575Y-119136619D01*
X72242575Y-119128381D01*
X72223756Y-118841251D01*
X72222683Y-118833100D01*
X72166546Y-118550883D01*
X72164412Y-118542920D01*
X72071922Y-118270453D01*
X72068772Y-118262849D01*
X71941508Y-118004782D01*
X71937387Y-117997645D01*
X71777530Y-117758401D01*
X71772512Y-117751861D01*
X71759853Y-117737426D01*
X71746614Y-117729028D01*
X71736849Y-117734862D01*
X70352020Y-119119690D01*
X70344408Y-119133631D01*
X69614357Y-119133631D01*
X69615592Y-119131369D01*
X69615461Y-119129534D01*
X69611210Y-119122920D01*
X68224905Y-117736616D01*
X68211144Y-117729101D01*
X68201784Y-117735559D01*
X68187488Y-117751861D01*
X68182470Y-117758401D01*
X68022613Y-117997645D01*
X68018492Y-118004782D01*
X67891228Y-118262849D01*
X67888078Y-118270453D01*
X67795588Y-118542920D01*
X67793454Y-118550883D01*
X67737317Y-118833100D01*
X67736244Y-118841251D01*
X67717425Y-119128381D01*
X67717425Y-119136619D01*
X30775000Y-119136619D01*
X30775000Y-118000000D01*
X48394318Y-118000000D01*
X48414956Y-118156762D01*
X48475464Y-118302841D01*
X48571718Y-118428282D01*
X48697159Y-118524536D01*
X48843238Y-118585044D01*
X49000000Y-118605682D01*
X49008188Y-118604604D01*
X49148574Y-118586122D01*
X49156762Y-118585044D01*
X49302841Y-118524536D01*
X49428282Y-118428282D01*
X49524536Y-118302841D01*
X49567134Y-118200000D01*
X62794318Y-118200000D01*
X62814956Y-118356762D01*
X62875464Y-118502841D01*
X62971718Y-118628282D01*
X63097159Y-118724536D01*
X63243238Y-118785044D01*
X63400000Y-118805682D01*
X63408188Y-118804604D01*
X63548574Y-118786122D01*
X63556762Y-118785044D01*
X63702841Y-118724536D01*
X63828282Y-118628282D01*
X63924536Y-118502841D01*
X63985044Y-118356762D01*
X64005682Y-118200000D01*
X63985044Y-118043238D01*
X63924536Y-117897159D01*
X63828282Y-117771718D01*
X63702841Y-117675464D01*
X63556762Y-117614956D01*
X63400000Y-117594318D01*
X63243238Y-117614956D01*
X63097159Y-117675464D01*
X62971718Y-117771718D01*
X62875464Y-117897159D01*
X62814956Y-118043238D01*
X62794318Y-118200000D01*
X49567134Y-118200000D01*
X49585044Y-118156762D01*
X49605682Y-118000000D01*
X49585044Y-117843238D01*
X49524536Y-117697159D01*
X49446451Y-117595396D01*
X49433305Y-117578264D01*
X49428282Y-117571718D01*
X49408089Y-117556223D01*
X49380395Y-117534973D01*
X49302841Y-117475464D01*
X49156762Y-117414956D01*
X49000000Y-117394318D01*
X48843238Y-117414956D01*
X48697159Y-117475464D01*
X48619605Y-117534973D01*
X48591912Y-117556223D01*
X48571718Y-117571718D01*
X48566695Y-117578264D01*
X48553549Y-117595396D01*
X48475464Y-117697159D01*
X48414956Y-117843238D01*
X48394318Y-118000000D01*
X30775000Y-118000000D01*
X30775000Y-117365886D01*
X68576528Y-117365886D01*
X68582362Y-117375651D01*
X69967190Y-118760480D01*
X69981131Y-118768092D01*
X69982966Y-118767961D01*
X69989580Y-118763710D01*
X71205936Y-117547353D01*
X76489977Y-117547353D01*
X76495258Y-117554407D01*
X76656756Y-117648779D01*
X76666042Y-117653229D01*
X76865001Y-117729203D01*
X76874899Y-117732079D01*
X77083595Y-117774538D01*
X77093823Y-117775757D01*
X77306650Y-117783562D01*
X77316936Y-117783095D01*
X77528185Y-117756034D01*
X77538262Y-117753892D01*
X77742255Y-117692691D01*
X77751842Y-117688933D01*
X77943098Y-117595238D01*
X77951944Y-117589965D01*
X77999247Y-117556223D01*
X78007648Y-117545523D01*
X78000660Y-117532370D01*
X77834176Y-117365886D01*
X80616528Y-117365886D01*
X80622362Y-117375651D01*
X82007190Y-118760480D01*
X82021131Y-118768092D01*
X82022966Y-118767961D01*
X82029580Y-118763710D01*
X83415884Y-117377405D01*
X83423399Y-117363644D01*
X83416941Y-117354284D01*
X83400639Y-117339988D01*
X83394099Y-117334970D01*
X83154856Y-117175113D01*
X83147719Y-117170992D01*
X82889651Y-117043728D01*
X82882047Y-117040578D01*
X82609580Y-116948088D01*
X82601617Y-116945954D01*
X82319400Y-116889817D01*
X82311249Y-116888744D01*
X82024119Y-116869925D01*
X82015881Y-116869925D01*
X81728751Y-116888744D01*
X81720600Y-116889817D01*
X81438383Y-116945954D01*
X81430420Y-116948088D01*
X81157953Y-117040578D01*
X81150349Y-117043728D01*
X80892282Y-117170992D01*
X80885145Y-117175113D01*
X80645901Y-117334970D01*
X80639361Y-117339988D01*
X80624926Y-117352647D01*
X80616528Y-117365886D01*
X77834176Y-117365886D01*
X77262812Y-116794522D01*
X77248868Y-116786908D01*
X77247035Y-116787039D01*
X77240420Y-116791290D01*
X76496737Y-117534973D01*
X76489977Y-117547353D01*
X71205936Y-117547353D01*
X71375884Y-117377405D01*
X71383399Y-117363644D01*
X71376941Y-117354284D01*
X71360639Y-117339988D01*
X71354099Y-117334970D01*
X71114856Y-117175113D01*
X71107719Y-117170992D01*
X70849651Y-117043728D01*
X70842047Y-117040578D01*
X70569580Y-116948088D01*
X70561617Y-116945954D01*
X70279400Y-116889817D01*
X70271249Y-116888744D01*
X69984119Y-116869925D01*
X69975881Y-116869925D01*
X69688751Y-116888744D01*
X69680600Y-116889817D01*
X69398383Y-116945954D01*
X69390420Y-116948088D01*
X69117953Y-117040578D01*
X69110349Y-117043728D01*
X68852282Y-117170992D01*
X68845145Y-117175113D01*
X68605901Y-117334970D01*
X68599361Y-117339988D01*
X68584926Y-117352647D01*
X68576528Y-117365886D01*
X30775000Y-117365886D01*
X30775000Y-115335262D01*
X33144520Y-115335262D01*
X33145036Y-115341406D01*
X33160979Y-115531261D01*
X33161759Y-115540553D01*
X33163458Y-115546478D01*
X33216164Y-115730285D01*
X33218544Y-115738586D01*
X33221359Y-115744063D01*
X33221360Y-115744066D01*
X33309897Y-115916341D01*
X33312712Y-115921818D01*
X33440677Y-116083270D01*
X33445370Y-116087264D01*
X33445371Y-116087265D01*
X33577835Y-116200000D01*
X33597564Y-116216791D01*
X33777398Y-116317297D01*
X33872238Y-116348113D01*
X33967471Y-116379056D01*
X33967475Y-116379057D01*
X33973329Y-116380959D01*
X34177894Y-116405351D01*
X34184029Y-116404879D01*
X34184031Y-116404879D01*
X34240039Y-116400569D01*
X34383300Y-116389546D01*
X34389230Y-116387890D01*
X34389232Y-116387890D01*
X34575797Y-116335800D01*
X34575796Y-116335800D01*
X34581725Y-116334145D01*
X34587214Y-116331372D01*
X34587220Y-116331370D01*
X34743725Y-116252313D01*
X34765610Y-116241258D01*
X34796058Y-116217470D01*
X34818419Y-116200000D01*
X56394318Y-116200000D01*
X56414956Y-116356762D01*
X56475464Y-116502841D01*
X56490656Y-116522640D01*
X56555320Y-116606911D01*
X56571718Y-116628282D01*
X56697159Y-116724536D01*
X56843238Y-116785044D01*
X56851426Y-116786122D01*
X56890681Y-116791290D01*
X57000000Y-116805682D01*
X57008188Y-116804604D01*
X57148574Y-116786122D01*
X57156762Y-116785044D01*
X57302841Y-116724536D01*
X57428282Y-116628282D01*
X57444681Y-116606911D01*
X57449984Y-116600000D01*
X63794318Y-116600000D01*
X63814956Y-116756762D01*
X63875464Y-116902841D01*
X63971718Y-117028282D01*
X63978264Y-117033305D01*
X63988676Y-117041294D01*
X64097159Y-117124536D01*
X64224947Y-117177468D01*
X64231841Y-117180323D01*
X64243238Y-117185044D01*
X64251426Y-117186122D01*
X64321619Y-117195363D01*
X64400000Y-117205682D01*
X64408188Y-117204604D01*
X64548574Y-117186122D01*
X64556762Y-117185044D01*
X64568160Y-117180323D01*
X64575053Y-117177468D01*
X64702841Y-117124536D01*
X64811324Y-117041294D01*
X64821736Y-117033305D01*
X64828282Y-117028282D01*
X64924536Y-116902841D01*
X64985044Y-116756762D01*
X65005682Y-116600000D01*
X64985044Y-116443238D01*
X64970349Y-116407762D01*
X73694520Y-116407762D01*
X73695036Y-116413906D01*
X73710326Y-116595984D01*
X73711759Y-116613053D01*
X73713458Y-116618978D01*
X73762868Y-116791290D01*
X73768544Y-116811086D01*
X73771359Y-116816563D01*
X73771360Y-116816566D01*
X73837856Y-116945954D01*
X73862712Y-116994318D01*
X73990677Y-117155770D01*
X73995370Y-117159764D01*
X74049324Y-117205682D01*
X74147564Y-117289291D01*
X74327398Y-117389797D01*
X74401512Y-117413878D01*
X74517471Y-117451556D01*
X74517475Y-117451557D01*
X74523329Y-117453459D01*
X74727894Y-117477851D01*
X74734029Y-117477379D01*
X74734031Y-117477379D01*
X74799984Y-117472304D01*
X74933300Y-117462046D01*
X74939230Y-117460390D01*
X74939232Y-117460390D01*
X75125797Y-117408300D01*
X75125796Y-117408300D01*
X75131725Y-117406645D01*
X75137214Y-117403872D01*
X75137220Y-117403870D01*
X75310116Y-117316533D01*
X75315610Y-117313758D01*
X75352038Y-117285298D01*
X75453942Y-117205682D01*
X75477951Y-117186924D01*
X75482302Y-117181884D01*
X75608540Y-117035634D01*
X75608540Y-117035633D01*
X75612564Y-117030972D01*
X75633387Y-116994318D01*
X75660861Y-116945954D01*
X75714323Y-116851844D01*
X75716508Y-116845277D01*
X75716732Y-116844953D01*
X75718774Y-116840367D01*
X75719646Y-116840755D01*
X75756986Y-116786953D01*
X75822574Y-116759771D01*
X75892445Y-116772364D01*
X75944416Y-116820733D01*
X75952809Y-116837643D01*
X76031770Y-117032103D01*
X76036413Y-117041294D01*
X76116460Y-117171920D01*
X76126916Y-117181380D01*
X76135694Y-117177596D01*
X77160905Y-116152385D01*
X77223217Y-116118359D01*
X77294032Y-116123424D01*
X77339095Y-116152385D01*
X78360474Y-117173764D01*
X78372484Y-117180323D01*
X78384223Y-117171355D01*
X78415004Y-117128519D01*
X78420315Y-117119680D01*
X78514670Y-116928767D01*
X78518469Y-116919172D01*
X78580376Y-116715415D01*
X78582555Y-116705334D01*
X78610590Y-116492387D01*
X78611109Y-116485712D01*
X78611988Y-116449748D01*
X87307000Y-116449748D01*
X87318633Y-116508231D01*
X87362948Y-116574552D01*
X87429269Y-116618867D01*
X87441438Y-116621288D01*
X87441439Y-116621288D01*
X87475033Y-116627970D01*
X87487752Y-116630500D01*
X89432248Y-116630500D01*
X89444967Y-116627970D01*
X89478561Y-116621288D01*
X89478562Y-116621288D01*
X89490731Y-116618867D01*
X89557052Y-116574552D01*
X89601367Y-116508231D01*
X89613000Y-116449748D01*
X89613000Y-115716347D01*
X89633002Y-115648226D01*
X89686658Y-115601733D01*
X89756932Y-115591629D01*
X89821512Y-115621123D01*
X89859896Y-115680849D01*
X89861276Y-115686629D01*
X89861450Y-115688518D01*
X89863019Y-115694080D01*
X89863019Y-115694082D01*
X89888185Y-115783314D01*
X89918970Y-115892469D01*
X90012694Y-116082522D01*
X90016148Y-116087148D01*
X90016149Y-116087149D01*
X90100419Y-116200000D01*
X90139483Y-116252313D01*
X90187997Y-116297159D01*
X90286149Y-116387890D01*
X90295091Y-116396156D01*
X90474306Y-116509232D01*
X90671127Y-116587756D01*
X90676787Y-116588882D01*
X90676791Y-116588883D01*
X90873295Y-116627970D01*
X90873298Y-116627970D01*
X90878962Y-116629097D01*
X90884737Y-116629173D01*
X90884741Y-116629173D01*
X90990517Y-116630557D01*
X91090851Y-116631870D01*
X91096548Y-116630891D01*
X91096549Y-116630891D01*
X91294007Y-116596962D01*
X91294010Y-116596961D01*
X91299697Y-116595984D01*
X91498506Y-116522640D01*
X91586187Y-116470475D01*
X91675652Y-116417249D01*
X91675655Y-116417247D01*
X91680620Y-116414293D01*
X91839940Y-116274573D01*
X91864016Y-116244033D01*
X91967552Y-116112698D01*
X91967553Y-116112696D01*
X91971130Y-116108159D01*
X91984619Y-116082522D01*
X92067105Y-115925741D01*
X92067106Y-115925739D01*
X92069797Y-115920624D01*
X92132636Y-115718249D01*
X92144598Y-115617180D01*
X92172468Y-115551883D01*
X92231217Y-115512019D01*
X92302191Y-115510245D01*
X92362858Y-115547124D01*
X92393955Y-115610947D01*
X92395196Y-115620460D01*
X92399960Y-115672304D01*
X92401450Y-115688518D01*
X92403019Y-115694080D01*
X92403019Y-115694082D01*
X92428185Y-115783314D01*
X92458970Y-115892469D01*
X92552694Y-116082522D01*
X92556148Y-116087148D01*
X92556149Y-116087149D01*
X92640419Y-116200000D01*
X92679483Y-116252313D01*
X92727997Y-116297159D01*
X92826149Y-116387890D01*
X92835091Y-116396156D01*
X93014306Y-116509232D01*
X93211127Y-116587756D01*
X93216787Y-116588882D01*
X93216791Y-116588883D01*
X93413295Y-116627970D01*
X93413298Y-116627970D01*
X93418962Y-116629097D01*
X93424737Y-116629173D01*
X93424741Y-116629173D01*
X93530517Y-116630557D01*
X93630851Y-116631870D01*
X93636548Y-116630891D01*
X93636549Y-116630891D01*
X93834007Y-116596962D01*
X93834010Y-116596961D01*
X93839697Y-116595984D01*
X94038506Y-116522640D01*
X94126187Y-116470475D01*
X94215652Y-116417249D01*
X94215655Y-116417247D01*
X94220620Y-116414293D01*
X94379940Y-116274573D01*
X94404016Y-116244033D01*
X94507552Y-116112698D01*
X94507553Y-116112696D01*
X94511130Y-116108159D01*
X94524619Y-116082522D01*
X94607105Y-115925741D01*
X94607106Y-115925739D01*
X94609797Y-115920624D01*
X94672636Y-115718249D01*
X94681252Y-115645454D01*
X94692564Y-115549882D01*
X94692564Y-115549875D01*
X94693000Y-115546195D01*
X94693000Y-115328739D01*
X94678550Y-115171482D01*
X94675246Y-115159765D01*
X94644691Y-115051426D01*
X94621030Y-114967531D01*
X94527306Y-114777478D01*
X94513533Y-114759033D01*
X94403970Y-114612311D01*
X94403969Y-114612310D01*
X94400517Y-114607687D01*
X94307299Y-114521517D01*
X94249149Y-114467763D01*
X94249146Y-114467761D01*
X94244909Y-114463844D01*
X94065694Y-114350768D01*
X93868873Y-114272244D01*
X93863213Y-114271118D01*
X93863209Y-114271117D01*
X93666705Y-114232030D01*
X93666702Y-114232030D01*
X93661038Y-114230903D01*
X93655263Y-114230827D01*
X93655259Y-114230827D01*
X93549483Y-114229443D01*
X93449149Y-114228130D01*
X93443452Y-114229109D01*
X93443451Y-114229109D01*
X93245993Y-114263038D01*
X93245990Y-114263039D01*
X93240303Y-114264016D01*
X93041494Y-114337360D01*
X93017275Y-114351769D01*
X92864348Y-114442751D01*
X92864345Y-114442753D01*
X92859380Y-114445707D01*
X92700060Y-114585427D01*
X92696485Y-114589962D01*
X92696484Y-114589963D01*
X92629081Y-114675464D01*
X92568870Y-114751841D01*
X92566179Y-114756957D01*
X92566177Y-114756959D01*
X92513434Y-114857207D01*
X92470203Y-114939376D01*
X92441762Y-115030972D01*
X92411529Y-115128339D01*
X92407364Y-115141751D01*
X92395836Y-115239156D01*
X92395402Y-115242819D01*
X92367532Y-115308117D01*
X92308783Y-115347981D01*
X92237809Y-115349755D01*
X92177142Y-115312876D01*
X92146045Y-115249053D01*
X92144804Y-115239540D01*
X92139079Y-115177238D01*
X92139079Y-115177237D01*
X92138550Y-115171482D01*
X92135246Y-115159765D01*
X92104691Y-115051426D01*
X92081030Y-114967531D01*
X91987306Y-114777478D01*
X91973533Y-114759033D01*
X91863970Y-114612311D01*
X91863969Y-114612310D01*
X91860517Y-114607687D01*
X91767299Y-114521517D01*
X91709149Y-114467763D01*
X91709146Y-114467761D01*
X91704909Y-114463844D01*
X91525694Y-114350768D01*
X91328873Y-114272244D01*
X91323213Y-114271118D01*
X91323209Y-114271117D01*
X91126705Y-114232030D01*
X91126702Y-114232030D01*
X91121038Y-114230903D01*
X91115263Y-114230827D01*
X91115259Y-114230827D01*
X91009483Y-114229443D01*
X90909149Y-114228130D01*
X90903452Y-114229109D01*
X90903451Y-114229109D01*
X90705993Y-114263038D01*
X90705990Y-114263039D01*
X90700303Y-114264016D01*
X90501494Y-114337360D01*
X90477275Y-114351769D01*
X90324348Y-114442751D01*
X90324345Y-114442753D01*
X90319380Y-114445707D01*
X90160060Y-114585427D01*
X90156485Y-114589962D01*
X90156484Y-114589963D01*
X90089081Y-114675464D01*
X90028870Y-114751841D01*
X90026179Y-114756957D01*
X90026177Y-114756959D01*
X89973434Y-114857207D01*
X89930203Y-114939376D01*
X89901762Y-115030972D01*
X89871529Y-115128339D01*
X89867364Y-115141751D01*
X89866685Y-115147488D01*
X89864127Y-115169100D01*
X89836256Y-115234397D01*
X89777508Y-115274261D01*
X89706534Y-115276035D01*
X89645867Y-115239156D01*
X89614769Y-115175332D01*
X89613000Y-115154290D01*
X89613000Y-114410252D01*
X89601367Y-114351769D01*
X89557052Y-114285448D01*
X89490731Y-114241133D01*
X89478562Y-114238712D01*
X89478561Y-114238712D01*
X89438316Y-114230707D01*
X89432248Y-114229500D01*
X87487752Y-114229500D01*
X87481684Y-114230707D01*
X87441439Y-114238712D01*
X87441438Y-114238712D01*
X87429269Y-114241133D01*
X87362948Y-114285448D01*
X87318633Y-114351769D01*
X87307000Y-114410252D01*
X87307000Y-116449748D01*
X78611988Y-116449748D01*
X78612572Y-116425864D01*
X78612378Y-116419146D01*
X78594781Y-116205104D01*
X78593096Y-116194924D01*
X78541214Y-115988375D01*
X78537894Y-115978624D01*
X78452972Y-115783314D01*
X78448105Y-115774239D01*
X78332425Y-115595423D01*
X78326136Y-115587256D01*
X78279833Y-115536370D01*
X78248781Y-115472525D01*
X78257177Y-115402026D01*
X78268262Y-115381568D01*
X78281974Y-115361047D01*
X78288867Y-115350731D01*
X78292470Y-115332621D01*
X78299293Y-115298316D01*
X78300500Y-115292248D01*
X78300500Y-113552752D01*
X78288867Y-113494269D01*
X78244552Y-113427948D01*
X78178231Y-113383633D01*
X78166062Y-113381212D01*
X78166061Y-113381212D01*
X78125816Y-113373207D01*
X78119748Y-113372000D01*
X76380252Y-113372000D01*
X76374184Y-113373207D01*
X76333939Y-113381212D01*
X76333938Y-113381212D01*
X76321769Y-113383633D01*
X76255448Y-113427948D01*
X76211133Y-113494269D01*
X76199500Y-113552752D01*
X76199500Y-115292248D01*
X76200707Y-115298316D01*
X76207531Y-115332621D01*
X76211133Y-115350731D01*
X76218025Y-115361046D01*
X76218027Y-115361050D01*
X76230962Y-115380408D01*
X76252177Y-115448161D01*
X76233394Y-115516628D01*
X76217292Y-115537460D01*
X76194591Y-115561216D01*
X76188104Y-115569227D01*
X76068098Y-115745149D01*
X76063000Y-115754123D01*
X75973338Y-115947283D01*
X75969775Y-115956968D01*
X75959015Y-115995767D01*
X75921535Y-116056065D01*
X75857406Y-116086527D01*
X75786988Y-116077483D01*
X75732638Y-116031804D01*
X75726374Y-116020016D01*
X75725935Y-116020249D01*
X75632111Y-115843790D01*
X75629218Y-115838349D01*
X75544340Y-115734279D01*
X75502906Y-115683475D01*
X75502903Y-115683472D01*
X75499011Y-115678700D01*
X75481786Y-115664450D01*
X75345025Y-115551311D01*
X75345021Y-115551309D01*
X75340275Y-115547382D01*
X75316491Y-115534522D01*
X75266082Y-115484527D01*
X75250705Y-115415216D01*
X75275241Y-115348594D01*
X75308906Y-115317300D01*
X75310107Y-115316538D01*
X75315610Y-115313758D01*
X75477951Y-115186924D01*
X75514165Y-115144970D01*
X75608540Y-115035634D01*
X75608540Y-115035633D01*
X75612564Y-115030972D01*
X75633387Y-114994318D01*
X75711276Y-114857207D01*
X75714323Y-114851844D01*
X75779351Y-114656363D01*
X75805171Y-114451974D01*
X75805583Y-114422500D01*
X75785480Y-114217470D01*
X75725935Y-114020249D01*
X75629218Y-113838349D01*
X75523061Y-113708188D01*
X75502906Y-113683475D01*
X75502903Y-113683472D01*
X75499011Y-113678700D01*
X75486458Y-113668315D01*
X75345025Y-113551311D01*
X75345021Y-113551309D01*
X75340275Y-113547382D01*
X75159055Y-113449397D01*
X74962254Y-113388477D01*
X74956129Y-113387833D01*
X74956128Y-113387833D01*
X74763498Y-113367587D01*
X74763496Y-113367587D01*
X74757369Y-113366943D01*
X74670529Y-113374846D01*
X74558342Y-113385055D01*
X74558339Y-113385056D01*
X74552203Y-113385614D01*
X74354572Y-113443780D01*
X74172002Y-113539226D01*
X74167201Y-113543086D01*
X74167198Y-113543088D01*
X74016254Y-113664450D01*
X74011447Y-113668315D01*
X73879024Y-113826130D01*
X73876056Y-113831528D01*
X73876053Y-113831533D01*
X73857462Y-113865351D01*
X73779776Y-114006662D01*
X73717484Y-114203032D01*
X73716798Y-114209149D01*
X73716797Y-114209153D01*
X73698807Y-114369540D01*
X73694520Y-114407762D01*
X73695036Y-114413906D01*
X73711184Y-114606200D01*
X73711759Y-114613053D01*
X73713458Y-114618978D01*
X73760393Y-114782659D01*
X73768544Y-114811086D01*
X73771359Y-114816563D01*
X73771360Y-114816566D01*
X73853641Y-114976668D01*
X73862712Y-114994318D01*
X73990677Y-115155770D01*
X73995370Y-115159764D01*
X73995371Y-115159765D01*
X74089107Y-115239540D01*
X74147564Y-115289291D01*
X74187023Y-115311344D01*
X74236727Y-115362037D01*
X74251135Y-115431556D01*
X74225671Y-115497829D01*
X74183929Y-115532991D01*
X74172002Y-115539226D01*
X74167201Y-115543086D01*
X74167198Y-115543088D01*
X74044604Y-115641656D01*
X74011447Y-115668315D01*
X73879024Y-115826130D01*
X73876056Y-115831528D01*
X73876053Y-115831533D01*
X73803068Y-115964294D01*
X73779776Y-116006662D01*
X73717484Y-116203032D01*
X73716798Y-116209149D01*
X73716797Y-116209153D01*
X73699385Y-116364391D01*
X73694520Y-116407762D01*
X64970349Y-116407762D01*
X64924536Y-116297159D01*
X64852310Y-116203032D01*
X64833305Y-116178264D01*
X64828282Y-116171718D01*
X64702841Y-116075464D01*
X64560270Y-116016409D01*
X64504989Y-115971861D01*
X64482568Y-115904497D01*
X64500126Y-115835706D01*
X64552088Y-115787328D01*
X64560270Y-115783591D01*
X64576812Y-115776739D01*
X64702841Y-115724536D01*
X64810853Y-115641656D01*
X64821736Y-115633305D01*
X64828282Y-115628282D01*
X64924536Y-115502841D01*
X64985044Y-115356762D01*
X64991024Y-115311343D01*
X65004604Y-115208188D01*
X65005682Y-115200000D01*
X64985044Y-115043238D01*
X64924536Y-114897159D01*
X64828282Y-114771718D01*
X64702841Y-114675464D01*
X64556762Y-114614956D01*
X64400000Y-114594318D01*
X64243238Y-114614956D01*
X64097159Y-114675464D01*
X63971718Y-114771718D01*
X63875464Y-114897159D01*
X63814956Y-115043238D01*
X63794318Y-115200000D01*
X63795396Y-115208188D01*
X63808977Y-115311343D01*
X63814956Y-115356762D01*
X63875464Y-115502841D01*
X63971718Y-115628282D01*
X63978264Y-115633305D01*
X63989147Y-115641656D01*
X64097159Y-115724536D01*
X64223188Y-115776739D01*
X64239730Y-115783591D01*
X64295011Y-115828139D01*
X64317432Y-115895503D01*
X64299874Y-115964294D01*
X64247912Y-116012672D01*
X64239730Y-116016409D01*
X64097159Y-116075464D01*
X63971718Y-116171718D01*
X63966695Y-116178264D01*
X63947690Y-116203032D01*
X63875464Y-116297159D01*
X63814956Y-116443238D01*
X63794318Y-116600000D01*
X57449984Y-116600000D01*
X57509344Y-116522640D01*
X57524536Y-116502841D01*
X57585044Y-116356762D01*
X57605682Y-116200000D01*
X57585044Y-116043238D01*
X57524536Y-115897159D01*
X57438249Y-115784707D01*
X57433305Y-115778264D01*
X57428282Y-115771718D01*
X57302841Y-115675464D01*
X57156762Y-115614956D01*
X57145460Y-115613468D01*
X57008188Y-115595396D01*
X57000000Y-115594318D01*
X56991812Y-115595396D01*
X56854541Y-115613468D01*
X56843238Y-115614956D01*
X56697159Y-115675464D01*
X56571718Y-115771718D01*
X56566695Y-115778264D01*
X56561751Y-115784707D01*
X56475464Y-115897159D01*
X56414956Y-116043238D01*
X56394318Y-116200000D01*
X34818419Y-116200000D01*
X34923101Y-116118213D01*
X34927951Y-116114424D01*
X34937777Y-116103041D01*
X35058540Y-115963134D01*
X35058540Y-115963133D01*
X35062564Y-115958472D01*
X35083387Y-115921818D01*
X35106623Y-115880915D01*
X35164323Y-115779344D01*
X35229351Y-115583863D01*
X35255171Y-115379474D01*
X35255429Y-115361047D01*
X35255534Y-115353522D01*
X35255534Y-115353518D01*
X35255583Y-115350000D01*
X35235480Y-115144970D01*
X35175935Y-114947749D01*
X35170042Y-114936665D01*
X42444994Y-114936665D01*
X42460592Y-115122414D01*
X42462291Y-115128339D01*
X42509291Y-115292248D01*
X42511971Y-115301595D01*
X42514790Y-115307080D01*
X42585045Y-115443780D01*
X42597176Y-115467385D01*
X42712959Y-115613468D01*
X42854912Y-115734279D01*
X42860290Y-115737285D01*
X42860292Y-115737286D01*
X42887731Y-115752621D01*
X43017627Y-115825217D01*
X43194907Y-115882819D01*
X43379998Y-115904890D01*
X43386133Y-115904418D01*
X43386135Y-115904418D01*
X43559710Y-115891062D01*
X43559715Y-115891061D01*
X43565851Y-115890589D01*
X43571781Y-115888933D01*
X43571783Y-115888933D01*
X43739459Y-115842117D01*
X43739458Y-115842117D01*
X43745387Y-115840462D01*
X43911768Y-115756417D01*
X43926191Y-115745149D01*
X44053794Y-115645454D01*
X44053795Y-115645453D01*
X44058655Y-115641656D01*
X44180454Y-115500550D01*
X44189557Y-115484527D01*
X44259701Y-115361050D01*
X44272526Y-115338474D01*
X44331364Y-115161601D01*
X44348544Y-115025614D01*
X44354285Y-114980170D01*
X44354286Y-114980163D01*
X44354727Y-114976668D01*
X44355099Y-114950000D01*
X44336909Y-114764487D01*
X44335128Y-114758588D01*
X44335127Y-114758583D01*
X44284814Y-114591939D01*
X44283033Y-114586040D01*
X44219593Y-114466726D01*
X44198416Y-114426898D01*
X44198414Y-114426895D01*
X44195522Y-114421456D01*
X44191632Y-114416686D01*
X44191629Y-114416682D01*
X44081605Y-114281780D01*
X44081602Y-114281777D01*
X44077710Y-114277005D01*
X44072056Y-114272327D01*
X43938834Y-114162116D01*
X43934085Y-114158187D01*
X43770116Y-114069529D01*
X43681082Y-114041969D01*
X43597936Y-114016231D01*
X43597933Y-114016230D01*
X43592049Y-114014409D01*
X43585924Y-114013765D01*
X43585923Y-114013765D01*
X43412796Y-113995568D01*
X43412795Y-113995568D01*
X43406668Y-113994924D01*
X43328549Y-114002033D01*
X43227171Y-114011259D01*
X43227168Y-114011260D01*
X43221032Y-114011818D01*
X43215122Y-114013557D01*
X43215119Y-114013558D01*
X43048129Y-114062707D01*
X43042214Y-114064448D01*
X42877023Y-114150807D01*
X42731752Y-114267608D01*
X42611935Y-114410401D01*
X42608971Y-114415793D01*
X42608968Y-114415797D01*
X42578097Y-114471951D01*
X42522135Y-114573746D01*
X42520274Y-114579613D01*
X42520273Y-114579615D01*
X42490870Y-114672304D01*
X42465772Y-114751424D01*
X42444994Y-114936665D01*
X35170042Y-114936665D01*
X35079218Y-114765849D01*
X34959433Y-114618978D01*
X34952906Y-114610975D01*
X34952903Y-114610972D01*
X34949011Y-114606200D01*
X34936458Y-114595815D01*
X34795025Y-114478811D01*
X34795021Y-114478809D01*
X34790275Y-114474882D01*
X34609055Y-114376897D01*
X34412254Y-114315977D01*
X34406129Y-114315333D01*
X34406128Y-114315333D01*
X34213498Y-114295087D01*
X34213496Y-114295087D01*
X34207369Y-114294443D01*
X34120529Y-114302346D01*
X34008342Y-114312555D01*
X34008339Y-114312556D01*
X34002203Y-114313114D01*
X33804572Y-114371280D01*
X33622002Y-114466726D01*
X33617201Y-114470586D01*
X33617198Y-114470588D01*
X33606971Y-114478811D01*
X33461447Y-114595815D01*
X33329024Y-114753630D01*
X33326056Y-114759028D01*
X33326053Y-114759033D01*
X33245924Y-114904789D01*
X33229776Y-114934162D01*
X33167484Y-115130532D01*
X33166798Y-115136649D01*
X33166797Y-115136653D01*
X33155834Y-115234397D01*
X33144520Y-115335262D01*
X30775000Y-115335262D01*
X30775000Y-112795262D01*
X33144520Y-112795262D01*
X33161759Y-113000553D01*
X33163458Y-113006478D01*
X33211008Y-113172304D01*
X33218544Y-113198586D01*
X33221359Y-113204063D01*
X33221360Y-113204066D01*
X33309897Y-113376341D01*
X33312712Y-113381818D01*
X33440677Y-113543270D01*
X33445370Y-113547264D01*
X33445371Y-113547265D01*
X33587605Y-113668315D01*
X33597564Y-113676791D01*
X33602942Y-113679797D01*
X33602944Y-113679798D01*
X33641342Y-113701258D01*
X33777398Y-113777297D01*
X33872238Y-113808113D01*
X33967471Y-113839056D01*
X33967475Y-113839057D01*
X33973329Y-113840959D01*
X34177894Y-113865351D01*
X34184029Y-113864879D01*
X34184031Y-113864879D01*
X34240039Y-113860569D01*
X34383300Y-113849546D01*
X34389230Y-113847890D01*
X34389232Y-113847890D01*
X34575797Y-113795800D01*
X34575796Y-113795800D01*
X34581725Y-113794145D01*
X34587214Y-113791372D01*
X34587220Y-113791370D01*
X34760116Y-113704033D01*
X34765610Y-113701258D01*
X34767220Y-113700000D01*
X56494318Y-113700000D01*
X56495396Y-113708188D01*
X56512876Y-113840959D01*
X56514956Y-113856762D01*
X56575464Y-114002841D01*
X56671718Y-114128282D01*
X56797159Y-114224536D01*
X56943238Y-114285044D01*
X57100000Y-114305682D01*
X57108188Y-114304604D01*
X57248574Y-114286122D01*
X57256762Y-114285044D01*
X57341366Y-114250000D01*
X67644318Y-114250000D01*
X67664956Y-114406762D01*
X67725464Y-114552841D01*
X67821718Y-114678282D01*
X67947159Y-114774536D01*
X68093238Y-114835044D01*
X68250000Y-114855682D01*
X68258188Y-114854604D01*
X68279153Y-114851844D01*
X68406762Y-114835044D01*
X68552841Y-114774536D01*
X68678282Y-114678282D01*
X68774536Y-114552841D01*
X68835044Y-114406762D01*
X68855682Y-114250000D01*
X68835044Y-114093238D01*
X68774536Y-113947159D01*
X68695218Y-113843790D01*
X68683305Y-113828264D01*
X68678282Y-113821718D01*
X68552841Y-113725464D01*
X68406762Y-113664956D01*
X68250000Y-113644318D01*
X68093238Y-113664956D01*
X67947159Y-113725464D01*
X67821718Y-113821718D01*
X67816695Y-113828264D01*
X67804782Y-113843790D01*
X67725464Y-113947159D01*
X67664956Y-114093238D01*
X67644318Y-114250000D01*
X57341366Y-114250000D01*
X57402841Y-114224536D01*
X57528282Y-114128282D01*
X57624536Y-114002841D01*
X57685044Y-113856762D01*
X57687125Y-113840959D01*
X57704604Y-113708188D01*
X57705682Y-113700000D01*
X57685044Y-113543238D01*
X57624536Y-113397159D01*
X57528282Y-113271718D01*
X57499979Y-113250000D01*
X57409392Y-113180491D01*
X57402841Y-113175464D01*
X57256762Y-113114956D01*
X57100000Y-113094318D01*
X56943238Y-113114956D01*
X56797159Y-113175464D01*
X56790608Y-113180491D01*
X56700022Y-113250000D01*
X56671718Y-113271718D01*
X56575464Y-113397159D01*
X56514956Y-113543238D01*
X56494318Y-113700000D01*
X34767220Y-113700000D01*
X34777701Y-113691812D01*
X34923101Y-113578213D01*
X34927951Y-113574424D01*
X34940927Y-113559392D01*
X35058540Y-113423134D01*
X35058540Y-113423133D01*
X35062564Y-113418472D01*
X35074672Y-113397159D01*
X35153618Y-113258188D01*
X35164323Y-113239344D01*
X35229351Y-113043863D01*
X35243347Y-112933071D01*
X70383931Y-112933071D01*
X70404569Y-113089833D01*
X70465077Y-113235912D01*
X70561331Y-113361353D01*
X70567877Y-113366376D01*
X70596680Y-113388477D01*
X70686772Y-113457607D01*
X70832851Y-113518115D01*
X70989613Y-113538753D01*
X70997801Y-113537675D01*
X71138187Y-113519193D01*
X71146375Y-113518115D01*
X71292454Y-113457607D01*
X71293118Y-113459210D01*
X71352458Y-113444813D01*
X71419551Y-113468031D01*
X71462875Y-113522450D01*
X71468326Y-113535609D01*
X71475464Y-113552841D01*
X71571718Y-113678282D01*
X71578264Y-113683305D01*
X71601661Y-113701258D01*
X71697159Y-113774536D01*
X71843238Y-113835044D01*
X72000000Y-113855682D01*
X72008188Y-113854604D01*
X72043023Y-113850018D01*
X72156762Y-113835044D01*
X72302841Y-113774536D01*
X72398339Y-113701258D01*
X72421736Y-113683305D01*
X72428282Y-113678282D01*
X72524536Y-113552841D01*
X72585044Y-113406762D01*
X72587182Y-113390526D01*
X72604604Y-113258188D01*
X72605682Y-113250000D01*
X72585044Y-113093238D01*
X72524536Y-112947159D01*
X72428282Y-112821718D01*
X72420183Y-112815503D01*
X72385821Y-112789137D01*
X72302841Y-112725464D01*
X72156762Y-112664956D01*
X72000000Y-112644318D01*
X71843238Y-112664956D01*
X71697159Y-112725464D01*
X71696495Y-112723861D01*
X71637155Y-112738258D01*
X71570062Y-112715040D01*
X71526738Y-112660621D01*
X71517310Y-112637862D01*
X71517309Y-112637860D01*
X71514149Y-112630230D01*
X71417895Y-112504789D01*
X71292454Y-112408535D01*
X71146375Y-112348027D01*
X70989613Y-112327389D01*
X70832851Y-112348027D01*
X70686772Y-112408535D01*
X70561331Y-112504789D01*
X70465077Y-112630230D01*
X70404569Y-112776309D01*
X70403491Y-112784497D01*
X70399670Y-112813522D01*
X70383931Y-112933071D01*
X35243347Y-112933071D01*
X35255171Y-112839474D01*
X35255419Y-112821718D01*
X35255534Y-112813522D01*
X35255534Y-112813518D01*
X35255583Y-112810000D01*
X35235480Y-112604970D01*
X35175935Y-112407749D01*
X35079218Y-112225849D01*
X35005859Y-112135902D01*
X34952906Y-112070975D01*
X34952903Y-112070972D01*
X34949011Y-112066200D01*
X34931786Y-112051950D01*
X34795025Y-111938811D01*
X34795021Y-111938809D01*
X34790275Y-111934882D01*
X34609055Y-111836897D01*
X34412254Y-111775977D01*
X34406129Y-111775333D01*
X34406128Y-111775333D01*
X34213498Y-111755087D01*
X34213496Y-111755087D01*
X34207369Y-111754443D01*
X34120529Y-111762346D01*
X34008342Y-111772555D01*
X34008339Y-111772556D01*
X34002203Y-111773114D01*
X33804572Y-111831280D01*
X33622002Y-111926726D01*
X33617201Y-111930586D01*
X33617198Y-111930588D01*
X33606971Y-111938811D01*
X33461447Y-112055815D01*
X33329024Y-112213630D01*
X33326056Y-112219028D01*
X33326053Y-112219033D01*
X33232743Y-112388765D01*
X33229776Y-112394162D01*
X33167484Y-112590532D01*
X33166798Y-112596649D01*
X33166797Y-112596653D01*
X33153518Y-112715040D01*
X33144520Y-112795262D01*
X30775000Y-112795262D01*
X30775000Y-107997966D01*
X32868257Y-107997966D01*
X32898565Y-108132446D01*
X32901645Y-108142275D01*
X32981770Y-108339603D01*
X32986413Y-108348794D01*
X33097694Y-108530388D01*
X33103777Y-108538699D01*
X33243213Y-108699667D01*
X33250580Y-108706883D01*
X33414434Y-108842916D01*
X33422881Y-108848831D01*
X33606756Y-108956279D01*
X33616042Y-108960729D01*
X33815001Y-109036703D01*
X33829866Y-109041022D01*
X33829289Y-109043008D01*
X33884260Y-109072082D01*
X33919110Y-109133936D01*
X33914988Y-109204813D01*
X33873201Y-109262209D01*
X33831930Y-109283228D01*
X33810489Y-109289538D01*
X33810484Y-109289540D01*
X33804572Y-109291280D01*
X33622002Y-109386726D01*
X33617201Y-109390586D01*
X33617198Y-109390588D01*
X33606971Y-109398811D01*
X33461447Y-109515815D01*
X33329024Y-109673630D01*
X33326056Y-109679028D01*
X33326053Y-109679033D01*
X33234508Y-109845554D01*
X33229776Y-109854162D01*
X33167484Y-110050532D01*
X33166798Y-110056649D01*
X33166797Y-110056653D01*
X33148893Y-110216272D01*
X33144520Y-110255262D01*
X33161759Y-110460553D01*
X33163458Y-110466478D01*
X33200425Y-110595396D01*
X33218544Y-110658586D01*
X33221359Y-110664063D01*
X33221360Y-110664066D01*
X33280050Y-110778264D01*
X33312712Y-110841818D01*
X33440677Y-111003270D01*
X33597564Y-111136791D01*
X33777398Y-111237297D01*
X33872238Y-111268113D01*
X33967471Y-111299056D01*
X33967475Y-111299057D01*
X33973329Y-111300959D01*
X34177894Y-111325351D01*
X34184029Y-111324879D01*
X34184031Y-111324879D01*
X34240039Y-111320569D01*
X34383300Y-111309546D01*
X34389230Y-111307890D01*
X34389232Y-111307890D01*
X34575797Y-111255800D01*
X34575796Y-111255800D01*
X34581725Y-111254145D01*
X34587214Y-111251372D01*
X34587220Y-111251370D01*
X34688914Y-111200000D01*
X56394318Y-111200000D01*
X56414956Y-111356762D01*
X56475464Y-111502841D01*
X56571718Y-111628282D01*
X56697159Y-111724536D01*
X56843238Y-111785044D01*
X57000000Y-111805682D01*
X57008188Y-111804604D01*
X57148574Y-111786122D01*
X57156762Y-111785044D01*
X57302841Y-111724536D01*
X57428282Y-111628282D01*
X57524536Y-111502841D01*
X57585044Y-111356762D01*
X57605682Y-111200000D01*
X57585044Y-111043238D01*
X57524536Y-110897159D01*
X57428282Y-110771718D01*
X57302841Y-110675464D01*
X57156762Y-110614956D01*
X57000000Y-110594318D01*
X56843238Y-110614956D01*
X56697159Y-110675464D01*
X56571718Y-110771718D01*
X56475464Y-110897159D01*
X56414956Y-111043238D01*
X56394318Y-111200000D01*
X34688914Y-111200000D01*
X34760116Y-111164033D01*
X34765610Y-111161258D01*
X34927951Y-111034424D01*
X34953852Y-111004418D01*
X35058540Y-110883134D01*
X35058540Y-110883133D01*
X35062564Y-110878472D01*
X35077250Y-110852621D01*
X35161276Y-110704707D01*
X35164323Y-110699344D01*
X35229351Y-110503863D01*
X35255171Y-110299474D01*
X35255583Y-110270000D01*
X35235480Y-110064970D01*
X35226934Y-110036665D01*
X42444994Y-110036665D01*
X42460592Y-110222414D01*
X42511971Y-110401595D01*
X42597176Y-110567385D01*
X42712959Y-110713468D01*
X42854912Y-110834279D01*
X42860290Y-110837285D01*
X42860292Y-110837286D01*
X42877040Y-110846646D01*
X43017627Y-110925217D01*
X43194907Y-110982819D01*
X43379998Y-111004890D01*
X43386133Y-111004418D01*
X43386135Y-111004418D01*
X43559710Y-110991062D01*
X43559715Y-110991061D01*
X43565851Y-110990589D01*
X43571781Y-110988933D01*
X43571783Y-110988933D01*
X43739459Y-110942117D01*
X43739458Y-110942117D01*
X43745387Y-110940462D01*
X43911768Y-110856417D01*
X43924275Y-110846646D01*
X44053794Y-110745454D01*
X44053795Y-110745453D01*
X44058655Y-110741656D01*
X44157139Y-110627561D01*
X44176430Y-110605212D01*
X44176431Y-110605211D01*
X44180454Y-110600550D01*
X44272526Y-110438474D01*
X44331364Y-110261601D01*
X44354727Y-110076668D01*
X44355099Y-110050000D01*
X44336909Y-109864487D01*
X44335128Y-109858588D01*
X44335127Y-109858583D01*
X44284814Y-109691939D01*
X44283033Y-109686040D01*
X44239277Y-109603748D01*
X44198416Y-109526898D01*
X44198414Y-109526895D01*
X44195522Y-109521456D01*
X44191632Y-109516686D01*
X44191629Y-109516682D01*
X44081605Y-109381780D01*
X44081602Y-109381777D01*
X44077710Y-109377005D01*
X44072056Y-109372327D01*
X43980877Y-109296897D01*
X43934085Y-109258187D01*
X43770116Y-109169529D01*
X43653093Y-109133305D01*
X43597936Y-109116231D01*
X43597933Y-109116230D01*
X43592049Y-109114409D01*
X43585924Y-109113765D01*
X43585923Y-109113765D01*
X43412796Y-109095568D01*
X43412795Y-109095568D01*
X43406668Y-109094924D01*
X43328549Y-109102033D01*
X43227171Y-109111259D01*
X43227168Y-109111260D01*
X43221032Y-109111818D01*
X43215122Y-109113557D01*
X43215119Y-109113558D01*
X43048129Y-109162707D01*
X43042214Y-109164448D01*
X42877023Y-109250807D01*
X42731752Y-109367608D01*
X42611935Y-109510401D01*
X42608971Y-109515793D01*
X42608968Y-109515797D01*
X42600624Y-109530975D01*
X42522135Y-109673746D01*
X42520274Y-109679613D01*
X42520273Y-109679615D01*
X42516364Y-109691939D01*
X42465772Y-109851424D01*
X42444994Y-110036665D01*
X35226934Y-110036665D01*
X35175935Y-109867749D01*
X35079218Y-109685849D01*
X35005859Y-109595902D01*
X34952906Y-109530975D01*
X34952903Y-109530972D01*
X34949011Y-109526200D01*
X34944262Y-109522271D01*
X34795025Y-109398811D01*
X34795021Y-109398809D01*
X34790275Y-109394882D01*
X34609055Y-109296897D01*
X34558183Y-109281150D01*
X34499025Y-109241899D01*
X34470477Y-109176895D01*
X34481605Y-109106776D01*
X34528876Y-109053804D01*
X34559235Y-109040099D01*
X34692255Y-109000191D01*
X34701842Y-108996433D01*
X34893095Y-108902739D01*
X34901945Y-108897464D01*
X35075328Y-108773792D01*
X35083200Y-108767139D01*
X35150573Y-108700000D01*
X56494318Y-108700000D01*
X56514956Y-108856762D01*
X56575464Y-109002841D01*
X56671718Y-109128282D01*
X56797159Y-109224536D01*
X56943238Y-109285044D01*
X57100000Y-109305682D01*
X57108188Y-109304604D01*
X57248574Y-109286122D01*
X57256762Y-109285044D01*
X57402841Y-109224536D01*
X57528282Y-109128282D01*
X57624536Y-109002841D01*
X57685044Y-108856762D01*
X57705682Y-108700000D01*
X57685044Y-108543238D01*
X57624536Y-108397159D01*
X57528282Y-108271718D01*
X57402841Y-108175464D01*
X57256762Y-108114956D01*
X57100000Y-108094318D01*
X56943238Y-108114956D01*
X56797159Y-108175464D01*
X56671718Y-108271718D01*
X56575464Y-108397159D01*
X56514956Y-108543238D01*
X56494318Y-108700000D01*
X35150573Y-108700000D01*
X35234052Y-108616812D01*
X35240730Y-108608965D01*
X35365003Y-108436020D01*
X35370313Y-108427183D01*
X35464670Y-108236267D01*
X35468469Y-108226672D01*
X35530377Y-108022910D01*
X35532555Y-108012837D01*
X35533986Y-108001962D01*
X35531775Y-107987778D01*
X35518617Y-107984000D01*
X32883225Y-107984000D01*
X32869694Y-107987973D01*
X32868257Y-107997966D01*
X30775000Y-107997966D01*
X30775000Y-107464183D01*
X32864389Y-107464183D01*
X32865912Y-107472607D01*
X32878292Y-107476000D01*
X35518344Y-107476000D01*
X35531875Y-107472027D01*
X35533180Y-107462947D01*
X35491214Y-107295875D01*
X35487894Y-107286124D01*
X35402972Y-107090814D01*
X35398105Y-107081739D01*
X35282426Y-106902926D01*
X35276136Y-106894757D01*
X35132806Y-106737240D01*
X35125273Y-106730215D01*
X34958139Y-106598222D01*
X34949552Y-106592517D01*
X34763117Y-106489599D01*
X34753705Y-106485369D01*
X34562031Y-106417493D01*
X34537833Y-106400000D01*
X51794318Y-106400000D01*
X51814956Y-106556762D01*
X51875464Y-106702841D01*
X51971718Y-106828282D01*
X52097159Y-106924536D01*
X52243238Y-106985044D01*
X52400000Y-107005682D01*
X52408188Y-107004604D01*
X52548574Y-106986122D01*
X52556762Y-106985044D01*
X52702841Y-106924536D01*
X52828282Y-106828282D01*
X52924536Y-106702841D01*
X52985044Y-106556762D01*
X53005682Y-106400000D01*
X52985044Y-106243238D01*
X52967134Y-106200000D01*
X60994318Y-106200000D01*
X61014956Y-106356762D01*
X61075464Y-106502841D01*
X61171718Y-106628282D01*
X61297159Y-106724536D01*
X61443238Y-106785044D01*
X61600000Y-106805682D01*
X61608188Y-106804604D01*
X61748574Y-106786122D01*
X61756762Y-106785044D01*
X61764389Y-106781885D01*
X61764392Y-106781884D01*
X61836326Y-106752088D01*
X61906916Y-106744499D01*
X61970403Y-106776279D01*
X62006630Y-106837337D01*
X62009466Y-106884940D01*
X61994318Y-107000000D01*
X62014956Y-107156762D01*
X62075464Y-107302841D01*
X62171718Y-107428282D01*
X62297159Y-107524536D01*
X62443238Y-107585044D01*
X62600000Y-107605682D01*
X62608188Y-107604604D01*
X62748574Y-107586122D01*
X62756762Y-107585044D01*
X62902841Y-107524536D01*
X63028282Y-107428282D01*
X63124536Y-107302841D01*
X63185044Y-107156762D01*
X63205682Y-107000000D01*
X63185044Y-106843238D01*
X63146423Y-106750000D01*
X68894318Y-106750000D01*
X68895396Y-106758188D01*
X68913376Y-106894757D01*
X68914956Y-106906762D01*
X68975464Y-107052841D01*
X69071718Y-107178282D01*
X69197159Y-107274536D01*
X69343238Y-107335044D01*
X69500000Y-107355682D01*
X69508188Y-107354604D01*
X69648574Y-107336122D01*
X69656762Y-107335044D01*
X69802841Y-107274536D01*
X69928282Y-107178282D01*
X70024536Y-107052841D01*
X70085044Y-106906762D01*
X70086625Y-106894757D01*
X70104604Y-106758188D01*
X70105682Y-106750000D01*
X70085044Y-106593238D01*
X70024536Y-106447159D01*
X69928282Y-106321718D01*
X69912752Y-106309801D01*
X69828758Y-106245351D01*
X69802841Y-106225464D01*
X69656762Y-106164956D01*
X69500000Y-106144318D01*
X69343238Y-106164956D01*
X69197159Y-106225464D01*
X69171242Y-106245351D01*
X69087249Y-106309801D01*
X69071718Y-106321718D01*
X68975464Y-106447159D01*
X68914956Y-106593238D01*
X68894318Y-106750000D01*
X63146423Y-106750000D01*
X63124536Y-106697159D01*
X63028282Y-106571718D01*
X62902841Y-106475464D01*
X62756762Y-106414956D01*
X62600000Y-106394318D01*
X62443238Y-106414956D01*
X62435611Y-106418115D01*
X62435608Y-106418116D01*
X62363674Y-106447912D01*
X62293084Y-106455501D01*
X62229597Y-106423721D01*
X62193370Y-106362663D01*
X62190534Y-106315060D01*
X62205682Y-106200000D01*
X62185044Y-106043238D01*
X62124536Y-105897159D01*
X62028282Y-105771718D01*
X61902841Y-105675464D01*
X61756762Y-105614956D01*
X61600000Y-105594318D01*
X61443238Y-105614956D01*
X61297159Y-105675464D01*
X61171718Y-105771718D01*
X61075464Y-105897159D01*
X61014956Y-106043238D01*
X60994318Y-106200000D01*
X52967134Y-106200000D01*
X52924536Y-106097159D01*
X52828282Y-105971718D01*
X52702841Y-105875464D01*
X52556762Y-105814956D01*
X52400000Y-105794318D01*
X52243238Y-105814956D01*
X52097159Y-105875464D01*
X51971718Y-105971718D01*
X51875464Y-106097159D01*
X51814956Y-106243238D01*
X51794318Y-106400000D01*
X34537833Y-106400000D01*
X34504495Y-106375899D01*
X34478579Y-106309801D01*
X34492513Y-106240185D01*
X34541872Y-106189154D01*
X34570206Y-106177362D01*
X34575790Y-106175803D01*
X34575799Y-106175800D01*
X34581725Y-106174145D01*
X34587214Y-106171372D01*
X34587220Y-106171370D01*
X34760116Y-106084033D01*
X34765610Y-106081258D01*
X34803794Y-106051426D01*
X34897437Y-105978264D01*
X34927951Y-105954424D01*
X34970795Y-105904789D01*
X35058540Y-105803134D01*
X35058540Y-105803133D01*
X35062564Y-105798472D01*
X35077763Y-105771718D01*
X35107421Y-105719509D01*
X35164323Y-105619344D01*
X35229351Y-105423863D01*
X35255171Y-105219474D01*
X35255443Y-105200000D01*
X54394318Y-105200000D01*
X54414956Y-105356762D01*
X54475464Y-105502841D01*
X54571718Y-105628282D01*
X54697159Y-105724536D01*
X54843238Y-105785044D01*
X55000000Y-105805682D01*
X55008188Y-105804604D01*
X55148574Y-105786122D01*
X55156762Y-105785044D01*
X55302841Y-105724536D01*
X55428282Y-105628282D01*
X55524536Y-105502841D01*
X55585044Y-105356762D01*
X55605682Y-105200000D01*
X55585044Y-105043238D01*
X55524536Y-104897159D01*
X55452163Y-104802841D01*
X55449983Y-104800000D01*
X80594318Y-104800000D01*
X80614956Y-104956762D01*
X80675464Y-105102841D01*
X80680491Y-105109392D01*
X80750017Y-105200000D01*
X80771718Y-105228282D01*
X80897159Y-105324536D01*
X81043238Y-105385044D01*
X81200000Y-105405682D01*
X81208188Y-105404604D01*
X81348574Y-105386122D01*
X81356762Y-105385044D01*
X81502841Y-105324536D01*
X81628282Y-105228282D01*
X81649984Y-105200000D01*
X81719509Y-105109392D01*
X81724536Y-105102841D01*
X81785044Y-104956762D01*
X81805682Y-104800000D01*
X81785044Y-104643238D01*
X81724536Y-104497159D01*
X81628282Y-104371718D01*
X81539859Y-104303869D01*
X81534769Y-104299963D01*
X81492902Y-104242625D01*
X81488680Y-104171754D01*
X81523444Y-104109851D01*
X81534769Y-104100037D01*
X81621736Y-104033305D01*
X81628282Y-104028282D01*
X81649984Y-104000000D01*
X81719509Y-103909392D01*
X81724536Y-103902841D01*
X81785044Y-103756762D01*
X81793983Y-103688867D01*
X81804604Y-103608188D01*
X81805682Y-103600000D01*
X81785044Y-103443238D01*
X81724536Y-103297159D01*
X81656059Y-103207918D01*
X81633305Y-103178264D01*
X81628282Y-103171718D01*
X81502841Y-103075464D01*
X81356762Y-103014956D01*
X81200000Y-102994318D01*
X81043238Y-103014956D01*
X80897159Y-103075464D01*
X80771718Y-103171718D01*
X80766695Y-103178264D01*
X80743941Y-103207918D01*
X80675464Y-103297159D01*
X80614956Y-103443238D01*
X80594318Y-103600000D01*
X80595396Y-103608188D01*
X80606018Y-103688867D01*
X80614956Y-103756762D01*
X80675464Y-103902841D01*
X80680491Y-103909392D01*
X80750017Y-104000000D01*
X80771718Y-104028282D01*
X80778264Y-104033305D01*
X80865231Y-104100037D01*
X80907098Y-104157375D01*
X80911320Y-104228246D01*
X80876556Y-104290149D01*
X80865231Y-104299963D01*
X80860141Y-104303869D01*
X80771718Y-104371718D01*
X80675464Y-104497159D01*
X80614956Y-104643238D01*
X80594318Y-104800000D01*
X55449983Y-104800000D01*
X55433305Y-104778264D01*
X55428282Y-104771718D01*
X55302841Y-104675464D01*
X55156762Y-104614956D01*
X55000000Y-104594318D01*
X54843238Y-104614956D01*
X54697159Y-104675464D01*
X54571718Y-104771718D01*
X54566695Y-104778264D01*
X54547837Y-104802841D01*
X54475464Y-104897159D01*
X54414956Y-105043238D01*
X54394318Y-105200000D01*
X35255443Y-105200000D01*
X35255583Y-105190000D01*
X35235480Y-104984970D01*
X35175935Y-104787749D01*
X35079218Y-104605849D01*
X34996795Y-104504789D01*
X34952906Y-104450975D01*
X34952903Y-104450972D01*
X34949011Y-104446200D01*
X34927352Y-104428282D01*
X34795025Y-104318811D01*
X34795021Y-104318809D01*
X34790275Y-104314882D01*
X34609055Y-104216897D01*
X34412254Y-104155977D01*
X34406129Y-104155333D01*
X34406128Y-104155333D01*
X34213498Y-104135087D01*
X34213496Y-104135087D01*
X34207369Y-104134443D01*
X34120529Y-104142346D01*
X34008342Y-104152555D01*
X34008339Y-104152556D01*
X34002203Y-104153114D01*
X33804572Y-104211280D01*
X33799107Y-104214137D01*
X33797313Y-104215075D01*
X33622002Y-104306726D01*
X33617201Y-104310586D01*
X33617198Y-104310588D01*
X33576590Y-104343238D01*
X33461447Y-104435815D01*
X33329024Y-104593630D01*
X33326056Y-104599028D01*
X33326053Y-104599033D01*
X33281272Y-104680491D01*
X33229776Y-104774162D01*
X33167484Y-104970532D01*
X33166798Y-104976649D01*
X33166797Y-104976653D01*
X33151908Y-105109392D01*
X33144520Y-105175262D01*
X33145036Y-105181406D01*
X33159074Y-105348574D01*
X33161759Y-105380553D01*
X33163458Y-105386478D01*
X33194637Y-105495211D01*
X33218544Y-105578586D01*
X33221359Y-105584063D01*
X33221360Y-105584066D01*
X33266708Y-105672304D01*
X33312712Y-105761818D01*
X33440677Y-105923270D01*
X33597564Y-106056791D01*
X33777398Y-106157297D01*
X33842437Y-106178429D01*
X33901042Y-106218502D01*
X33928680Y-106283898D01*
X33916574Y-106353855D01*
X33868568Y-106406162D01*
X33842646Y-106418027D01*
X33676868Y-106472212D01*
X33667359Y-106476209D01*
X33478463Y-106574542D01*
X33469738Y-106580036D01*
X33299433Y-106707905D01*
X33291726Y-106714748D01*
X33144590Y-106868717D01*
X33138104Y-106876727D01*
X33018098Y-107052649D01*
X33013000Y-107061623D01*
X32923338Y-107254783D01*
X32919775Y-107264470D01*
X32864389Y-107464183D01*
X30775000Y-107464183D01*
X30775000Y-104000000D01*
X48581077Y-104000000D01*
X48601715Y-104156762D01*
X48662223Y-104302841D01*
X48758477Y-104428282D01*
X48883918Y-104524536D01*
X49029997Y-104585044D01*
X49186759Y-104605682D01*
X49194947Y-104604604D01*
X49335333Y-104586122D01*
X49343521Y-104585044D01*
X49489600Y-104524536D01*
X49521576Y-104500000D01*
X50194318Y-104500000D01*
X50214956Y-104656762D01*
X50275464Y-104802841D01*
X50371718Y-104928282D01*
X50497159Y-105024536D01*
X50643238Y-105085044D01*
X50800000Y-105105682D01*
X50808188Y-105104604D01*
X50821580Y-105102841D01*
X50956762Y-105085044D01*
X51102841Y-105024536D01*
X51228282Y-104928282D01*
X51324536Y-104802841D01*
X51385044Y-104656762D01*
X51405682Y-104500000D01*
X51385044Y-104343238D01*
X51324536Y-104197159D01*
X51228282Y-104071718D01*
X51102841Y-103975464D01*
X50956762Y-103914956D01*
X50800000Y-103894318D01*
X50643238Y-103914956D01*
X50497159Y-103975464D01*
X50371718Y-104071718D01*
X50275464Y-104197159D01*
X50214956Y-104343238D01*
X50194318Y-104500000D01*
X49521576Y-104500000D01*
X49615041Y-104428282D01*
X49711295Y-104302841D01*
X49771803Y-104156762D01*
X49792441Y-104000000D01*
X49771803Y-103843238D01*
X49711295Y-103697159D01*
X49642818Y-103607918D01*
X49620064Y-103578264D01*
X49615041Y-103571718D01*
X49489600Y-103475464D01*
X49343521Y-103414956D01*
X49186759Y-103394318D01*
X49029997Y-103414956D01*
X48883918Y-103475464D01*
X48758477Y-103571718D01*
X48753454Y-103578264D01*
X48730700Y-103607918D01*
X48662223Y-103697159D01*
X48601715Y-103843238D01*
X48581077Y-104000000D01*
X30775000Y-104000000D01*
X30775000Y-103519748D01*
X33149500Y-103519748D01*
X33161133Y-103578231D01*
X33205448Y-103644552D01*
X33271769Y-103688867D01*
X33283938Y-103691288D01*
X33283939Y-103691288D01*
X33324184Y-103699293D01*
X33330252Y-103700500D01*
X35069748Y-103700500D01*
X35075816Y-103699293D01*
X35116061Y-103691288D01*
X35116062Y-103691288D01*
X35128231Y-103688867D01*
X35194552Y-103644552D01*
X35238867Y-103578231D01*
X35250500Y-103519748D01*
X35250500Y-103200000D01*
X77794318Y-103200000D01*
X77814956Y-103356762D01*
X77875464Y-103502841D01*
X77880491Y-103509392D01*
X77950017Y-103600000D01*
X77971718Y-103628282D01*
X77978264Y-103633305D01*
X78001902Y-103651443D01*
X78097159Y-103724536D01*
X78243238Y-103785044D01*
X78400000Y-103805682D01*
X78408188Y-103804604D01*
X78548574Y-103786122D01*
X78556762Y-103785044D01*
X78702841Y-103724536D01*
X78798098Y-103651443D01*
X78821736Y-103633305D01*
X78828282Y-103628282D01*
X78849984Y-103600000D01*
X78919509Y-103509392D01*
X78924536Y-103502841D01*
X78985044Y-103356762D01*
X79005682Y-103200000D01*
X78985044Y-103043238D01*
X78924536Y-102897159D01*
X78828282Y-102771718D01*
X78702841Y-102675464D01*
X78556762Y-102614956D01*
X78400000Y-102594318D01*
X78243238Y-102614956D01*
X78097159Y-102675464D01*
X77971718Y-102771718D01*
X77875464Y-102897159D01*
X77814956Y-103043238D01*
X77794318Y-103200000D01*
X35250500Y-103200000D01*
X35250500Y-101780252D01*
X35238867Y-101721769D01*
X35194552Y-101655448D01*
X35128231Y-101611133D01*
X35116062Y-101608712D01*
X35116061Y-101608712D01*
X35075816Y-101600707D01*
X35069748Y-101599500D01*
X33330252Y-101599500D01*
X33324184Y-101600707D01*
X33283939Y-101608712D01*
X33283938Y-101608712D01*
X33271769Y-101611133D01*
X33205448Y-101655448D01*
X33161133Y-101721769D01*
X33149500Y-101780252D01*
X33149500Y-103519748D01*
X30775000Y-103519748D01*
X30775000Y-98018440D01*
X33344770Y-98018440D01*
X33359200Y-98238604D01*
X33360621Y-98244200D01*
X33360622Y-98244205D01*
X33412090Y-98446857D01*
X33413511Y-98452452D01*
X33415928Y-98457694D01*
X33415928Y-98457695D01*
X33452794Y-98537662D01*
X33505883Y-98652821D01*
X33633222Y-98833002D01*
X33791264Y-98986961D01*
X33796060Y-98990166D01*
X33796063Y-98990168D01*
X33929471Y-99079308D01*
X33974717Y-99109540D01*
X33980020Y-99111818D01*
X33980023Y-99111820D01*
X34152587Y-99185959D01*
X34177436Y-99196635D01*
X34235966Y-99209879D01*
X34386995Y-99244054D01*
X34387001Y-99244055D01*
X34392632Y-99245329D01*
X34398403Y-99245556D01*
X34398405Y-99245556D01*
X34466211Y-99248220D01*
X34613098Y-99253991D01*
X34722275Y-99238161D01*
X34825738Y-99223160D01*
X34825743Y-99223159D01*
X34831452Y-99222331D01*
X34836916Y-99220476D01*
X34836921Y-99220475D01*
X35034907Y-99153268D01*
X35034912Y-99153266D01*
X35040379Y-99151410D01*
X35232884Y-99043602D01*
X35254365Y-99025737D01*
X35398086Y-98906204D01*
X35402518Y-98902518D01*
X35518162Y-98763472D01*
X35539908Y-98737326D01*
X35539910Y-98737323D01*
X35543602Y-98732884D01*
X35623785Y-98589707D01*
X35648586Y-98545422D01*
X35648587Y-98545420D01*
X35651410Y-98540379D01*
X35653266Y-98534912D01*
X35653268Y-98534907D01*
X35720475Y-98336921D01*
X35720476Y-98336916D01*
X35722331Y-98331452D01*
X35723159Y-98325743D01*
X35723160Y-98325738D01*
X35748424Y-98151494D01*
X35753991Y-98113098D01*
X35755643Y-98050000D01*
X35752743Y-98018440D01*
X39844770Y-98018440D01*
X39859200Y-98238604D01*
X39860621Y-98244200D01*
X39860622Y-98244205D01*
X39912090Y-98446857D01*
X39913511Y-98452452D01*
X39915928Y-98457694D01*
X39915928Y-98457695D01*
X39952794Y-98537662D01*
X40005883Y-98652821D01*
X40133222Y-98833002D01*
X40291264Y-98986961D01*
X40296060Y-98990166D01*
X40296063Y-98990168D01*
X40429471Y-99079308D01*
X40474717Y-99109540D01*
X40480020Y-99111818D01*
X40480023Y-99111820D01*
X40652587Y-99185959D01*
X40677436Y-99196635D01*
X40735966Y-99209879D01*
X40886995Y-99244054D01*
X40887001Y-99244055D01*
X40892632Y-99245329D01*
X40898403Y-99245556D01*
X40898405Y-99245556D01*
X40966211Y-99248220D01*
X41113098Y-99253991D01*
X41222275Y-99238161D01*
X41325738Y-99223160D01*
X41325743Y-99223159D01*
X41331452Y-99222331D01*
X41336916Y-99220476D01*
X41336921Y-99220475D01*
X41534907Y-99153268D01*
X41534912Y-99153266D01*
X41540379Y-99151410D01*
X41732884Y-99043602D01*
X41754365Y-99025737D01*
X41898086Y-98906204D01*
X41902518Y-98902518D01*
X42018162Y-98763472D01*
X42039908Y-98737326D01*
X42039910Y-98737323D01*
X42043602Y-98732884D01*
X42123785Y-98589707D01*
X42148586Y-98545422D01*
X42148587Y-98545420D01*
X42151410Y-98540379D01*
X42153266Y-98534912D01*
X42153268Y-98534907D01*
X42220475Y-98336921D01*
X42220476Y-98336916D01*
X42222331Y-98331452D01*
X42223159Y-98325743D01*
X42223160Y-98325738D01*
X42248424Y-98151494D01*
X42250053Y-98140262D01*
X45144520Y-98140262D01*
X45161759Y-98345553D01*
X45163458Y-98351478D01*
X45210136Y-98514263D01*
X45218544Y-98543586D01*
X45221359Y-98549063D01*
X45221360Y-98549066D01*
X45309897Y-98721341D01*
X45312712Y-98726818D01*
X45440677Y-98888270D01*
X45597564Y-99021791D01*
X45602942Y-99024797D01*
X45602944Y-99024798D01*
X45629980Y-99039908D01*
X45777398Y-99122297D01*
X45858307Y-99148586D01*
X45967471Y-99184056D01*
X45967475Y-99184057D01*
X45973329Y-99185959D01*
X46177894Y-99210351D01*
X46184029Y-99209879D01*
X46184031Y-99209879D01*
X46240039Y-99205569D01*
X46383300Y-99194546D01*
X46389230Y-99192890D01*
X46389232Y-99192890D01*
X46531142Y-99153268D01*
X46581725Y-99139145D01*
X46587214Y-99136372D01*
X46587220Y-99136370D01*
X46760116Y-99049033D01*
X46765610Y-99046258D01*
X46797466Y-99021370D01*
X46923101Y-98923213D01*
X46927951Y-98919424D01*
X46946370Y-98898086D01*
X47058540Y-98768134D01*
X47058540Y-98768133D01*
X47062564Y-98763472D01*
X47076752Y-98738497D01*
X88994637Y-98738497D01*
X88994881Y-98742932D01*
X88994881Y-98742936D01*
X89008488Y-98990168D01*
X89010205Y-99021370D01*
X89027105Y-99106330D01*
X89054500Y-99244054D01*
X89065474Y-99299226D01*
X89066950Y-99303429D01*
X89088181Y-99363885D01*
X89159342Y-99566524D01*
X89161395Y-99570477D01*
X89161398Y-99570483D01*
X89235360Y-99712865D01*
X89289936Y-99817928D01*
X89292519Y-99821543D01*
X89292523Y-99821549D01*
X89325176Y-99867242D01*
X89454651Y-100048424D01*
X89457729Y-100051651D01*
X89457731Y-100051653D01*
X89500355Y-100096334D01*
X89650199Y-100253412D01*
X89872680Y-100428801D01*
X89982927Y-100492837D01*
X90113807Y-100568859D01*
X90113813Y-100568862D01*
X90117654Y-100571093D01*
X90380232Y-100677448D01*
X90384545Y-100678519D01*
X90384550Y-100678521D01*
X90650856Y-100744672D01*
X90650861Y-100744673D01*
X90655177Y-100745745D01*
X90659605Y-100746199D01*
X90659607Y-100746199D01*
X90735307Y-100753955D01*
X90896790Y-100770500D01*
X91072170Y-100770500D01*
X91282593Y-100755601D01*
X91286948Y-100754663D01*
X91286951Y-100754663D01*
X91555200Y-100696911D01*
X91555202Y-100696911D01*
X91559547Y-100695975D01*
X91825337Y-100597920D01*
X92074660Y-100463393D01*
X92302540Y-100295078D01*
X92504430Y-100096334D01*
X92507131Y-100092794D01*
X92507137Y-100092788D01*
X92673602Y-99874667D01*
X92673605Y-99874663D01*
X92676304Y-99871126D01*
X92814730Y-99623947D01*
X92836946Y-99566524D01*
X92915341Y-99363885D01*
X92915343Y-99363879D01*
X92916948Y-99359730D01*
X92980918Y-99083747D01*
X93005363Y-98801503D01*
X93002140Y-98742936D01*
X92990040Y-98523073D01*
X92990039Y-98523066D01*
X92989795Y-98518630D01*
X92952563Y-98331452D01*
X92935396Y-98245146D01*
X92935395Y-98245141D01*
X92934526Y-98240774D01*
X92913279Y-98180270D01*
X92842136Y-97977684D01*
X92842135Y-97977681D01*
X92840658Y-97973476D01*
X92838605Y-97969523D01*
X92838602Y-97969517D01*
X92721992Y-97745035D01*
X92710064Y-97722072D01*
X92707481Y-97718457D01*
X92707477Y-97718451D01*
X92609884Y-97581884D01*
X92545349Y-97491576D01*
X92503028Y-97447212D01*
X92352876Y-97289811D01*
X92352873Y-97289808D01*
X92349801Y-97286588D01*
X92127320Y-97111199D01*
X92013713Y-97045211D01*
X91886193Y-96971141D01*
X91886187Y-96971138D01*
X91882346Y-96968907D01*
X91812309Y-96940539D01*
X91623894Y-96864223D01*
X91623891Y-96864222D01*
X91619768Y-96862552D01*
X91615455Y-96861481D01*
X91615450Y-96861479D01*
X91349144Y-96795328D01*
X91349139Y-96795327D01*
X91344823Y-96794255D01*
X91340395Y-96793801D01*
X91340393Y-96793801D01*
X91245552Y-96784084D01*
X91103210Y-96769500D01*
X90927830Y-96769500D01*
X90717407Y-96784399D01*
X90713052Y-96785337D01*
X90713049Y-96785337D01*
X90444800Y-96843089D01*
X90444798Y-96843089D01*
X90440453Y-96844025D01*
X90174663Y-96942080D01*
X90170745Y-96944194D01*
X90116202Y-96973624D01*
X89925340Y-97076607D01*
X89697460Y-97244922D01*
X89694281Y-97248051D01*
X89694278Y-97248054D01*
X89658469Y-97283305D01*
X89495570Y-97443666D01*
X89492869Y-97447206D01*
X89492863Y-97447212D01*
X89358324Y-97623500D01*
X89323696Y-97668874D01*
X89321521Y-97672758D01*
X89230076Y-97836046D01*
X89185270Y-97916053D01*
X89183662Y-97920211D01*
X89183659Y-97920216D01*
X89084659Y-98176115D01*
X89083052Y-98180270D01*
X89082048Y-98184602D01*
X89082047Y-98184605D01*
X89068014Y-98245146D01*
X89019082Y-98456253D01*
X88994637Y-98738497D01*
X47076752Y-98738497D01*
X47079941Y-98732884D01*
X47101056Y-98695714D01*
X47164323Y-98584344D01*
X47229351Y-98388863D01*
X47255171Y-98184474D01*
X47255583Y-98155000D01*
X47235480Y-97949970D01*
X47175935Y-97752749D01*
X47079218Y-97570849D01*
X46968458Y-97435044D01*
X46952906Y-97415975D01*
X46952903Y-97415972D01*
X46949011Y-97411200D01*
X46931786Y-97396950D01*
X46795025Y-97283811D01*
X46795021Y-97283809D01*
X46790275Y-97279882D01*
X46609055Y-97181897D01*
X46412254Y-97120977D01*
X46406129Y-97120333D01*
X46406128Y-97120333D01*
X46213498Y-97100087D01*
X46213496Y-97100087D01*
X46207369Y-97099443D01*
X46120529Y-97107346D01*
X46008342Y-97117555D01*
X46008339Y-97117556D01*
X46002203Y-97118114D01*
X45804572Y-97176280D01*
X45799107Y-97179137D01*
X45788223Y-97184827D01*
X45622002Y-97271726D01*
X45617201Y-97275586D01*
X45617198Y-97275588D01*
X45490201Y-97377696D01*
X45461447Y-97400815D01*
X45329024Y-97558630D01*
X45326056Y-97564028D01*
X45326053Y-97564033D01*
X45268417Y-97668874D01*
X45229776Y-97739162D01*
X45227913Y-97745035D01*
X45172343Y-97920216D01*
X45167484Y-97935532D01*
X45166798Y-97941649D01*
X45166797Y-97941653D01*
X45155059Y-98046305D01*
X45144520Y-98140262D01*
X42250053Y-98140262D01*
X42253991Y-98113098D01*
X42255643Y-98050000D01*
X42235454Y-97830289D01*
X42175565Y-97617936D01*
X42077980Y-97420053D01*
X42046351Y-97377696D01*
X41949420Y-97247891D01*
X41949420Y-97247890D01*
X41945967Y-97243267D01*
X41812459Y-97119853D01*
X41788189Y-97097418D01*
X41788186Y-97097416D01*
X41783949Y-97093499D01*
X41635762Y-97000000D01*
X49394318Y-97000000D01*
X49414956Y-97156762D01*
X49475464Y-97302841D01*
X49515183Y-97354604D01*
X49562275Y-97415975D01*
X49571718Y-97428282D01*
X49697159Y-97524536D01*
X49843238Y-97585044D01*
X49851426Y-97586122D01*
X49912314Y-97594138D01*
X50000000Y-97605682D01*
X50008188Y-97604604D01*
X50148574Y-97586122D01*
X50156762Y-97585044D01*
X50302841Y-97524536D01*
X50428282Y-97428282D01*
X50437726Y-97415975D01*
X50484817Y-97354604D01*
X50524536Y-97302841D01*
X50585044Y-97156762D01*
X50605682Y-97000000D01*
X50585044Y-96843238D01*
X50546423Y-96750000D01*
X60144318Y-96750000D01*
X60145396Y-96758188D01*
X60157359Y-96849053D01*
X60164956Y-96906762D01*
X60225464Y-97052841D01*
X60321718Y-97178282D01*
X60447159Y-97274536D01*
X60593238Y-97335044D01*
X60750000Y-97355682D01*
X60758188Y-97354604D01*
X60898574Y-97336122D01*
X60906762Y-97335044D01*
X61052841Y-97274536D01*
X61178282Y-97178282D01*
X61274536Y-97052841D01*
X61335044Y-96906762D01*
X61342517Y-96850000D01*
X69944318Y-96850000D01*
X69964956Y-97006762D01*
X70025464Y-97152841D01*
X70121718Y-97278282D01*
X70128264Y-97283305D01*
X70128951Y-97283832D01*
X70247159Y-97374536D01*
X70393238Y-97435044D01*
X70401426Y-97436122D01*
X70458729Y-97443666D01*
X70550000Y-97455682D01*
X70558188Y-97454604D01*
X70698574Y-97436122D01*
X70706762Y-97435044D01*
X70852841Y-97374536D01*
X70971049Y-97283832D01*
X70971736Y-97283305D01*
X70978282Y-97278282D01*
X71074536Y-97152841D01*
X71135044Y-97006762D01*
X71155682Y-96850000D01*
X71135044Y-96693238D01*
X71096423Y-96600000D01*
X77694318Y-96600000D01*
X77714956Y-96756762D01*
X77775464Y-96902841D01*
X77780491Y-96909392D01*
X77850017Y-97000000D01*
X77871718Y-97028282D01*
X77997159Y-97124536D01*
X78143238Y-97185044D01*
X78300000Y-97205682D01*
X78308188Y-97204604D01*
X78448574Y-97186122D01*
X78456762Y-97185044D01*
X78602841Y-97124536D01*
X78728282Y-97028282D01*
X78749984Y-97000000D01*
X78819509Y-96909392D01*
X78824536Y-96902841D01*
X78885044Y-96756762D01*
X78905682Y-96600000D01*
X78885044Y-96443238D01*
X78824536Y-96297159D01*
X78728282Y-96171718D01*
X78602841Y-96075464D01*
X78456762Y-96014956D01*
X78300000Y-95994318D01*
X78143238Y-96014956D01*
X77997159Y-96075464D01*
X77871718Y-96171718D01*
X77775464Y-96297159D01*
X77714956Y-96443238D01*
X77694318Y-96600000D01*
X71096423Y-96600000D01*
X71074536Y-96547159D01*
X70978282Y-96421718D01*
X70852841Y-96325464D01*
X70706762Y-96264956D01*
X70550000Y-96244318D01*
X70393238Y-96264956D01*
X70247159Y-96325464D01*
X70121718Y-96421718D01*
X70025464Y-96547159D01*
X69964956Y-96693238D01*
X69944318Y-96850000D01*
X61342517Y-96850000D01*
X61342642Y-96849053D01*
X61354604Y-96758188D01*
X61355682Y-96750000D01*
X61335044Y-96593238D01*
X61274536Y-96447159D01*
X61178282Y-96321718D01*
X61052841Y-96225464D01*
X60906762Y-96164956D01*
X60750000Y-96144318D01*
X60593238Y-96164956D01*
X60447159Y-96225464D01*
X60321718Y-96321718D01*
X60225464Y-96447159D01*
X60164956Y-96593238D01*
X60144318Y-96750000D01*
X50546423Y-96750000D01*
X50524536Y-96697159D01*
X50450597Y-96600800D01*
X50433305Y-96578264D01*
X50428282Y-96571718D01*
X50302841Y-96475464D01*
X50156762Y-96414956D01*
X50000000Y-96394318D01*
X49843238Y-96414956D01*
X49697159Y-96475464D01*
X49571718Y-96571718D01*
X49566695Y-96578264D01*
X49549403Y-96600800D01*
X49475464Y-96697159D01*
X49414956Y-96843238D01*
X49394318Y-97000000D01*
X41635762Y-97000000D01*
X41597350Y-96975764D01*
X41443517Y-96914391D01*
X41397785Y-96896146D01*
X41392421Y-96894006D01*
X41386761Y-96892880D01*
X41386757Y-96892879D01*
X41181691Y-96852089D01*
X41181688Y-96852089D01*
X41176024Y-96850962D01*
X41170249Y-96850886D01*
X41170245Y-96850886D01*
X41059504Y-96849437D01*
X40955406Y-96848074D01*
X40949709Y-96849053D01*
X40949708Y-96849053D01*
X40743654Y-96884459D01*
X40743653Y-96884459D01*
X40737957Y-96885438D01*
X40530957Y-96961804D01*
X40525996Y-96964756D01*
X40525995Y-96964756D01*
X40430221Y-97021736D01*
X40341341Y-97074614D01*
X40175457Y-97220090D01*
X40038863Y-97393360D01*
X39936131Y-97588620D01*
X39870703Y-97799333D01*
X39844770Y-98018440D01*
X35752743Y-98018440D01*
X35735454Y-97830289D01*
X35675565Y-97617936D01*
X35577980Y-97420053D01*
X35546351Y-97377696D01*
X35449420Y-97247891D01*
X35449420Y-97247890D01*
X35445967Y-97243267D01*
X35312459Y-97119853D01*
X35288189Y-97097418D01*
X35288186Y-97097416D01*
X35283949Y-97093499D01*
X35097350Y-96975764D01*
X34943517Y-96914391D01*
X34897785Y-96896146D01*
X34892421Y-96894006D01*
X34886761Y-96892880D01*
X34886757Y-96892879D01*
X34681691Y-96852089D01*
X34681688Y-96852089D01*
X34676024Y-96850962D01*
X34670249Y-96850886D01*
X34670245Y-96850886D01*
X34559504Y-96849437D01*
X34455406Y-96848074D01*
X34449709Y-96849053D01*
X34449708Y-96849053D01*
X34243654Y-96884459D01*
X34243653Y-96884459D01*
X34237957Y-96885438D01*
X34030957Y-96961804D01*
X34025996Y-96964756D01*
X34025995Y-96964756D01*
X33930221Y-97021736D01*
X33841341Y-97074614D01*
X33675457Y-97220090D01*
X33538863Y-97393360D01*
X33436131Y-97588620D01*
X33370703Y-97799333D01*
X33344770Y-98018440D01*
X30775000Y-98018440D01*
X30775000Y-94782670D01*
X33682160Y-94782670D01*
X33687887Y-94790320D01*
X33859042Y-94895205D01*
X33867837Y-94899687D01*
X34077988Y-94986734D01*
X34087373Y-94989783D01*
X34308554Y-95042885D01*
X34318301Y-95044428D01*
X34545070Y-95062275D01*
X34554930Y-95062275D01*
X34781699Y-95044428D01*
X34791446Y-95042885D01*
X35012627Y-94989783D01*
X35022012Y-94986734D01*
X35232163Y-94899687D01*
X35240958Y-94895205D01*
X35408445Y-94792568D01*
X35417400Y-94782670D01*
X40182160Y-94782670D01*
X40187887Y-94790320D01*
X40359042Y-94895205D01*
X40367837Y-94899687D01*
X40577988Y-94986734D01*
X40587373Y-94989783D01*
X40808554Y-95042885D01*
X40818301Y-95044428D01*
X41045070Y-95062275D01*
X41054930Y-95062275D01*
X41281699Y-95044428D01*
X41291446Y-95042885D01*
X41512627Y-94989783D01*
X41522012Y-94986734D01*
X41732163Y-94899687D01*
X41740958Y-94895205D01*
X41908445Y-94792568D01*
X41917907Y-94782110D01*
X41914124Y-94773334D01*
X41062812Y-93922022D01*
X41048868Y-93914408D01*
X41047035Y-93914539D01*
X41040420Y-93918790D01*
X40188920Y-94770290D01*
X40182160Y-94782670D01*
X35417400Y-94782670D01*
X35417907Y-94782110D01*
X35414124Y-94773334D01*
X34562812Y-93922022D01*
X34548868Y-93914408D01*
X34547035Y-93914539D01*
X34540420Y-93918790D01*
X33688920Y-94770290D01*
X33682160Y-94782670D01*
X30775000Y-94782670D01*
X30775000Y-93554930D01*
X33037725Y-93554930D01*
X33055572Y-93781699D01*
X33057115Y-93791446D01*
X33110217Y-94012627D01*
X33113266Y-94022012D01*
X33200313Y-94232163D01*
X33204795Y-94240958D01*
X33307432Y-94408445D01*
X33317890Y-94417907D01*
X33326666Y-94414124D01*
X34177978Y-93562812D01*
X34184356Y-93551132D01*
X34914408Y-93551132D01*
X34914539Y-93552965D01*
X34918790Y-93559580D01*
X35770290Y-94411080D01*
X35782670Y-94417840D01*
X35790320Y-94412113D01*
X35895205Y-94240958D01*
X35899687Y-94232163D01*
X35986734Y-94022012D01*
X35989783Y-94012627D01*
X36042885Y-93791446D01*
X36044428Y-93781699D01*
X36062275Y-93554930D01*
X36062275Y-93545070D01*
X36044428Y-93318301D01*
X36042885Y-93308554D01*
X35989783Y-93087373D01*
X35986734Y-93077988D01*
X35975141Y-93050000D01*
X37944318Y-93050000D01*
X37964956Y-93206762D01*
X38025464Y-93352841D01*
X38121718Y-93478282D01*
X38247159Y-93574536D01*
X38393238Y-93635044D01*
X38550000Y-93655682D01*
X38558188Y-93654604D01*
X38698574Y-93636122D01*
X38706762Y-93635044D01*
X38852841Y-93574536D01*
X38878392Y-93554930D01*
X39537725Y-93554930D01*
X39555572Y-93781699D01*
X39557115Y-93791446D01*
X39610217Y-94012627D01*
X39613266Y-94022012D01*
X39700313Y-94232163D01*
X39704795Y-94240958D01*
X39807432Y-94408445D01*
X39817890Y-94417907D01*
X39826666Y-94414124D01*
X40677978Y-93562812D01*
X40684356Y-93551132D01*
X41414408Y-93551132D01*
X41414539Y-93552965D01*
X41418790Y-93559580D01*
X42270290Y-94411080D01*
X42282670Y-94417840D01*
X42290320Y-94412113D01*
X42395205Y-94240958D01*
X42399687Y-94232163D01*
X42486734Y-94022012D01*
X42489783Y-94012627D01*
X42500097Y-93969669D01*
X44842001Y-93969669D01*
X44842371Y-93976490D01*
X44847895Y-94027352D01*
X44851521Y-94042604D01*
X44896676Y-94163054D01*
X44905214Y-94178649D01*
X44981715Y-94280724D01*
X44994276Y-94293285D01*
X45096351Y-94369786D01*
X45111946Y-94378324D01*
X45232394Y-94423478D01*
X45247649Y-94427105D01*
X45298514Y-94432631D01*
X45305328Y-94433000D01*
X45680432Y-94433000D01*
X45748553Y-94453002D01*
X45795046Y-94506658D01*
X45805150Y-94576932D01*
X45775656Y-94641512D01*
X45738812Y-94670659D01*
X45622002Y-94731726D01*
X45617201Y-94735586D01*
X45617198Y-94735588D01*
X45466254Y-94856950D01*
X45461447Y-94860815D01*
X45329024Y-95018630D01*
X45326056Y-95024028D01*
X45326053Y-95024033D01*
X45232743Y-95193765D01*
X45229776Y-95199162D01*
X45167484Y-95395532D01*
X45166798Y-95401649D01*
X45166797Y-95401653D01*
X45145207Y-95594137D01*
X45144520Y-95600262D01*
X45161759Y-95805553D01*
X45163458Y-95811478D01*
X45216196Y-95995396D01*
X45218544Y-96003586D01*
X45221359Y-96009063D01*
X45221360Y-96009066D01*
X45308316Y-96178264D01*
X45312712Y-96186818D01*
X45440677Y-96348270D01*
X45445370Y-96352264D01*
X45445371Y-96352265D01*
X45565837Y-96454789D01*
X45597564Y-96481791D01*
X45777398Y-96582297D01*
X45836271Y-96601426D01*
X45967471Y-96644056D01*
X45967475Y-96644057D01*
X45973329Y-96645959D01*
X46177894Y-96670351D01*
X46184029Y-96669879D01*
X46184031Y-96669879D01*
X46240039Y-96665569D01*
X46383300Y-96654546D01*
X46389230Y-96652890D01*
X46389232Y-96652890D01*
X46575797Y-96600800D01*
X46575796Y-96600800D01*
X46581725Y-96599145D01*
X46587214Y-96596372D01*
X46587220Y-96596370D01*
X46760116Y-96509033D01*
X46765610Y-96506258D01*
X46798591Y-96480491D01*
X46883852Y-96413878D01*
X46927951Y-96379424D01*
X46970189Y-96330491D01*
X47058540Y-96228134D01*
X47058540Y-96228133D01*
X47062564Y-96223472D01*
X47083387Y-96186818D01*
X47107530Y-96144318D01*
X47164323Y-96044344D01*
X47229351Y-95848863D01*
X47255171Y-95644474D01*
X47255583Y-95615000D01*
X47235480Y-95409970D01*
X47175935Y-95212749D01*
X47079218Y-95030849D01*
X46968589Y-94895205D01*
X46952906Y-94875975D01*
X46952903Y-94875972D01*
X46949011Y-94871200D01*
X46931786Y-94856950D01*
X46795025Y-94743811D01*
X46795021Y-94743809D01*
X46790275Y-94739882D01*
X46662255Y-94670662D01*
X46660726Y-94669835D01*
X46610317Y-94619840D01*
X46594940Y-94550529D01*
X46619476Y-94483907D01*
X46676136Y-94441126D01*
X46720655Y-94432999D01*
X47094669Y-94432999D01*
X47101490Y-94432629D01*
X47152352Y-94427105D01*
X47167604Y-94423479D01*
X47288054Y-94378324D01*
X47303649Y-94369786D01*
X47405724Y-94293285D01*
X47418285Y-94280724D01*
X47494786Y-94178649D01*
X47503324Y-94163054D01*
X47548478Y-94042606D01*
X47552105Y-94027351D01*
X47557631Y-93976486D01*
X47558000Y-93969672D01*
X47558000Y-93400000D01*
X48594318Y-93400000D01*
X48614956Y-93556762D01*
X48675464Y-93702841D01*
X48771718Y-93828282D01*
X48897159Y-93924536D01*
X49043238Y-93985044D01*
X49200000Y-94005682D01*
X49208188Y-94004604D01*
X49348574Y-93986122D01*
X49356762Y-93985044D01*
X49502841Y-93924536D01*
X49628282Y-93828282D01*
X49688350Y-93750000D01*
X55894318Y-93750000D01*
X55914956Y-93906762D01*
X55975464Y-94052841D01*
X56071718Y-94178282D01*
X56197159Y-94274536D01*
X56343238Y-94335044D01*
X56500000Y-94355682D01*
X56508188Y-94354604D01*
X56648574Y-94336122D01*
X56656762Y-94335044D01*
X56802841Y-94274536D01*
X56928282Y-94178282D01*
X57024536Y-94052841D01*
X57085044Y-93906762D01*
X57105682Y-93750000D01*
X57085044Y-93593238D01*
X57024536Y-93447159D01*
X56938370Y-93334865D01*
X56933305Y-93328264D01*
X56928282Y-93321718D01*
X56802841Y-93225464D01*
X56656762Y-93164956D01*
X56500000Y-93144318D01*
X56343238Y-93164956D01*
X56197159Y-93225464D01*
X56071718Y-93321718D01*
X56066695Y-93328264D01*
X56061630Y-93334865D01*
X55975464Y-93447159D01*
X55914956Y-93593238D01*
X55894318Y-93750000D01*
X49688350Y-93750000D01*
X49724536Y-93702841D01*
X49785044Y-93556762D01*
X49805682Y-93400000D01*
X49785044Y-93243238D01*
X49724536Y-93097159D01*
X49628282Y-92971718D01*
X49502841Y-92875464D01*
X49373130Y-92821736D01*
X49364391Y-92818116D01*
X49356762Y-92814956D01*
X49200000Y-92794318D01*
X49043238Y-92814956D01*
X49035609Y-92818116D01*
X49026870Y-92821736D01*
X48897159Y-92875464D01*
X48771718Y-92971718D01*
X48675464Y-93097159D01*
X48614956Y-93243238D01*
X48594318Y-93400000D01*
X47558000Y-93400000D01*
X47558000Y-93347115D01*
X47553525Y-93331876D01*
X47552135Y-93330671D01*
X47544452Y-93329000D01*
X44860116Y-93329000D01*
X44844877Y-93333475D01*
X44843672Y-93334865D01*
X44842001Y-93342548D01*
X44842001Y-93969669D01*
X42500097Y-93969669D01*
X42542885Y-93791446D01*
X42544428Y-93781699D01*
X42562275Y-93554930D01*
X42562275Y-93545070D01*
X42544428Y-93318301D01*
X42542885Y-93308554D01*
X42489783Y-93087373D01*
X42486734Y-93077988D01*
X42399687Y-92867837D01*
X42395205Y-92859042D01*
X42360792Y-92802885D01*
X44842000Y-92802885D01*
X44846475Y-92818124D01*
X44847865Y-92819329D01*
X44855548Y-92821000D01*
X45927885Y-92821000D01*
X45943124Y-92816525D01*
X45944329Y-92815135D01*
X45946000Y-92807452D01*
X45946000Y-92802885D01*
X46454000Y-92802885D01*
X46458475Y-92818124D01*
X46459865Y-92819329D01*
X46467548Y-92821000D01*
X47539884Y-92821000D01*
X47555123Y-92816525D01*
X47556328Y-92815135D01*
X47557999Y-92807452D01*
X47557999Y-92180331D01*
X47557629Y-92173510D01*
X47552105Y-92122648D01*
X47548479Y-92107396D01*
X47508218Y-92000000D01*
X66644318Y-92000000D01*
X66664956Y-92156762D01*
X66725464Y-92302841D01*
X66761650Y-92350000D01*
X66800017Y-92400000D01*
X66821718Y-92428282D01*
X66947159Y-92524536D01*
X67093238Y-92585044D01*
X67250000Y-92605682D01*
X67258188Y-92604604D01*
X67398574Y-92586122D01*
X67406762Y-92585044D01*
X67552841Y-92524536D01*
X67678282Y-92428282D01*
X67699984Y-92400000D01*
X67738350Y-92350000D01*
X77194318Y-92350000D01*
X77214956Y-92506762D01*
X77275464Y-92652841D01*
X77371718Y-92778282D01*
X77497159Y-92874536D01*
X77643238Y-92935044D01*
X77800000Y-92955682D01*
X77808188Y-92954604D01*
X77948574Y-92936122D01*
X77956762Y-92935044D01*
X78102841Y-92874536D01*
X78228282Y-92778282D01*
X78324536Y-92652841D01*
X78385044Y-92506762D01*
X78399099Y-92400000D01*
X84594318Y-92400000D01*
X84614956Y-92556762D01*
X84675464Y-92702841D01*
X84680491Y-92709392D01*
X84763924Y-92818124D01*
X84771718Y-92828282D01*
X84897159Y-92924536D01*
X85043238Y-92985044D01*
X85200000Y-93005682D01*
X85208188Y-93004604D01*
X85348574Y-92986122D01*
X85356762Y-92985044D01*
X85502841Y-92924536D01*
X85628282Y-92828282D01*
X85636077Y-92818124D01*
X85719509Y-92709392D01*
X85724536Y-92702841D01*
X85785044Y-92556762D01*
X85805682Y-92400000D01*
X85785044Y-92243238D01*
X85724536Y-92097159D01*
X85656059Y-92007918D01*
X85633305Y-91978264D01*
X85628282Y-91971718D01*
X85502841Y-91875464D01*
X85356762Y-91814956D01*
X85200000Y-91794318D01*
X85043238Y-91814956D01*
X84897159Y-91875464D01*
X84771718Y-91971718D01*
X84766695Y-91978264D01*
X84743941Y-92007918D01*
X84675464Y-92097159D01*
X84614956Y-92243238D01*
X84594318Y-92400000D01*
X78399099Y-92400000D01*
X78405682Y-92350000D01*
X78390622Y-92235609D01*
X78386122Y-92201426D01*
X78385044Y-92193238D01*
X78379697Y-92180328D01*
X78369935Y-92156762D01*
X78324536Y-92047159D01*
X78228282Y-91921718D01*
X78102841Y-91825464D01*
X77975053Y-91772532D01*
X77964391Y-91768116D01*
X77956762Y-91764956D01*
X77800000Y-91744318D01*
X77643238Y-91764956D01*
X77635609Y-91768116D01*
X77624947Y-91772532D01*
X77497159Y-91825464D01*
X77371718Y-91921718D01*
X77275464Y-92047159D01*
X77230065Y-92156762D01*
X77220304Y-92180328D01*
X77214956Y-92193238D01*
X77213878Y-92201426D01*
X77209378Y-92235609D01*
X77194318Y-92350000D01*
X67738350Y-92350000D01*
X67774536Y-92302841D01*
X67835044Y-92156762D01*
X67855682Y-92000000D01*
X67835044Y-91843238D01*
X67774536Y-91697159D01*
X67678282Y-91571718D01*
X67552841Y-91475464D01*
X67406762Y-91414956D01*
X67250000Y-91394318D01*
X67093238Y-91414956D01*
X66947159Y-91475464D01*
X66821718Y-91571718D01*
X66725464Y-91697159D01*
X66664956Y-91843238D01*
X66644318Y-92000000D01*
X47508218Y-92000000D01*
X47503324Y-91986946D01*
X47494786Y-91971351D01*
X47418285Y-91869276D01*
X47405724Y-91856715D01*
X47303649Y-91780214D01*
X47288054Y-91771676D01*
X47167606Y-91726522D01*
X47152351Y-91722895D01*
X47101486Y-91717369D01*
X47094672Y-91717000D01*
X46472115Y-91717000D01*
X46456876Y-91721475D01*
X46455671Y-91722865D01*
X46454000Y-91730548D01*
X46454000Y-92802885D01*
X45946000Y-92802885D01*
X45946000Y-91735116D01*
X45941525Y-91719877D01*
X45940135Y-91718672D01*
X45932452Y-91717001D01*
X45305331Y-91717001D01*
X45298510Y-91717371D01*
X45247648Y-91722895D01*
X45232396Y-91726521D01*
X45111946Y-91771676D01*
X45096351Y-91780214D01*
X44994276Y-91856715D01*
X44981715Y-91869276D01*
X44905214Y-91971351D01*
X44896676Y-91986946D01*
X44851522Y-92107394D01*
X44847895Y-92122649D01*
X44842369Y-92173514D01*
X44842000Y-92180328D01*
X44842000Y-92802885D01*
X42360792Y-92802885D01*
X42292568Y-92691555D01*
X42282110Y-92682093D01*
X42273334Y-92685876D01*
X41422022Y-93537188D01*
X41414408Y-93551132D01*
X40684356Y-93551132D01*
X40685592Y-93548868D01*
X40685461Y-93547035D01*
X40681210Y-93540420D01*
X39829710Y-92688920D01*
X39817330Y-92682160D01*
X39809680Y-92687887D01*
X39704795Y-92859042D01*
X39700313Y-92867837D01*
X39613266Y-93077988D01*
X39610217Y-93087373D01*
X39557115Y-93308554D01*
X39555572Y-93318301D01*
X39537725Y-93545070D01*
X39537725Y-93554930D01*
X38878392Y-93554930D01*
X38978282Y-93478282D01*
X39074536Y-93352841D01*
X39135044Y-93206762D01*
X39155682Y-93050000D01*
X39135044Y-92893238D01*
X39074536Y-92747159D01*
X38978282Y-92621718D01*
X38852841Y-92525464D01*
X38706762Y-92464956D01*
X38550000Y-92444318D01*
X38393238Y-92464956D01*
X38247159Y-92525464D01*
X38121718Y-92621718D01*
X38025464Y-92747159D01*
X37964956Y-92893238D01*
X37944318Y-93050000D01*
X35975141Y-93050000D01*
X35899687Y-92867837D01*
X35895205Y-92859042D01*
X35792568Y-92691555D01*
X35782110Y-92682093D01*
X35773334Y-92685876D01*
X34922022Y-93537188D01*
X34914408Y-93551132D01*
X34184356Y-93551132D01*
X34185592Y-93548868D01*
X34185461Y-93547035D01*
X34181210Y-93540420D01*
X33329710Y-92688920D01*
X33317330Y-92682160D01*
X33309680Y-92687887D01*
X33204795Y-92859042D01*
X33200313Y-92867837D01*
X33113266Y-93077988D01*
X33110217Y-93087373D01*
X33057115Y-93308554D01*
X33055572Y-93318301D01*
X33037725Y-93545070D01*
X33037725Y-93554930D01*
X30775000Y-93554930D01*
X30775000Y-92317890D01*
X33682093Y-92317890D01*
X33685876Y-92326666D01*
X34537188Y-93177978D01*
X34551132Y-93185592D01*
X34552965Y-93185461D01*
X34559580Y-93181210D01*
X35411080Y-92329710D01*
X35417534Y-92317890D01*
X40182093Y-92317890D01*
X40185876Y-92326666D01*
X41037188Y-93177978D01*
X41051132Y-93185592D01*
X41052965Y-93185461D01*
X41059580Y-93181210D01*
X41911080Y-92329710D01*
X41917840Y-92317330D01*
X41912113Y-92309680D01*
X41740958Y-92204795D01*
X41732163Y-92200313D01*
X41522012Y-92113266D01*
X41512627Y-92110217D01*
X41291446Y-92057115D01*
X41281699Y-92055572D01*
X41054930Y-92037725D01*
X41045070Y-92037725D01*
X40818301Y-92055572D01*
X40808554Y-92057115D01*
X40587373Y-92110217D01*
X40577988Y-92113266D01*
X40367837Y-92200313D01*
X40359042Y-92204795D01*
X40191555Y-92307432D01*
X40182093Y-92317890D01*
X35417534Y-92317890D01*
X35417840Y-92317330D01*
X35412113Y-92309680D01*
X35240958Y-92204795D01*
X35232163Y-92200313D01*
X35022012Y-92113266D01*
X35012627Y-92110217D01*
X34791446Y-92057115D01*
X34781699Y-92055572D01*
X34554930Y-92037725D01*
X34545070Y-92037725D01*
X34318301Y-92055572D01*
X34308554Y-92057115D01*
X34087373Y-92110217D01*
X34077988Y-92113266D01*
X33867837Y-92200313D01*
X33859042Y-92204795D01*
X33691555Y-92307432D01*
X33682093Y-92317890D01*
X30775000Y-92317890D01*
X30775000Y-90500000D01*
X54094318Y-90500000D01*
X54114956Y-90656762D01*
X54175464Y-90802841D01*
X54271718Y-90928282D01*
X54397159Y-91024536D01*
X54543238Y-91085044D01*
X54700000Y-91105682D01*
X54708188Y-91104604D01*
X54848574Y-91086122D01*
X54856762Y-91085044D01*
X55002841Y-91024536D01*
X55128282Y-90928282D01*
X55224536Y-90802841D01*
X55285044Y-90656762D01*
X55305682Y-90500000D01*
X55285044Y-90343238D01*
X55225713Y-90200000D01*
X65194318Y-90200000D01*
X65214956Y-90356762D01*
X65275464Y-90502841D01*
X65371718Y-90628282D01*
X65497159Y-90724536D01*
X65643238Y-90785044D01*
X65800000Y-90805682D01*
X65808188Y-90804604D01*
X65821580Y-90802841D01*
X65956762Y-90785044D01*
X66102841Y-90724536D01*
X66228282Y-90628282D01*
X66324536Y-90502841D01*
X66385044Y-90356762D01*
X66405682Y-90200000D01*
X69794318Y-90200000D01*
X69814956Y-90356762D01*
X69875464Y-90502841D01*
X69971718Y-90628282D01*
X70097159Y-90724536D01*
X70243238Y-90785044D01*
X70400000Y-90805682D01*
X70408188Y-90804604D01*
X70421580Y-90802841D01*
X70556762Y-90785044D01*
X70702841Y-90724536D01*
X70828282Y-90628282D01*
X70924536Y-90502841D01*
X70985044Y-90356762D01*
X71005682Y-90200000D01*
X70985044Y-90043238D01*
X70924536Y-89897159D01*
X70856059Y-89807918D01*
X70849983Y-89800000D01*
X87194318Y-89800000D01*
X87214956Y-89956762D01*
X87275464Y-90102841D01*
X87280491Y-90109392D01*
X87350017Y-90200000D01*
X87371718Y-90228282D01*
X87497159Y-90324536D01*
X87643238Y-90385044D01*
X87800000Y-90405682D01*
X87808188Y-90404604D01*
X87948574Y-90386122D01*
X87956762Y-90385044D01*
X88102841Y-90324536D01*
X88228282Y-90228282D01*
X88249984Y-90200000D01*
X88319509Y-90109392D01*
X88324536Y-90102841D01*
X88367134Y-90000000D01*
X89794318Y-90000000D01*
X89814956Y-90156762D01*
X89875464Y-90302841D01*
X89971718Y-90428282D01*
X90097159Y-90524536D01*
X90243238Y-90585044D01*
X90400000Y-90605682D01*
X90408188Y-90604604D01*
X90548574Y-90586122D01*
X90556762Y-90585044D01*
X90702841Y-90524536D01*
X90828282Y-90428282D01*
X90924536Y-90302841D01*
X90985044Y-90156762D01*
X91005682Y-90000000D01*
X90985044Y-89843238D01*
X90924536Y-89697159D01*
X90856059Y-89607918D01*
X90849983Y-89600000D01*
X107594318Y-89600000D01*
X107614956Y-89756762D01*
X107675464Y-89902841D01*
X107680491Y-89909392D01*
X107750017Y-90000000D01*
X107771718Y-90028282D01*
X107897159Y-90124536D01*
X108043238Y-90185044D01*
X108200000Y-90205682D01*
X108208188Y-90204604D01*
X108348574Y-90186122D01*
X108356762Y-90185044D01*
X108502841Y-90124536D01*
X108628282Y-90028282D01*
X108649984Y-90000000D01*
X108719509Y-89909392D01*
X108724536Y-89902841D01*
X108767134Y-89800000D01*
X112194318Y-89800000D01*
X112214956Y-89956762D01*
X112275464Y-90102841D01*
X112280491Y-90109392D01*
X112350017Y-90200000D01*
X112371718Y-90228282D01*
X112497159Y-90324536D01*
X112643238Y-90385044D01*
X112800000Y-90405682D01*
X112808188Y-90404604D01*
X112948574Y-90386122D01*
X112956762Y-90385044D01*
X113102841Y-90324536D01*
X113228282Y-90228282D01*
X113249984Y-90200000D01*
X113319509Y-90109392D01*
X113324536Y-90102841D01*
X113385044Y-89956762D01*
X113405682Y-89800000D01*
X113385044Y-89643238D01*
X113324536Y-89497159D01*
X113228282Y-89371718D01*
X113102841Y-89275464D01*
X112956762Y-89214956D01*
X112800000Y-89194318D01*
X112643238Y-89214956D01*
X112497159Y-89275464D01*
X112371718Y-89371718D01*
X112275464Y-89497159D01*
X112214956Y-89643238D01*
X112194318Y-89800000D01*
X108767134Y-89800000D01*
X108785044Y-89756762D01*
X108805682Y-89600000D01*
X108785044Y-89443238D01*
X108724536Y-89297159D01*
X108628282Y-89171718D01*
X108502841Y-89075464D01*
X108356762Y-89014956D01*
X108200000Y-88994318D01*
X108043238Y-89014956D01*
X107897159Y-89075464D01*
X107771718Y-89171718D01*
X107675464Y-89297159D01*
X107614956Y-89443238D01*
X107594318Y-89600000D01*
X90849983Y-89600000D01*
X90833305Y-89578264D01*
X90828282Y-89571718D01*
X90702841Y-89475464D01*
X90556762Y-89414956D01*
X90400000Y-89394318D01*
X90243238Y-89414956D01*
X90097159Y-89475464D01*
X89971718Y-89571718D01*
X89966695Y-89578264D01*
X89943941Y-89607918D01*
X89875464Y-89697159D01*
X89814956Y-89843238D01*
X89794318Y-90000000D01*
X88367134Y-90000000D01*
X88385044Y-89956762D01*
X88405682Y-89800000D01*
X88385044Y-89643238D01*
X88324536Y-89497159D01*
X88228282Y-89371718D01*
X88102841Y-89275464D01*
X87956762Y-89214956D01*
X87800000Y-89194318D01*
X87643238Y-89214956D01*
X87497159Y-89275464D01*
X87371718Y-89371718D01*
X87275464Y-89497159D01*
X87214956Y-89643238D01*
X87194318Y-89800000D01*
X70849983Y-89800000D01*
X70833305Y-89778264D01*
X70828282Y-89771718D01*
X70702841Y-89675464D01*
X70556762Y-89614956D01*
X70400000Y-89594318D01*
X70243238Y-89614956D01*
X70097159Y-89675464D01*
X69971718Y-89771718D01*
X69966695Y-89778264D01*
X69943941Y-89807918D01*
X69875464Y-89897159D01*
X69814956Y-90043238D01*
X69794318Y-90200000D01*
X66405682Y-90200000D01*
X66385044Y-90043238D01*
X66324536Y-89897159D01*
X66256059Y-89807918D01*
X66233305Y-89778264D01*
X66228282Y-89771718D01*
X66102841Y-89675464D01*
X65956762Y-89614956D01*
X65800000Y-89594318D01*
X65643238Y-89614956D01*
X65497159Y-89675464D01*
X65371718Y-89771718D01*
X65366695Y-89778264D01*
X65343941Y-89807918D01*
X65275464Y-89897159D01*
X65214956Y-90043238D01*
X65194318Y-90200000D01*
X55225713Y-90200000D01*
X55224536Y-90197159D01*
X55128282Y-90071718D01*
X55002841Y-89975464D01*
X54856762Y-89914956D01*
X54700000Y-89894318D01*
X54543238Y-89914956D01*
X54397159Y-89975464D01*
X54271718Y-90071718D01*
X54175464Y-90197159D01*
X54114956Y-90343238D01*
X54094318Y-90500000D01*
X30775000Y-90500000D01*
X30775000Y-85586434D01*
X33578921Y-85586434D01*
X33585708Y-85596135D01*
X33785023Y-85766365D01*
X33789709Y-85770000D01*
X34113442Y-85997523D01*
X34118432Y-86000690D01*
X34462141Y-86196739D01*
X34467422Y-86199429D01*
X34828053Y-86362260D01*
X34833544Y-86364434D01*
X35207906Y-86492607D01*
X35213590Y-86494259D01*
X35598347Y-86586631D01*
X35604162Y-86587740D01*
X35995889Y-86643490D01*
X36001802Y-86644049D01*
X36397031Y-86662688D01*
X36402969Y-86662688D01*
X36798198Y-86644049D01*
X36804111Y-86643490D01*
X37195838Y-86587740D01*
X37201653Y-86586631D01*
X37586410Y-86494259D01*
X37592094Y-86492607D01*
X37966456Y-86364434D01*
X37971947Y-86362260D01*
X38332578Y-86199429D01*
X38337859Y-86196739D01*
X38681568Y-86000690D01*
X38686558Y-85997523D01*
X39010291Y-85770000D01*
X39014977Y-85766365D01*
X39212722Y-85597476D01*
X39221152Y-85584562D01*
X39215145Y-85574355D01*
X36412812Y-82772022D01*
X36398868Y-82764408D01*
X36397035Y-82764539D01*
X36390420Y-82768790D01*
X33586313Y-85572897D01*
X33578921Y-85586434D01*
X30775000Y-85586434D01*
X30775000Y-82269073D01*
X32139322Y-82269073D01*
X32145537Y-82664679D01*
X32145911Y-82670629D01*
X32189327Y-83063895D01*
X32190257Y-83069766D01*
X32270494Y-83457212D01*
X32271970Y-83462960D01*
X32388316Y-83841151D01*
X32390320Y-83846716D01*
X32541745Y-84212288D01*
X32544267Y-84217647D01*
X32729411Y-84567323D01*
X32732436Y-84572440D01*
X32949669Y-84903144D01*
X32953159Y-84907947D01*
X33200292Y-85216420D01*
X33213130Y-85223694D01*
X33214439Y-85223621D01*
X33221852Y-85218938D01*
X36027978Y-82412812D01*
X36034356Y-82401132D01*
X36764408Y-82401132D01*
X36764539Y-82402965D01*
X36768790Y-82409580D01*
X39575271Y-85216061D01*
X39589215Y-85223675D01*
X39590524Y-85223582D01*
X39597360Y-85219112D01*
X39599454Y-85216737D01*
X39846841Y-84907947D01*
X39850331Y-84903144D01*
X40067564Y-84572440D01*
X40070589Y-84567323D01*
X40093173Y-84524669D01*
X43302001Y-84524669D01*
X43302371Y-84531490D01*
X43307895Y-84582352D01*
X43311521Y-84597604D01*
X43356676Y-84718054D01*
X43365214Y-84733649D01*
X43441715Y-84835724D01*
X43454276Y-84848285D01*
X43556351Y-84924786D01*
X43571946Y-84933324D01*
X43692394Y-84978478D01*
X43707649Y-84982105D01*
X43758514Y-84987631D01*
X43765328Y-84988000D01*
X44527885Y-84988000D01*
X44543124Y-84983525D01*
X44544329Y-84982135D01*
X44546000Y-84974452D01*
X44546000Y-84969884D01*
X45054000Y-84969884D01*
X45058475Y-84985123D01*
X45059865Y-84986328D01*
X45067548Y-84987999D01*
X45834669Y-84987999D01*
X45841490Y-84987629D01*
X45892352Y-84982105D01*
X45907604Y-84978479D01*
X46028054Y-84933324D01*
X46043649Y-84924786D01*
X46145724Y-84848285D01*
X46158285Y-84835724D01*
X46234786Y-84733649D01*
X46243324Y-84718054D01*
X46288478Y-84597606D01*
X46292105Y-84582351D01*
X46297631Y-84531486D01*
X46298000Y-84524672D01*
X46298000Y-83545504D01*
X48609500Y-83545504D01*
X48610917Y-83560923D01*
X48619516Y-83654505D01*
X48624420Y-83707881D01*
X48625987Y-83713438D01*
X48625988Y-83713442D01*
X48666505Y-83857103D01*
X48683811Y-83918465D01*
X48686363Y-83923640D01*
X48686365Y-83923645D01*
X48746995Y-84046590D01*
X48780583Y-84114699D01*
X48784037Y-84119325D01*
X48784038Y-84119326D01*
X48810522Y-84154792D01*
X48911496Y-84290013D01*
X48915730Y-84293927D01*
X48915732Y-84293929D01*
X49007876Y-84379105D01*
X49072165Y-84438533D01*
X49257209Y-84555287D01*
X49460431Y-84636365D01*
X49466099Y-84637492D01*
X49466101Y-84637493D01*
X49669359Y-84677923D01*
X49669361Y-84677923D01*
X49675026Y-84679050D01*
X49680801Y-84679126D01*
X49680805Y-84679126D01*
X49790603Y-84680563D01*
X49893806Y-84681914D01*
X49899504Y-84680935D01*
X50103747Y-84645840D01*
X50103748Y-84645840D01*
X50109444Y-84644861D01*
X50314719Y-84569131D01*
X50319681Y-84566179D01*
X50497791Y-84460215D01*
X50497792Y-84460214D01*
X50502756Y-84457261D01*
X50667258Y-84312997D01*
X50746650Y-84212288D01*
X50799141Y-84145704D01*
X50799142Y-84145702D01*
X50802715Y-84141170D01*
X50855480Y-84040880D01*
X50901901Y-83952648D01*
X50901903Y-83952643D01*
X50904590Y-83947536D01*
X50935896Y-83846716D01*
X50967761Y-83744094D01*
X50967762Y-83744089D01*
X50969473Y-83738579D01*
X50990500Y-83560923D01*
X50990500Y-83545504D01*
X53609500Y-83545504D01*
X53610917Y-83560923D01*
X53619516Y-83654505D01*
X53624420Y-83707881D01*
X53625987Y-83713438D01*
X53625988Y-83713442D01*
X53666505Y-83857103D01*
X53683811Y-83918465D01*
X53686363Y-83923640D01*
X53686365Y-83923645D01*
X53746995Y-84046590D01*
X53780583Y-84114699D01*
X53784037Y-84119325D01*
X53784038Y-84119326D01*
X53810522Y-84154792D01*
X53911496Y-84290013D01*
X53915730Y-84293927D01*
X53915732Y-84293929D01*
X54007876Y-84379105D01*
X54072165Y-84438533D01*
X54257209Y-84555287D01*
X54460431Y-84636365D01*
X54466099Y-84637492D01*
X54466101Y-84637493D01*
X54669359Y-84677923D01*
X54669361Y-84677923D01*
X54675026Y-84679050D01*
X54680801Y-84679126D01*
X54680805Y-84679126D01*
X54790603Y-84680563D01*
X54893806Y-84681914D01*
X54899504Y-84680935D01*
X55103747Y-84645840D01*
X55103748Y-84645840D01*
X55109444Y-84644861D01*
X55314719Y-84569131D01*
X55319681Y-84566179D01*
X55389453Y-84524669D01*
X63302001Y-84524669D01*
X63302371Y-84531490D01*
X63307895Y-84582352D01*
X63311521Y-84597604D01*
X63356676Y-84718054D01*
X63365214Y-84733649D01*
X63441715Y-84835724D01*
X63454276Y-84848285D01*
X63556351Y-84924786D01*
X63571946Y-84933324D01*
X63692394Y-84978478D01*
X63707649Y-84982105D01*
X63758514Y-84987631D01*
X63765328Y-84988000D01*
X64527885Y-84988000D01*
X64543124Y-84983525D01*
X64544329Y-84982135D01*
X64546000Y-84974452D01*
X64546000Y-84969884D01*
X65054000Y-84969884D01*
X65058475Y-84985123D01*
X65059865Y-84986328D01*
X65067548Y-84987999D01*
X65834669Y-84987999D01*
X65841490Y-84987629D01*
X65892352Y-84982105D01*
X65907604Y-84978479D01*
X66028054Y-84933324D01*
X66043649Y-84924786D01*
X66145724Y-84848285D01*
X66158285Y-84835724D01*
X66234786Y-84733649D01*
X66243324Y-84718054D01*
X66288478Y-84597606D01*
X66292105Y-84582351D01*
X66297631Y-84531486D01*
X66298000Y-84524672D01*
X66298000Y-83545504D01*
X68609500Y-83545504D01*
X68610917Y-83560923D01*
X68619516Y-83654505D01*
X68624420Y-83707881D01*
X68625987Y-83713438D01*
X68625988Y-83713442D01*
X68666505Y-83857103D01*
X68683811Y-83918465D01*
X68686363Y-83923640D01*
X68686365Y-83923645D01*
X68746995Y-84046590D01*
X68780583Y-84114699D01*
X68784037Y-84119325D01*
X68784038Y-84119326D01*
X68810522Y-84154792D01*
X68911496Y-84290013D01*
X68915730Y-84293927D01*
X68915732Y-84293929D01*
X69007876Y-84379105D01*
X69072165Y-84438533D01*
X69257209Y-84555287D01*
X69460431Y-84636365D01*
X69466099Y-84637492D01*
X69466101Y-84637493D01*
X69669359Y-84677923D01*
X69669361Y-84677923D01*
X69675026Y-84679050D01*
X69680801Y-84679126D01*
X69680805Y-84679126D01*
X69790603Y-84680563D01*
X69893806Y-84681914D01*
X69899504Y-84680935D01*
X70103747Y-84645840D01*
X70103748Y-84645840D01*
X70109444Y-84644861D01*
X70314719Y-84569131D01*
X70319681Y-84566179D01*
X70497791Y-84460215D01*
X70497792Y-84460214D01*
X70502756Y-84457261D01*
X70667258Y-84312997D01*
X70746650Y-84212288D01*
X70799141Y-84145704D01*
X70799142Y-84145702D01*
X70802715Y-84141170D01*
X70855480Y-84040880D01*
X70901901Y-83952648D01*
X70901903Y-83952643D01*
X70904590Y-83947536D01*
X70935896Y-83846716D01*
X70967761Y-83744094D01*
X70967762Y-83744089D01*
X70969473Y-83738579D01*
X70990500Y-83560923D01*
X70990500Y-83545504D01*
X73609500Y-83545504D01*
X73610917Y-83560923D01*
X73619516Y-83654505D01*
X73624420Y-83707881D01*
X73625987Y-83713438D01*
X73625988Y-83713442D01*
X73666505Y-83857103D01*
X73683811Y-83918465D01*
X73686363Y-83923640D01*
X73686365Y-83923645D01*
X73746995Y-84046590D01*
X73780583Y-84114699D01*
X73784037Y-84119325D01*
X73784038Y-84119326D01*
X73810522Y-84154792D01*
X73911496Y-84290013D01*
X73915730Y-84293927D01*
X73915732Y-84293929D01*
X74007876Y-84379105D01*
X74072165Y-84438533D01*
X74257209Y-84555287D01*
X74460431Y-84636365D01*
X74466099Y-84637492D01*
X74466101Y-84637493D01*
X74669359Y-84677923D01*
X74669361Y-84677923D01*
X74675026Y-84679050D01*
X74680801Y-84679126D01*
X74680805Y-84679126D01*
X74790603Y-84680563D01*
X74893806Y-84681914D01*
X74899504Y-84680935D01*
X75103747Y-84645840D01*
X75103748Y-84645840D01*
X75109444Y-84644861D01*
X75314719Y-84569131D01*
X75319681Y-84566179D01*
X75389453Y-84524669D01*
X83302001Y-84524669D01*
X83302371Y-84531490D01*
X83307895Y-84582352D01*
X83311521Y-84597604D01*
X83356676Y-84718054D01*
X83365214Y-84733649D01*
X83441715Y-84835724D01*
X83454276Y-84848285D01*
X83556351Y-84924786D01*
X83571946Y-84933324D01*
X83692394Y-84978478D01*
X83707649Y-84982105D01*
X83758514Y-84987631D01*
X83765328Y-84988000D01*
X84527885Y-84988000D01*
X84543124Y-84983525D01*
X84544329Y-84982135D01*
X84546000Y-84974452D01*
X84546000Y-84969884D01*
X85054000Y-84969884D01*
X85058475Y-84985123D01*
X85059865Y-84986328D01*
X85067548Y-84987999D01*
X85834669Y-84987999D01*
X85841490Y-84987629D01*
X85892352Y-84982105D01*
X85907604Y-84978479D01*
X86028054Y-84933324D01*
X86043649Y-84924786D01*
X86145724Y-84848285D01*
X86158285Y-84835724D01*
X86234786Y-84733649D01*
X86243324Y-84718054D01*
X86288478Y-84597606D01*
X86292105Y-84582351D01*
X86297631Y-84531486D01*
X86298000Y-84524672D01*
X86298000Y-83545504D01*
X88609500Y-83545504D01*
X88610917Y-83560923D01*
X88619516Y-83654505D01*
X88624420Y-83707881D01*
X88625987Y-83713438D01*
X88625988Y-83713442D01*
X88666505Y-83857103D01*
X88683811Y-83918465D01*
X88686363Y-83923640D01*
X88686365Y-83923645D01*
X88746995Y-84046590D01*
X88780583Y-84114699D01*
X88784037Y-84119325D01*
X88784038Y-84119326D01*
X88810522Y-84154792D01*
X88911496Y-84290013D01*
X88915730Y-84293927D01*
X88915732Y-84293929D01*
X89007876Y-84379105D01*
X89072165Y-84438533D01*
X89257209Y-84555287D01*
X89460431Y-84636365D01*
X89466099Y-84637492D01*
X89466101Y-84637493D01*
X89669359Y-84677923D01*
X89669361Y-84677923D01*
X89675026Y-84679050D01*
X89680801Y-84679126D01*
X89680805Y-84679126D01*
X89790603Y-84680563D01*
X89893806Y-84681914D01*
X89899504Y-84680935D01*
X90103747Y-84645840D01*
X90103748Y-84645840D01*
X90109444Y-84644861D01*
X90314719Y-84569131D01*
X90319681Y-84566179D01*
X90497791Y-84460215D01*
X90497792Y-84460214D01*
X90502756Y-84457261D01*
X90667258Y-84312997D01*
X90746650Y-84212288D01*
X90799141Y-84145704D01*
X90799142Y-84145702D01*
X90802715Y-84141170D01*
X90855480Y-84040880D01*
X90901901Y-83952648D01*
X90901903Y-83952643D01*
X90904590Y-83947536D01*
X90935896Y-83846716D01*
X90967761Y-83744094D01*
X90967762Y-83744089D01*
X90969473Y-83738579D01*
X90990500Y-83560923D01*
X90990500Y-83545504D01*
X93609500Y-83545504D01*
X93610917Y-83560923D01*
X93619516Y-83654505D01*
X93624420Y-83707881D01*
X93625987Y-83713438D01*
X93625988Y-83713442D01*
X93666505Y-83857103D01*
X93683811Y-83918465D01*
X93686363Y-83923640D01*
X93686365Y-83923645D01*
X93746995Y-84046590D01*
X93780583Y-84114699D01*
X93784037Y-84119325D01*
X93784038Y-84119326D01*
X93810522Y-84154792D01*
X93911496Y-84290013D01*
X93915730Y-84293927D01*
X93915732Y-84293929D01*
X94007876Y-84379105D01*
X94072165Y-84438533D01*
X94257209Y-84555287D01*
X94460431Y-84636365D01*
X94466099Y-84637492D01*
X94466101Y-84637493D01*
X94669359Y-84677923D01*
X94669361Y-84677923D01*
X94675026Y-84679050D01*
X94680801Y-84679126D01*
X94680805Y-84679126D01*
X94790603Y-84680563D01*
X94893806Y-84681914D01*
X94899504Y-84680935D01*
X95103747Y-84645840D01*
X95103748Y-84645840D01*
X95109444Y-84644861D01*
X95314719Y-84569131D01*
X95319681Y-84566179D01*
X95389453Y-84524669D01*
X103302001Y-84524669D01*
X103302371Y-84531490D01*
X103307895Y-84582352D01*
X103311521Y-84597604D01*
X103356676Y-84718054D01*
X103365214Y-84733649D01*
X103441715Y-84835724D01*
X103454276Y-84848285D01*
X103556351Y-84924786D01*
X103571946Y-84933324D01*
X103692394Y-84978478D01*
X103707649Y-84982105D01*
X103758514Y-84987631D01*
X103765328Y-84988000D01*
X104527885Y-84988000D01*
X104543124Y-84983525D01*
X104544329Y-84982135D01*
X104546000Y-84974452D01*
X104546000Y-84969884D01*
X105054000Y-84969884D01*
X105058475Y-84985123D01*
X105059865Y-84986328D01*
X105067548Y-84987999D01*
X105834669Y-84987999D01*
X105841490Y-84987629D01*
X105892352Y-84982105D01*
X105907604Y-84978479D01*
X106028054Y-84933324D01*
X106043649Y-84924786D01*
X106145724Y-84848285D01*
X106158285Y-84835724D01*
X106234786Y-84733649D01*
X106243324Y-84718054D01*
X106288478Y-84597606D01*
X106292105Y-84582351D01*
X106297631Y-84531486D01*
X106298000Y-84524672D01*
X106298000Y-83545504D01*
X108609500Y-83545504D01*
X108610917Y-83560923D01*
X108619516Y-83654505D01*
X108624420Y-83707881D01*
X108625987Y-83713438D01*
X108625988Y-83713442D01*
X108666505Y-83857103D01*
X108683811Y-83918465D01*
X108686363Y-83923640D01*
X108686365Y-83923645D01*
X108746995Y-84046590D01*
X108780583Y-84114699D01*
X108784037Y-84119325D01*
X108784038Y-84119326D01*
X108810522Y-84154792D01*
X108911496Y-84290013D01*
X108915730Y-84293927D01*
X108915732Y-84293929D01*
X109007876Y-84379105D01*
X109072165Y-84438533D01*
X109257209Y-84555287D01*
X109460431Y-84636365D01*
X109466099Y-84637492D01*
X109466101Y-84637493D01*
X109669359Y-84677923D01*
X109669361Y-84677923D01*
X109675026Y-84679050D01*
X109680801Y-84679126D01*
X109680805Y-84679126D01*
X109790603Y-84680563D01*
X109893806Y-84681914D01*
X109899504Y-84680935D01*
X110103747Y-84645840D01*
X110103748Y-84645840D01*
X110109444Y-84644861D01*
X110314719Y-84569131D01*
X110319681Y-84566179D01*
X110497791Y-84460215D01*
X110497792Y-84460214D01*
X110502756Y-84457261D01*
X110667258Y-84312997D01*
X110746650Y-84212288D01*
X110799141Y-84145704D01*
X110799142Y-84145702D01*
X110802715Y-84141170D01*
X110855480Y-84040880D01*
X110901901Y-83952648D01*
X110901903Y-83952643D01*
X110904590Y-83947536D01*
X110935896Y-83846716D01*
X110967761Y-83744094D01*
X110967762Y-83744089D01*
X110969473Y-83738579D01*
X110990500Y-83560923D01*
X110990500Y-83545504D01*
X113609500Y-83545504D01*
X113610917Y-83560923D01*
X113619516Y-83654505D01*
X113624420Y-83707881D01*
X113625987Y-83713438D01*
X113625988Y-83713442D01*
X113666505Y-83857103D01*
X113683811Y-83918465D01*
X113686363Y-83923640D01*
X113686365Y-83923645D01*
X113746995Y-84046590D01*
X113780583Y-84114699D01*
X113784037Y-84119325D01*
X113784038Y-84119326D01*
X113810522Y-84154792D01*
X113911496Y-84290013D01*
X113915730Y-84293927D01*
X113915732Y-84293929D01*
X114007876Y-84379105D01*
X114072165Y-84438533D01*
X114257209Y-84555287D01*
X114460431Y-84636365D01*
X114466099Y-84637492D01*
X114466101Y-84637493D01*
X114669359Y-84677923D01*
X114669361Y-84677923D01*
X114675026Y-84679050D01*
X114680801Y-84679126D01*
X114680805Y-84679126D01*
X114790603Y-84680563D01*
X114893806Y-84681914D01*
X114899504Y-84680935D01*
X115103747Y-84645840D01*
X115103748Y-84645840D01*
X115109444Y-84644861D01*
X115314719Y-84569131D01*
X115319681Y-84566179D01*
X115497791Y-84460215D01*
X115497792Y-84460214D01*
X115502756Y-84457261D01*
X115667258Y-84312997D01*
X115746650Y-84212288D01*
X115799141Y-84145704D01*
X115799142Y-84145702D01*
X115802715Y-84141170D01*
X115855480Y-84040880D01*
X115901901Y-83952648D01*
X115901903Y-83952643D01*
X115904590Y-83947536D01*
X115935896Y-83846716D01*
X115967761Y-83744094D01*
X115967762Y-83744089D01*
X115969473Y-83738579D01*
X115990500Y-83560923D01*
X115990500Y-82642095D01*
X122145028Y-82642095D01*
X122170534Y-82909431D01*
X122234364Y-83170285D01*
X122335182Y-83419192D01*
X122470875Y-83650938D01*
X122520861Y-83713442D01*
X122627443Y-83846716D01*
X122638601Y-83860669D01*
X122834846Y-84043991D01*
X122927039Y-84107948D01*
X123051746Y-84194461D01*
X123051751Y-84194464D01*
X123055499Y-84197064D01*
X123059584Y-84199096D01*
X123059587Y-84199098D01*
X123175718Y-84256872D01*
X123295938Y-84316680D01*
X123300272Y-84318101D01*
X123300275Y-84318102D01*
X123546793Y-84398915D01*
X123546798Y-84398916D01*
X123551126Y-84400335D01*
X123555617Y-84401115D01*
X123555618Y-84401115D01*
X123811936Y-84445620D01*
X123811944Y-84445621D01*
X123815717Y-84446276D01*
X123819554Y-84446467D01*
X123898996Y-84450422D01*
X123899004Y-84450422D01*
X123900567Y-84450500D01*
X124068223Y-84450500D01*
X124070491Y-84450335D01*
X124070503Y-84450335D01*
X124200823Y-84440879D01*
X124267846Y-84436016D01*
X124272301Y-84435032D01*
X124272304Y-84435032D01*
X124525620Y-84379105D01*
X124525624Y-84379104D01*
X124530080Y-84378120D01*
X124697617Y-84314646D01*
X124776941Y-84284593D01*
X124776944Y-84284592D01*
X124781211Y-84282975D01*
X125015976Y-84152574D01*
X125158254Y-84043991D01*
X125225833Y-83992417D01*
X125225837Y-83992413D01*
X125229458Y-83989650D01*
X125417185Y-83797614D01*
X125575225Y-83580491D01*
X125662313Y-83414963D01*
X125698140Y-83346868D01*
X125698143Y-83346862D01*
X125700265Y-83342828D01*
X125759703Y-83174515D01*
X125788165Y-83093916D01*
X125788165Y-83093915D01*
X125789688Y-83089603D01*
X125841620Y-82826122D01*
X125844692Y-82764408D01*
X125854745Y-82562474D01*
X125854745Y-82562468D01*
X125854972Y-82557905D01*
X125829466Y-82290569D01*
X125818561Y-82246000D01*
X125766721Y-82034149D01*
X125765636Y-82029715D01*
X125700408Y-81868674D01*
X125666531Y-81785037D01*
X125666531Y-81785036D01*
X125664818Y-81780808D01*
X125529125Y-81549062D01*
X125418211Y-81410371D01*
X125364251Y-81342897D01*
X125364250Y-81342895D01*
X125361399Y-81339331D01*
X125165154Y-81156009D01*
X125008633Y-81047426D01*
X124948254Y-81005539D01*
X124948249Y-81005536D01*
X124944501Y-81002936D01*
X124940416Y-81000904D01*
X124940413Y-81000902D01*
X124718458Y-80890482D01*
X124704062Y-80883320D01*
X124699728Y-80881899D01*
X124699725Y-80881898D01*
X124453207Y-80801085D01*
X124453202Y-80801084D01*
X124448874Y-80799665D01*
X124444382Y-80798885D01*
X124188064Y-80754380D01*
X124188056Y-80754379D01*
X124184283Y-80753724D01*
X124175622Y-80753293D01*
X124101004Y-80749578D01*
X124100996Y-80749578D01*
X124099433Y-80749500D01*
X123931777Y-80749500D01*
X123929509Y-80749665D01*
X123929497Y-80749665D01*
X123799177Y-80759121D01*
X123732154Y-80763984D01*
X123727699Y-80764968D01*
X123727696Y-80764968D01*
X123474380Y-80820895D01*
X123474376Y-80820896D01*
X123469920Y-80821880D01*
X123372392Y-80858830D01*
X123223059Y-80915407D01*
X123223056Y-80915408D01*
X123218789Y-80917025D01*
X122984024Y-81047426D01*
X122946118Y-81076355D01*
X122774167Y-81207583D01*
X122774163Y-81207587D01*
X122770542Y-81210350D01*
X122767357Y-81213608D01*
X122767356Y-81213609D01*
X122696044Y-81286558D01*
X122582815Y-81402386D01*
X122546989Y-81451605D01*
X122435946Y-81604162D01*
X122424775Y-81619509D01*
X122422651Y-81623547D01*
X122301860Y-81853132D01*
X122301857Y-81853138D01*
X122299735Y-81857172D01*
X122298215Y-81861477D01*
X122298213Y-81861481D01*
X122236728Y-82035592D01*
X122210312Y-82110397D01*
X122158380Y-82373878D01*
X122158153Y-82378431D01*
X122158153Y-82378434D01*
X122148992Y-82562474D01*
X122145028Y-82642095D01*
X115990500Y-82642095D01*
X115990500Y-81454496D01*
X115975580Y-81292119D01*
X115966923Y-81261421D01*
X115917757Y-81087094D01*
X115917756Y-81087092D01*
X115916189Y-81081535D01*
X115904576Y-81057985D01*
X115821972Y-80890482D01*
X115819417Y-80885301D01*
X115796265Y-80854296D01*
X115691957Y-80714611D01*
X115691956Y-80714610D01*
X115688504Y-80709987D01*
X115682428Y-80704370D01*
X115532075Y-80565386D01*
X115532073Y-80565384D01*
X115527835Y-80561467D01*
X115342791Y-80444713D01*
X115139569Y-80363635D01*
X115133901Y-80362508D01*
X115133899Y-80362507D01*
X114930641Y-80322077D01*
X114930639Y-80322077D01*
X114924974Y-80320950D01*
X114919199Y-80320874D01*
X114919195Y-80320874D01*
X114809397Y-80319437D01*
X114706194Y-80318086D01*
X114700497Y-80319065D01*
X114700496Y-80319065D01*
X114496253Y-80354160D01*
X114496252Y-80354160D01*
X114490556Y-80355139D01*
X114285281Y-80430869D01*
X114280320Y-80433821D01*
X114280319Y-80433821D01*
X114256833Y-80447794D01*
X114097244Y-80542739D01*
X113932742Y-80687003D01*
X113929171Y-80691533D01*
X113821548Y-80828053D01*
X113797285Y-80858830D01*
X113794597Y-80863939D01*
X113698099Y-81047352D01*
X113698097Y-81047357D01*
X113695410Y-81052464D01*
X113630527Y-81261421D01*
X113629849Y-81267150D01*
X113613843Y-81402386D01*
X113609500Y-81439077D01*
X113609500Y-83545504D01*
X110990500Y-83545504D01*
X110990500Y-81454496D01*
X110975580Y-81292119D01*
X110966923Y-81261421D01*
X110917757Y-81087094D01*
X110917756Y-81087092D01*
X110916189Y-81081535D01*
X110904576Y-81057985D01*
X110821972Y-80890482D01*
X110819417Y-80885301D01*
X110796265Y-80854296D01*
X110691957Y-80714611D01*
X110691956Y-80714610D01*
X110688504Y-80709987D01*
X110682428Y-80704370D01*
X110532075Y-80565386D01*
X110532073Y-80565384D01*
X110527835Y-80561467D01*
X110342791Y-80444713D01*
X110139569Y-80363635D01*
X110133901Y-80362508D01*
X110133899Y-80362507D01*
X109930641Y-80322077D01*
X109930639Y-80322077D01*
X109924974Y-80320950D01*
X109919199Y-80320874D01*
X109919195Y-80320874D01*
X109809397Y-80319437D01*
X109706194Y-80318086D01*
X109700497Y-80319065D01*
X109700496Y-80319065D01*
X109496253Y-80354160D01*
X109496252Y-80354160D01*
X109490556Y-80355139D01*
X109285281Y-80430869D01*
X109280320Y-80433821D01*
X109280319Y-80433821D01*
X109256833Y-80447794D01*
X109097244Y-80542739D01*
X108932742Y-80687003D01*
X108929171Y-80691533D01*
X108821548Y-80828053D01*
X108797285Y-80858830D01*
X108794597Y-80863939D01*
X108698099Y-81047352D01*
X108698097Y-81047357D01*
X108695410Y-81052464D01*
X108630527Y-81261421D01*
X108629849Y-81267150D01*
X108613843Y-81402386D01*
X108609500Y-81439077D01*
X108609500Y-83545504D01*
X106298000Y-83545504D01*
X106298000Y-82772115D01*
X106293525Y-82756876D01*
X106292135Y-82755671D01*
X106284452Y-82754000D01*
X105072115Y-82754000D01*
X105056876Y-82758475D01*
X105055671Y-82759865D01*
X105054000Y-82767548D01*
X105054000Y-84969884D01*
X104546000Y-84969884D01*
X104546000Y-82772115D01*
X104541525Y-82756876D01*
X104540135Y-82755671D01*
X104532452Y-82754000D01*
X103320116Y-82754000D01*
X103304877Y-82758475D01*
X103303672Y-82759865D01*
X103302001Y-82767548D01*
X103302001Y-84524669D01*
X95389453Y-84524669D01*
X95497791Y-84460215D01*
X95497792Y-84460214D01*
X95502756Y-84457261D01*
X95667258Y-84312997D01*
X95746650Y-84212288D01*
X95799141Y-84145704D01*
X95799142Y-84145702D01*
X95802715Y-84141170D01*
X95855480Y-84040880D01*
X95901901Y-83952648D01*
X95901903Y-83952643D01*
X95904590Y-83947536D01*
X95935896Y-83846716D01*
X95967761Y-83744094D01*
X95967762Y-83744089D01*
X95969473Y-83738579D01*
X95990500Y-83560923D01*
X95990500Y-82227885D01*
X103302000Y-82227885D01*
X103306475Y-82243124D01*
X103307865Y-82244329D01*
X103315548Y-82246000D01*
X104527885Y-82246000D01*
X104543124Y-82241525D01*
X104544329Y-82240135D01*
X104546000Y-82232452D01*
X104546000Y-82227885D01*
X105054000Y-82227885D01*
X105058475Y-82243124D01*
X105059865Y-82244329D01*
X105067548Y-82246000D01*
X106279884Y-82246000D01*
X106295123Y-82241525D01*
X106296328Y-82240135D01*
X106297999Y-82232452D01*
X106297999Y-80475331D01*
X106297629Y-80468510D01*
X106292105Y-80417648D01*
X106288479Y-80402396D01*
X106243324Y-80281946D01*
X106234786Y-80266351D01*
X106158285Y-80164276D01*
X106145724Y-80151715D01*
X106043649Y-80075214D01*
X106028054Y-80066676D01*
X105907606Y-80021522D01*
X105892351Y-80017895D01*
X105841486Y-80012369D01*
X105834672Y-80012000D01*
X105072115Y-80012000D01*
X105056876Y-80016475D01*
X105055671Y-80017865D01*
X105054000Y-80025548D01*
X105054000Y-82227885D01*
X104546000Y-82227885D01*
X104546000Y-80030116D01*
X104541525Y-80014877D01*
X104540135Y-80013672D01*
X104532452Y-80012001D01*
X103765331Y-80012001D01*
X103758510Y-80012371D01*
X103707648Y-80017895D01*
X103692396Y-80021521D01*
X103571946Y-80066676D01*
X103556351Y-80075214D01*
X103454276Y-80151715D01*
X103441715Y-80164276D01*
X103365214Y-80266351D01*
X103356676Y-80281946D01*
X103311522Y-80402394D01*
X103307895Y-80417649D01*
X103302369Y-80468514D01*
X103302000Y-80475328D01*
X103302000Y-82227885D01*
X95990500Y-82227885D01*
X95990500Y-81454496D01*
X95975580Y-81292119D01*
X95966923Y-81261421D01*
X95917757Y-81087094D01*
X95917756Y-81087092D01*
X95916189Y-81081535D01*
X95904576Y-81057985D01*
X95821972Y-80890482D01*
X95819417Y-80885301D01*
X95796265Y-80854296D01*
X95691957Y-80714611D01*
X95691956Y-80714610D01*
X95688504Y-80709987D01*
X95682428Y-80704370D01*
X95532075Y-80565386D01*
X95532073Y-80565384D01*
X95527835Y-80561467D01*
X95342791Y-80444713D01*
X95139569Y-80363635D01*
X95133901Y-80362508D01*
X95133899Y-80362507D01*
X94930641Y-80322077D01*
X94930639Y-80322077D01*
X94924974Y-80320950D01*
X94919199Y-80320874D01*
X94919195Y-80320874D01*
X94809397Y-80319437D01*
X94706194Y-80318086D01*
X94700497Y-80319065D01*
X94700496Y-80319065D01*
X94496253Y-80354160D01*
X94496252Y-80354160D01*
X94490556Y-80355139D01*
X94285281Y-80430869D01*
X94280320Y-80433821D01*
X94280319Y-80433821D01*
X94256833Y-80447794D01*
X94097244Y-80542739D01*
X93932742Y-80687003D01*
X93929171Y-80691533D01*
X93821548Y-80828053D01*
X93797285Y-80858830D01*
X93794597Y-80863939D01*
X93698099Y-81047352D01*
X93698097Y-81047357D01*
X93695410Y-81052464D01*
X93630527Y-81261421D01*
X93629849Y-81267150D01*
X93613843Y-81402386D01*
X93609500Y-81439077D01*
X93609500Y-83545504D01*
X90990500Y-83545504D01*
X90990500Y-81454496D01*
X90975580Y-81292119D01*
X90966923Y-81261421D01*
X90917757Y-81087094D01*
X90917756Y-81087092D01*
X90916189Y-81081535D01*
X90904576Y-81057985D01*
X90821972Y-80890482D01*
X90819417Y-80885301D01*
X90796265Y-80854296D01*
X90691957Y-80714611D01*
X90691956Y-80714610D01*
X90688504Y-80709987D01*
X90682428Y-80704370D01*
X90532075Y-80565386D01*
X90532073Y-80565384D01*
X90527835Y-80561467D01*
X90342791Y-80444713D01*
X90139569Y-80363635D01*
X90133901Y-80362508D01*
X90133899Y-80362507D01*
X89930641Y-80322077D01*
X89930639Y-80322077D01*
X89924974Y-80320950D01*
X89919199Y-80320874D01*
X89919195Y-80320874D01*
X89809397Y-80319437D01*
X89706194Y-80318086D01*
X89700497Y-80319065D01*
X89700496Y-80319065D01*
X89496253Y-80354160D01*
X89496252Y-80354160D01*
X89490556Y-80355139D01*
X89285281Y-80430869D01*
X89280320Y-80433821D01*
X89280319Y-80433821D01*
X89256833Y-80447794D01*
X89097244Y-80542739D01*
X88932742Y-80687003D01*
X88929171Y-80691533D01*
X88821548Y-80828053D01*
X88797285Y-80858830D01*
X88794597Y-80863939D01*
X88698099Y-81047352D01*
X88698097Y-81047357D01*
X88695410Y-81052464D01*
X88630527Y-81261421D01*
X88629849Y-81267150D01*
X88613843Y-81402386D01*
X88609500Y-81439077D01*
X88609500Y-83545504D01*
X86298000Y-83545504D01*
X86298000Y-82772115D01*
X86293525Y-82756876D01*
X86292135Y-82755671D01*
X86284452Y-82754000D01*
X85072115Y-82754000D01*
X85056876Y-82758475D01*
X85055671Y-82759865D01*
X85054000Y-82767548D01*
X85054000Y-84969884D01*
X84546000Y-84969884D01*
X84546000Y-82772115D01*
X84541525Y-82756876D01*
X84540135Y-82755671D01*
X84532452Y-82754000D01*
X83320116Y-82754000D01*
X83304877Y-82758475D01*
X83303672Y-82759865D01*
X83302001Y-82767548D01*
X83302001Y-84524669D01*
X75389453Y-84524669D01*
X75497791Y-84460215D01*
X75497792Y-84460214D01*
X75502756Y-84457261D01*
X75667258Y-84312997D01*
X75746650Y-84212288D01*
X75799141Y-84145704D01*
X75799142Y-84145702D01*
X75802715Y-84141170D01*
X75855480Y-84040880D01*
X75901901Y-83952648D01*
X75901903Y-83952643D01*
X75904590Y-83947536D01*
X75935896Y-83846716D01*
X75967761Y-83744094D01*
X75967762Y-83744089D01*
X75969473Y-83738579D01*
X75990500Y-83560923D01*
X75990500Y-82227885D01*
X83302000Y-82227885D01*
X83306475Y-82243124D01*
X83307865Y-82244329D01*
X83315548Y-82246000D01*
X84527885Y-82246000D01*
X84543124Y-82241525D01*
X84544329Y-82240135D01*
X84546000Y-82232452D01*
X84546000Y-82227885D01*
X85054000Y-82227885D01*
X85058475Y-82243124D01*
X85059865Y-82244329D01*
X85067548Y-82246000D01*
X86279884Y-82246000D01*
X86295123Y-82241525D01*
X86296328Y-82240135D01*
X86297999Y-82232452D01*
X86297999Y-80475331D01*
X86297629Y-80468510D01*
X86292105Y-80417648D01*
X86288479Y-80402396D01*
X86243324Y-80281946D01*
X86234786Y-80266351D01*
X86158285Y-80164276D01*
X86145724Y-80151715D01*
X86043649Y-80075214D01*
X86028054Y-80066676D01*
X85907606Y-80021522D01*
X85892351Y-80017895D01*
X85841486Y-80012369D01*
X85834672Y-80012000D01*
X85072115Y-80012000D01*
X85056876Y-80016475D01*
X85055671Y-80017865D01*
X85054000Y-80025548D01*
X85054000Y-82227885D01*
X84546000Y-82227885D01*
X84546000Y-80030116D01*
X84541525Y-80014877D01*
X84540135Y-80013672D01*
X84532452Y-80012001D01*
X83765331Y-80012001D01*
X83758510Y-80012371D01*
X83707648Y-80017895D01*
X83692396Y-80021521D01*
X83571946Y-80066676D01*
X83556351Y-80075214D01*
X83454276Y-80151715D01*
X83441715Y-80164276D01*
X83365214Y-80266351D01*
X83356676Y-80281946D01*
X83311522Y-80402394D01*
X83307895Y-80417649D01*
X83302369Y-80468514D01*
X83302000Y-80475328D01*
X83302000Y-82227885D01*
X75990500Y-82227885D01*
X75990500Y-81454496D01*
X75975580Y-81292119D01*
X75966923Y-81261421D01*
X75917757Y-81087094D01*
X75917756Y-81087092D01*
X75916189Y-81081535D01*
X75904576Y-81057985D01*
X75821972Y-80890482D01*
X75819417Y-80885301D01*
X75796265Y-80854296D01*
X75691957Y-80714611D01*
X75691956Y-80714610D01*
X75688504Y-80709987D01*
X75682428Y-80704370D01*
X75532075Y-80565386D01*
X75532073Y-80565384D01*
X75527835Y-80561467D01*
X75342791Y-80444713D01*
X75139569Y-80363635D01*
X75133901Y-80362508D01*
X75133899Y-80362507D01*
X74930641Y-80322077D01*
X74930639Y-80322077D01*
X74924974Y-80320950D01*
X74919199Y-80320874D01*
X74919195Y-80320874D01*
X74809397Y-80319437D01*
X74706194Y-80318086D01*
X74700497Y-80319065D01*
X74700496Y-80319065D01*
X74496253Y-80354160D01*
X74496252Y-80354160D01*
X74490556Y-80355139D01*
X74285281Y-80430869D01*
X74280320Y-80433821D01*
X74280319Y-80433821D01*
X74256833Y-80447794D01*
X74097244Y-80542739D01*
X73932742Y-80687003D01*
X73929171Y-80691533D01*
X73821548Y-80828053D01*
X73797285Y-80858830D01*
X73794597Y-80863939D01*
X73698099Y-81047352D01*
X73698097Y-81047357D01*
X73695410Y-81052464D01*
X73630527Y-81261421D01*
X73629849Y-81267150D01*
X73613843Y-81402386D01*
X73609500Y-81439077D01*
X73609500Y-83545504D01*
X70990500Y-83545504D01*
X70990500Y-81454496D01*
X70975580Y-81292119D01*
X70966923Y-81261421D01*
X70917757Y-81087094D01*
X70917756Y-81087092D01*
X70916189Y-81081535D01*
X70904576Y-81057985D01*
X70821972Y-80890482D01*
X70819417Y-80885301D01*
X70796265Y-80854296D01*
X70691957Y-80714611D01*
X70691956Y-80714610D01*
X70688504Y-80709987D01*
X70682428Y-80704370D01*
X70532075Y-80565386D01*
X70532073Y-80565384D01*
X70527835Y-80561467D01*
X70342791Y-80444713D01*
X70139569Y-80363635D01*
X70133901Y-80362508D01*
X70133899Y-80362507D01*
X69930641Y-80322077D01*
X69930639Y-80322077D01*
X69924974Y-80320950D01*
X69919199Y-80320874D01*
X69919195Y-80320874D01*
X69809397Y-80319437D01*
X69706194Y-80318086D01*
X69700497Y-80319065D01*
X69700496Y-80319065D01*
X69496253Y-80354160D01*
X69496252Y-80354160D01*
X69490556Y-80355139D01*
X69285281Y-80430869D01*
X69280320Y-80433821D01*
X69280319Y-80433821D01*
X69256833Y-80447794D01*
X69097244Y-80542739D01*
X68932742Y-80687003D01*
X68929171Y-80691533D01*
X68821548Y-80828053D01*
X68797285Y-80858830D01*
X68794597Y-80863939D01*
X68698099Y-81047352D01*
X68698097Y-81047357D01*
X68695410Y-81052464D01*
X68630527Y-81261421D01*
X68629849Y-81267150D01*
X68613843Y-81402386D01*
X68609500Y-81439077D01*
X68609500Y-83545504D01*
X66298000Y-83545504D01*
X66298000Y-82772115D01*
X66293525Y-82756876D01*
X66292135Y-82755671D01*
X66284452Y-82754000D01*
X65072115Y-82754000D01*
X65056876Y-82758475D01*
X65055671Y-82759865D01*
X65054000Y-82767548D01*
X65054000Y-84969884D01*
X64546000Y-84969884D01*
X64546000Y-82772115D01*
X64541525Y-82756876D01*
X64540135Y-82755671D01*
X64532452Y-82754000D01*
X63320116Y-82754000D01*
X63304877Y-82758475D01*
X63303672Y-82759865D01*
X63302001Y-82767548D01*
X63302001Y-84524669D01*
X55389453Y-84524669D01*
X55497791Y-84460215D01*
X55497792Y-84460214D01*
X55502756Y-84457261D01*
X55667258Y-84312997D01*
X55746650Y-84212288D01*
X55799141Y-84145704D01*
X55799142Y-84145702D01*
X55802715Y-84141170D01*
X55855480Y-84040880D01*
X55901901Y-83952648D01*
X55901903Y-83952643D01*
X55904590Y-83947536D01*
X55935896Y-83846716D01*
X55967761Y-83744094D01*
X55967762Y-83744089D01*
X55969473Y-83738579D01*
X55990500Y-83560923D01*
X55990500Y-82227885D01*
X63302000Y-82227885D01*
X63306475Y-82243124D01*
X63307865Y-82244329D01*
X63315548Y-82246000D01*
X64527885Y-82246000D01*
X64543124Y-82241525D01*
X64544329Y-82240135D01*
X64546000Y-82232452D01*
X64546000Y-82227885D01*
X65054000Y-82227885D01*
X65058475Y-82243124D01*
X65059865Y-82244329D01*
X65067548Y-82246000D01*
X66279884Y-82246000D01*
X66295123Y-82241525D01*
X66296328Y-82240135D01*
X66297999Y-82232452D01*
X66297999Y-80475331D01*
X66297629Y-80468510D01*
X66292105Y-80417648D01*
X66288479Y-80402396D01*
X66243324Y-80281946D01*
X66234786Y-80266351D01*
X66158285Y-80164276D01*
X66145724Y-80151715D01*
X66043649Y-80075214D01*
X66028054Y-80066676D01*
X65907606Y-80021522D01*
X65892351Y-80017895D01*
X65841486Y-80012369D01*
X65834672Y-80012000D01*
X65072115Y-80012000D01*
X65056876Y-80016475D01*
X65055671Y-80017865D01*
X65054000Y-80025548D01*
X65054000Y-82227885D01*
X64546000Y-82227885D01*
X64546000Y-80030116D01*
X64541525Y-80014877D01*
X64540135Y-80013672D01*
X64532452Y-80012001D01*
X63765331Y-80012001D01*
X63758510Y-80012371D01*
X63707648Y-80017895D01*
X63692396Y-80021521D01*
X63571946Y-80066676D01*
X63556351Y-80075214D01*
X63454276Y-80151715D01*
X63441715Y-80164276D01*
X63365214Y-80266351D01*
X63356676Y-80281946D01*
X63311522Y-80402394D01*
X63307895Y-80417649D01*
X63302369Y-80468514D01*
X63302000Y-80475328D01*
X63302000Y-82227885D01*
X55990500Y-82227885D01*
X55990500Y-81454496D01*
X55975580Y-81292119D01*
X55966923Y-81261421D01*
X55917757Y-81087094D01*
X55917756Y-81087092D01*
X55916189Y-81081535D01*
X55904576Y-81057985D01*
X55821972Y-80890482D01*
X55819417Y-80885301D01*
X55796265Y-80854296D01*
X55691957Y-80714611D01*
X55691956Y-80714610D01*
X55688504Y-80709987D01*
X55682428Y-80704370D01*
X55532075Y-80565386D01*
X55532073Y-80565384D01*
X55527835Y-80561467D01*
X55342791Y-80444713D01*
X55139569Y-80363635D01*
X55133901Y-80362508D01*
X55133899Y-80362507D01*
X54930641Y-80322077D01*
X54930639Y-80322077D01*
X54924974Y-80320950D01*
X54919199Y-80320874D01*
X54919195Y-80320874D01*
X54809397Y-80319437D01*
X54706194Y-80318086D01*
X54700497Y-80319065D01*
X54700496Y-80319065D01*
X54496253Y-80354160D01*
X54496252Y-80354160D01*
X54490556Y-80355139D01*
X54285281Y-80430869D01*
X54280320Y-80433821D01*
X54280319Y-80433821D01*
X54256833Y-80447794D01*
X54097244Y-80542739D01*
X53932742Y-80687003D01*
X53929171Y-80691533D01*
X53821548Y-80828053D01*
X53797285Y-80858830D01*
X53794597Y-80863939D01*
X53698099Y-81047352D01*
X53698097Y-81047357D01*
X53695410Y-81052464D01*
X53630527Y-81261421D01*
X53629849Y-81267150D01*
X53613843Y-81402386D01*
X53609500Y-81439077D01*
X53609500Y-83545504D01*
X50990500Y-83545504D01*
X50990500Y-81454496D01*
X50975580Y-81292119D01*
X50966923Y-81261421D01*
X50917757Y-81087094D01*
X50917756Y-81087092D01*
X50916189Y-81081535D01*
X50904576Y-81057985D01*
X50821972Y-80890482D01*
X50819417Y-80885301D01*
X50796265Y-80854296D01*
X50691957Y-80714611D01*
X50691956Y-80714610D01*
X50688504Y-80709987D01*
X50682428Y-80704370D01*
X50532075Y-80565386D01*
X50532073Y-80565384D01*
X50527835Y-80561467D01*
X50342791Y-80444713D01*
X50139569Y-80363635D01*
X50133901Y-80362508D01*
X50133899Y-80362507D01*
X49930641Y-80322077D01*
X49930639Y-80322077D01*
X49924974Y-80320950D01*
X49919199Y-80320874D01*
X49919195Y-80320874D01*
X49809397Y-80319437D01*
X49706194Y-80318086D01*
X49700497Y-80319065D01*
X49700496Y-80319065D01*
X49496253Y-80354160D01*
X49496252Y-80354160D01*
X49490556Y-80355139D01*
X49285281Y-80430869D01*
X49280320Y-80433821D01*
X49280319Y-80433821D01*
X49256833Y-80447794D01*
X49097244Y-80542739D01*
X48932742Y-80687003D01*
X48929171Y-80691533D01*
X48821548Y-80828053D01*
X48797285Y-80858830D01*
X48794597Y-80863939D01*
X48698099Y-81047352D01*
X48698097Y-81047357D01*
X48695410Y-81052464D01*
X48630527Y-81261421D01*
X48629849Y-81267150D01*
X48613843Y-81402386D01*
X48609500Y-81439077D01*
X48609500Y-83545504D01*
X46298000Y-83545504D01*
X46298000Y-82772115D01*
X46293525Y-82756876D01*
X46292135Y-82755671D01*
X46284452Y-82754000D01*
X45072115Y-82754000D01*
X45056876Y-82758475D01*
X45055671Y-82759865D01*
X45054000Y-82767548D01*
X45054000Y-84969884D01*
X44546000Y-84969884D01*
X44546000Y-82772115D01*
X44541525Y-82756876D01*
X44540135Y-82755671D01*
X44532452Y-82754000D01*
X43320116Y-82754000D01*
X43304877Y-82758475D01*
X43303672Y-82759865D01*
X43302001Y-82767548D01*
X43302001Y-84524669D01*
X40093173Y-84524669D01*
X40255733Y-84217647D01*
X40258255Y-84212288D01*
X40409680Y-83846716D01*
X40411684Y-83841151D01*
X40528030Y-83462960D01*
X40529506Y-83457212D01*
X40609743Y-83069766D01*
X40610673Y-83063895D01*
X40654145Y-82670124D01*
X40654494Y-82665196D01*
X40662750Y-82402468D01*
X40662711Y-82397530D01*
X40654711Y-82227885D01*
X43302000Y-82227885D01*
X43306475Y-82243124D01*
X43307865Y-82244329D01*
X43315548Y-82246000D01*
X44527885Y-82246000D01*
X44543124Y-82241525D01*
X44544329Y-82240135D01*
X44546000Y-82232452D01*
X44546000Y-82227885D01*
X45054000Y-82227885D01*
X45058475Y-82243124D01*
X45059865Y-82244329D01*
X45067548Y-82246000D01*
X46279884Y-82246000D01*
X46295123Y-82241525D01*
X46296328Y-82240135D01*
X46297999Y-82232452D01*
X46297999Y-80475331D01*
X46297629Y-80468510D01*
X46292105Y-80417648D01*
X46288479Y-80402396D01*
X46243324Y-80281946D01*
X46234786Y-80266351D01*
X46158285Y-80164276D01*
X46145724Y-80151715D01*
X46043649Y-80075214D01*
X46028054Y-80066676D01*
X45907606Y-80021522D01*
X45892351Y-80017895D01*
X45841486Y-80012369D01*
X45834672Y-80012000D01*
X45072115Y-80012000D01*
X45056876Y-80016475D01*
X45055671Y-80017865D01*
X45054000Y-80025548D01*
X45054000Y-82227885D01*
X44546000Y-82227885D01*
X44546000Y-80030116D01*
X44541525Y-80014877D01*
X44540135Y-80013672D01*
X44532452Y-80012001D01*
X43765331Y-80012001D01*
X43758510Y-80012371D01*
X43707648Y-80017895D01*
X43692396Y-80021521D01*
X43571946Y-80066676D01*
X43556351Y-80075214D01*
X43454276Y-80151715D01*
X43441715Y-80164276D01*
X43365214Y-80266351D01*
X43356676Y-80281946D01*
X43311522Y-80402394D01*
X43307895Y-80417649D01*
X43302369Y-80468514D01*
X43302000Y-80475328D01*
X43302000Y-82227885D01*
X40654711Y-82227885D01*
X40644049Y-82001802D01*
X40643490Y-81995889D01*
X40587740Y-81604162D01*
X40586631Y-81598347D01*
X40494259Y-81213590D01*
X40492607Y-81207906D01*
X40364434Y-80833544D01*
X40362260Y-80828053D01*
X40199429Y-80467422D01*
X40196739Y-80462141D01*
X40000690Y-80118432D01*
X39997523Y-80113442D01*
X39770000Y-79789709D01*
X39766365Y-79785023D01*
X39597476Y-79587278D01*
X39584562Y-79578848D01*
X39574355Y-79584855D01*
X36772022Y-82387188D01*
X36764408Y-82401132D01*
X36034356Y-82401132D01*
X36035592Y-82398868D01*
X36035461Y-82397035D01*
X36031210Y-82390420D01*
X33227402Y-79586612D01*
X33213458Y-79578998D01*
X33213205Y-79579016D01*
X33204463Y-79584930D01*
X33117436Y-79680572D01*
X33113649Y-79685150D01*
X32876088Y-80001551D01*
X32872744Y-80006471D01*
X32666001Y-80343845D01*
X32663153Y-80349025D01*
X32489072Y-80704370D01*
X32486723Y-80709797D01*
X32346858Y-81079939D01*
X32345026Y-81085578D01*
X32240622Y-81467215D01*
X32239323Y-81473028D01*
X32171295Y-81862811D01*
X32170554Y-81868674D01*
X32139507Y-82263147D01*
X32139322Y-82269073D01*
X30775000Y-82269073D01*
X30775000Y-79215964D01*
X33578939Y-79215964D01*
X33578945Y-79216217D01*
X33584445Y-79225235D01*
X36387188Y-82027978D01*
X36401132Y-82035592D01*
X36402965Y-82035461D01*
X36409580Y-82031210D01*
X39216061Y-79224729D01*
X39223675Y-79210785D01*
X39223582Y-79209476D01*
X39219112Y-79202640D01*
X39216737Y-79200546D01*
X38907947Y-78953159D01*
X38903144Y-78949669D01*
X38572440Y-78732436D01*
X38567323Y-78729411D01*
X38217647Y-78544267D01*
X38212288Y-78541745D01*
X37846716Y-78390320D01*
X37841151Y-78388316D01*
X37462960Y-78271970D01*
X37457212Y-78270494D01*
X37069766Y-78190257D01*
X37063895Y-78189327D01*
X36670629Y-78145911D01*
X36664679Y-78145537D01*
X36269073Y-78139322D01*
X36263147Y-78139507D01*
X35868674Y-78170554D01*
X35862811Y-78171295D01*
X35473028Y-78239323D01*
X35467215Y-78240622D01*
X35085578Y-78345026D01*
X35079939Y-78346858D01*
X34709797Y-78486723D01*
X34704370Y-78489072D01*
X34349025Y-78663153D01*
X34343845Y-78666001D01*
X34006471Y-78872744D01*
X34001551Y-78876088D01*
X33685150Y-79113649D01*
X33680572Y-79117436D01*
X33587199Y-79202398D01*
X33578939Y-79215964D01*
X30775000Y-79215964D01*
X30775000Y-75401000D01*
X30795002Y-75332879D01*
X30848658Y-75286386D01*
X30901000Y-75275000D01*
X130599000Y-75275000D01*
X130667121Y-75295002D01*
G37*
G04 #@! TD.AperFunction*
M02*
