G04 #@! TF.GenerationSoftware,KiCad,Pcbnew,(6.0.1)*
G04 #@! TF.CreationDate,2022-08-11T12:27:20+02:00*
G04 #@! TF.ProjectId,DMX,444d582e-6b69-4636-9164-5f7063625858,rev?*
G04 #@! TF.SameCoordinates,Original*
G04 #@! TF.FileFunction,Soldermask,Top*
G04 #@! TF.FilePolarity,Negative*
%FSLAX46Y46*%
G04 Gerber Fmt 4.6, Leading zero omitted, Abs format (unit mm)*
G04 Created by KiCad (PCBNEW (6.0.1)) date 2022-08-11 12:27:20*
%MOMM*%
%LPD*%
G01*
G04 APERTURE LIST*
G04 Aperture macros list*
%AMRoundRect*
0 Rectangle with rounded corners*
0 $1 Rounding radius*
0 $2 $3 $4 $5 $6 $7 $8 $9 X,Y pos of 4 corners*
0 Add a 4 corners polygon primitive as box body*
4,1,4,$2,$3,$4,$5,$6,$7,$8,$9,$2,$3,0*
0 Add four circle primitives for the rounded corners*
1,1,$1+$1,$2,$3*
1,1,$1+$1,$4,$5*
1,1,$1+$1,$6,$7*
1,1,$1+$1,$8,$9*
0 Add four rect primitives between the rounded corners*
20,1,$1+$1,$2,$3,$4,$5,0*
20,1,$1+$1,$4,$5,$6,$7,0*
20,1,$1+$1,$6,$7,$8,$9,0*
20,1,$1+$1,$8,$9,$2,$3,0*%
G04 Aperture macros list end*
%ADD10RoundRect,0.237500X-0.237500X0.250000X-0.237500X-0.250000X0.237500X-0.250000X0.237500X0.250000X0*%
%ADD11RoundRect,0.237500X0.237500X-0.250000X0.237500X0.250000X-0.237500X0.250000X-0.237500X-0.250000X0*%
%ADD12R,1.980000X3.960000*%
%ADD13O,1.980000X3.960000*%
%ADD14RoundRect,0.237500X0.237500X-0.300000X0.237500X0.300000X-0.237500X0.300000X-0.237500X-0.300000X0*%
%ADD15RoundRect,0.237500X-0.300000X-0.237500X0.300000X-0.237500X0.300000X0.237500X-0.300000X0.237500X0*%
%ADD16R,1.700000X1.700000*%
%ADD17O,1.700000X1.700000*%
%ADD18C,3.200000*%
%ADD19C,1.700000*%
%ADD20C,3.500000*%
%ADD21C,2.000000*%
%ADD22RoundRect,0.237500X0.300000X0.237500X-0.300000X0.237500X-0.300000X-0.237500X0.300000X-0.237500X0*%
%ADD23RoundRect,0.150000X0.150000X-0.825000X0.150000X0.825000X-0.150000X0.825000X-0.150000X-0.825000X0*%
%ADD24RoundRect,0.075000X-0.700000X-0.075000X0.700000X-0.075000X0.700000X0.075000X-0.700000X0.075000X0*%
%ADD25RoundRect,0.075000X-0.075000X-0.700000X0.075000X-0.700000X0.075000X0.700000X-0.075000X0.700000X0*%
%ADD26C,1.500000*%
%ADD27RoundRect,0.237500X-0.237500X0.300000X-0.237500X-0.300000X0.237500X-0.300000X0.237500X0.300000X0*%
%ADD28O,3.500000X3.500000*%
%ADD29R,1.905000X2.000000*%
%ADD30O,1.905000X2.000000*%
%ADD31C,7.500000*%
G04 APERTURE END LIST*
D10*
X74550000Y-92437500D03*
X74550000Y-94262500D03*
D11*
X61750000Y-93912500D03*
X61750000Y-92087500D03*
D12*
X104800000Y-82500000D03*
D13*
X109800000Y-82500000D03*
X114800000Y-82500000D03*
D12*
X84800000Y-82500000D03*
D13*
X89800000Y-82500000D03*
X94800000Y-82500000D03*
D12*
X64800000Y-82500000D03*
D13*
X69800000Y-82500000D03*
X74800000Y-82500000D03*
D14*
X65750000Y-108662500D03*
X65750000Y-106937500D03*
D15*
X57637500Y-120500000D03*
X59362500Y-120500000D03*
D11*
X65750000Y-93912500D03*
X65750000Y-92087500D03*
D16*
X34200000Y-102650000D03*
D17*
X34200000Y-105190000D03*
X34200000Y-107730000D03*
X34200000Y-110270000D03*
X34200000Y-112810000D03*
X34200000Y-115350000D03*
D12*
X44800000Y-82500000D03*
D13*
X49800000Y-82500000D03*
X54800000Y-82500000D03*
D14*
X67800000Y-108662500D03*
X67800000Y-106937500D03*
D18*
X36800000Y-123200000D03*
D16*
X77250000Y-114422500D03*
D19*
X74750000Y-114422500D03*
X74750000Y-116422500D03*
X77250000Y-116422500D03*
D20*
X82020000Y-119132500D03*
X69980000Y-119132500D03*
D11*
X81800000Y-94262500D03*
X81800000Y-92437500D03*
D21*
X34550000Y-93550000D03*
X41050000Y-93550000D03*
X34550000Y-98050000D03*
X41050000Y-98050000D03*
D22*
X53862500Y-104500000D03*
X52137500Y-104500000D03*
D14*
X81750000Y-110612500D03*
X81750000Y-108887500D03*
D23*
X72395000Y-101825000D03*
X73665000Y-101825000D03*
X74935000Y-101825000D03*
X76205000Y-101825000D03*
X76205000Y-96875000D03*
X74935000Y-96875000D03*
X73665000Y-96875000D03*
X72395000Y-96875000D03*
D18*
X90800000Y-123200000D03*
D24*
X51325000Y-108750000D03*
X51325000Y-109250000D03*
X51325000Y-109750000D03*
X51325000Y-110250000D03*
X51325000Y-110750000D03*
X51325000Y-111250000D03*
X51325000Y-111750000D03*
X51325000Y-112250000D03*
X51325000Y-112750000D03*
X51325000Y-113250000D03*
X51325000Y-113750000D03*
X51325000Y-114250000D03*
X51325000Y-114750000D03*
X51325000Y-115250000D03*
X51325000Y-115750000D03*
X51325000Y-116250000D03*
D25*
X53250000Y-118175000D03*
X53750000Y-118175000D03*
X54250000Y-118175000D03*
X54750000Y-118175000D03*
X55250000Y-118175000D03*
X55750000Y-118175000D03*
X56250000Y-118175000D03*
X56750000Y-118175000D03*
X57250000Y-118175000D03*
X57750000Y-118175000D03*
X58250000Y-118175000D03*
X58750000Y-118175000D03*
X59250000Y-118175000D03*
X59750000Y-118175000D03*
X60250000Y-118175000D03*
X60750000Y-118175000D03*
D24*
X62675000Y-116250000D03*
X62675000Y-115750000D03*
X62675000Y-115250000D03*
X62675000Y-114750000D03*
X62675000Y-114250000D03*
X62675000Y-113750000D03*
X62675000Y-113250000D03*
X62675000Y-112750000D03*
X62675000Y-112250000D03*
X62675000Y-111750000D03*
X62675000Y-111250000D03*
X62675000Y-110750000D03*
X62675000Y-110250000D03*
X62675000Y-109750000D03*
X62675000Y-109250000D03*
X62675000Y-108750000D03*
D25*
X60750000Y-106825000D03*
X60250000Y-106825000D03*
X59750000Y-106825000D03*
X59250000Y-106825000D03*
X58750000Y-106825000D03*
X58250000Y-106825000D03*
X57750000Y-106825000D03*
X57250000Y-106825000D03*
X56750000Y-106825000D03*
X56250000Y-106825000D03*
X55750000Y-106825000D03*
X55250000Y-106825000D03*
X54750000Y-106825000D03*
X54250000Y-106825000D03*
X53750000Y-106825000D03*
X53250000Y-106825000D03*
D15*
X61387500Y-120500000D03*
X63112500Y-120500000D03*
D10*
X55250000Y-92087500D03*
X55250000Y-93912500D03*
D22*
X58499266Y-122230094D03*
X56774266Y-122230094D03*
D11*
X63750000Y-93912500D03*
X63750000Y-92087500D03*
D22*
X58362500Y-125750000D03*
X56637500Y-125750000D03*
D11*
X79800000Y-94262500D03*
X79800000Y-92437500D03*
D23*
X61845000Y-101975000D03*
X63115000Y-101975000D03*
X64385000Y-101975000D03*
X65655000Y-101975000D03*
X65655000Y-97025000D03*
X64385000Y-97025000D03*
X63115000Y-97025000D03*
X61845000Y-97025000D03*
D26*
X43400000Y-110050000D03*
X43400000Y-114950000D03*
D10*
X83800000Y-92437500D03*
X83800000Y-94262500D03*
D11*
X72550000Y-94262500D03*
X72550000Y-92437500D03*
X51250000Y-93912500D03*
X51250000Y-92087500D03*
D27*
X49000000Y-115137500D03*
X49000000Y-116862500D03*
D15*
X57637500Y-124000000D03*
X59362500Y-124000000D03*
D10*
X76550000Y-92437500D03*
X76550000Y-94262500D03*
D23*
X79895000Y-101825000D03*
X81165000Y-101825000D03*
X82435000Y-101825000D03*
X83705000Y-101825000D03*
X83705000Y-96875000D03*
X82435000Y-96875000D03*
X81165000Y-96875000D03*
X79895000Y-96875000D03*
X51345000Y-101975000D03*
X52615000Y-101975000D03*
X53885000Y-101975000D03*
X55155000Y-101975000D03*
X55155000Y-97025000D03*
X53885000Y-97025000D03*
X52615000Y-97025000D03*
X51345000Y-97025000D03*
D11*
X53250000Y-93912500D03*
X53250000Y-92087500D03*
D28*
X91000000Y-98770000D03*
D29*
X88460000Y-115430000D03*
D30*
X91000000Y-115430000D03*
X93540000Y-115430000D03*
D16*
X46200000Y-93075000D03*
D17*
X46200000Y-95615000D03*
X46200000Y-98155000D03*
D18*
X124000000Y-82600000D03*
D31*
X36400000Y-82400000D03*
M02*
