G04 #@! TF.GenerationSoftware,KiCad,Pcbnew,(6.0.1)*
G04 #@! TF.CreationDate,2022-08-11T12:27:20+02:00*
G04 #@! TF.ProjectId,DMX,444d582e-6b69-4636-9164-5f7063625858,rev?*
G04 #@! TF.SameCoordinates,Original*
G04 #@! TF.FileFunction,Copper,L2,Inr*
G04 #@! TF.FilePolarity,Positive*
%FSLAX46Y46*%
G04 Gerber Fmt 4.6, Leading zero omitted, Abs format (unit mm)*
G04 Created by KiCad (PCBNEW (6.0.1)) date 2022-08-11 12:27:20*
%MOMM*%
%LPD*%
G01*
G04 APERTURE LIST*
G04 #@! TA.AperFunction,ComponentPad*
%ADD10R,1.980000X3.960000*%
G04 #@! TD*
G04 #@! TA.AperFunction,ComponentPad*
%ADD11O,1.980000X3.960000*%
G04 #@! TD*
G04 #@! TA.AperFunction,ComponentPad*
%ADD12R,1.700000X1.700000*%
G04 #@! TD*
G04 #@! TA.AperFunction,ComponentPad*
%ADD13O,1.700000X1.700000*%
G04 #@! TD*
G04 #@! TA.AperFunction,ComponentPad*
%ADD14C,1.700000*%
G04 #@! TD*
G04 #@! TA.AperFunction,ComponentPad*
%ADD15C,3.500000*%
G04 #@! TD*
G04 #@! TA.AperFunction,ComponentPad*
%ADD16C,2.000000*%
G04 #@! TD*
G04 #@! TA.AperFunction,ComponentPad*
%ADD17C,1.500000*%
G04 #@! TD*
G04 #@! TA.AperFunction,ComponentPad*
%ADD18R,1.905000X2.000000*%
G04 #@! TD*
G04 #@! TA.AperFunction,ComponentPad*
%ADD19O,1.905000X2.000000*%
G04 #@! TD*
G04 #@! TA.AperFunction,ComponentPad*
%ADD20C,7.500000*%
G04 #@! TD*
G04 #@! TA.AperFunction,ViaPad*
%ADD21C,0.800000*%
G04 #@! TD*
G04 APERTURE END LIST*
D10*
X104800000Y-82500000D03*
D11*
X109800000Y-82500000D03*
X114800000Y-82500000D03*
D10*
X84800000Y-82500000D03*
D11*
X89800000Y-82500000D03*
X94800000Y-82500000D03*
D10*
X64800000Y-82500000D03*
D11*
X69800000Y-82500000D03*
X74800000Y-82500000D03*
D12*
X34200000Y-102650000D03*
D13*
X34200000Y-105190000D03*
X34200000Y-107730000D03*
X34200000Y-110270000D03*
X34200000Y-112810000D03*
X34200000Y-115350000D03*
D10*
X44800000Y-82500000D03*
D11*
X49800000Y-82500000D03*
X54800000Y-82500000D03*
D12*
X77250000Y-114422500D03*
D14*
X74750000Y-114422500D03*
X74750000Y-116422500D03*
X77250000Y-116422500D03*
D15*
X82020000Y-119132500D03*
X69980000Y-119132500D03*
D16*
X34550000Y-93550000D03*
X41050000Y-93550000D03*
X34550000Y-98050000D03*
X41050000Y-98050000D03*
D17*
X43400000Y-110050000D03*
X43400000Y-114950000D03*
D18*
X88460000Y-115430000D03*
D19*
X91000000Y-115430000D03*
X93540000Y-115430000D03*
D12*
X46200000Y-93075000D03*
D13*
X46200000Y-95615000D03*
X46200000Y-98155000D03*
D20*
X36400000Y-82400000D03*
D21*
X68250000Y-114250000D03*
X69500000Y-108250000D03*
X70250000Y-116000000D03*
X60250000Y-92000000D03*
X62200000Y-118400000D03*
X82800000Y-98850000D03*
X92250000Y-110475000D03*
X56250000Y-124000000D03*
X61500000Y-121750000D03*
X77550000Y-97600000D03*
X80250000Y-108750000D03*
X37300000Y-111125000D03*
X50000000Y-92000000D03*
X78550000Y-93100000D03*
X67250000Y-96750000D03*
X55000000Y-103800000D03*
X55250000Y-95250000D03*
X71050000Y-92350000D03*
X49000000Y-113750000D03*
X62600000Y-107000000D03*
X78300000Y-96600000D03*
X56500000Y-93750000D03*
X60750000Y-96750000D03*
X38550000Y-93050000D03*
X49000000Y-118000000D03*
X70550000Y-96850000D03*
X77800000Y-92350000D03*
X85200000Y-92400000D03*
X50000000Y-97000000D03*
X52400000Y-106400000D03*
X50800000Y-104500000D03*
X69500000Y-106750000D03*
X67250000Y-92000000D03*
X63250000Y-121750000D03*
X59750000Y-125750000D03*
X90400000Y-90000000D03*
X87800000Y-89800000D03*
X112800000Y-89800000D03*
X108200000Y-89600000D03*
X54700000Y-90500000D03*
X49200000Y-93400000D03*
X70400000Y-90200000D03*
X65800000Y-90200000D03*
X61600000Y-106200000D03*
X55000000Y-105200000D03*
X49186759Y-104000000D03*
X72000000Y-113250000D03*
X70989613Y-112933071D03*
X63400000Y-118200000D03*
X81200000Y-104800000D03*
X64400000Y-116600000D03*
X78400000Y-103200000D03*
X64400000Y-115200000D03*
X81200000Y-103600000D03*
X57100000Y-108700000D03*
X57000000Y-111200000D03*
X57100000Y-113700000D03*
X57000000Y-116200000D03*
G04 #@! TA.AperFunction,Conductor*
G36*
X130667121Y-75295002D02*
G01*
X130713614Y-75348658D01*
X130725000Y-75401000D01*
X130725000Y-91899000D01*
X130704998Y-91967121D01*
X130651342Y-92013614D01*
X130599000Y-92025000D01*
X96504973Y-92025000D01*
X96504973Y-92024977D01*
X96504933Y-92024983D01*
X96500000Y-92022940D01*
X96495027Y-92025000D01*
X96480866Y-92030866D01*
X96472940Y-92050000D01*
X96475000Y-92054973D01*
X96475000Y-92071830D01*
X96474971Y-92072366D01*
X96475000Y-92072567D01*
X96475000Y-127349000D01*
X96454998Y-127417121D01*
X96401342Y-127463614D01*
X96349000Y-127475000D01*
X30901000Y-127475000D01*
X30832879Y-127454998D01*
X30786386Y-127401342D01*
X30775000Y-127349000D01*
X30775000Y-123242095D01*
X34945028Y-123242095D01*
X34970534Y-123509431D01*
X35034364Y-123770285D01*
X35036076Y-123774511D01*
X35036077Y-123774515D01*
X35102506Y-123938519D01*
X35135182Y-124019192D01*
X35270875Y-124250938D01*
X35273728Y-124254505D01*
X35407466Y-124421736D01*
X35438601Y-124460669D01*
X35634846Y-124643991D01*
X35727039Y-124707948D01*
X35851746Y-124794461D01*
X35851751Y-124794464D01*
X35855499Y-124797064D01*
X35859584Y-124799096D01*
X35859587Y-124799098D01*
X35975718Y-124856872D01*
X36095938Y-124916680D01*
X36100272Y-124918101D01*
X36100275Y-124918102D01*
X36346793Y-124998915D01*
X36346798Y-124998916D01*
X36351126Y-125000335D01*
X36355617Y-125001115D01*
X36355618Y-125001115D01*
X36611936Y-125045620D01*
X36611944Y-125045621D01*
X36615717Y-125046276D01*
X36619554Y-125046467D01*
X36698996Y-125050422D01*
X36699004Y-125050422D01*
X36700567Y-125050500D01*
X36868223Y-125050500D01*
X36870491Y-125050335D01*
X36870503Y-125050335D01*
X37000823Y-125040879D01*
X37067846Y-125036016D01*
X37072301Y-125035032D01*
X37072304Y-125035032D01*
X37325620Y-124979105D01*
X37325624Y-124979104D01*
X37330080Y-124978120D01*
X37497617Y-124914646D01*
X37576941Y-124884593D01*
X37576944Y-124884592D01*
X37581211Y-124882975D01*
X37815976Y-124752574D01*
X37958254Y-124643991D01*
X38025833Y-124592417D01*
X38025837Y-124592413D01*
X38029458Y-124589650D01*
X38217185Y-124397614D01*
X38375225Y-124180491D01*
X38465878Y-124008188D01*
X38470186Y-124000000D01*
X55644318Y-124000000D01*
X55664956Y-124156762D01*
X55725464Y-124302841D01*
X55821718Y-124428282D01*
X55947159Y-124524536D01*
X56093238Y-124585044D01*
X56101426Y-124586122D01*
X56128224Y-124589650D01*
X56250000Y-124605682D01*
X56258188Y-124604604D01*
X56398574Y-124586122D01*
X56406762Y-124585044D01*
X56552841Y-124524536D01*
X56678282Y-124428282D01*
X56774536Y-124302841D01*
X56835044Y-124156762D01*
X56855682Y-124000000D01*
X56835044Y-123843238D01*
X56774536Y-123697159D01*
X56678282Y-123571718D01*
X56552841Y-123475464D01*
X56406762Y-123414956D01*
X56250000Y-123394318D01*
X56093238Y-123414956D01*
X55947159Y-123475464D01*
X55821718Y-123571718D01*
X55725464Y-123697159D01*
X55664956Y-123843238D01*
X55644318Y-124000000D01*
X38470186Y-124000000D01*
X38498140Y-123946868D01*
X38498143Y-123946862D01*
X38500265Y-123942828D01*
X38532543Y-123851426D01*
X38588165Y-123693916D01*
X38588165Y-123693915D01*
X38589688Y-123689603D01*
X38641620Y-123426122D01*
X38643203Y-123394318D01*
X38650781Y-123242095D01*
X88945028Y-123242095D01*
X88970534Y-123509431D01*
X89034364Y-123770285D01*
X89036076Y-123774511D01*
X89036077Y-123774515D01*
X89102506Y-123938519D01*
X89135182Y-124019192D01*
X89270875Y-124250938D01*
X89273728Y-124254505D01*
X89407466Y-124421736D01*
X89438601Y-124460669D01*
X89634846Y-124643991D01*
X89727039Y-124707948D01*
X89851746Y-124794461D01*
X89851751Y-124794464D01*
X89855499Y-124797064D01*
X89859584Y-124799096D01*
X89859587Y-124799098D01*
X89975718Y-124856872D01*
X90095938Y-124916680D01*
X90100272Y-124918101D01*
X90100275Y-124918102D01*
X90346793Y-124998915D01*
X90346798Y-124998916D01*
X90351126Y-125000335D01*
X90355617Y-125001115D01*
X90355618Y-125001115D01*
X90611936Y-125045620D01*
X90611944Y-125045621D01*
X90615717Y-125046276D01*
X90619554Y-125046467D01*
X90698996Y-125050422D01*
X90699004Y-125050422D01*
X90700567Y-125050500D01*
X90868223Y-125050500D01*
X90870491Y-125050335D01*
X90870503Y-125050335D01*
X91000823Y-125040879D01*
X91067846Y-125036016D01*
X91072301Y-125035032D01*
X91072304Y-125035032D01*
X91325620Y-124979105D01*
X91325624Y-124979104D01*
X91330080Y-124978120D01*
X91497617Y-124914646D01*
X91576941Y-124884593D01*
X91576944Y-124884592D01*
X91581211Y-124882975D01*
X91815976Y-124752574D01*
X91958254Y-124643991D01*
X92025833Y-124592417D01*
X92025837Y-124592413D01*
X92029458Y-124589650D01*
X92217185Y-124397614D01*
X92375225Y-124180491D01*
X92465878Y-124008188D01*
X92498140Y-123946868D01*
X92498143Y-123946862D01*
X92500265Y-123942828D01*
X92532543Y-123851426D01*
X92588165Y-123693916D01*
X92588165Y-123693915D01*
X92589688Y-123689603D01*
X92641620Y-123426122D01*
X92643203Y-123394318D01*
X92654745Y-123162474D01*
X92654745Y-123162468D01*
X92654972Y-123157905D01*
X92629466Y-122890569D01*
X92565636Y-122629715D01*
X92464818Y-122380808D01*
X92329125Y-122149062D01*
X92218211Y-122010371D01*
X92164251Y-121942897D01*
X92164250Y-121942895D01*
X92161399Y-121939331D01*
X91965154Y-121756009D01*
X91805436Y-121645208D01*
X91748254Y-121605539D01*
X91748249Y-121605536D01*
X91744501Y-121602936D01*
X91740416Y-121600904D01*
X91740413Y-121600902D01*
X91568560Y-121515407D01*
X91504062Y-121483320D01*
X91499728Y-121481899D01*
X91499725Y-121481898D01*
X91253207Y-121401085D01*
X91253202Y-121401084D01*
X91248874Y-121399665D01*
X91244382Y-121398885D01*
X90988064Y-121354380D01*
X90988056Y-121354379D01*
X90984283Y-121353724D01*
X90975622Y-121353293D01*
X90901004Y-121349578D01*
X90900996Y-121349578D01*
X90899433Y-121349500D01*
X90731777Y-121349500D01*
X90729509Y-121349665D01*
X90729497Y-121349665D01*
X90599177Y-121359121D01*
X90532154Y-121363984D01*
X90527699Y-121364968D01*
X90527696Y-121364968D01*
X90274380Y-121420895D01*
X90274376Y-121420896D01*
X90269920Y-121421880D01*
X90183058Y-121454789D01*
X90023059Y-121515407D01*
X90023056Y-121515408D01*
X90018789Y-121517025D01*
X89784024Y-121647426D01*
X89780392Y-121650198D01*
X89574167Y-121807583D01*
X89574163Y-121807587D01*
X89570542Y-121810350D01*
X89382815Y-122002386D01*
X89224775Y-122219509D01*
X89165652Y-122331884D01*
X89101860Y-122453132D01*
X89101857Y-122453138D01*
X89099735Y-122457172D01*
X89098215Y-122461477D01*
X89098213Y-122461481D01*
X89038804Y-122629715D01*
X89010312Y-122710397D01*
X88958380Y-122973878D01*
X88958153Y-122978431D01*
X88958153Y-122978434D01*
X88948992Y-123162474D01*
X88945028Y-123242095D01*
X38650781Y-123242095D01*
X38654745Y-123162474D01*
X38654745Y-123162468D01*
X38654972Y-123157905D01*
X38629466Y-122890569D01*
X38565636Y-122629715D01*
X38464818Y-122380808D01*
X38329125Y-122149062D01*
X38218211Y-122010371D01*
X38164251Y-121942897D01*
X38164250Y-121942895D01*
X38161399Y-121939331D01*
X37965154Y-121756009D01*
X37956492Y-121750000D01*
X60894318Y-121750000D01*
X60914956Y-121906762D01*
X60975464Y-122052841D01*
X61071718Y-122178282D01*
X61197159Y-122274536D01*
X61343238Y-122335044D01*
X61500000Y-122355682D01*
X61508188Y-122354604D01*
X61648574Y-122336122D01*
X61656762Y-122335044D01*
X61802841Y-122274536D01*
X61928282Y-122178282D01*
X62024536Y-122052841D01*
X62085044Y-121906762D01*
X62105682Y-121750000D01*
X62085044Y-121593238D01*
X62024536Y-121447159D01*
X61928282Y-121321718D01*
X61802841Y-121225464D01*
X61656762Y-121164956D01*
X61500000Y-121144318D01*
X61343238Y-121164956D01*
X61197159Y-121225464D01*
X61071718Y-121321718D01*
X60975464Y-121447159D01*
X60914956Y-121593238D01*
X60894318Y-121750000D01*
X37956492Y-121750000D01*
X37805436Y-121645208D01*
X37748254Y-121605539D01*
X37748249Y-121605536D01*
X37744501Y-121602936D01*
X37740416Y-121600904D01*
X37740413Y-121600902D01*
X37568560Y-121515407D01*
X37504062Y-121483320D01*
X37499728Y-121481899D01*
X37499725Y-121481898D01*
X37253207Y-121401085D01*
X37253202Y-121401084D01*
X37248874Y-121399665D01*
X37244382Y-121398885D01*
X36988064Y-121354380D01*
X36988056Y-121354379D01*
X36984283Y-121353724D01*
X36975622Y-121353293D01*
X36901004Y-121349578D01*
X36900996Y-121349578D01*
X36899433Y-121349500D01*
X36731777Y-121349500D01*
X36729509Y-121349665D01*
X36729497Y-121349665D01*
X36599177Y-121359121D01*
X36532154Y-121363984D01*
X36527699Y-121364968D01*
X36527696Y-121364968D01*
X36274380Y-121420895D01*
X36274376Y-121420896D01*
X36269920Y-121421880D01*
X36183058Y-121454789D01*
X36023059Y-121515407D01*
X36023056Y-121515408D01*
X36018789Y-121517025D01*
X35784024Y-121647426D01*
X35780392Y-121650198D01*
X35574167Y-121807583D01*
X35574163Y-121807587D01*
X35570542Y-121810350D01*
X35382815Y-122002386D01*
X35224775Y-122219509D01*
X35165652Y-122331884D01*
X35101860Y-122453132D01*
X35101857Y-122453138D01*
X35099735Y-122457172D01*
X35098215Y-122461477D01*
X35098213Y-122461481D01*
X35038804Y-122629715D01*
X35010312Y-122710397D01*
X34958380Y-122973878D01*
X34958153Y-122978431D01*
X34958153Y-122978434D01*
X34948992Y-123162474D01*
X34945028Y-123242095D01*
X30775000Y-123242095D01*
X30775000Y-119071077D01*
X68025483Y-119071077D01*
X68036327Y-119347083D01*
X68085953Y-119618809D01*
X68173370Y-119880831D01*
X68175363Y-119884819D01*
X68258550Y-120051302D01*
X68296834Y-120127921D01*
X68453882Y-120355151D01*
X68641380Y-120557985D01*
X68644834Y-120560797D01*
X68852131Y-120729563D01*
X68852135Y-120729566D01*
X68855588Y-120732377D01*
X68859410Y-120734678D01*
X69022761Y-120833023D01*
X69092230Y-120874847D01*
X69190747Y-120916564D01*
X69342482Y-120980816D01*
X69342487Y-120980818D01*
X69346585Y-120982553D01*
X69350882Y-120983692D01*
X69350887Y-120983694D01*
X69480082Y-121017949D01*
X69613579Y-121053345D01*
X69887884Y-121085811D01*
X70164027Y-121079304D01*
X70249587Y-121065063D01*
X70432108Y-121034683D01*
X70432112Y-121034682D01*
X70436498Y-121033952D01*
X70440739Y-121032611D01*
X70440742Y-121032610D01*
X70695615Y-120952004D01*
X70695617Y-120952003D01*
X70699861Y-120950661D01*
X70703872Y-120948735D01*
X70703877Y-120948733D01*
X70944842Y-120833023D01*
X70944843Y-120833022D01*
X70948861Y-120831093D01*
X70952567Y-120828617D01*
X71174821Y-120680112D01*
X71174825Y-120680109D01*
X71178529Y-120677634D01*
X71384283Y-120493345D01*
X71562018Y-120281903D01*
X71708188Y-120047528D01*
X71819875Y-119794896D01*
X71894853Y-119529047D01*
X71918705Y-119351463D01*
X71931196Y-119258468D01*
X71931197Y-119258461D01*
X71931623Y-119255286D01*
X71935482Y-119132500D01*
X71931133Y-119071077D01*
X80065483Y-119071077D01*
X80076327Y-119347083D01*
X80125953Y-119618809D01*
X80213370Y-119880831D01*
X80215363Y-119884819D01*
X80298550Y-120051302D01*
X80336834Y-120127921D01*
X80493882Y-120355151D01*
X80681380Y-120557985D01*
X80684834Y-120560797D01*
X80892131Y-120729563D01*
X80892135Y-120729566D01*
X80895588Y-120732377D01*
X80899410Y-120734678D01*
X81062761Y-120833023D01*
X81132230Y-120874847D01*
X81230747Y-120916564D01*
X81382482Y-120980816D01*
X81382487Y-120980818D01*
X81386585Y-120982553D01*
X81390882Y-120983692D01*
X81390887Y-120983694D01*
X81520082Y-121017949D01*
X81653579Y-121053345D01*
X81927884Y-121085811D01*
X82204027Y-121079304D01*
X82289587Y-121065063D01*
X82472108Y-121034683D01*
X82472112Y-121034682D01*
X82476498Y-121033952D01*
X82480739Y-121032611D01*
X82480742Y-121032610D01*
X82735615Y-120952004D01*
X82735617Y-120952003D01*
X82739861Y-120950661D01*
X82743872Y-120948735D01*
X82743877Y-120948733D01*
X82984842Y-120833023D01*
X82984843Y-120833022D01*
X82988861Y-120831093D01*
X82992567Y-120828617D01*
X83214821Y-120680112D01*
X83214825Y-120680109D01*
X83218529Y-120677634D01*
X83424283Y-120493345D01*
X83602018Y-120281903D01*
X83748188Y-120047528D01*
X83859875Y-119794896D01*
X83934853Y-119529047D01*
X83958705Y-119351463D01*
X83971196Y-119258468D01*
X83971197Y-119258461D01*
X83971623Y-119255286D01*
X83975482Y-119132500D01*
X83955973Y-118856970D01*
X83948388Y-118821736D01*
X83898773Y-118591285D01*
X83898773Y-118591283D01*
X83897837Y-118586938D01*
X83802233Y-118327791D01*
X83671068Y-118084700D01*
X83506960Y-117862516D01*
X83313183Y-117665671D01*
X83093604Y-117498094D01*
X83039448Y-117467765D01*
X82856490Y-117365303D01*
X82856487Y-117365302D01*
X82852604Y-117363127D01*
X82848459Y-117361523D01*
X82848456Y-117361522D01*
X82669522Y-117292298D01*
X82594991Y-117263464D01*
X82590666Y-117262461D01*
X82590661Y-117262460D01*
X82442567Y-117228134D01*
X82325905Y-117201093D01*
X82050715Y-117177259D01*
X82046280Y-117177503D01*
X82046276Y-117177503D01*
X81779356Y-117192193D01*
X81779349Y-117192194D01*
X81774913Y-117192438D01*
X81587848Y-117229647D01*
X81508364Y-117245457D01*
X81508362Y-117245458D01*
X81504001Y-117246325D01*
X81243384Y-117337847D01*
X80998263Y-117465178D01*
X80994648Y-117467761D01*
X80994642Y-117467765D01*
X80777150Y-117623187D01*
X80777146Y-117623190D01*
X80773529Y-117625775D01*
X80770309Y-117628847D01*
X80595721Y-117795396D01*
X80573665Y-117816436D01*
X80570909Y-117819931D01*
X80570908Y-117819933D01*
X80422304Y-118008437D01*
X80402659Y-118033356D01*
X80337294Y-118145891D01*
X80266161Y-118268353D01*
X80266158Y-118268359D01*
X80263923Y-118272207D01*
X80160226Y-118528223D01*
X80159155Y-118532536D01*
X80159153Y-118532541D01*
X80118745Y-118695213D01*
X80093636Y-118796296D01*
X80093182Y-118800724D01*
X80093182Y-118800726D01*
X80072183Y-119005682D01*
X80065483Y-119071077D01*
X71931133Y-119071077D01*
X71915973Y-118856970D01*
X71908388Y-118821736D01*
X71858773Y-118591285D01*
X71858773Y-118591283D01*
X71857837Y-118586938D01*
X71762233Y-118327791D01*
X71631068Y-118084700D01*
X71466960Y-117862516D01*
X71273183Y-117665671D01*
X71053604Y-117498094D01*
X70999448Y-117467765D01*
X70816490Y-117365303D01*
X70816487Y-117365302D01*
X70812604Y-117363127D01*
X70808459Y-117361523D01*
X70808456Y-117361522D01*
X70629522Y-117292298D01*
X70554991Y-117263464D01*
X70550666Y-117262461D01*
X70550661Y-117262460D01*
X70402567Y-117228134D01*
X70285905Y-117201093D01*
X70010715Y-117177259D01*
X70006280Y-117177503D01*
X70006276Y-117177503D01*
X69739356Y-117192193D01*
X69739349Y-117192194D01*
X69734913Y-117192438D01*
X69547848Y-117229647D01*
X69468364Y-117245457D01*
X69468362Y-117245458D01*
X69464001Y-117246325D01*
X69203384Y-117337847D01*
X68958263Y-117465178D01*
X68954648Y-117467761D01*
X68954642Y-117467765D01*
X68737150Y-117623187D01*
X68737146Y-117623190D01*
X68733529Y-117625775D01*
X68730309Y-117628847D01*
X68555721Y-117795396D01*
X68533665Y-117816436D01*
X68530909Y-117819931D01*
X68530908Y-117819933D01*
X68382304Y-118008437D01*
X68362659Y-118033356D01*
X68297294Y-118145891D01*
X68226161Y-118268353D01*
X68226158Y-118268359D01*
X68223923Y-118272207D01*
X68120226Y-118528223D01*
X68119155Y-118532536D01*
X68119153Y-118532541D01*
X68078745Y-118695213D01*
X68053636Y-118796296D01*
X68053182Y-118800724D01*
X68053182Y-118800726D01*
X68032183Y-119005682D01*
X68025483Y-119071077D01*
X30775000Y-119071077D01*
X30775000Y-118400000D01*
X61594318Y-118400000D01*
X61614956Y-118556762D01*
X61675464Y-118702841D01*
X61771718Y-118828282D01*
X61897159Y-118924536D01*
X62043238Y-118985044D01*
X62200000Y-119005682D01*
X62208188Y-119004604D01*
X62348574Y-118986122D01*
X62356762Y-118985044D01*
X62502841Y-118924536D01*
X62628282Y-118828282D01*
X62724536Y-118702841D01*
X62747731Y-118646843D01*
X62792280Y-118591563D01*
X62859643Y-118569142D01*
X62928434Y-118586700D01*
X62964102Y-118618358D01*
X62966691Y-118621732D01*
X62966695Y-118621736D01*
X62971718Y-118628282D01*
X63097159Y-118724536D01*
X63243238Y-118785044D01*
X63400000Y-118805682D01*
X63408188Y-118804604D01*
X63548574Y-118786122D01*
X63556762Y-118785044D01*
X63702841Y-118724536D01*
X63828282Y-118628282D01*
X63924536Y-118502841D01*
X63985044Y-118356762D01*
X64005682Y-118200000D01*
X63985044Y-118043238D01*
X63924536Y-117897159D01*
X63828282Y-117771718D01*
X63702841Y-117675464D01*
X63556762Y-117614956D01*
X63400000Y-117594318D01*
X63243238Y-117614956D01*
X63097159Y-117675464D01*
X62971718Y-117771718D01*
X62875464Y-117897159D01*
X62872304Y-117904789D01*
X62852269Y-117953157D01*
X62807720Y-118008437D01*
X62740357Y-118030858D01*
X62671566Y-118013300D01*
X62635898Y-117981642D01*
X62633309Y-117978268D01*
X62633305Y-117978264D01*
X62628282Y-117971718D01*
X62502841Y-117875464D01*
X62356762Y-117814956D01*
X62344670Y-117813364D01*
X62208188Y-117795396D01*
X62200000Y-117794318D01*
X62191812Y-117795396D01*
X62055331Y-117813364D01*
X62043238Y-117814956D01*
X61897159Y-117875464D01*
X61771718Y-117971718D01*
X61675464Y-118097159D01*
X61614956Y-118243238D01*
X61594318Y-118400000D01*
X30775000Y-118400000D01*
X30775000Y-115335262D01*
X33144520Y-115335262D01*
X33145036Y-115341406D01*
X33160979Y-115531261D01*
X33161759Y-115540553D01*
X33163458Y-115546478D01*
X33216164Y-115730285D01*
X33218544Y-115738586D01*
X33221359Y-115744063D01*
X33221360Y-115744066D01*
X33309897Y-115916341D01*
X33312712Y-115921818D01*
X33440677Y-116083270D01*
X33445370Y-116087264D01*
X33445371Y-116087265D01*
X33577835Y-116200000D01*
X33597564Y-116216791D01*
X33602942Y-116219797D01*
X33602944Y-116219798D01*
X33634563Y-116237469D01*
X33777398Y-116317297D01*
X33872238Y-116348113D01*
X33967471Y-116379056D01*
X33967475Y-116379057D01*
X33973329Y-116380959D01*
X34177894Y-116405351D01*
X34184029Y-116404879D01*
X34184031Y-116404879D01*
X34240039Y-116400569D01*
X34383300Y-116389546D01*
X34389230Y-116387890D01*
X34389232Y-116387890D01*
X34575797Y-116335800D01*
X34575796Y-116335800D01*
X34581725Y-116334145D01*
X34587214Y-116331372D01*
X34587220Y-116331370D01*
X34743725Y-116252313D01*
X34765610Y-116241258D01*
X34788208Y-116223603D01*
X34818419Y-116200000D01*
X56394318Y-116200000D01*
X56414956Y-116356762D01*
X56475464Y-116502841D01*
X56490656Y-116522640D01*
X56555320Y-116606911D01*
X56571718Y-116628282D01*
X56578264Y-116633305D01*
X56607918Y-116656059D01*
X56697159Y-116724536D01*
X56843238Y-116785044D01*
X57000000Y-116805682D01*
X57008188Y-116804604D01*
X57148574Y-116786122D01*
X57156762Y-116785044D01*
X57302841Y-116724536D01*
X57392082Y-116656059D01*
X57421736Y-116633305D01*
X57428282Y-116628282D01*
X57444681Y-116606911D01*
X57449984Y-116600000D01*
X63794318Y-116600000D01*
X63814956Y-116756762D01*
X63875464Y-116902841D01*
X63971718Y-117028282D01*
X64097159Y-117124536D01*
X64243238Y-117185044D01*
X64251426Y-117186122D01*
X64297540Y-117192193D01*
X64400000Y-117205682D01*
X64408188Y-117204604D01*
X64548574Y-117186122D01*
X64556762Y-117185044D01*
X64702841Y-117124536D01*
X64828282Y-117028282D01*
X64924536Y-116902841D01*
X64985044Y-116756762D01*
X65005682Y-116600000D01*
X64985044Y-116443238D01*
X64924536Y-116297159D01*
X64852310Y-116203032D01*
X64833305Y-116178264D01*
X64828282Y-116171718D01*
X64702841Y-116075464D01*
X64560270Y-116016409D01*
X64539908Y-116000000D01*
X69644318Y-116000000D01*
X69664956Y-116156762D01*
X69725464Y-116302841D01*
X69821718Y-116428282D01*
X69947159Y-116524536D01*
X70093238Y-116585044D01*
X70250000Y-116605682D01*
X70258188Y-116604604D01*
X70398574Y-116586122D01*
X70406762Y-116585044D01*
X70552841Y-116524536D01*
X70678282Y-116428282D01*
X70694028Y-116407762D01*
X73694520Y-116407762D01*
X73695758Y-116422500D01*
X73711050Y-116604604D01*
X73711759Y-116613053D01*
X73713458Y-116618978D01*
X73761386Y-116786122D01*
X73768544Y-116811086D01*
X73771359Y-116816563D01*
X73771360Y-116816566D01*
X73820739Y-116912647D01*
X73862712Y-116994318D01*
X73990677Y-117155770D01*
X73995370Y-117159764D01*
X73995371Y-117159765D01*
X74116038Y-117262460D01*
X74147564Y-117289291D01*
X74327398Y-117389797D01*
X74422238Y-117420613D01*
X74517471Y-117451556D01*
X74517475Y-117451557D01*
X74523329Y-117453459D01*
X74727894Y-117477851D01*
X74734029Y-117477379D01*
X74734031Y-117477379D01*
X74790039Y-117473069D01*
X74933300Y-117462046D01*
X74939230Y-117460390D01*
X74939232Y-117460390D01*
X75125797Y-117408300D01*
X75125796Y-117408300D01*
X75131725Y-117406645D01*
X75137214Y-117403872D01*
X75137220Y-117403870D01*
X75310116Y-117316533D01*
X75315610Y-117313758D01*
X75352038Y-117285298D01*
X75453942Y-117205682D01*
X75477951Y-117186924D01*
X75482302Y-117181884D01*
X75608540Y-117035634D01*
X75608540Y-117035633D01*
X75612564Y-117030972D01*
X75633387Y-116994318D01*
X75684757Y-116903890D01*
X75714323Y-116851844D01*
X75779351Y-116656363D01*
X75805171Y-116451974D01*
X75805583Y-116422500D01*
X75804138Y-116407762D01*
X76194520Y-116407762D01*
X76195758Y-116422500D01*
X76211050Y-116604604D01*
X76211759Y-116613053D01*
X76213458Y-116618978D01*
X76261386Y-116786122D01*
X76268544Y-116811086D01*
X76271359Y-116816563D01*
X76271360Y-116816566D01*
X76320739Y-116912647D01*
X76362712Y-116994318D01*
X76490677Y-117155770D01*
X76495370Y-117159764D01*
X76495371Y-117159765D01*
X76616038Y-117262460D01*
X76647564Y-117289291D01*
X76827398Y-117389797D01*
X76922238Y-117420613D01*
X77017471Y-117451556D01*
X77017475Y-117451557D01*
X77023329Y-117453459D01*
X77227894Y-117477851D01*
X77234029Y-117477379D01*
X77234031Y-117477379D01*
X77290039Y-117473069D01*
X77433300Y-117462046D01*
X77439230Y-117460390D01*
X77439232Y-117460390D01*
X77625797Y-117408300D01*
X77625796Y-117408300D01*
X77631725Y-117406645D01*
X77637214Y-117403872D01*
X77637220Y-117403870D01*
X77810116Y-117316533D01*
X77815610Y-117313758D01*
X77852038Y-117285298D01*
X77953942Y-117205682D01*
X77977951Y-117186924D01*
X77982302Y-117181884D01*
X78108540Y-117035634D01*
X78108540Y-117035633D01*
X78112564Y-117030972D01*
X78133387Y-116994318D01*
X78184757Y-116903890D01*
X78214323Y-116851844D01*
X78279351Y-116656363D01*
X78305171Y-116451974D01*
X78305202Y-116449748D01*
X87307000Y-116449748D01*
X87318633Y-116508231D01*
X87362948Y-116574552D01*
X87429269Y-116618867D01*
X87441438Y-116621288D01*
X87441439Y-116621288D01*
X87475033Y-116627970D01*
X87487752Y-116630500D01*
X89432248Y-116630500D01*
X89444967Y-116627970D01*
X89478561Y-116621288D01*
X89478562Y-116621288D01*
X89490731Y-116618867D01*
X89557052Y-116574552D01*
X89601367Y-116508231D01*
X89613000Y-116449748D01*
X89613000Y-116443561D01*
X89613607Y-116437398D01*
X89615976Y-116437631D01*
X89633002Y-116379646D01*
X89686658Y-116333153D01*
X89756932Y-116323049D01*
X89821512Y-116352543D01*
X89838830Y-116370890D01*
X89842380Y-116375500D01*
X89997050Y-116545480D01*
X90004583Y-116552506D01*
X90184944Y-116694945D01*
X90193531Y-116700650D01*
X90394722Y-116811714D01*
X90404134Y-116815944D01*
X90620768Y-116892659D01*
X90630739Y-116895293D01*
X90728163Y-116912647D01*
X90741460Y-116911187D01*
X90745543Y-116898096D01*
X91254000Y-116898096D01*
X91257918Y-116911440D01*
X91272194Y-116913427D01*
X91334515Y-116903890D01*
X91344543Y-116901501D01*
X91562988Y-116830102D01*
X91572497Y-116826105D01*
X91776344Y-116719989D01*
X91785069Y-116714495D01*
X91968852Y-116576507D01*
X91976559Y-116569664D01*
X92135339Y-116403509D01*
X92141826Y-116395499D01*
X92271330Y-116205653D01*
X92276426Y-116196683D01*
X92326979Y-116087776D01*
X92373803Y-116034410D01*
X92442047Y-116014829D01*
X92510042Y-116035253D01*
X92548700Y-116074993D01*
X92550140Y-116077343D01*
X92552694Y-116082522D01*
X92556148Y-116087148D01*
X92556149Y-116087149D01*
X92640419Y-116200000D01*
X92679483Y-116252313D01*
X92725890Y-116295211D01*
X92826149Y-116387890D01*
X92835091Y-116396156D01*
X93014306Y-116509232D01*
X93211127Y-116587756D01*
X93216787Y-116588882D01*
X93216791Y-116588883D01*
X93413295Y-116627970D01*
X93413298Y-116627970D01*
X93418962Y-116629097D01*
X93424737Y-116629173D01*
X93424741Y-116629173D01*
X93530517Y-116630557D01*
X93630851Y-116631870D01*
X93636548Y-116630891D01*
X93636549Y-116630891D01*
X93834007Y-116596962D01*
X93834010Y-116596961D01*
X93839697Y-116595984D01*
X94038506Y-116522640D01*
X94126187Y-116470475D01*
X94215652Y-116417249D01*
X94215655Y-116417247D01*
X94220620Y-116414293D01*
X94379940Y-116274573D01*
X94404016Y-116244033D01*
X94507552Y-116112698D01*
X94507553Y-116112696D01*
X94511130Y-116108159D01*
X94524619Y-116082522D01*
X94607105Y-115925741D01*
X94607106Y-115925739D01*
X94609797Y-115920624D01*
X94672636Y-115718249D01*
X94681252Y-115645454D01*
X94692564Y-115549882D01*
X94692564Y-115549875D01*
X94693000Y-115546195D01*
X94693000Y-115328739D01*
X94678550Y-115171482D01*
X94675246Y-115159765D01*
X94644691Y-115051426D01*
X94621030Y-114967531D01*
X94527306Y-114777478D01*
X94522868Y-114771534D01*
X94403970Y-114612311D01*
X94403969Y-114612310D01*
X94400517Y-114607687D01*
X94267257Y-114484502D01*
X94249149Y-114467763D01*
X94249146Y-114467761D01*
X94244909Y-114463844D01*
X94065694Y-114350768D01*
X93868873Y-114272244D01*
X93863213Y-114271118D01*
X93863209Y-114271117D01*
X93666705Y-114232030D01*
X93666702Y-114232030D01*
X93661038Y-114230903D01*
X93655263Y-114230827D01*
X93655259Y-114230827D01*
X93549483Y-114229443D01*
X93449149Y-114228130D01*
X93443452Y-114229109D01*
X93443451Y-114229109D01*
X93245993Y-114263038D01*
X93245990Y-114263039D01*
X93240303Y-114264016D01*
X93041494Y-114337360D01*
X93017275Y-114351769D01*
X92864348Y-114442751D01*
X92864345Y-114442753D01*
X92859380Y-114445707D01*
X92700060Y-114585427D01*
X92696485Y-114589962D01*
X92696484Y-114589963D01*
X92613908Y-114694711D01*
X92568870Y-114751841D01*
X92554075Y-114779962D01*
X92504656Y-114830933D01*
X92435523Y-114847095D01*
X92368627Y-114823315D01*
X92327018Y-114771534D01*
X92293615Y-114694711D01*
X92288749Y-114685636D01*
X92163915Y-114492673D01*
X92157622Y-114484502D01*
X92002950Y-114314520D01*
X91995417Y-114307494D01*
X91815056Y-114165055D01*
X91806469Y-114159350D01*
X91605278Y-114048286D01*
X91595866Y-114044056D01*
X91379232Y-113967341D01*
X91369261Y-113964707D01*
X91271837Y-113947353D01*
X91258540Y-113948813D01*
X91254000Y-113963370D01*
X91254000Y-116898096D01*
X90745543Y-116898096D01*
X90746000Y-116896630D01*
X90746000Y-113961904D01*
X90742082Y-113948560D01*
X90727806Y-113946573D01*
X90665485Y-113956110D01*
X90655457Y-113958499D01*
X90437012Y-114029898D01*
X90427503Y-114033895D01*
X90223656Y-114140011D01*
X90214931Y-114145505D01*
X90031148Y-114283493D01*
X90023441Y-114290336D01*
X89864661Y-114456491D01*
X89858178Y-114464496D01*
X89843088Y-114486617D01*
X89788176Y-114531619D01*
X89717651Y-114539790D01*
X89653904Y-114508535D01*
X89617175Y-114447778D01*
X89613903Y-114422573D01*
X89613607Y-114422602D01*
X89613000Y-114416439D01*
X89613000Y-114410252D01*
X89601367Y-114351769D01*
X89557052Y-114285448D01*
X89490731Y-114241133D01*
X89478562Y-114238712D01*
X89478561Y-114238712D01*
X89438316Y-114230707D01*
X89432248Y-114229500D01*
X87487752Y-114229500D01*
X87481684Y-114230707D01*
X87441439Y-114238712D01*
X87441438Y-114238712D01*
X87429269Y-114241133D01*
X87362948Y-114285448D01*
X87318633Y-114351769D01*
X87307000Y-114410252D01*
X87307000Y-116449748D01*
X78305202Y-116449748D01*
X78305583Y-116422500D01*
X78285480Y-116217470D01*
X78225935Y-116020249D01*
X78129218Y-115838349D01*
X77999011Y-115678700D01*
X78001331Y-115676808D01*
X77973469Y-115625783D01*
X77978534Y-115554968D01*
X78021081Y-115498132D01*
X78087601Y-115473321D01*
X78096590Y-115473000D01*
X78119748Y-115473000D01*
X78125816Y-115471793D01*
X78166061Y-115463788D01*
X78166062Y-115463788D01*
X78178231Y-115461367D01*
X78244552Y-115417052D01*
X78288867Y-115350731D01*
X78292470Y-115332621D01*
X78299293Y-115298316D01*
X78300500Y-115292248D01*
X78300500Y-113552752D01*
X78288867Y-113494269D01*
X78244552Y-113427948D01*
X78178231Y-113383633D01*
X78166062Y-113381212D01*
X78166061Y-113381212D01*
X78125816Y-113373207D01*
X78119748Y-113372000D01*
X76380252Y-113372000D01*
X76374184Y-113373207D01*
X76333939Y-113381212D01*
X76333938Y-113381212D01*
X76321769Y-113383633D01*
X76255448Y-113427948D01*
X76211133Y-113494269D01*
X76199500Y-113552752D01*
X76199500Y-115292248D01*
X76200707Y-115298316D01*
X76207531Y-115332621D01*
X76211133Y-115350731D01*
X76255448Y-115417052D01*
X76321769Y-115461367D01*
X76333938Y-115463788D01*
X76333939Y-115463788D01*
X76374184Y-115471793D01*
X76380252Y-115473000D01*
X76405129Y-115473000D01*
X76473250Y-115493002D01*
X76519743Y-115546658D01*
X76529847Y-115616932D01*
X76501651Y-115679989D01*
X76379024Y-115826130D01*
X76376056Y-115831528D01*
X76376053Y-115831533D01*
X76303068Y-115964294D01*
X76279776Y-116006662D01*
X76217484Y-116203032D01*
X76216798Y-116209149D01*
X76216797Y-116209153D01*
X76195822Y-116396156D01*
X76194520Y-116407762D01*
X75804138Y-116407762D01*
X75785480Y-116217470D01*
X75725935Y-116020249D01*
X75629218Y-115838349D01*
X75544340Y-115734279D01*
X75502906Y-115683475D01*
X75502903Y-115683472D01*
X75499011Y-115678700D01*
X75454233Y-115641656D01*
X75345025Y-115551311D01*
X75345021Y-115551309D01*
X75340275Y-115547382D01*
X75316491Y-115534522D01*
X75266082Y-115484527D01*
X75250705Y-115415216D01*
X75275241Y-115348594D01*
X75308906Y-115317300D01*
X75310107Y-115316538D01*
X75315610Y-115313758D01*
X75477951Y-115186924D01*
X75514165Y-115144970D01*
X75608540Y-115035634D01*
X75608540Y-115035633D01*
X75612564Y-115030972D01*
X75633387Y-114994318D01*
X75711276Y-114857207D01*
X75714323Y-114851844D01*
X75779351Y-114656363D01*
X75805171Y-114451974D01*
X75805583Y-114422500D01*
X75785480Y-114217470D01*
X75725935Y-114020249D01*
X75629218Y-113838349D01*
X75523061Y-113708188D01*
X75502906Y-113683475D01*
X75502903Y-113683472D01*
X75499011Y-113678700D01*
X75486458Y-113668315D01*
X75345025Y-113551311D01*
X75345021Y-113551309D01*
X75340275Y-113547382D01*
X75159055Y-113449397D01*
X74962254Y-113388477D01*
X74956129Y-113387833D01*
X74956128Y-113387833D01*
X74763498Y-113367587D01*
X74763496Y-113367587D01*
X74757369Y-113366943D01*
X74670529Y-113374846D01*
X74558342Y-113385055D01*
X74558339Y-113385056D01*
X74552203Y-113385614D01*
X74354572Y-113443780D01*
X74172002Y-113539226D01*
X74167201Y-113543086D01*
X74167198Y-113543088D01*
X74016254Y-113664450D01*
X74011447Y-113668315D01*
X73879024Y-113826130D01*
X73876056Y-113831528D01*
X73876053Y-113831533D01*
X73808293Y-113954789D01*
X73779776Y-114006662D01*
X73717484Y-114203032D01*
X73716798Y-114209149D01*
X73716797Y-114209153D01*
X73698807Y-114369540D01*
X73694520Y-114407762D01*
X73695036Y-114413906D01*
X73711184Y-114606200D01*
X73711759Y-114613053D01*
X73713458Y-114618978D01*
X73760393Y-114782659D01*
X73768544Y-114811086D01*
X73771359Y-114816563D01*
X73771360Y-114816566D01*
X73853641Y-114976668D01*
X73862712Y-114994318D01*
X73990677Y-115155770D01*
X73995370Y-115159764D01*
X73995371Y-115159765D01*
X74009139Y-115171482D01*
X74147564Y-115289291D01*
X74187023Y-115311344D01*
X74236727Y-115362037D01*
X74251135Y-115431556D01*
X74225671Y-115497829D01*
X74183929Y-115532991D01*
X74172002Y-115539226D01*
X74167201Y-115543086D01*
X74167198Y-115543088D01*
X74044604Y-115641656D01*
X74011447Y-115668315D01*
X73879024Y-115826130D01*
X73876056Y-115831528D01*
X73876053Y-115831533D01*
X73803068Y-115964294D01*
X73779776Y-116006662D01*
X73717484Y-116203032D01*
X73716798Y-116209149D01*
X73716797Y-116209153D01*
X73695822Y-116396156D01*
X73694520Y-116407762D01*
X70694028Y-116407762D01*
X70774536Y-116302841D01*
X70835044Y-116156762D01*
X70855682Y-116000000D01*
X70835044Y-115843238D01*
X70774536Y-115697159D01*
X70678282Y-115571718D01*
X70552841Y-115475464D01*
X70406762Y-115414956D01*
X70250000Y-115394318D01*
X70093238Y-115414956D01*
X69947159Y-115475464D01*
X69821718Y-115571718D01*
X69725464Y-115697159D01*
X69664956Y-115843238D01*
X69644318Y-116000000D01*
X64539908Y-116000000D01*
X64504989Y-115971861D01*
X64482568Y-115904497D01*
X64500126Y-115835706D01*
X64552088Y-115787328D01*
X64560270Y-115783591D01*
X64619167Y-115759195D01*
X64702841Y-115724536D01*
X64810853Y-115641656D01*
X64821736Y-115633305D01*
X64828282Y-115628282D01*
X64924536Y-115502841D01*
X64985044Y-115356762D01*
X64991024Y-115311343D01*
X65004604Y-115208188D01*
X65005682Y-115200000D01*
X64985044Y-115043238D01*
X64924536Y-114897159D01*
X64828282Y-114771718D01*
X64702841Y-114675464D01*
X64556762Y-114614956D01*
X64400000Y-114594318D01*
X64243238Y-114614956D01*
X64097159Y-114675464D01*
X63971718Y-114771718D01*
X63875464Y-114897159D01*
X63814956Y-115043238D01*
X63794318Y-115200000D01*
X63795396Y-115208188D01*
X63808977Y-115311343D01*
X63814956Y-115356762D01*
X63875464Y-115502841D01*
X63971718Y-115628282D01*
X63978264Y-115633305D01*
X63989147Y-115641656D01*
X64097159Y-115724536D01*
X64180833Y-115759195D01*
X64239730Y-115783591D01*
X64295011Y-115828139D01*
X64317432Y-115895503D01*
X64299874Y-115964294D01*
X64247912Y-116012672D01*
X64239730Y-116016409D01*
X64097159Y-116075464D01*
X63971718Y-116171718D01*
X63966695Y-116178264D01*
X63947690Y-116203032D01*
X63875464Y-116297159D01*
X63814956Y-116443238D01*
X63794318Y-116600000D01*
X57449984Y-116600000D01*
X57509344Y-116522640D01*
X57524536Y-116502841D01*
X57585044Y-116356762D01*
X57605682Y-116200000D01*
X57585044Y-116043238D01*
X57581737Y-116035253D01*
X57564781Y-115994318D01*
X57524536Y-115897159D01*
X57438249Y-115784707D01*
X57433305Y-115778264D01*
X57428282Y-115771718D01*
X57302841Y-115675464D01*
X57156762Y-115614956D01*
X57145460Y-115613468D01*
X57008188Y-115595396D01*
X57000000Y-115594318D01*
X56991812Y-115595396D01*
X56854541Y-115613468D01*
X56843238Y-115614956D01*
X56697159Y-115675464D01*
X56571718Y-115771718D01*
X56566695Y-115778264D01*
X56561751Y-115784707D01*
X56475464Y-115897159D01*
X56435219Y-115994318D01*
X56418264Y-116035253D01*
X56414956Y-116043238D01*
X56394318Y-116200000D01*
X34818419Y-116200000D01*
X34863996Y-116164391D01*
X34927951Y-116114424D01*
X34937777Y-116103041D01*
X35058540Y-115963134D01*
X35058540Y-115963133D01*
X35062564Y-115958472D01*
X35083387Y-115921818D01*
X35123375Y-115851426D01*
X35164323Y-115779344D01*
X35229351Y-115583863D01*
X35255171Y-115379474D01*
X35255429Y-115361047D01*
X35255534Y-115353522D01*
X35255534Y-115353518D01*
X35255583Y-115350000D01*
X35235480Y-115144970D01*
X35175935Y-114947749D01*
X35170042Y-114936665D01*
X42444994Y-114936665D01*
X42460592Y-115122414D01*
X42462291Y-115128339D01*
X42509291Y-115292248D01*
X42511971Y-115301595D01*
X42514790Y-115307080D01*
X42590541Y-115454474D01*
X42597176Y-115467385D01*
X42712959Y-115613468D01*
X42854912Y-115734279D01*
X42860290Y-115737285D01*
X42860292Y-115737286D01*
X42887731Y-115752621D01*
X43017627Y-115825217D01*
X43194907Y-115882819D01*
X43379998Y-115904890D01*
X43386133Y-115904418D01*
X43386135Y-115904418D01*
X43559710Y-115891062D01*
X43559715Y-115891061D01*
X43565851Y-115890589D01*
X43571781Y-115888933D01*
X43571783Y-115888933D01*
X43739459Y-115842117D01*
X43739458Y-115842117D01*
X43745387Y-115840462D01*
X43911768Y-115756417D01*
X43936255Y-115737286D01*
X44053794Y-115645454D01*
X44053795Y-115645453D01*
X44058655Y-115641656D01*
X44180454Y-115500550D01*
X44189557Y-115484527D01*
X44229078Y-115414956D01*
X44272526Y-115338474D01*
X44331364Y-115161601D01*
X44348544Y-115025614D01*
X44354285Y-114980170D01*
X44354286Y-114980163D01*
X44354727Y-114976668D01*
X44355099Y-114950000D01*
X44336909Y-114764487D01*
X44335128Y-114758588D01*
X44335127Y-114758583D01*
X44284814Y-114591939D01*
X44283033Y-114586040D01*
X44218407Y-114464496D01*
X44198416Y-114426898D01*
X44198414Y-114426895D01*
X44195522Y-114421456D01*
X44191632Y-114416686D01*
X44191629Y-114416682D01*
X44081605Y-114281780D01*
X44081602Y-114281777D01*
X44077710Y-114277005D01*
X44072056Y-114272327D01*
X43938834Y-114162116D01*
X43934085Y-114158187D01*
X43770116Y-114069529D01*
X43642087Y-114029898D01*
X43597936Y-114016231D01*
X43597933Y-114016230D01*
X43592049Y-114014409D01*
X43585924Y-114013765D01*
X43585923Y-114013765D01*
X43412796Y-113995568D01*
X43412795Y-113995568D01*
X43406668Y-113994924D01*
X43328549Y-114002033D01*
X43227171Y-114011259D01*
X43227168Y-114011260D01*
X43221032Y-114011818D01*
X43215122Y-114013557D01*
X43215119Y-114013558D01*
X43081650Y-114052841D01*
X43042214Y-114064448D01*
X42877023Y-114150807D01*
X42731752Y-114267608D01*
X42611935Y-114410401D01*
X42608971Y-114415793D01*
X42608968Y-114415797D01*
X42537822Y-114545211D01*
X42522135Y-114573746D01*
X42520274Y-114579613D01*
X42520273Y-114579615D01*
X42490870Y-114672304D01*
X42465772Y-114751424D01*
X42444994Y-114936665D01*
X35170042Y-114936665D01*
X35079218Y-114765849D01*
X34959433Y-114618978D01*
X34952906Y-114610975D01*
X34952903Y-114610972D01*
X34949011Y-114606200D01*
X34936458Y-114595815D01*
X34795025Y-114478811D01*
X34795021Y-114478809D01*
X34790275Y-114474882D01*
X34609055Y-114376897D01*
X34412254Y-114315977D01*
X34406129Y-114315333D01*
X34406128Y-114315333D01*
X34213498Y-114295087D01*
X34213496Y-114295087D01*
X34207369Y-114294443D01*
X34120529Y-114302346D01*
X34008342Y-114312555D01*
X34008339Y-114312556D01*
X34002203Y-114313114D01*
X33804572Y-114371280D01*
X33622002Y-114466726D01*
X33617201Y-114470586D01*
X33617198Y-114470588D01*
X33541291Y-114531619D01*
X33461447Y-114595815D01*
X33329024Y-114753630D01*
X33326056Y-114759028D01*
X33326053Y-114759033D01*
X33245924Y-114904789D01*
X33229776Y-114934162D01*
X33167484Y-115130532D01*
X33166798Y-115136649D01*
X33166797Y-115136653D01*
X33150124Y-115285298D01*
X33144520Y-115335262D01*
X30775000Y-115335262D01*
X30775000Y-112795262D01*
X33144520Y-112795262D01*
X33161759Y-113000553D01*
X33163458Y-113006478D01*
X33211008Y-113172304D01*
X33218544Y-113198586D01*
X33221359Y-113204063D01*
X33221360Y-113204066D01*
X33309897Y-113376341D01*
X33312712Y-113381818D01*
X33440677Y-113543270D01*
X33445370Y-113547264D01*
X33445371Y-113547265D01*
X33587605Y-113668315D01*
X33597564Y-113676791D01*
X33602942Y-113679797D01*
X33602944Y-113679798D01*
X33641342Y-113701258D01*
X33777398Y-113777297D01*
X33872238Y-113808113D01*
X33967471Y-113839056D01*
X33967475Y-113839057D01*
X33973329Y-113840959D01*
X34177894Y-113865351D01*
X34184029Y-113864879D01*
X34184031Y-113864879D01*
X34240039Y-113860569D01*
X34383300Y-113849546D01*
X34389230Y-113847890D01*
X34389232Y-113847890D01*
X34575797Y-113795800D01*
X34575796Y-113795800D01*
X34581725Y-113794145D01*
X34587214Y-113791372D01*
X34587220Y-113791370D01*
X34669118Y-113750000D01*
X48394318Y-113750000D01*
X48414956Y-113906762D01*
X48475464Y-114052841D01*
X48571718Y-114178282D01*
X48697159Y-114274536D01*
X48843238Y-114335044D01*
X49000000Y-114355682D01*
X49008188Y-114354604D01*
X49148574Y-114336122D01*
X49156762Y-114335044D01*
X49302841Y-114274536D01*
X49428282Y-114178282D01*
X49524536Y-114052841D01*
X49585044Y-113906762D01*
X49605682Y-113750000D01*
X49599099Y-113700000D01*
X56494318Y-113700000D01*
X56495396Y-113708188D01*
X56512876Y-113840959D01*
X56514956Y-113856762D01*
X56575464Y-114002841D01*
X56671718Y-114128282D01*
X56678264Y-114133305D01*
X56697354Y-114147953D01*
X56797159Y-114224536D01*
X56943238Y-114285044D01*
X57100000Y-114305682D01*
X57108188Y-114304604D01*
X57248574Y-114286122D01*
X57256762Y-114285044D01*
X57341366Y-114250000D01*
X67644318Y-114250000D01*
X67664956Y-114406762D01*
X67725464Y-114552841D01*
X67821718Y-114678282D01*
X67947159Y-114774536D01*
X68093238Y-114835044D01*
X68250000Y-114855682D01*
X68258188Y-114854604D01*
X68279153Y-114851844D01*
X68406762Y-114835044D01*
X68552841Y-114774536D01*
X68678282Y-114678282D01*
X68774536Y-114552841D01*
X68835044Y-114406762D01*
X68855682Y-114250000D01*
X68835044Y-114093238D01*
X68774536Y-113947159D01*
X68695218Y-113843790D01*
X68683305Y-113828264D01*
X68678282Y-113821718D01*
X68552841Y-113725464D01*
X68406762Y-113664956D01*
X68250000Y-113644318D01*
X68093238Y-113664956D01*
X67947159Y-113725464D01*
X67821718Y-113821718D01*
X67816695Y-113828264D01*
X67804782Y-113843790D01*
X67725464Y-113947159D01*
X67664956Y-114093238D01*
X67644318Y-114250000D01*
X57341366Y-114250000D01*
X57402841Y-114224536D01*
X57502646Y-114147953D01*
X57521736Y-114133305D01*
X57528282Y-114128282D01*
X57624536Y-114002841D01*
X57685044Y-113856762D01*
X57687125Y-113840959D01*
X57704604Y-113708188D01*
X57705682Y-113700000D01*
X57685044Y-113543238D01*
X57624536Y-113397159D01*
X57528282Y-113271718D01*
X57499979Y-113250000D01*
X57409392Y-113180491D01*
X57402841Y-113175464D01*
X57256762Y-113114956D01*
X57100000Y-113094318D01*
X56943238Y-113114956D01*
X56797159Y-113175464D01*
X56790608Y-113180491D01*
X56700022Y-113250000D01*
X56671718Y-113271718D01*
X56575464Y-113397159D01*
X56514956Y-113543238D01*
X56494318Y-113700000D01*
X49599099Y-113700000D01*
X49585044Y-113593238D01*
X49524536Y-113447159D01*
X49428282Y-113321718D01*
X49302841Y-113225464D01*
X49156762Y-113164956D01*
X49000000Y-113144318D01*
X48843238Y-113164956D01*
X48697159Y-113225464D01*
X48571718Y-113321718D01*
X48475464Y-113447159D01*
X48414956Y-113593238D01*
X48394318Y-113750000D01*
X34669118Y-113750000D01*
X34760116Y-113704033D01*
X34765610Y-113701258D01*
X34777701Y-113691812D01*
X34923101Y-113578213D01*
X34927951Y-113574424D01*
X34940927Y-113559392D01*
X35058540Y-113423134D01*
X35058540Y-113423133D01*
X35062564Y-113418472D01*
X35074672Y-113397159D01*
X35153618Y-113258188D01*
X35164323Y-113239344D01*
X35229351Y-113043863D01*
X35243347Y-112933071D01*
X70383931Y-112933071D01*
X70404569Y-113089833D01*
X70465077Y-113235912D01*
X70561331Y-113361353D01*
X70567877Y-113366376D01*
X70596680Y-113388477D01*
X70686772Y-113457607D01*
X70832851Y-113518115D01*
X70989613Y-113538753D01*
X70997801Y-113537675D01*
X71138187Y-113519193D01*
X71146375Y-113518115D01*
X71292454Y-113457607D01*
X71293118Y-113459210D01*
X71352458Y-113444813D01*
X71419551Y-113468031D01*
X71462875Y-113522450D01*
X71468326Y-113535609D01*
X71475464Y-113552841D01*
X71571718Y-113678282D01*
X71578264Y-113683305D01*
X71601661Y-113701258D01*
X71697159Y-113774536D01*
X71843238Y-113835044D01*
X72000000Y-113855682D01*
X72008188Y-113854604D01*
X72043023Y-113850018D01*
X72156762Y-113835044D01*
X72302841Y-113774536D01*
X72398339Y-113701258D01*
X72421736Y-113683305D01*
X72428282Y-113678282D01*
X72524536Y-113552841D01*
X72585044Y-113406762D01*
X72587182Y-113390526D01*
X72604604Y-113258188D01*
X72605682Y-113250000D01*
X72585044Y-113093238D01*
X72524536Y-112947159D01*
X72428282Y-112821718D01*
X72420183Y-112815503D01*
X72385821Y-112789137D01*
X72302841Y-112725464D01*
X72156762Y-112664956D01*
X72000000Y-112644318D01*
X71843238Y-112664956D01*
X71697159Y-112725464D01*
X71696495Y-112723861D01*
X71637155Y-112738258D01*
X71570062Y-112715040D01*
X71526738Y-112660621D01*
X71517310Y-112637862D01*
X71517309Y-112637860D01*
X71514149Y-112630230D01*
X71417895Y-112504789D01*
X71292454Y-112408535D01*
X71146375Y-112348027D01*
X70989613Y-112327389D01*
X70832851Y-112348027D01*
X70686772Y-112408535D01*
X70561331Y-112504789D01*
X70465077Y-112630230D01*
X70404569Y-112776309D01*
X70403491Y-112784497D01*
X70399670Y-112813522D01*
X70383931Y-112933071D01*
X35243347Y-112933071D01*
X35255171Y-112839474D01*
X35255419Y-112821718D01*
X35255534Y-112813522D01*
X35255534Y-112813518D01*
X35255583Y-112810000D01*
X35235480Y-112604970D01*
X35175935Y-112407749D01*
X35079218Y-112225849D01*
X35005859Y-112135902D01*
X34952906Y-112070975D01*
X34952903Y-112070972D01*
X34949011Y-112066200D01*
X34931786Y-112051950D01*
X34795025Y-111938811D01*
X34795021Y-111938809D01*
X34790275Y-111934882D01*
X34609055Y-111836897D01*
X34412254Y-111775977D01*
X34406129Y-111775333D01*
X34406128Y-111775333D01*
X34213498Y-111755087D01*
X34213496Y-111755087D01*
X34207369Y-111754443D01*
X34120529Y-111762346D01*
X34008342Y-111772555D01*
X34008339Y-111772556D01*
X34002203Y-111773114D01*
X33804572Y-111831280D01*
X33622002Y-111926726D01*
X33617201Y-111930586D01*
X33617198Y-111930588D01*
X33606971Y-111938811D01*
X33461447Y-112055815D01*
X33329024Y-112213630D01*
X33326056Y-112219028D01*
X33326053Y-112219033D01*
X33232743Y-112388765D01*
X33229776Y-112394162D01*
X33167484Y-112590532D01*
X33166798Y-112596649D01*
X33166797Y-112596653D01*
X33153518Y-112715040D01*
X33144520Y-112795262D01*
X30775000Y-112795262D01*
X30775000Y-110255262D01*
X33144520Y-110255262D01*
X33161759Y-110460553D01*
X33163458Y-110466478D01*
X33200972Y-110597304D01*
X33218544Y-110658586D01*
X33221359Y-110664063D01*
X33221360Y-110664066D01*
X33306530Y-110829789D01*
X33312712Y-110841818D01*
X33440677Y-111003270D01*
X33445370Y-111007264D01*
X33445371Y-111007265D01*
X33583710Y-111125000D01*
X33597564Y-111136791D01*
X33777398Y-111237297D01*
X33872238Y-111268113D01*
X33967471Y-111299056D01*
X33967475Y-111299057D01*
X33973329Y-111300959D01*
X34177894Y-111325351D01*
X34184029Y-111324879D01*
X34184031Y-111324879D01*
X34240039Y-111320569D01*
X34383300Y-111309546D01*
X34389230Y-111307890D01*
X34389232Y-111307890D01*
X34575797Y-111255800D01*
X34575796Y-111255800D01*
X34581725Y-111254145D01*
X34587214Y-111251372D01*
X34587220Y-111251370D01*
X34760116Y-111164033D01*
X34765610Y-111161258D01*
X34812019Y-111125000D01*
X36694318Y-111125000D01*
X36714956Y-111281762D01*
X36775464Y-111427841D01*
X36871718Y-111553282D01*
X36997159Y-111649536D01*
X37143238Y-111710044D01*
X37300000Y-111730682D01*
X37308188Y-111729604D01*
X37448574Y-111711122D01*
X37456762Y-111710044D01*
X37602841Y-111649536D01*
X37728282Y-111553282D01*
X37824536Y-111427841D01*
X37885044Y-111281762D01*
X37895808Y-111200000D01*
X56394318Y-111200000D01*
X56414956Y-111356762D01*
X56475464Y-111502841D01*
X56571718Y-111628282D01*
X56697159Y-111724536D01*
X56843238Y-111785044D01*
X57000000Y-111805682D01*
X57008188Y-111804604D01*
X57148574Y-111786122D01*
X57156762Y-111785044D01*
X57302841Y-111724536D01*
X57428282Y-111628282D01*
X57524536Y-111502841D01*
X57585044Y-111356762D01*
X57605682Y-111200000D01*
X57585044Y-111043238D01*
X57524536Y-110897159D01*
X57428282Y-110771718D01*
X57302841Y-110675464D01*
X57156762Y-110614956D01*
X57000000Y-110594318D01*
X56843238Y-110614956D01*
X56697159Y-110675464D01*
X56571718Y-110771718D01*
X56475464Y-110897159D01*
X56414956Y-111043238D01*
X56394318Y-111200000D01*
X37895808Y-111200000D01*
X37905682Y-111125000D01*
X37885044Y-110968238D01*
X37824536Y-110822159D01*
X37728282Y-110696718D01*
X37602841Y-110600464D01*
X37456762Y-110539956D01*
X37300000Y-110519318D01*
X37143238Y-110539956D01*
X36997159Y-110600464D01*
X36871718Y-110696718D01*
X36775464Y-110822159D01*
X36714956Y-110968238D01*
X36694318Y-111125000D01*
X34812019Y-111125000D01*
X34906189Y-111051426D01*
X34927951Y-111034424D01*
X34953852Y-111004418D01*
X35058540Y-110883134D01*
X35058540Y-110883133D01*
X35062564Y-110878472D01*
X35077250Y-110852621D01*
X35161276Y-110704707D01*
X35164323Y-110699344D01*
X35229351Y-110503863D01*
X35255171Y-110299474D01*
X35255583Y-110270000D01*
X35235480Y-110064970D01*
X35226934Y-110036665D01*
X42444994Y-110036665D01*
X42446875Y-110059068D01*
X42457013Y-110179789D01*
X42460592Y-110222414D01*
X42511971Y-110401595D01*
X42597176Y-110567385D01*
X42712959Y-110713468D01*
X42854912Y-110834279D01*
X42860290Y-110837285D01*
X42860292Y-110837286D01*
X42877040Y-110846646D01*
X43017627Y-110925217D01*
X43194907Y-110982819D01*
X43379998Y-111004890D01*
X43386133Y-111004418D01*
X43386135Y-111004418D01*
X43559710Y-110991062D01*
X43559715Y-110991061D01*
X43565851Y-110990589D01*
X43571781Y-110988933D01*
X43571783Y-110988933D01*
X43739459Y-110942117D01*
X43739458Y-110942117D01*
X43745387Y-110940462D01*
X43911768Y-110856417D01*
X43924275Y-110846646D01*
X44053794Y-110745454D01*
X44053795Y-110745453D01*
X44058655Y-110741656D01*
X44160580Y-110623574D01*
X44176430Y-110605212D01*
X44176431Y-110605211D01*
X44180454Y-110600550D01*
X44251776Y-110475000D01*
X91644318Y-110475000D01*
X91664956Y-110631762D01*
X91725464Y-110777841D01*
X91821718Y-110903282D01*
X91828264Y-110908305D01*
X91850304Y-110925217D01*
X91947159Y-110999536D01*
X92093238Y-111060044D01*
X92250000Y-111080682D01*
X92258188Y-111079604D01*
X92398574Y-111061122D01*
X92406762Y-111060044D01*
X92552841Y-110999536D01*
X92649696Y-110925217D01*
X92671736Y-110908305D01*
X92678282Y-110903282D01*
X92774536Y-110777841D01*
X92835044Y-110631762D01*
X92855682Y-110475000D01*
X92835044Y-110318238D01*
X92774536Y-110172159D01*
X92692287Y-110064970D01*
X92683305Y-110053264D01*
X92678282Y-110046718D01*
X92552841Y-109950464D01*
X92406762Y-109889956D01*
X92250000Y-109869318D01*
X92093238Y-109889956D01*
X91947159Y-109950464D01*
X91821718Y-110046718D01*
X91816695Y-110053264D01*
X91807713Y-110064970D01*
X91725464Y-110172159D01*
X91664956Y-110318238D01*
X91644318Y-110475000D01*
X44251776Y-110475000D01*
X44272526Y-110438474D01*
X44331364Y-110261601D01*
X44338106Y-110208231D01*
X44354285Y-110080170D01*
X44354286Y-110080163D01*
X44354727Y-110076668D01*
X44355099Y-110050000D01*
X44336909Y-109864487D01*
X44335128Y-109858588D01*
X44335127Y-109858583D01*
X44284814Y-109691939D01*
X44283033Y-109686040D01*
X44239277Y-109603748D01*
X44198416Y-109526898D01*
X44198414Y-109526895D01*
X44195522Y-109521456D01*
X44191632Y-109516686D01*
X44191629Y-109516682D01*
X44081605Y-109381780D01*
X44081602Y-109381777D01*
X44077710Y-109377005D01*
X44072056Y-109372327D01*
X43980877Y-109296897D01*
X43934085Y-109258187D01*
X43770116Y-109169529D01*
X43653093Y-109133305D01*
X43597936Y-109116231D01*
X43597933Y-109116230D01*
X43592049Y-109114409D01*
X43585924Y-109113765D01*
X43585923Y-109113765D01*
X43412796Y-109095568D01*
X43412795Y-109095568D01*
X43406668Y-109094924D01*
X43328549Y-109102033D01*
X43227171Y-109111259D01*
X43227168Y-109111260D01*
X43221032Y-109111818D01*
X43215122Y-109113557D01*
X43215119Y-109113558D01*
X43048129Y-109162707D01*
X43042214Y-109164448D01*
X42877023Y-109250807D01*
X42731752Y-109367608D01*
X42611935Y-109510401D01*
X42608971Y-109515793D01*
X42608968Y-109515797D01*
X42600624Y-109530975D01*
X42522135Y-109673746D01*
X42520274Y-109679613D01*
X42520273Y-109679615D01*
X42516364Y-109691939D01*
X42465772Y-109851424D01*
X42444994Y-110036665D01*
X35226934Y-110036665D01*
X35175935Y-109867749D01*
X35079218Y-109685849D01*
X35005859Y-109595902D01*
X34952906Y-109530975D01*
X34952903Y-109530972D01*
X34949011Y-109526200D01*
X34944262Y-109522271D01*
X34795025Y-109398811D01*
X34795021Y-109398809D01*
X34790275Y-109394882D01*
X34609055Y-109296897D01*
X34412254Y-109235977D01*
X34406129Y-109235333D01*
X34406128Y-109235333D01*
X34213498Y-109215087D01*
X34213496Y-109215087D01*
X34207369Y-109214443D01*
X34120529Y-109222346D01*
X34008342Y-109232555D01*
X34008339Y-109232556D01*
X34002203Y-109233114D01*
X33804572Y-109291280D01*
X33622002Y-109386726D01*
X33617201Y-109390586D01*
X33617198Y-109390588D01*
X33606971Y-109398811D01*
X33461447Y-109515815D01*
X33329024Y-109673630D01*
X33326056Y-109679028D01*
X33326053Y-109679033D01*
X33234508Y-109845554D01*
X33229776Y-109854162D01*
X33167484Y-110050532D01*
X33166798Y-110056649D01*
X33166797Y-110056653D01*
X33148893Y-110216272D01*
X33144520Y-110255262D01*
X30775000Y-110255262D01*
X30775000Y-107715262D01*
X33144520Y-107715262D01*
X33161759Y-107920553D01*
X33163458Y-107926478D01*
X33211276Y-108093238D01*
X33218544Y-108118586D01*
X33221359Y-108124063D01*
X33221360Y-108124066D01*
X33276055Y-108230491D01*
X33312712Y-108301818D01*
X33440677Y-108463270D01*
X33445370Y-108467264D01*
X33445371Y-108467265D01*
X33536958Y-108545211D01*
X33597564Y-108596791D01*
X33777398Y-108697297D01*
X33872238Y-108728112D01*
X33967471Y-108759056D01*
X33967475Y-108759057D01*
X33973329Y-108760959D01*
X34177894Y-108785351D01*
X34184029Y-108784879D01*
X34184031Y-108784879D01*
X34240039Y-108780569D01*
X34383300Y-108769546D01*
X34389230Y-108767890D01*
X34389232Y-108767890D01*
X34575797Y-108715800D01*
X34575796Y-108715800D01*
X34581725Y-108714145D01*
X34587214Y-108711372D01*
X34587220Y-108711370D01*
X34609729Y-108700000D01*
X56494318Y-108700000D01*
X56514956Y-108856762D01*
X56575464Y-109002841D01*
X56671718Y-109128282D01*
X56797159Y-109224536D01*
X56943238Y-109285044D01*
X57100000Y-109305682D01*
X57108188Y-109304604D01*
X57248574Y-109286122D01*
X57256762Y-109285044D01*
X57402841Y-109224536D01*
X57528282Y-109128282D01*
X57624536Y-109002841D01*
X57685044Y-108856762D01*
X57705682Y-108700000D01*
X57685044Y-108543238D01*
X57624536Y-108397159D01*
X57528282Y-108271718D01*
X57499979Y-108250000D01*
X68894318Y-108250000D01*
X68914956Y-108406762D01*
X68975464Y-108552841D01*
X69071718Y-108678282D01*
X69078264Y-108683305D01*
X69107918Y-108706059D01*
X69197159Y-108774536D01*
X69343238Y-108835044D01*
X69500000Y-108855682D01*
X69508188Y-108854604D01*
X69648574Y-108836122D01*
X69656762Y-108835044D01*
X69802841Y-108774536D01*
X69834817Y-108750000D01*
X79644318Y-108750000D01*
X79664956Y-108906762D01*
X79725464Y-109052841D01*
X79770290Y-109111259D01*
X79813604Y-109167707D01*
X79821718Y-109178282D01*
X79947159Y-109274536D01*
X80093238Y-109335044D01*
X80250000Y-109355682D01*
X80258188Y-109354604D01*
X80398574Y-109336122D01*
X80406762Y-109335044D01*
X80552841Y-109274536D01*
X80678282Y-109178282D01*
X80686397Y-109167707D01*
X80729710Y-109111259D01*
X80774536Y-109052841D01*
X80835044Y-108906762D01*
X80855682Y-108750000D01*
X80835044Y-108593238D01*
X80774536Y-108447159D01*
X80691138Y-108338472D01*
X80683305Y-108328264D01*
X80678282Y-108321718D01*
X80552841Y-108225464D01*
X80406762Y-108164956D01*
X80364135Y-108159344D01*
X80258188Y-108145396D01*
X80250000Y-108144318D01*
X80241812Y-108145396D01*
X80135866Y-108159344D01*
X80093238Y-108164956D01*
X79947159Y-108225464D01*
X79821718Y-108321718D01*
X79816695Y-108328264D01*
X79808862Y-108338472D01*
X79725464Y-108447159D01*
X79664956Y-108593238D01*
X79644318Y-108750000D01*
X69834817Y-108750000D01*
X69892082Y-108706059D01*
X69921736Y-108683305D01*
X69928282Y-108678282D01*
X70024536Y-108552841D01*
X70085044Y-108406762D01*
X70105682Y-108250000D01*
X70085044Y-108093238D01*
X70024536Y-107947159D01*
X69928282Y-107821718D01*
X69802841Y-107725464D01*
X69656762Y-107664956D01*
X69500000Y-107644318D01*
X69343238Y-107664956D01*
X69197159Y-107725464D01*
X69071718Y-107821718D01*
X68975464Y-107947159D01*
X68914956Y-108093238D01*
X68894318Y-108250000D01*
X57499979Y-108250000D01*
X57409392Y-108180491D01*
X57402841Y-108175464D01*
X57256762Y-108114956D01*
X57100000Y-108094318D01*
X56943238Y-108114956D01*
X56797159Y-108175464D01*
X56790608Y-108180491D01*
X56700022Y-108250000D01*
X56671718Y-108271718D01*
X56575464Y-108397159D01*
X56514956Y-108543238D01*
X56494318Y-108700000D01*
X34609729Y-108700000D01*
X34760116Y-108624033D01*
X34765610Y-108621258D01*
X34927951Y-108494424D01*
X34974404Y-108440608D01*
X35058540Y-108343134D01*
X35058540Y-108343133D01*
X35062564Y-108338472D01*
X35083387Y-108301818D01*
X35112823Y-108250000D01*
X35164323Y-108159344D01*
X35229351Y-107963863D01*
X35255171Y-107759474D01*
X35255583Y-107730000D01*
X35235480Y-107524970D01*
X35175935Y-107327749D01*
X35079218Y-107145849D01*
X34966944Y-107008188D01*
X34952906Y-106990975D01*
X34952903Y-106990972D01*
X34949011Y-106986200D01*
X34826614Y-106884944D01*
X34795025Y-106858811D01*
X34795021Y-106858809D01*
X34790275Y-106854882D01*
X34609055Y-106756897D01*
X34412254Y-106695977D01*
X34406129Y-106695333D01*
X34406128Y-106695333D01*
X34213498Y-106675087D01*
X34213496Y-106675087D01*
X34207369Y-106674443D01*
X34120529Y-106682346D01*
X34008342Y-106692555D01*
X34008339Y-106692556D01*
X34002203Y-106693114D01*
X33804572Y-106751280D01*
X33622002Y-106846726D01*
X33617201Y-106850586D01*
X33617198Y-106850588D01*
X33606971Y-106858811D01*
X33461447Y-106975815D01*
X33329024Y-107133630D01*
X33326056Y-107139028D01*
X33326053Y-107139033D01*
X33240194Y-107295211D01*
X33229776Y-107314162D01*
X33167484Y-107510532D01*
X33166798Y-107516649D01*
X33166797Y-107516653D01*
X33150163Y-107664956D01*
X33144520Y-107715262D01*
X30775000Y-107715262D01*
X30775000Y-103544669D01*
X32842001Y-103544669D01*
X32842371Y-103551490D01*
X32847895Y-103602352D01*
X32851521Y-103617604D01*
X32896676Y-103738054D01*
X32905214Y-103753649D01*
X32981715Y-103855724D01*
X32994276Y-103868285D01*
X33096351Y-103944786D01*
X33111946Y-103953324D01*
X33232394Y-103998478D01*
X33247649Y-104002105D01*
X33298514Y-104007631D01*
X33305328Y-104008000D01*
X33680432Y-104008000D01*
X33748553Y-104028002D01*
X33795046Y-104081658D01*
X33805150Y-104151932D01*
X33775656Y-104216512D01*
X33738812Y-104245659D01*
X33622002Y-104306726D01*
X33617201Y-104310586D01*
X33617198Y-104310588D01*
X33521753Y-104387328D01*
X33461447Y-104435815D01*
X33329024Y-104593630D01*
X33326056Y-104599028D01*
X33326053Y-104599033D01*
X33281272Y-104680491D01*
X33229776Y-104774162D01*
X33167484Y-104970532D01*
X33166798Y-104976649D01*
X33166797Y-104976653D01*
X33158410Y-105051426D01*
X33144520Y-105175262D01*
X33145036Y-105181406D01*
X33159074Y-105348574D01*
X33161759Y-105380553D01*
X33163458Y-105386478D01*
X33194637Y-105495211D01*
X33218544Y-105578586D01*
X33221359Y-105584063D01*
X33221360Y-105584066D01*
X33266708Y-105672304D01*
X33312712Y-105761818D01*
X33440677Y-105923270D01*
X33597564Y-106056791D01*
X33777398Y-106157297D01*
X33872238Y-106188112D01*
X33967471Y-106219056D01*
X33967475Y-106219057D01*
X33973329Y-106220959D01*
X34177894Y-106245351D01*
X34184029Y-106244879D01*
X34184031Y-106244879D01*
X34240039Y-106240569D01*
X34383300Y-106229546D01*
X34389230Y-106227890D01*
X34389232Y-106227890D01*
X34489123Y-106200000D01*
X60994318Y-106200000D01*
X61014956Y-106356762D01*
X61075464Y-106502841D01*
X61171718Y-106628282D01*
X61297159Y-106724536D01*
X61443238Y-106785044D01*
X61600000Y-106805682D01*
X61608188Y-106804604D01*
X61748574Y-106786122D01*
X61756762Y-106785044D01*
X61764389Y-106781885D01*
X61764392Y-106781884D01*
X61836326Y-106752088D01*
X61906916Y-106744499D01*
X61970403Y-106776279D01*
X62006630Y-106837337D01*
X62009466Y-106884940D01*
X61994318Y-107000000D01*
X61995396Y-107008188D01*
X62012891Y-107141073D01*
X62014956Y-107156762D01*
X62075464Y-107302841D01*
X62171718Y-107428282D01*
X62297159Y-107524536D01*
X62443238Y-107585044D01*
X62600000Y-107605682D01*
X62608188Y-107604604D01*
X62748574Y-107586122D01*
X62756762Y-107585044D01*
X62902841Y-107524536D01*
X63028282Y-107428282D01*
X63124536Y-107302841D01*
X63185044Y-107156762D01*
X63187110Y-107141073D01*
X63204604Y-107008188D01*
X63205682Y-107000000D01*
X63185044Y-106843238D01*
X63124536Y-106697159D01*
X63028282Y-106571718D01*
X62902841Y-106475464D01*
X62756762Y-106414956D01*
X62600000Y-106394318D01*
X62443238Y-106414956D01*
X62435611Y-106418115D01*
X62435608Y-106418116D01*
X62363674Y-106447912D01*
X62293084Y-106455501D01*
X62229597Y-106423721D01*
X62193370Y-106362663D01*
X62190534Y-106315060D01*
X62205682Y-106200000D01*
X62185044Y-106043238D01*
X62124536Y-105897159D01*
X62028282Y-105771718D01*
X61902841Y-105675464D01*
X61756762Y-105614956D01*
X61600000Y-105594318D01*
X61443238Y-105614956D01*
X61297159Y-105675464D01*
X61171718Y-105771718D01*
X61075464Y-105897159D01*
X61014956Y-106043238D01*
X60994318Y-106200000D01*
X34489123Y-106200000D01*
X34575797Y-106175800D01*
X34575796Y-106175800D01*
X34581725Y-106174145D01*
X34587214Y-106171372D01*
X34587220Y-106171370D01*
X34760116Y-106084033D01*
X34765610Y-106081258D01*
X34803794Y-106051426D01*
X34923101Y-105958213D01*
X34927951Y-105954424D01*
X34970795Y-105904789D01*
X35058540Y-105803134D01*
X35058540Y-105803133D01*
X35062564Y-105798472D01*
X35077763Y-105771718D01*
X35107421Y-105719509D01*
X35164323Y-105619344D01*
X35229351Y-105423863D01*
X35255171Y-105219474D01*
X35255443Y-105200000D01*
X54394318Y-105200000D01*
X54414956Y-105356762D01*
X54475464Y-105502841D01*
X54571718Y-105628282D01*
X54697159Y-105724536D01*
X54843238Y-105785044D01*
X55000000Y-105805682D01*
X55008188Y-105804604D01*
X55148574Y-105786122D01*
X55156762Y-105785044D01*
X55302841Y-105724536D01*
X55428282Y-105628282D01*
X55524536Y-105502841D01*
X55585044Y-105356762D01*
X55605682Y-105200000D01*
X55585044Y-105043238D01*
X55524536Y-104897159D01*
X55456059Y-104807918D01*
X55449983Y-104800000D01*
X80594318Y-104800000D01*
X80614956Y-104956762D01*
X80675464Y-105102841D01*
X80680491Y-105109392D01*
X80750017Y-105200000D01*
X80771718Y-105228282D01*
X80897159Y-105324536D01*
X81043238Y-105385044D01*
X81200000Y-105405682D01*
X81208188Y-105404604D01*
X81348574Y-105386122D01*
X81356762Y-105385044D01*
X81502841Y-105324536D01*
X81628282Y-105228282D01*
X81649984Y-105200000D01*
X81719509Y-105109392D01*
X81724536Y-105102841D01*
X81785044Y-104956762D01*
X81805682Y-104800000D01*
X81785044Y-104643238D01*
X81724536Y-104497159D01*
X81638507Y-104385044D01*
X81633305Y-104378264D01*
X81628282Y-104371718D01*
X81539866Y-104303874D01*
X81534769Y-104299963D01*
X81492902Y-104242625D01*
X81488680Y-104171754D01*
X81523444Y-104109851D01*
X81534769Y-104100037D01*
X81621736Y-104033305D01*
X81628282Y-104028282D01*
X81649984Y-104000000D01*
X81689444Y-103948574D01*
X81724536Y-103902841D01*
X81785044Y-103756762D01*
X81805682Y-103600000D01*
X81785044Y-103443238D01*
X81724536Y-103297159D01*
X81656059Y-103207918D01*
X81633305Y-103178264D01*
X81628282Y-103171718D01*
X81502841Y-103075464D01*
X81356762Y-103014956D01*
X81200000Y-102994318D01*
X81043238Y-103014956D01*
X80897159Y-103075464D01*
X80771718Y-103171718D01*
X80766695Y-103178264D01*
X80743941Y-103207918D01*
X80675464Y-103297159D01*
X80614956Y-103443238D01*
X80594318Y-103600000D01*
X80614956Y-103756762D01*
X80675464Y-103902841D01*
X80710556Y-103948574D01*
X80750017Y-104000000D01*
X80771718Y-104028282D01*
X80778264Y-104033305D01*
X80865231Y-104100037D01*
X80907098Y-104157375D01*
X80911320Y-104228246D01*
X80876556Y-104290149D01*
X80865231Y-104299963D01*
X80860134Y-104303874D01*
X80771718Y-104371718D01*
X80766695Y-104378264D01*
X80761493Y-104385044D01*
X80675464Y-104497159D01*
X80614956Y-104643238D01*
X80594318Y-104800000D01*
X55449983Y-104800000D01*
X55433305Y-104778264D01*
X55428282Y-104771718D01*
X55302841Y-104675464D01*
X55160270Y-104616409D01*
X55104989Y-104571861D01*
X55082568Y-104504497D01*
X55100126Y-104435706D01*
X55152088Y-104387328D01*
X55160270Y-104383591D01*
X55201060Y-104366695D01*
X55302841Y-104324536D01*
X55428282Y-104228282D01*
X55449984Y-104200000D01*
X55519509Y-104109392D01*
X55524536Y-104102841D01*
X55585044Y-103956762D01*
X55605682Y-103800000D01*
X55585044Y-103643238D01*
X55524536Y-103497159D01*
X55428282Y-103371718D01*
X55302841Y-103275464D01*
X55156762Y-103214956D01*
X55043159Y-103200000D01*
X77794318Y-103200000D01*
X77814956Y-103356762D01*
X77875464Y-103502841D01*
X77880491Y-103509392D01*
X77963525Y-103617604D01*
X77971718Y-103628282D01*
X78097159Y-103724536D01*
X78243238Y-103785044D01*
X78400000Y-103805682D01*
X78408188Y-103804604D01*
X78548574Y-103786122D01*
X78556762Y-103785044D01*
X78702841Y-103724536D01*
X78828282Y-103628282D01*
X78836476Y-103617604D01*
X78919509Y-103509392D01*
X78924536Y-103502841D01*
X78985044Y-103356762D01*
X79005682Y-103200000D01*
X78985044Y-103043238D01*
X78924536Y-102897159D01*
X78828282Y-102771718D01*
X78702841Y-102675464D01*
X78556762Y-102614956D01*
X78400000Y-102594318D01*
X78243238Y-102614956D01*
X78097159Y-102675464D01*
X77971718Y-102771718D01*
X77875464Y-102897159D01*
X77814956Y-103043238D01*
X77794318Y-103200000D01*
X55043159Y-103200000D01*
X55000000Y-103194318D01*
X54843238Y-103214956D01*
X54697159Y-103275464D01*
X54571718Y-103371718D01*
X54475464Y-103497159D01*
X54414956Y-103643238D01*
X54394318Y-103800000D01*
X54414956Y-103956762D01*
X54475464Y-104102841D01*
X54480491Y-104109392D01*
X54550017Y-104200000D01*
X54571718Y-104228282D01*
X54697159Y-104324536D01*
X54798940Y-104366695D01*
X54839730Y-104383591D01*
X54895011Y-104428139D01*
X54917432Y-104495503D01*
X54899874Y-104564294D01*
X54847912Y-104612672D01*
X54839730Y-104616409D01*
X54697159Y-104675464D01*
X54571718Y-104771718D01*
X54566695Y-104778264D01*
X54543941Y-104807918D01*
X54475464Y-104897159D01*
X54414956Y-105043238D01*
X54394318Y-105200000D01*
X35255443Y-105200000D01*
X35255583Y-105190000D01*
X35235480Y-104984970D01*
X35175935Y-104787749D01*
X35079218Y-104605849D01*
X34989222Y-104495503D01*
X34952906Y-104450975D01*
X34952903Y-104450972D01*
X34949011Y-104446200D01*
X34927179Y-104428139D01*
X34795025Y-104318811D01*
X34795021Y-104318809D01*
X34790275Y-104314882D01*
X34662255Y-104245662D01*
X34660726Y-104244835D01*
X34610317Y-104194840D01*
X34594940Y-104125529D01*
X34619476Y-104058907D01*
X34676136Y-104016126D01*
X34720655Y-104007999D01*
X35094669Y-104007999D01*
X35101490Y-104007629D01*
X35152352Y-104002105D01*
X35161206Y-104000000D01*
X48581077Y-104000000D01*
X48601715Y-104156762D01*
X48662223Y-104302841D01*
X48758477Y-104428282D01*
X48883918Y-104524536D01*
X49029997Y-104585044D01*
X49186759Y-104605682D01*
X49194947Y-104604604D01*
X49335333Y-104586122D01*
X49343521Y-104585044D01*
X49489600Y-104524536D01*
X49615041Y-104428282D01*
X49711295Y-104302841D01*
X49771803Y-104156762D01*
X49792441Y-104000000D01*
X49778645Y-103895211D01*
X49772881Y-103851426D01*
X49771803Y-103843238D01*
X49711295Y-103697159D01*
X49638546Y-103602351D01*
X49620064Y-103578264D01*
X49615041Y-103571718D01*
X49489600Y-103475464D01*
X49343521Y-103414956D01*
X49186759Y-103394318D01*
X49029997Y-103414956D01*
X48883918Y-103475464D01*
X48758477Y-103571718D01*
X48753454Y-103578264D01*
X48734972Y-103602351D01*
X48662223Y-103697159D01*
X48601715Y-103843238D01*
X48600637Y-103851426D01*
X48594873Y-103895211D01*
X48581077Y-104000000D01*
X35161206Y-104000000D01*
X35167604Y-103998479D01*
X35288054Y-103953324D01*
X35303649Y-103944786D01*
X35405724Y-103868285D01*
X35418285Y-103855724D01*
X35494786Y-103753649D01*
X35503324Y-103738054D01*
X35548478Y-103617606D01*
X35552105Y-103602351D01*
X35557631Y-103551486D01*
X35558000Y-103544672D01*
X35558000Y-102922115D01*
X35553525Y-102906876D01*
X35552135Y-102905671D01*
X35544452Y-102904000D01*
X32860116Y-102904000D01*
X32844877Y-102908475D01*
X32843672Y-102909865D01*
X32842001Y-102917548D01*
X32842001Y-103544669D01*
X30775000Y-103544669D01*
X30775000Y-102377885D01*
X32842000Y-102377885D01*
X32846475Y-102393124D01*
X32847865Y-102394329D01*
X32855548Y-102396000D01*
X33927885Y-102396000D01*
X33943124Y-102391525D01*
X33944329Y-102390135D01*
X33946000Y-102382452D01*
X33946000Y-102377885D01*
X34454000Y-102377885D01*
X34458475Y-102393124D01*
X34459865Y-102394329D01*
X34467548Y-102396000D01*
X35539884Y-102396000D01*
X35555123Y-102391525D01*
X35556328Y-102390135D01*
X35557999Y-102382452D01*
X35557999Y-101755331D01*
X35557629Y-101748510D01*
X35552105Y-101697648D01*
X35548479Y-101682396D01*
X35503324Y-101561946D01*
X35494786Y-101546351D01*
X35418285Y-101444276D01*
X35405724Y-101431715D01*
X35303649Y-101355214D01*
X35288054Y-101346676D01*
X35167606Y-101301522D01*
X35152351Y-101297895D01*
X35101486Y-101292369D01*
X35094672Y-101292000D01*
X34472115Y-101292000D01*
X34456876Y-101296475D01*
X34455671Y-101297865D01*
X34454000Y-101305548D01*
X34454000Y-102377885D01*
X33946000Y-102377885D01*
X33946000Y-101310116D01*
X33941525Y-101294877D01*
X33940135Y-101293672D01*
X33932452Y-101292001D01*
X33305331Y-101292001D01*
X33298510Y-101292371D01*
X33247648Y-101297895D01*
X33232396Y-101301521D01*
X33111946Y-101346676D01*
X33096351Y-101355214D01*
X32994276Y-101431715D01*
X32981715Y-101444276D01*
X32905214Y-101546351D01*
X32896676Y-101561946D01*
X32851522Y-101682394D01*
X32847895Y-101697649D01*
X32842369Y-101748514D01*
X32842000Y-101755328D01*
X32842000Y-102377885D01*
X30775000Y-102377885D01*
X30775000Y-98018440D01*
X33344770Y-98018440D01*
X33359200Y-98238604D01*
X33360621Y-98244200D01*
X33360622Y-98244205D01*
X33403612Y-98413475D01*
X33413511Y-98452452D01*
X33415928Y-98457694D01*
X33415928Y-98457695D01*
X33454046Y-98540379D01*
X33505883Y-98652821D01*
X33633222Y-98833002D01*
X33791264Y-98986961D01*
X33796060Y-98990166D01*
X33796063Y-98990168D01*
X33880261Y-99046427D01*
X33974717Y-99109540D01*
X33980020Y-99111818D01*
X33980023Y-99111820D01*
X34166971Y-99192139D01*
X34177436Y-99196635D01*
X34257088Y-99214658D01*
X34386995Y-99244054D01*
X34387001Y-99244055D01*
X34392632Y-99245329D01*
X34398403Y-99245556D01*
X34398405Y-99245556D01*
X34466211Y-99248220D01*
X34613098Y-99253991D01*
X34722275Y-99238161D01*
X34825738Y-99223160D01*
X34825743Y-99223159D01*
X34831452Y-99222331D01*
X34836916Y-99220476D01*
X34836921Y-99220475D01*
X35034907Y-99153268D01*
X35034912Y-99153266D01*
X35040379Y-99151410D01*
X35232884Y-99043602D01*
X35244472Y-99033965D01*
X35398086Y-98906204D01*
X35402518Y-98902518D01*
X35490224Y-98797064D01*
X35539908Y-98737326D01*
X35539910Y-98737323D01*
X35543602Y-98732884D01*
X35651410Y-98540379D01*
X35653266Y-98534912D01*
X35653268Y-98534907D01*
X35720475Y-98336921D01*
X35720476Y-98336916D01*
X35722331Y-98331452D01*
X35723159Y-98325743D01*
X35723160Y-98325738D01*
X35751874Y-98127696D01*
X35753991Y-98113098D01*
X35755643Y-98050000D01*
X35752743Y-98018440D01*
X39844770Y-98018440D01*
X39859200Y-98238604D01*
X39860621Y-98244200D01*
X39860622Y-98244205D01*
X39903612Y-98413475D01*
X39913511Y-98452452D01*
X39915928Y-98457694D01*
X39915928Y-98457695D01*
X39954046Y-98540379D01*
X40005883Y-98652821D01*
X40133222Y-98833002D01*
X40291264Y-98986961D01*
X40296060Y-98990166D01*
X40296063Y-98990168D01*
X40380261Y-99046427D01*
X40474717Y-99109540D01*
X40480020Y-99111818D01*
X40480023Y-99111820D01*
X40666971Y-99192139D01*
X40677436Y-99196635D01*
X40757088Y-99214658D01*
X40886995Y-99244054D01*
X40887001Y-99244055D01*
X40892632Y-99245329D01*
X40898403Y-99245556D01*
X40898405Y-99245556D01*
X40966211Y-99248220D01*
X41113098Y-99253991D01*
X41222275Y-99238161D01*
X41325738Y-99223160D01*
X41325743Y-99223159D01*
X41331452Y-99222331D01*
X41336916Y-99220476D01*
X41336921Y-99220475D01*
X41534907Y-99153268D01*
X41534912Y-99153266D01*
X41540379Y-99151410D01*
X41732884Y-99043602D01*
X41744472Y-99033965D01*
X41898086Y-98906204D01*
X41902518Y-98902518D01*
X41990224Y-98797064D01*
X42039908Y-98737326D01*
X42039910Y-98737323D01*
X42043602Y-98732884D01*
X42151410Y-98540379D01*
X42153266Y-98534912D01*
X42153268Y-98534907D01*
X42191267Y-98422966D01*
X44868257Y-98422966D01*
X44898565Y-98557446D01*
X44901645Y-98567275D01*
X44981770Y-98764603D01*
X44986413Y-98773794D01*
X45097694Y-98955388D01*
X45103777Y-98963699D01*
X45243213Y-99124667D01*
X45250580Y-99131883D01*
X45414434Y-99267916D01*
X45422881Y-99273831D01*
X45606756Y-99381279D01*
X45616042Y-99385729D01*
X45815001Y-99461703D01*
X45824899Y-99464579D01*
X45928250Y-99485606D01*
X45942299Y-99484410D01*
X45946000Y-99474065D01*
X45946000Y-99473517D01*
X46454000Y-99473517D01*
X46458064Y-99487359D01*
X46471478Y-99489393D01*
X46478184Y-99488534D01*
X46488262Y-99486392D01*
X46692255Y-99425191D01*
X46701842Y-99421433D01*
X46893095Y-99327739D01*
X46901945Y-99322464D01*
X47075328Y-99198792D01*
X47083200Y-99192139D01*
X47234052Y-99041812D01*
X47240730Y-99033965D01*
X47365003Y-98861020D01*
X47370313Y-98852183D01*
X47371392Y-98850000D01*
X82194318Y-98850000D01*
X82214956Y-99006762D01*
X82275464Y-99152841D01*
X82371718Y-99278282D01*
X82497159Y-99374536D01*
X82643238Y-99435044D01*
X82800000Y-99455682D01*
X82808188Y-99454604D01*
X82948574Y-99436122D01*
X82956762Y-99435044D01*
X83102841Y-99374536D01*
X83228282Y-99278282D01*
X83324536Y-99152841D01*
X83385044Y-99006762D01*
X83405682Y-98850000D01*
X83391002Y-98738497D01*
X88994637Y-98738497D01*
X88994881Y-98742932D01*
X88994881Y-98742936D01*
X89009821Y-99014391D01*
X89010205Y-99021370D01*
X89027105Y-99106330D01*
X89060423Y-99273831D01*
X89065474Y-99299226D01*
X89066950Y-99303429D01*
X89132256Y-99489393D01*
X89159342Y-99566524D01*
X89161395Y-99570477D01*
X89161398Y-99570483D01*
X89235360Y-99712865D01*
X89289936Y-99817928D01*
X89292519Y-99821543D01*
X89292523Y-99821549D01*
X89325176Y-99867242D01*
X89454651Y-100048424D01*
X89457729Y-100051651D01*
X89457731Y-100051653D01*
X89500355Y-100096334D01*
X89650199Y-100253412D01*
X89872680Y-100428801D01*
X89982927Y-100492837D01*
X90113807Y-100568859D01*
X90113813Y-100568862D01*
X90117654Y-100571093D01*
X90380232Y-100677448D01*
X90384545Y-100678519D01*
X90384550Y-100678521D01*
X90650856Y-100744672D01*
X90650861Y-100744673D01*
X90655177Y-100745745D01*
X90659605Y-100746199D01*
X90659607Y-100746199D01*
X90735307Y-100753955D01*
X90896790Y-100770500D01*
X91072170Y-100770500D01*
X91282593Y-100755601D01*
X91286948Y-100754663D01*
X91286951Y-100754663D01*
X91555200Y-100696911D01*
X91555202Y-100696911D01*
X91559547Y-100695975D01*
X91825337Y-100597920D01*
X92074660Y-100463393D01*
X92302540Y-100295078D01*
X92504430Y-100096334D01*
X92507131Y-100092794D01*
X92507137Y-100092788D01*
X92673602Y-99874667D01*
X92673605Y-99874663D01*
X92676304Y-99871126D01*
X92814730Y-99623947D01*
X92836946Y-99566524D01*
X92915341Y-99363885D01*
X92915343Y-99363879D01*
X92916948Y-99359730D01*
X92980918Y-99083747D01*
X93005363Y-98801503D01*
X93003838Y-98773794D01*
X92990040Y-98523073D01*
X92990039Y-98523066D01*
X92989795Y-98518630D01*
X92952372Y-98330491D01*
X92935396Y-98245146D01*
X92935395Y-98245141D01*
X92934526Y-98240774D01*
X92913279Y-98180270D01*
X92842136Y-97977684D01*
X92842135Y-97977681D01*
X92840658Y-97973476D01*
X92838605Y-97969523D01*
X92838602Y-97969517D01*
X92728084Y-97756762D01*
X92710064Y-97722072D01*
X92707481Y-97718457D01*
X92707477Y-97718451D01*
X92611042Y-97583504D01*
X92545349Y-97491576D01*
X92540624Y-97486623D01*
X92352876Y-97289811D01*
X92352873Y-97289808D01*
X92349801Y-97286588D01*
X92127320Y-97111199D01*
X92013713Y-97045211D01*
X91886193Y-96971141D01*
X91886187Y-96971138D01*
X91882346Y-96968907D01*
X91748266Y-96914599D01*
X91623894Y-96864223D01*
X91623891Y-96864222D01*
X91619768Y-96862552D01*
X91615455Y-96861481D01*
X91615450Y-96861479D01*
X91349144Y-96795328D01*
X91349139Y-96795327D01*
X91344823Y-96794255D01*
X91340395Y-96793801D01*
X91340393Y-96793801D01*
X91245552Y-96784084D01*
X91103210Y-96769500D01*
X90927830Y-96769500D01*
X90717407Y-96784399D01*
X90713052Y-96785337D01*
X90713049Y-96785337D01*
X90444800Y-96843089D01*
X90444798Y-96843089D01*
X90440453Y-96844025D01*
X90174663Y-96942080D01*
X90170745Y-96944194D01*
X90041598Y-97013878D01*
X89925340Y-97076607D01*
X89697460Y-97244922D01*
X89694281Y-97248051D01*
X89694278Y-97248054D01*
X89644396Y-97297159D01*
X89495570Y-97443666D01*
X89492869Y-97447206D01*
X89492863Y-97447212D01*
X89358324Y-97623500D01*
X89323696Y-97668874D01*
X89321521Y-97672758D01*
X89200318Y-97889183D01*
X89185270Y-97916053D01*
X89183662Y-97920211D01*
X89183659Y-97920216D01*
X89103391Y-98127696D01*
X89083052Y-98180270D01*
X89082048Y-98184602D01*
X89082047Y-98184605D01*
X89068206Y-98244318D01*
X89019082Y-98456253D01*
X88994637Y-98738497D01*
X83391002Y-98738497D01*
X83385044Y-98693238D01*
X83324536Y-98547159D01*
X83228282Y-98421718D01*
X83217540Y-98413475D01*
X83117772Y-98336921D01*
X83102841Y-98325464D01*
X82956762Y-98264956D01*
X82800000Y-98244318D01*
X82643238Y-98264956D01*
X82497159Y-98325464D01*
X82482228Y-98336921D01*
X82382461Y-98413475D01*
X82371718Y-98421718D01*
X82275464Y-98547159D01*
X82214956Y-98693238D01*
X82194318Y-98850000D01*
X47371392Y-98850000D01*
X47464670Y-98661267D01*
X47468469Y-98651672D01*
X47530377Y-98447910D01*
X47532555Y-98437837D01*
X47533986Y-98426962D01*
X47531775Y-98412778D01*
X47518617Y-98409000D01*
X46472115Y-98409000D01*
X46456876Y-98413475D01*
X46455671Y-98414865D01*
X46454000Y-98422548D01*
X46454000Y-99473517D01*
X45946000Y-99473517D01*
X45946000Y-98427115D01*
X45941525Y-98411876D01*
X45940135Y-98410671D01*
X45932452Y-98409000D01*
X44883225Y-98409000D01*
X44869694Y-98412973D01*
X44868257Y-98422966D01*
X42191267Y-98422966D01*
X42220475Y-98336921D01*
X42220476Y-98336916D01*
X42222331Y-98331452D01*
X42223159Y-98325743D01*
X42223160Y-98325738D01*
X42251874Y-98127696D01*
X42253991Y-98113098D01*
X42255643Y-98050000D01*
X42240866Y-97889183D01*
X44864389Y-97889183D01*
X44865912Y-97897607D01*
X44878292Y-97901000D01*
X47518344Y-97901000D01*
X47531875Y-97897027D01*
X47533180Y-97887947D01*
X47491214Y-97720875D01*
X47487894Y-97711124D01*
X47439577Y-97600000D01*
X76944318Y-97600000D01*
X76964956Y-97756762D01*
X77025464Y-97902841D01*
X77121718Y-98028282D01*
X77128264Y-98033305D01*
X77154849Y-98053704D01*
X77247159Y-98124536D01*
X77393238Y-98185044D01*
X77550000Y-98205682D01*
X77558188Y-98204604D01*
X77698574Y-98186122D01*
X77706762Y-98185044D01*
X77852841Y-98124536D01*
X77945151Y-98053704D01*
X77971736Y-98033305D01*
X77978282Y-98028282D01*
X78074536Y-97902841D01*
X78135044Y-97756762D01*
X78155682Y-97600000D01*
X78135044Y-97443238D01*
X78074536Y-97297159D01*
X77978282Y-97171718D01*
X77852841Y-97075464D01*
X77706762Y-97014956D01*
X77550000Y-96994318D01*
X77393238Y-97014956D01*
X77247159Y-97075464D01*
X77121718Y-97171718D01*
X77025464Y-97297159D01*
X76964956Y-97443238D01*
X76944318Y-97600000D01*
X47439577Y-97600000D01*
X47402972Y-97515814D01*
X47398105Y-97506739D01*
X47282426Y-97327926D01*
X47276136Y-97319757D01*
X47132806Y-97162240D01*
X47125273Y-97155215D01*
X46958139Y-97023222D01*
X46949552Y-97017517D01*
X46763117Y-96914599D01*
X46753705Y-96910369D01*
X46562031Y-96842493D01*
X46504495Y-96800899D01*
X46484538Y-96750000D01*
X66644318Y-96750000D01*
X66645396Y-96758188D01*
X66657359Y-96849053D01*
X66664956Y-96906762D01*
X66725464Y-97052841D01*
X66821718Y-97178282D01*
X66947159Y-97274536D01*
X67093238Y-97335044D01*
X67250000Y-97355682D01*
X67258188Y-97354604D01*
X67398574Y-97336122D01*
X67406762Y-97335044D01*
X67552841Y-97274536D01*
X67678282Y-97178282D01*
X67774536Y-97052841D01*
X67835044Y-96906762D01*
X67842642Y-96849053D01*
X67854604Y-96758188D01*
X67855682Y-96750000D01*
X67835044Y-96593238D01*
X67774536Y-96447159D01*
X67678282Y-96321718D01*
X67552841Y-96225464D01*
X67406762Y-96164956D01*
X67250000Y-96144318D01*
X67093238Y-96164956D01*
X66947159Y-96225464D01*
X66821718Y-96321718D01*
X66725464Y-96447159D01*
X66664956Y-96593238D01*
X66644318Y-96750000D01*
X46484538Y-96750000D01*
X46478579Y-96734801D01*
X46492513Y-96665185D01*
X46541872Y-96614154D01*
X46570206Y-96602362D01*
X46575790Y-96600803D01*
X46575799Y-96600800D01*
X46581725Y-96599145D01*
X46587214Y-96596372D01*
X46587220Y-96596370D01*
X46760116Y-96509033D01*
X46765610Y-96506258D01*
X46927951Y-96379424D01*
X47056506Y-96230491D01*
X47058540Y-96228134D01*
X47058540Y-96228133D01*
X47062564Y-96223472D01*
X47083387Y-96186818D01*
X47161276Y-96049707D01*
X47164323Y-96044344D01*
X47229351Y-95848863D01*
X47255171Y-95644474D01*
X47255583Y-95615000D01*
X47235480Y-95409970D01*
X47187182Y-95250000D01*
X54644318Y-95250000D01*
X54664956Y-95406762D01*
X54725464Y-95552841D01*
X54821718Y-95678282D01*
X54947159Y-95774536D01*
X55093238Y-95835044D01*
X55250000Y-95855682D01*
X55258188Y-95854604D01*
X55398574Y-95836122D01*
X55406762Y-95835044D01*
X55552841Y-95774536D01*
X55678282Y-95678282D01*
X55774536Y-95552841D01*
X55835044Y-95406762D01*
X55855682Y-95250000D01*
X55835044Y-95093238D01*
X55774536Y-94947159D01*
X55678282Y-94821718D01*
X55552841Y-94725464D01*
X55406762Y-94664956D01*
X55250000Y-94644318D01*
X55093238Y-94664956D01*
X54947159Y-94725464D01*
X54821718Y-94821718D01*
X54725464Y-94947159D01*
X54664956Y-95093238D01*
X54644318Y-95250000D01*
X47187182Y-95250000D01*
X47175935Y-95212749D01*
X47079218Y-95030849D01*
X47005619Y-94940608D01*
X46952906Y-94875975D01*
X46952903Y-94875972D01*
X46949011Y-94871200D01*
X46931786Y-94856950D01*
X46795025Y-94743811D01*
X46795021Y-94743809D01*
X46790275Y-94739882D01*
X46609055Y-94641897D01*
X46412254Y-94580977D01*
X46406129Y-94580333D01*
X46406128Y-94580333D01*
X46213498Y-94560087D01*
X46213496Y-94560087D01*
X46207369Y-94559443D01*
X46120529Y-94567346D01*
X46008342Y-94577555D01*
X46008339Y-94577556D01*
X46002203Y-94578114D01*
X45804572Y-94636280D01*
X45622002Y-94731726D01*
X45617201Y-94735586D01*
X45617198Y-94735588D01*
X45516321Y-94816695D01*
X45461447Y-94860815D01*
X45329024Y-95018630D01*
X45326056Y-95024028D01*
X45326053Y-95024033D01*
X45232743Y-95193765D01*
X45229776Y-95199162D01*
X45167484Y-95395532D01*
X45166798Y-95401649D01*
X45166797Y-95401653D01*
X45150695Y-95545211D01*
X45144520Y-95600262D01*
X45161759Y-95805553D01*
X45163458Y-95811478D01*
X45170525Y-95836122D01*
X45218544Y-96003586D01*
X45221359Y-96009063D01*
X45221360Y-96009066D01*
X45309897Y-96181341D01*
X45312712Y-96186818D01*
X45440677Y-96348270D01*
X45445370Y-96352264D01*
X45445371Y-96352265D01*
X45565837Y-96454789D01*
X45597564Y-96481791D01*
X45777398Y-96582297D01*
X45842437Y-96603429D01*
X45901042Y-96643502D01*
X45928680Y-96708898D01*
X45916574Y-96778855D01*
X45868568Y-96831162D01*
X45842646Y-96843027D01*
X45676868Y-96897212D01*
X45667359Y-96901209D01*
X45478463Y-96999542D01*
X45469738Y-97005036D01*
X45299433Y-97132905D01*
X45291726Y-97139748D01*
X45144590Y-97293717D01*
X45138104Y-97301727D01*
X45018098Y-97477649D01*
X45013000Y-97486623D01*
X44923338Y-97679783D01*
X44919775Y-97689470D01*
X44864389Y-97889183D01*
X42240866Y-97889183D01*
X42235454Y-97830289D01*
X42214718Y-97756762D01*
X42177134Y-97623500D01*
X42175565Y-97617936D01*
X42077980Y-97420053D01*
X42015306Y-97336122D01*
X41949420Y-97247891D01*
X41949420Y-97247890D01*
X41945967Y-97243267D01*
X41783949Y-97093499D01*
X41597350Y-96975764D01*
X41392421Y-96894006D01*
X41386761Y-96892880D01*
X41386757Y-96892879D01*
X41181691Y-96852089D01*
X41181688Y-96852089D01*
X41176024Y-96850962D01*
X41170249Y-96850886D01*
X41170245Y-96850886D01*
X41059504Y-96849437D01*
X40955406Y-96848074D01*
X40949709Y-96849053D01*
X40949708Y-96849053D01*
X40743654Y-96884459D01*
X40743653Y-96884459D01*
X40737957Y-96885438D01*
X40530957Y-96961804D01*
X40341341Y-97074614D01*
X40175457Y-97220090D01*
X40038863Y-97393360D01*
X39936131Y-97588620D01*
X39870703Y-97799333D01*
X39844770Y-98018440D01*
X35752743Y-98018440D01*
X35735454Y-97830289D01*
X35714718Y-97756762D01*
X35677134Y-97623500D01*
X35675565Y-97617936D01*
X35577980Y-97420053D01*
X35515306Y-97336122D01*
X35449420Y-97247891D01*
X35449420Y-97247890D01*
X35445967Y-97243267D01*
X35283949Y-97093499D01*
X35097350Y-96975764D01*
X34892421Y-96894006D01*
X34886761Y-96892880D01*
X34886757Y-96892879D01*
X34681691Y-96852089D01*
X34681688Y-96852089D01*
X34676024Y-96850962D01*
X34670249Y-96850886D01*
X34670245Y-96850886D01*
X34559504Y-96849437D01*
X34455406Y-96848074D01*
X34449709Y-96849053D01*
X34449708Y-96849053D01*
X34243654Y-96884459D01*
X34243653Y-96884459D01*
X34237957Y-96885438D01*
X34030957Y-96961804D01*
X33841341Y-97074614D01*
X33675457Y-97220090D01*
X33538863Y-97393360D01*
X33436131Y-97588620D01*
X33370703Y-97799333D01*
X33344770Y-98018440D01*
X30775000Y-98018440D01*
X30775000Y-93518440D01*
X33344770Y-93518440D01*
X33359200Y-93738604D01*
X33360621Y-93744200D01*
X33360622Y-93744205D01*
X33405144Y-93919509D01*
X33413511Y-93952452D01*
X33415928Y-93957694D01*
X33415928Y-93957695D01*
X33454046Y-94040379D01*
X33505883Y-94152821D01*
X33633222Y-94333002D01*
X33791264Y-94486961D01*
X33796060Y-94490166D01*
X33796063Y-94490168D01*
X33931969Y-94580977D01*
X33974717Y-94609540D01*
X33980020Y-94611818D01*
X33980023Y-94611820D01*
X34101192Y-94663878D01*
X34177436Y-94696635D01*
X34257088Y-94714658D01*
X34386995Y-94744054D01*
X34387001Y-94744055D01*
X34392632Y-94745329D01*
X34398403Y-94745556D01*
X34398405Y-94745556D01*
X34466211Y-94748220D01*
X34613098Y-94753991D01*
X34740021Y-94735588D01*
X34825738Y-94723160D01*
X34825743Y-94723159D01*
X34831452Y-94722331D01*
X34836916Y-94720476D01*
X34836921Y-94720475D01*
X35034907Y-94653268D01*
X35034912Y-94653266D01*
X35040379Y-94651410D01*
X35232884Y-94543602D01*
X35402518Y-94402518D01*
X35543602Y-94232884D01*
X35651410Y-94040379D01*
X35653266Y-94034912D01*
X35653268Y-94034907D01*
X35720475Y-93836921D01*
X35720476Y-93836916D01*
X35722331Y-93831452D01*
X35723159Y-93825743D01*
X35723160Y-93825738D01*
X35751874Y-93627696D01*
X35753991Y-93613098D01*
X35755643Y-93550000D01*
X35752743Y-93518440D01*
X39844770Y-93518440D01*
X39859200Y-93738604D01*
X39860621Y-93744200D01*
X39860622Y-93744205D01*
X39905144Y-93919509D01*
X39913511Y-93952452D01*
X39915928Y-93957694D01*
X39915928Y-93957695D01*
X39954046Y-94040379D01*
X40005883Y-94152821D01*
X40133222Y-94333002D01*
X40291264Y-94486961D01*
X40296060Y-94490166D01*
X40296063Y-94490168D01*
X40431969Y-94580977D01*
X40474717Y-94609540D01*
X40480020Y-94611818D01*
X40480023Y-94611820D01*
X40601192Y-94663878D01*
X40677436Y-94696635D01*
X40757088Y-94714658D01*
X40886995Y-94744054D01*
X40887001Y-94744055D01*
X40892632Y-94745329D01*
X40898403Y-94745556D01*
X40898405Y-94745556D01*
X40966211Y-94748220D01*
X41113098Y-94753991D01*
X41240021Y-94735588D01*
X41325738Y-94723160D01*
X41325743Y-94723159D01*
X41331452Y-94722331D01*
X41336916Y-94720476D01*
X41336921Y-94720475D01*
X41534907Y-94653268D01*
X41534912Y-94653266D01*
X41540379Y-94651410D01*
X41732884Y-94543602D01*
X41902518Y-94402518D01*
X42043602Y-94232884D01*
X42151410Y-94040379D01*
X42153266Y-94034912D01*
X42153268Y-94034907D01*
X42183873Y-93944748D01*
X45149500Y-93944748D01*
X45161133Y-94003231D01*
X45205448Y-94069552D01*
X45271769Y-94113867D01*
X45283938Y-94116288D01*
X45283939Y-94116288D01*
X45324184Y-94124293D01*
X45330252Y-94125500D01*
X47069748Y-94125500D01*
X47075816Y-94124293D01*
X47116061Y-94116288D01*
X47116062Y-94116288D01*
X47128231Y-94113867D01*
X47194552Y-94069552D01*
X47238867Y-94003231D01*
X47250500Y-93944748D01*
X47250500Y-93400000D01*
X48594318Y-93400000D01*
X48614956Y-93556762D01*
X48675464Y-93702841D01*
X48771718Y-93828282D01*
X48778264Y-93833305D01*
X48807918Y-93856059D01*
X48897159Y-93924536D01*
X49043238Y-93985044D01*
X49200000Y-94005682D01*
X49208188Y-94004604D01*
X49348574Y-93986122D01*
X49356762Y-93985044D01*
X49502841Y-93924536D01*
X49592082Y-93856059D01*
X49621736Y-93833305D01*
X49628282Y-93828282D01*
X49724536Y-93702841D01*
X49785044Y-93556762D01*
X49805682Y-93400000D01*
X49785044Y-93243238D01*
X49725713Y-93100000D01*
X77944318Y-93100000D01*
X77964956Y-93256762D01*
X78025464Y-93402841D01*
X78121718Y-93528282D01*
X78128264Y-93533305D01*
X78154849Y-93553704D01*
X78247159Y-93624536D01*
X78393238Y-93685044D01*
X78550000Y-93705682D01*
X78558188Y-93704604D01*
X78571580Y-93702841D01*
X78706762Y-93685044D01*
X78852841Y-93624536D01*
X78945151Y-93553704D01*
X78971736Y-93533305D01*
X78978282Y-93528282D01*
X79074536Y-93402841D01*
X79135044Y-93256762D01*
X79155682Y-93100000D01*
X79135044Y-92943238D01*
X79074536Y-92797159D01*
X78978282Y-92671718D01*
X78852841Y-92575464D01*
X78706762Y-92514956D01*
X78550000Y-92494318D01*
X78393238Y-92514956D01*
X78247159Y-92575464D01*
X78121718Y-92671718D01*
X78025464Y-92797159D01*
X77964956Y-92943238D01*
X77944318Y-93100000D01*
X49725713Y-93100000D01*
X49724536Y-93097159D01*
X49628282Y-92971718D01*
X49502841Y-92875464D01*
X49356762Y-92814956D01*
X49200000Y-92794318D01*
X49043238Y-92814956D01*
X48897159Y-92875464D01*
X48771718Y-92971718D01*
X48675464Y-93097159D01*
X48614956Y-93243238D01*
X48594318Y-93400000D01*
X47250500Y-93400000D01*
X47250500Y-92205252D01*
X47238867Y-92146769D01*
X47194552Y-92080448D01*
X47128231Y-92036133D01*
X47116062Y-92033712D01*
X47116061Y-92033712D01*
X47075816Y-92025707D01*
X47069748Y-92024500D01*
X45330252Y-92024500D01*
X45324184Y-92025707D01*
X45283939Y-92033712D01*
X45283938Y-92033712D01*
X45271769Y-92036133D01*
X45205448Y-92080448D01*
X45161133Y-92146769D01*
X45149500Y-92205252D01*
X45149500Y-93944748D01*
X42183873Y-93944748D01*
X42220475Y-93836921D01*
X42220476Y-93836916D01*
X42222331Y-93831452D01*
X42223159Y-93825743D01*
X42223160Y-93825738D01*
X42251874Y-93627696D01*
X42253991Y-93613098D01*
X42255643Y-93550000D01*
X42235454Y-93330289D01*
X42214718Y-93256762D01*
X42177134Y-93123500D01*
X42175565Y-93117936D01*
X42077980Y-92920053D01*
X42046351Y-92877696D01*
X41949420Y-92747891D01*
X41949420Y-92747890D01*
X41945967Y-92743267D01*
X41839891Y-92645211D01*
X41788189Y-92597418D01*
X41788186Y-92597416D01*
X41783949Y-92593499D01*
X41597350Y-92475764D01*
X41392421Y-92394006D01*
X41386761Y-92392880D01*
X41386757Y-92392879D01*
X41181691Y-92352089D01*
X41181688Y-92352089D01*
X41176024Y-92350962D01*
X41170249Y-92350886D01*
X41170245Y-92350886D01*
X41059504Y-92349437D01*
X40955406Y-92348074D01*
X40949709Y-92349053D01*
X40949708Y-92349053D01*
X40743654Y-92384459D01*
X40743653Y-92384459D01*
X40737957Y-92385438D01*
X40530957Y-92461804D01*
X40525996Y-92464756D01*
X40525995Y-92464756D01*
X40455390Y-92506762D01*
X40341341Y-92574614D01*
X40175457Y-92720090D01*
X40038863Y-92893360D01*
X39936131Y-93088620D01*
X39870703Y-93299333D01*
X39844770Y-93518440D01*
X35752743Y-93518440D01*
X35735454Y-93330289D01*
X35714718Y-93256762D01*
X35677134Y-93123500D01*
X35675565Y-93117936D01*
X35577980Y-92920053D01*
X35546351Y-92877696D01*
X35449420Y-92747891D01*
X35449420Y-92747890D01*
X35445967Y-92743267D01*
X35339891Y-92645211D01*
X35288189Y-92597418D01*
X35288186Y-92597416D01*
X35283949Y-92593499D01*
X35097350Y-92475764D01*
X34892421Y-92394006D01*
X34886761Y-92392880D01*
X34886757Y-92392879D01*
X34681691Y-92352089D01*
X34681688Y-92352089D01*
X34676024Y-92350962D01*
X34670249Y-92350886D01*
X34670245Y-92350886D01*
X34559504Y-92349437D01*
X34455406Y-92348074D01*
X34449709Y-92349053D01*
X34449708Y-92349053D01*
X34243654Y-92384459D01*
X34243653Y-92384459D01*
X34237957Y-92385438D01*
X34030957Y-92461804D01*
X34025996Y-92464756D01*
X34025995Y-92464756D01*
X33955390Y-92506762D01*
X33841341Y-92574614D01*
X33675457Y-92720090D01*
X33538863Y-92893360D01*
X33436131Y-93088620D01*
X33370703Y-93299333D01*
X33344770Y-93518440D01*
X30775000Y-93518440D01*
X30775000Y-92000000D01*
X49394318Y-92000000D01*
X49414956Y-92156762D01*
X49475464Y-92302841D01*
X49571718Y-92428282D01*
X49697159Y-92524536D01*
X49843238Y-92585044D01*
X50000000Y-92605682D01*
X50008188Y-92604604D01*
X50148574Y-92586122D01*
X50156762Y-92585044D01*
X50302841Y-92524536D01*
X50428282Y-92428282D01*
X50524536Y-92302841D01*
X50585044Y-92156762D01*
X50605682Y-92000000D01*
X59644318Y-92000000D01*
X59664956Y-92156762D01*
X59725464Y-92302841D01*
X59821718Y-92428282D01*
X59947159Y-92524536D01*
X60093238Y-92585044D01*
X60250000Y-92605682D01*
X60258188Y-92604604D01*
X60398574Y-92586122D01*
X60406762Y-92585044D01*
X60552841Y-92524536D01*
X60678282Y-92428282D01*
X60738350Y-92350000D01*
X70444318Y-92350000D01*
X70464956Y-92506762D01*
X70525464Y-92652841D01*
X70621718Y-92778282D01*
X70747159Y-92874536D01*
X70893238Y-92935044D01*
X71050000Y-92955682D01*
X71058188Y-92954604D01*
X71198574Y-92936122D01*
X71206762Y-92935044D01*
X71352841Y-92874536D01*
X71478282Y-92778282D01*
X71574536Y-92652841D01*
X71635044Y-92506762D01*
X71655682Y-92350000D01*
X71635044Y-92193238D01*
X71574536Y-92047159D01*
X71478282Y-91921718D01*
X71352841Y-91825464D01*
X71206762Y-91764956D01*
X71050000Y-91744318D01*
X70893238Y-91764956D01*
X70747159Y-91825464D01*
X70621718Y-91921718D01*
X70525464Y-92047159D01*
X70464956Y-92193238D01*
X70444318Y-92350000D01*
X60738350Y-92350000D01*
X60774536Y-92302841D01*
X60835044Y-92156762D01*
X60855682Y-92000000D01*
X60835044Y-91843238D01*
X60774536Y-91697159D01*
X60678282Y-91571718D01*
X60552841Y-91475464D01*
X60406762Y-91414956D01*
X60250000Y-91394318D01*
X60093238Y-91414956D01*
X59947159Y-91475464D01*
X59821718Y-91571718D01*
X59725464Y-91697159D01*
X59664956Y-91843238D01*
X59644318Y-92000000D01*
X50605682Y-92000000D01*
X50585044Y-91843238D01*
X50524536Y-91697159D01*
X50428282Y-91571718D01*
X50302841Y-91475464D01*
X50156762Y-91414956D01*
X50000000Y-91394318D01*
X49843238Y-91414956D01*
X49697159Y-91475464D01*
X49571718Y-91571718D01*
X49475464Y-91697159D01*
X49414956Y-91843238D01*
X49394318Y-92000000D01*
X30775000Y-92000000D01*
X30775000Y-90500000D01*
X54094318Y-90500000D01*
X54114956Y-90656762D01*
X54175464Y-90802841D01*
X54271718Y-90928282D01*
X54397159Y-91024536D01*
X54543238Y-91085044D01*
X54700000Y-91105682D01*
X54708188Y-91104604D01*
X54848574Y-91086122D01*
X54856762Y-91085044D01*
X55002841Y-91024536D01*
X55128282Y-90928282D01*
X55224536Y-90802841D01*
X55285044Y-90656762D01*
X55305682Y-90500000D01*
X55285044Y-90343238D01*
X55225713Y-90200000D01*
X65194318Y-90200000D01*
X65214956Y-90356762D01*
X65275464Y-90502841D01*
X65371718Y-90628282D01*
X65497159Y-90724536D01*
X65643238Y-90785044D01*
X65800000Y-90805682D01*
X65808188Y-90804604D01*
X65821580Y-90802841D01*
X65956762Y-90785044D01*
X66102841Y-90724536D01*
X66228282Y-90628282D01*
X66324536Y-90502841D01*
X66385044Y-90356762D01*
X66405682Y-90200000D01*
X69794318Y-90200000D01*
X69814956Y-90356762D01*
X69875464Y-90502841D01*
X69971718Y-90628282D01*
X70097159Y-90724536D01*
X70243238Y-90785044D01*
X70400000Y-90805682D01*
X70408188Y-90804604D01*
X70421580Y-90802841D01*
X70556762Y-90785044D01*
X70702841Y-90724536D01*
X70828282Y-90628282D01*
X70924536Y-90502841D01*
X70985044Y-90356762D01*
X71005682Y-90200000D01*
X70985044Y-90043238D01*
X70924536Y-89897159D01*
X70856059Y-89807918D01*
X70849983Y-89800000D01*
X87194318Y-89800000D01*
X87214956Y-89956762D01*
X87275464Y-90102841D01*
X87280491Y-90109392D01*
X87350017Y-90200000D01*
X87371718Y-90228282D01*
X87497159Y-90324536D01*
X87643238Y-90385044D01*
X87800000Y-90405682D01*
X87808188Y-90404604D01*
X87948574Y-90386122D01*
X87956762Y-90385044D01*
X88102841Y-90324536D01*
X88228282Y-90228282D01*
X88249984Y-90200000D01*
X88319509Y-90109392D01*
X88324536Y-90102841D01*
X88367134Y-90000000D01*
X89794318Y-90000000D01*
X89814956Y-90156762D01*
X89875464Y-90302841D01*
X89971718Y-90428282D01*
X90097159Y-90524536D01*
X90243238Y-90585044D01*
X90400000Y-90605682D01*
X90408188Y-90604604D01*
X90548574Y-90586122D01*
X90556762Y-90585044D01*
X90702841Y-90524536D01*
X90828282Y-90428282D01*
X90924536Y-90302841D01*
X90985044Y-90156762D01*
X91005682Y-90000000D01*
X90985044Y-89843238D01*
X90924536Y-89697159D01*
X90856059Y-89607918D01*
X90849983Y-89600000D01*
X107594318Y-89600000D01*
X107614956Y-89756762D01*
X107675464Y-89902841D01*
X107680491Y-89909392D01*
X107750017Y-90000000D01*
X107771718Y-90028282D01*
X107897159Y-90124536D01*
X108043238Y-90185044D01*
X108200000Y-90205682D01*
X108208188Y-90204604D01*
X108348574Y-90186122D01*
X108356762Y-90185044D01*
X108502841Y-90124536D01*
X108628282Y-90028282D01*
X108649984Y-90000000D01*
X108719509Y-89909392D01*
X108724536Y-89902841D01*
X108767134Y-89800000D01*
X112194318Y-89800000D01*
X112214956Y-89956762D01*
X112275464Y-90102841D01*
X112280491Y-90109392D01*
X112350017Y-90200000D01*
X112371718Y-90228282D01*
X112497159Y-90324536D01*
X112643238Y-90385044D01*
X112800000Y-90405682D01*
X112808188Y-90404604D01*
X112948574Y-90386122D01*
X112956762Y-90385044D01*
X113102841Y-90324536D01*
X113228282Y-90228282D01*
X113249984Y-90200000D01*
X113319509Y-90109392D01*
X113324536Y-90102841D01*
X113385044Y-89956762D01*
X113405682Y-89800000D01*
X113385044Y-89643238D01*
X113324536Y-89497159D01*
X113228282Y-89371718D01*
X113102841Y-89275464D01*
X112956762Y-89214956D01*
X112800000Y-89194318D01*
X112643238Y-89214956D01*
X112497159Y-89275464D01*
X112371718Y-89371718D01*
X112275464Y-89497159D01*
X112214956Y-89643238D01*
X112194318Y-89800000D01*
X108767134Y-89800000D01*
X108785044Y-89756762D01*
X108805682Y-89600000D01*
X108785044Y-89443238D01*
X108724536Y-89297159D01*
X108628282Y-89171718D01*
X108502841Y-89075464D01*
X108356762Y-89014956D01*
X108200000Y-88994318D01*
X108043238Y-89014956D01*
X107897159Y-89075464D01*
X107771718Y-89171718D01*
X107675464Y-89297159D01*
X107614956Y-89443238D01*
X107594318Y-89600000D01*
X90849983Y-89600000D01*
X90833305Y-89578264D01*
X90828282Y-89571718D01*
X90702841Y-89475464D01*
X90556762Y-89414956D01*
X90400000Y-89394318D01*
X90243238Y-89414956D01*
X90097159Y-89475464D01*
X89971718Y-89571718D01*
X89966695Y-89578264D01*
X89943941Y-89607918D01*
X89875464Y-89697159D01*
X89814956Y-89843238D01*
X89794318Y-90000000D01*
X88367134Y-90000000D01*
X88385044Y-89956762D01*
X88405682Y-89800000D01*
X88385044Y-89643238D01*
X88324536Y-89497159D01*
X88228282Y-89371718D01*
X88102841Y-89275464D01*
X87956762Y-89214956D01*
X87800000Y-89194318D01*
X87643238Y-89214956D01*
X87497159Y-89275464D01*
X87371718Y-89371718D01*
X87275464Y-89497159D01*
X87214956Y-89643238D01*
X87194318Y-89800000D01*
X70849983Y-89800000D01*
X70833305Y-89778264D01*
X70828282Y-89771718D01*
X70702841Y-89675464D01*
X70556762Y-89614956D01*
X70400000Y-89594318D01*
X70243238Y-89614956D01*
X70097159Y-89675464D01*
X69971718Y-89771718D01*
X69966695Y-89778264D01*
X69943941Y-89807918D01*
X69875464Y-89897159D01*
X69814956Y-90043238D01*
X69794318Y-90200000D01*
X66405682Y-90200000D01*
X66385044Y-90043238D01*
X66324536Y-89897159D01*
X66256059Y-89807918D01*
X66233305Y-89778264D01*
X66228282Y-89771718D01*
X66102841Y-89675464D01*
X65956762Y-89614956D01*
X65800000Y-89594318D01*
X65643238Y-89614956D01*
X65497159Y-89675464D01*
X65371718Y-89771718D01*
X65366695Y-89778264D01*
X65343941Y-89807918D01*
X65275464Y-89897159D01*
X65214956Y-90043238D01*
X65194318Y-90200000D01*
X55225713Y-90200000D01*
X55224536Y-90197159D01*
X55128282Y-90071718D01*
X55002841Y-89975464D01*
X54856762Y-89914956D01*
X54700000Y-89894318D01*
X54543238Y-89914956D01*
X54397159Y-89975464D01*
X54271718Y-90071718D01*
X54175464Y-90197159D01*
X54114956Y-90343238D01*
X54094318Y-90500000D01*
X30775000Y-90500000D01*
X30775000Y-82386192D01*
X32444447Y-82386192D01*
X32444597Y-82389373D01*
X32456730Y-82646651D01*
X32463301Y-82785997D01*
X32522462Y-83181849D01*
X32523248Y-83184931D01*
X32523248Y-83184933D01*
X32620027Y-83564610D01*
X32621323Y-83569696D01*
X32758872Y-83945567D01*
X32806664Y-84043991D01*
X32926126Y-84290013D01*
X32933701Y-84305614D01*
X32935373Y-84308321D01*
X32935374Y-84308323D01*
X32940611Y-84316802D01*
X33144021Y-84646150D01*
X33145964Y-84648683D01*
X33145966Y-84648685D01*
X33170713Y-84680935D01*
X33387677Y-84963688D01*
X33662174Y-85254978D01*
X33664579Y-85257062D01*
X33664585Y-85257067D01*
X33697481Y-85285562D01*
X33964704Y-85517037D01*
X34292167Y-85747182D01*
X34641211Y-85943057D01*
X35008263Y-86102656D01*
X35389565Y-86224344D01*
X35602336Y-86269182D01*
X35778092Y-86306220D01*
X35778097Y-86306221D01*
X35781211Y-86306877D01*
X36179194Y-86349409D01*
X36182382Y-86349426D01*
X36182387Y-86349426D01*
X36363973Y-86350377D01*
X36579437Y-86351505D01*
X36730994Y-86336912D01*
X36974678Y-86313448D01*
X36974683Y-86313447D01*
X36977843Y-86313143D01*
X36980962Y-86312520D01*
X36980967Y-86312519D01*
X37174454Y-86273856D01*
X37370332Y-86234716D01*
X37664118Y-86144336D01*
X37749845Y-86117963D01*
X37749848Y-86117962D01*
X37752887Y-86117027D01*
X37755815Y-86115790D01*
X37755821Y-86115788D01*
X37921986Y-86045596D01*
X38121590Y-85961280D01*
X38124393Y-85959746D01*
X38124398Y-85959743D01*
X38275670Y-85876924D01*
X38472667Y-85769071D01*
X38802522Y-85542368D01*
X38804961Y-85540300D01*
X38804967Y-85540295D01*
X39105338Y-85285562D01*
X39107779Y-85283492D01*
X39109985Y-85281200D01*
X39109991Y-85281194D01*
X39383105Y-84997385D01*
X39385312Y-84995092D01*
X39632280Y-84680122D01*
X39673930Y-84614239D01*
X39746308Y-84499748D01*
X43609500Y-84499748D01*
X43621133Y-84558231D01*
X43665448Y-84624552D01*
X43731769Y-84668867D01*
X43743938Y-84671288D01*
X43743939Y-84671288D01*
X43782962Y-84679050D01*
X43790252Y-84680500D01*
X45809748Y-84680500D01*
X45817038Y-84679050D01*
X45856061Y-84671288D01*
X45856062Y-84671288D01*
X45868231Y-84668867D01*
X45934552Y-84624552D01*
X45978867Y-84558231D01*
X45990500Y-84499748D01*
X45990500Y-83545504D01*
X48609500Y-83545504D01*
X48611723Y-83569696D01*
X48619516Y-83654505D01*
X48624420Y-83707881D01*
X48625987Y-83713438D01*
X48625988Y-83713442D01*
X48666505Y-83857103D01*
X48683811Y-83918465D01*
X48686363Y-83923640D01*
X48686365Y-83923645D01*
X48746995Y-84046590D01*
X48780583Y-84114699D01*
X48784037Y-84119325D01*
X48784038Y-84119326D01*
X48810522Y-84154792D01*
X48911496Y-84290013D01*
X48915730Y-84293927D01*
X48915732Y-84293929D01*
X49007876Y-84379105D01*
X49072165Y-84438533D01*
X49257209Y-84555287D01*
X49460431Y-84636365D01*
X49466099Y-84637492D01*
X49466101Y-84637493D01*
X49669359Y-84677923D01*
X49669361Y-84677923D01*
X49675026Y-84679050D01*
X49680801Y-84679126D01*
X49680805Y-84679126D01*
X49790603Y-84680563D01*
X49893806Y-84681914D01*
X49899504Y-84680935D01*
X50103747Y-84645840D01*
X50103748Y-84645840D01*
X50109444Y-84644861D01*
X50314719Y-84569131D01*
X50333040Y-84558231D01*
X50497791Y-84460215D01*
X50497792Y-84460214D01*
X50502756Y-84457261D01*
X50667258Y-84312997D01*
X50713406Y-84254458D01*
X50799141Y-84145704D01*
X50799142Y-84145702D01*
X50802715Y-84141170D01*
X50855480Y-84040880D01*
X50901901Y-83952648D01*
X50901903Y-83952643D01*
X50904590Y-83947536D01*
X50969473Y-83738579D01*
X50990500Y-83560923D01*
X50990500Y-83545504D01*
X53609500Y-83545504D01*
X53611723Y-83569696D01*
X53619516Y-83654505D01*
X53624420Y-83707881D01*
X53625987Y-83713438D01*
X53625988Y-83713442D01*
X53666505Y-83857103D01*
X53683811Y-83918465D01*
X53686363Y-83923640D01*
X53686365Y-83923645D01*
X53746995Y-84046590D01*
X53780583Y-84114699D01*
X53784037Y-84119325D01*
X53784038Y-84119326D01*
X53810522Y-84154792D01*
X53911496Y-84290013D01*
X53915730Y-84293927D01*
X53915732Y-84293929D01*
X54007876Y-84379105D01*
X54072165Y-84438533D01*
X54257209Y-84555287D01*
X54460431Y-84636365D01*
X54466099Y-84637492D01*
X54466101Y-84637493D01*
X54669359Y-84677923D01*
X54669361Y-84677923D01*
X54675026Y-84679050D01*
X54680801Y-84679126D01*
X54680805Y-84679126D01*
X54790603Y-84680563D01*
X54893806Y-84681914D01*
X54899504Y-84680935D01*
X55103747Y-84645840D01*
X55103748Y-84645840D01*
X55109444Y-84644861D01*
X55314719Y-84569131D01*
X55333040Y-84558231D01*
X55431342Y-84499748D01*
X63609500Y-84499748D01*
X63621133Y-84558231D01*
X63665448Y-84624552D01*
X63731769Y-84668867D01*
X63743938Y-84671288D01*
X63743939Y-84671288D01*
X63782962Y-84679050D01*
X63790252Y-84680500D01*
X65809748Y-84680500D01*
X65817038Y-84679050D01*
X65856061Y-84671288D01*
X65856062Y-84671288D01*
X65868231Y-84668867D01*
X65934552Y-84624552D01*
X65978867Y-84558231D01*
X65990500Y-84499748D01*
X65990500Y-83545504D01*
X68609500Y-83545504D01*
X68611723Y-83569696D01*
X68619516Y-83654505D01*
X68624420Y-83707881D01*
X68625987Y-83713438D01*
X68625988Y-83713442D01*
X68666505Y-83857103D01*
X68683811Y-83918465D01*
X68686363Y-83923640D01*
X68686365Y-83923645D01*
X68746995Y-84046590D01*
X68780583Y-84114699D01*
X68784037Y-84119325D01*
X68784038Y-84119326D01*
X68810522Y-84154792D01*
X68911496Y-84290013D01*
X68915730Y-84293927D01*
X68915732Y-84293929D01*
X69007876Y-84379105D01*
X69072165Y-84438533D01*
X69257209Y-84555287D01*
X69460431Y-84636365D01*
X69466099Y-84637492D01*
X69466101Y-84637493D01*
X69669359Y-84677923D01*
X69669361Y-84677923D01*
X69675026Y-84679050D01*
X69680801Y-84679126D01*
X69680805Y-84679126D01*
X69790603Y-84680563D01*
X69893806Y-84681914D01*
X69899504Y-84680935D01*
X70103747Y-84645840D01*
X70103748Y-84645840D01*
X70109444Y-84644861D01*
X70314719Y-84569131D01*
X70333040Y-84558231D01*
X70497791Y-84460215D01*
X70497792Y-84460214D01*
X70502756Y-84457261D01*
X70667258Y-84312997D01*
X70713406Y-84254458D01*
X70799141Y-84145704D01*
X70799142Y-84145702D01*
X70802715Y-84141170D01*
X70855480Y-84040880D01*
X70901901Y-83952648D01*
X70901903Y-83952643D01*
X70904590Y-83947536D01*
X70969473Y-83738579D01*
X70990500Y-83560923D01*
X70990500Y-83545504D01*
X73609500Y-83545504D01*
X73611723Y-83569696D01*
X73619516Y-83654505D01*
X73624420Y-83707881D01*
X73625987Y-83713438D01*
X73625988Y-83713442D01*
X73666505Y-83857103D01*
X73683811Y-83918465D01*
X73686363Y-83923640D01*
X73686365Y-83923645D01*
X73746995Y-84046590D01*
X73780583Y-84114699D01*
X73784037Y-84119325D01*
X73784038Y-84119326D01*
X73810522Y-84154792D01*
X73911496Y-84290013D01*
X73915730Y-84293927D01*
X73915732Y-84293929D01*
X74007876Y-84379105D01*
X74072165Y-84438533D01*
X74257209Y-84555287D01*
X74460431Y-84636365D01*
X74466099Y-84637492D01*
X74466101Y-84637493D01*
X74669359Y-84677923D01*
X74669361Y-84677923D01*
X74675026Y-84679050D01*
X74680801Y-84679126D01*
X74680805Y-84679126D01*
X74790603Y-84680563D01*
X74893806Y-84681914D01*
X74899504Y-84680935D01*
X75103747Y-84645840D01*
X75103748Y-84645840D01*
X75109444Y-84644861D01*
X75314719Y-84569131D01*
X75333040Y-84558231D01*
X75431342Y-84499748D01*
X83609500Y-84499748D01*
X83621133Y-84558231D01*
X83665448Y-84624552D01*
X83731769Y-84668867D01*
X83743938Y-84671288D01*
X83743939Y-84671288D01*
X83782962Y-84679050D01*
X83790252Y-84680500D01*
X85809748Y-84680500D01*
X85817038Y-84679050D01*
X85856061Y-84671288D01*
X85856062Y-84671288D01*
X85868231Y-84668867D01*
X85934552Y-84624552D01*
X85978867Y-84558231D01*
X85990500Y-84499748D01*
X85990500Y-83545504D01*
X88609500Y-83545504D01*
X88611723Y-83569696D01*
X88619516Y-83654505D01*
X88624420Y-83707881D01*
X88625987Y-83713438D01*
X88625988Y-83713442D01*
X88666505Y-83857103D01*
X88683811Y-83918465D01*
X88686363Y-83923640D01*
X88686365Y-83923645D01*
X88746995Y-84046590D01*
X88780583Y-84114699D01*
X88784037Y-84119325D01*
X88784038Y-84119326D01*
X88810522Y-84154792D01*
X88911496Y-84290013D01*
X88915730Y-84293927D01*
X88915732Y-84293929D01*
X89007876Y-84379105D01*
X89072165Y-84438533D01*
X89257209Y-84555287D01*
X89460431Y-84636365D01*
X89466099Y-84637492D01*
X89466101Y-84637493D01*
X89669359Y-84677923D01*
X89669361Y-84677923D01*
X89675026Y-84679050D01*
X89680801Y-84679126D01*
X89680805Y-84679126D01*
X89790603Y-84680563D01*
X89893806Y-84681914D01*
X89899504Y-84680935D01*
X90103747Y-84645840D01*
X90103748Y-84645840D01*
X90109444Y-84644861D01*
X90314719Y-84569131D01*
X90333040Y-84558231D01*
X90497791Y-84460215D01*
X90497792Y-84460214D01*
X90502756Y-84457261D01*
X90667258Y-84312997D01*
X90713406Y-84254458D01*
X90799141Y-84145704D01*
X90799142Y-84145702D01*
X90802715Y-84141170D01*
X90855480Y-84040880D01*
X90901901Y-83952648D01*
X90901903Y-83952643D01*
X90904590Y-83947536D01*
X90969473Y-83738579D01*
X90990500Y-83560923D01*
X90990500Y-83545504D01*
X93609500Y-83545504D01*
X93611723Y-83569696D01*
X93619516Y-83654505D01*
X93624420Y-83707881D01*
X93625987Y-83713438D01*
X93625988Y-83713442D01*
X93666505Y-83857103D01*
X93683811Y-83918465D01*
X93686363Y-83923640D01*
X93686365Y-83923645D01*
X93746995Y-84046590D01*
X93780583Y-84114699D01*
X93784037Y-84119325D01*
X93784038Y-84119326D01*
X93810522Y-84154792D01*
X93911496Y-84290013D01*
X93915730Y-84293927D01*
X93915732Y-84293929D01*
X94007876Y-84379105D01*
X94072165Y-84438533D01*
X94257209Y-84555287D01*
X94460431Y-84636365D01*
X94466099Y-84637492D01*
X94466101Y-84637493D01*
X94669359Y-84677923D01*
X94669361Y-84677923D01*
X94675026Y-84679050D01*
X94680801Y-84679126D01*
X94680805Y-84679126D01*
X94790603Y-84680563D01*
X94893806Y-84681914D01*
X94899504Y-84680935D01*
X95103747Y-84645840D01*
X95103748Y-84645840D01*
X95109444Y-84644861D01*
X95314719Y-84569131D01*
X95333040Y-84558231D01*
X95431342Y-84499748D01*
X103609500Y-84499748D01*
X103621133Y-84558231D01*
X103665448Y-84624552D01*
X103731769Y-84668867D01*
X103743938Y-84671288D01*
X103743939Y-84671288D01*
X103782962Y-84679050D01*
X103790252Y-84680500D01*
X105809748Y-84680500D01*
X105817038Y-84679050D01*
X105856061Y-84671288D01*
X105856062Y-84671288D01*
X105868231Y-84668867D01*
X105934552Y-84624552D01*
X105978867Y-84558231D01*
X105990500Y-84499748D01*
X105990500Y-83545504D01*
X108609500Y-83545504D01*
X108611723Y-83569696D01*
X108619516Y-83654505D01*
X108624420Y-83707881D01*
X108625987Y-83713438D01*
X108625988Y-83713442D01*
X108666505Y-83857103D01*
X108683811Y-83918465D01*
X108686363Y-83923640D01*
X108686365Y-83923645D01*
X108746995Y-84046590D01*
X108780583Y-84114699D01*
X108784037Y-84119325D01*
X108784038Y-84119326D01*
X108810522Y-84154792D01*
X108911496Y-84290013D01*
X108915730Y-84293927D01*
X108915732Y-84293929D01*
X109007876Y-84379105D01*
X109072165Y-84438533D01*
X109257209Y-84555287D01*
X109460431Y-84636365D01*
X109466099Y-84637492D01*
X109466101Y-84637493D01*
X109669359Y-84677923D01*
X109669361Y-84677923D01*
X109675026Y-84679050D01*
X109680801Y-84679126D01*
X109680805Y-84679126D01*
X109790603Y-84680563D01*
X109893806Y-84681914D01*
X109899504Y-84680935D01*
X110103747Y-84645840D01*
X110103748Y-84645840D01*
X110109444Y-84644861D01*
X110314719Y-84569131D01*
X110333040Y-84558231D01*
X110497791Y-84460215D01*
X110497792Y-84460214D01*
X110502756Y-84457261D01*
X110667258Y-84312997D01*
X110713406Y-84254458D01*
X110799141Y-84145704D01*
X110799142Y-84145702D01*
X110802715Y-84141170D01*
X110855480Y-84040880D01*
X110901901Y-83952648D01*
X110901903Y-83952643D01*
X110904590Y-83947536D01*
X110969473Y-83738579D01*
X110990500Y-83560923D01*
X110990500Y-83545504D01*
X113609500Y-83545504D01*
X113611723Y-83569696D01*
X113619516Y-83654505D01*
X113624420Y-83707881D01*
X113625987Y-83713438D01*
X113625988Y-83713442D01*
X113666505Y-83857103D01*
X113683811Y-83918465D01*
X113686363Y-83923640D01*
X113686365Y-83923645D01*
X113746995Y-84046590D01*
X113780583Y-84114699D01*
X113784037Y-84119325D01*
X113784038Y-84119326D01*
X113810522Y-84154792D01*
X113911496Y-84290013D01*
X113915730Y-84293927D01*
X113915732Y-84293929D01*
X114007876Y-84379105D01*
X114072165Y-84438533D01*
X114257209Y-84555287D01*
X114460431Y-84636365D01*
X114466099Y-84637492D01*
X114466101Y-84637493D01*
X114669359Y-84677923D01*
X114669361Y-84677923D01*
X114675026Y-84679050D01*
X114680801Y-84679126D01*
X114680805Y-84679126D01*
X114790603Y-84680563D01*
X114893806Y-84681914D01*
X114899504Y-84680935D01*
X115103747Y-84645840D01*
X115103748Y-84645840D01*
X115109444Y-84644861D01*
X115314719Y-84569131D01*
X115333040Y-84558231D01*
X115497791Y-84460215D01*
X115497792Y-84460214D01*
X115502756Y-84457261D01*
X115667258Y-84312997D01*
X115713406Y-84254458D01*
X115799141Y-84145704D01*
X115799142Y-84145702D01*
X115802715Y-84141170D01*
X115855480Y-84040880D01*
X115901901Y-83952648D01*
X115901903Y-83952643D01*
X115904590Y-83947536D01*
X115969473Y-83738579D01*
X115990500Y-83560923D01*
X115990500Y-82642095D01*
X122145028Y-82642095D01*
X122170534Y-82909431D01*
X122234364Y-83170285D01*
X122335182Y-83419192D01*
X122470875Y-83650938D01*
X122520861Y-83713442D01*
X122585225Y-83793925D01*
X122638601Y-83860669D01*
X122834846Y-84043991D01*
X122927039Y-84107948D01*
X123051746Y-84194461D01*
X123051751Y-84194464D01*
X123055499Y-84197064D01*
X123059584Y-84199096D01*
X123059587Y-84199098D01*
X123175718Y-84256872D01*
X123295938Y-84316680D01*
X123300272Y-84318101D01*
X123300275Y-84318102D01*
X123546793Y-84398915D01*
X123546798Y-84398916D01*
X123551126Y-84400335D01*
X123555617Y-84401115D01*
X123555618Y-84401115D01*
X123811936Y-84445620D01*
X123811944Y-84445621D01*
X123815717Y-84446276D01*
X123819554Y-84446467D01*
X123898996Y-84450422D01*
X123899004Y-84450422D01*
X123900567Y-84450500D01*
X124068223Y-84450500D01*
X124070491Y-84450335D01*
X124070503Y-84450335D01*
X124200823Y-84440879D01*
X124267846Y-84436016D01*
X124272301Y-84435032D01*
X124272304Y-84435032D01*
X124525620Y-84379105D01*
X124525624Y-84379104D01*
X124530080Y-84378120D01*
X124697617Y-84314646D01*
X124776941Y-84284593D01*
X124776944Y-84284592D01*
X124781211Y-84282975D01*
X125015976Y-84152574D01*
X125158254Y-84043991D01*
X125225833Y-83992417D01*
X125225837Y-83992413D01*
X125229458Y-83989650D01*
X125235362Y-83983611D01*
X125413999Y-83800873D01*
X125417185Y-83797614D01*
X125552162Y-83612176D01*
X125572538Y-83584183D01*
X125572540Y-83584180D01*
X125575225Y-83580491D01*
X125662313Y-83414963D01*
X125698140Y-83346868D01*
X125698143Y-83346862D01*
X125700265Y-83342828D01*
X125756024Y-83184933D01*
X125788165Y-83093916D01*
X125788165Y-83093915D01*
X125789688Y-83089603D01*
X125841620Y-82826122D01*
X125843460Y-82789156D01*
X125854745Y-82562474D01*
X125854745Y-82562468D01*
X125854972Y-82557905D01*
X125829466Y-82290569D01*
X125765636Y-82029715D01*
X125754993Y-82003437D01*
X125666531Y-81785037D01*
X125666531Y-81785036D01*
X125664818Y-81780808D01*
X125529125Y-81549062D01*
X125418211Y-81410371D01*
X125364251Y-81342897D01*
X125364250Y-81342895D01*
X125361399Y-81339331D01*
X125165154Y-81156009D01*
X125008633Y-81047426D01*
X124948254Y-81005539D01*
X124948249Y-81005536D01*
X124944501Y-81002936D01*
X124940416Y-81000904D01*
X124940413Y-81000902D01*
X124718458Y-80890482D01*
X124704062Y-80883320D01*
X124699728Y-80881899D01*
X124699725Y-80881898D01*
X124453207Y-80801085D01*
X124453202Y-80801084D01*
X124448874Y-80799665D01*
X124444382Y-80798885D01*
X124188064Y-80754380D01*
X124188056Y-80754379D01*
X124184283Y-80753724D01*
X124175622Y-80753293D01*
X124101004Y-80749578D01*
X124100996Y-80749578D01*
X124099433Y-80749500D01*
X123931777Y-80749500D01*
X123929509Y-80749665D01*
X123929497Y-80749665D01*
X123799177Y-80759121D01*
X123732154Y-80763984D01*
X123727699Y-80764968D01*
X123727696Y-80764968D01*
X123474380Y-80820895D01*
X123474376Y-80820896D01*
X123469920Y-80821880D01*
X123372392Y-80858830D01*
X123223059Y-80915407D01*
X123223056Y-80915408D01*
X123218789Y-80917025D01*
X122984024Y-81047426D01*
X122946118Y-81076355D01*
X122774167Y-81207583D01*
X122774163Y-81207587D01*
X122770542Y-81210350D01*
X122767357Y-81213608D01*
X122767356Y-81213609D01*
X122696044Y-81286558D01*
X122582815Y-81402386D01*
X122546989Y-81451605D01*
X122433312Y-81607781D01*
X122424775Y-81619509D01*
X122422651Y-81623547D01*
X122301860Y-81853132D01*
X122301857Y-81853138D01*
X122299735Y-81857172D01*
X122298215Y-81861477D01*
X122298213Y-81861481D01*
X122238804Y-82029715D01*
X122210312Y-82110397D01*
X122158380Y-82373878D01*
X122158153Y-82378431D01*
X122158153Y-82378434D01*
X122148992Y-82562474D01*
X122145028Y-82642095D01*
X115990500Y-82642095D01*
X115990500Y-81454496D01*
X115975580Y-81292119D01*
X115966923Y-81261421D01*
X115917757Y-81087094D01*
X115917756Y-81087092D01*
X115916189Y-81081535D01*
X115904576Y-81057985D01*
X115821972Y-80890482D01*
X115819417Y-80885301D01*
X115796265Y-80854296D01*
X115691957Y-80714611D01*
X115691956Y-80714610D01*
X115688504Y-80709987D01*
X115684268Y-80706071D01*
X115532075Y-80565386D01*
X115532073Y-80565384D01*
X115527835Y-80561467D01*
X115342791Y-80444713D01*
X115139569Y-80363635D01*
X115133901Y-80362508D01*
X115133899Y-80362507D01*
X114930641Y-80322077D01*
X114930639Y-80322077D01*
X114924974Y-80320950D01*
X114919199Y-80320874D01*
X114919195Y-80320874D01*
X114809397Y-80319437D01*
X114706194Y-80318086D01*
X114700497Y-80319065D01*
X114700496Y-80319065D01*
X114496253Y-80354160D01*
X114496252Y-80354160D01*
X114490556Y-80355139D01*
X114285281Y-80430869D01*
X114280320Y-80433821D01*
X114280319Y-80433821D01*
X114193996Y-80485178D01*
X114097244Y-80542739D01*
X113932742Y-80687003D01*
X113797285Y-80858830D01*
X113794597Y-80863939D01*
X113698099Y-81047352D01*
X113698097Y-81047357D01*
X113695410Y-81052464D01*
X113693696Y-81057985D01*
X113644283Y-81217121D01*
X113630527Y-81261421D01*
X113629849Y-81267150D01*
X113613843Y-81402386D01*
X113609500Y-81439077D01*
X113609500Y-83545504D01*
X110990500Y-83545504D01*
X110990500Y-81454496D01*
X110975580Y-81292119D01*
X110966923Y-81261421D01*
X110917757Y-81087094D01*
X110917756Y-81087092D01*
X110916189Y-81081535D01*
X110904576Y-81057985D01*
X110821972Y-80890482D01*
X110819417Y-80885301D01*
X110796265Y-80854296D01*
X110691957Y-80714611D01*
X110691956Y-80714610D01*
X110688504Y-80709987D01*
X110684268Y-80706071D01*
X110532075Y-80565386D01*
X110532073Y-80565384D01*
X110527835Y-80561467D01*
X110342791Y-80444713D01*
X110139569Y-80363635D01*
X110133901Y-80362508D01*
X110133899Y-80362507D01*
X109930641Y-80322077D01*
X109930639Y-80322077D01*
X109924974Y-80320950D01*
X109919199Y-80320874D01*
X109919195Y-80320874D01*
X109809397Y-80319437D01*
X109706194Y-80318086D01*
X109700497Y-80319065D01*
X109700496Y-80319065D01*
X109496253Y-80354160D01*
X109496252Y-80354160D01*
X109490556Y-80355139D01*
X109285281Y-80430869D01*
X109280320Y-80433821D01*
X109280319Y-80433821D01*
X109193996Y-80485178D01*
X109097244Y-80542739D01*
X108932742Y-80687003D01*
X108797285Y-80858830D01*
X108794597Y-80863939D01*
X108698099Y-81047352D01*
X108698097Y-81047357D01*
X108695410Y-81052464D01*
X108693696Y-81057985D01*
X108644283Y-81217121D01*
X108630527Y-81261421D01*
X108629849Y-81267150D01*
X108613843Y-81402386D01*
X108609500Y-81439077D01*
X108609500Y-83545504D01*
X105990500Y-83545504D01*
X105990500Y-80500252D01*
X105986929Y-80482298D01*
X105981288Y-80453939D01*
X105981288Y-80453938D01*
X105978867Y-80441769D01*
X105934552Y-80375448D01*
X105868231Y-80331133D01*
X105856062Y-80328712D01*
X105856061Y-80328712D01*
X105815816Y-80320707D01*
X105809748Y-80319500D01*
X103790252Y-80319500D01*
X103784184Y-80320707D01*
X103743939Y-80328712D01*
X103743938Y-80328712D01*
X103731769Y-80331133D01*
X103665448Y-80375448D01*
X103621133Y-80441769D01*
X103618712Y-80453938D01*
X103618712Y-80453939D01*
X103613071Y-80482298D01*
X103609500Y-80500252D01*
X103609500Y-84499748D01*
X95431342Y-84499748D01*
X95497791Y-84460215D01*
X95497792Y-84460214D01*
X95502756Y-84457261D01*
X95667258Y-84312997D01*
X95713406Y-84254458D01*
X95799141Y-84145704D01*
X95799142Y-84145702D01*
X95802715Y-84141170D01*
X95855480Y-84040880D01*
X95901901Y-83952648D01*
X95901903Y-83952643D01*
X95904590Y-83947536D01*
X95969473Y-83738579D01*
X95990500Y-83560923D01*
X95990500Y-81454496D01*
X95975580Y-81292119D01*
X95966923Y-81261421D01*
X95917757Y-81087094D01*
X95917756Y-81087092D01*
X95916189Y-81081535D01*
X95904576Y-81057985D01*
X95821972Y-80890482D01*
X95819417Y-80885301D01*
X95796265Y-80854296D01*
X95691957Y-80714611D01*
X95691956Y-80714610D01*
X95688504Y-80709987D01*
X95684268Y-80706071D01*
X95532075Y-80565386D01*
X95532073Y-80565384D01*
X95527835Y-80561467D01*
X95342791Y-80444713D01*
X95139569Y-80363635D01*
X95133901Y-80362508D01*
X95133899Y-80362507D01*
X94930641Y-80322077D01*
X94930639Y-80322077D01*
X94924974Y-80320950D01*
X94919199Y-80320874D01*
X94919195Y-80320874D01*
X94809397Y-80319437D01*
X94706194Y-80318086D01*
X94700497Y-80319065D01*
X94700496Y-80319065D01*
X94496253Y-80354160D01*
X94496252Y-80354160D01*
X94490556Y-80355139D01*
X94285281Y-80430869D01*
X94280320Y-80433821D01*
X94280319Y-80433821D01*
X94193996Y-80485178D01*
X94097244Y-80542739D01*
X93932742Y-80687003D01*
X93797285Y-80858830D01*
X93794597Y-80863939D01*
X93698099Y-81047352D01*
X93698097Y-81047357D01*
X93695410Y-81052464D01*
X93693696Y-81057985D01*
X93644283Y-81217121D01*
X93630527Y-81261421D01*
X93629849Y-81267150D01*
X93613843Y-81402386D01*
X93609500Y-81439077D01*
X93609500Y-83545504D01*
X90990500Y-83545504D01*
X90990500Y-81454496D01*
X90975580Y-81292119D01*
X90966923Y-81261421D01*
X90917757Y-81087094D01*
X90917756Y-81087092D01*
X90916189Y-81081535D01*
X90904576Y-81057985D01*
X90821972Y-80890482D01*
X90819417Y-80885301D01*
X90796265Y-80854296D01*
X90691957Y-80714611D01*
X90691956Y-80714610D01*
X90688504Y-80709987D01*
X90684268Y-80706071D01*
X90532075Y-80565386D01*
X90532073Y-80565384D01*
X90527835Y-80561467D01*
X90342791Y-80444713D01*
X90139569Y-80363635D01*
X90133901Y-80362508D01*
X90133899Y-80362507D01*
X89930641Y-80322077D01*
X89930639Y-80322077D01*
X89924974Y-80320950D01*
X89919199Y-80320874D01*
X89919195Y-80320874D01*
X89809397Y-80319437D01*
X89706194Y-80318086D01*
X89700497Y-80319065D01*
X89700496Y-80319065D01*
X89496253Y-80354160D01*
X89496252Y-80354160D01*
X89490556Y-80355139D01*
X89285281Y-80430869D01*
X89280320Y-80433821D01*
X89280319Y-80433821D01*
X89193996Y-80485178D01*
X89097244Y-80542739D01*
X88932742Y-80687003D01*
X88797285Y-80858830D01*
X88794597Y-80863939D01*
X88698099Y-81047352D01*
X88698097Y-81047357D01*
X88695410Y-81052464D01*
X88693696Y-81057985D01*
X88644283Y-81217121D01*
X88630527Y-81261421D01*
X88629849Y-81267150D01*
X88613843Y-81402386D01*
X88609500Y-81439077D01*
X88609500Y-83545504D01*
X85990500Y-83545504D01*
X85990500Y-80500252D01*
X85986929Y-80482298D01*
X85981288Y-80453939D01*
X85981288Y-80453938D01*
X85978867Y-80441769D01*
X85934552Y-80375448D01*
X85868231Y-80331133D01*
X85856062Y-80328712D01*
X85856061Y-80328712D01*
X85815816Y-80320707D01*
X85809748Y-80319500D01*
X83790252Y-80319500D01*
X83784184Y-80320707D01*
X83743939Y-80328712D01*
X83743938Y-80328712D01*
X83731769Y-80331133D01*
X83665448Y-80375448D01*
X83621133Y-80441769D01*
X83618712Y-80453938D01*
X83618712Y-80453939D01*
X83613071Y-80482298D01*
X83609500Y-80500252D01*
X83609500Y-84499748D01*
X75431342Y-84499748D01*
X75497791Y-84460215D01*
X75497792Y-84460214D01*
X75502756Y-84457261D01*
X75667258Y-84312997D01*
X75713406Y-84254458D01*
X75799141Y-84145704D01*
X75799142Y-84145702D01*
X75802715Y-84141170D01*
X75855480Y-84040880D01*
X75901901Y-83952648D01*
X75901903Y-83952643D01*
X75904590Y-83947536D01*
X75969473Y-83738579D01*
X75990500Y-83560923D01*
X75990500Y-81454496D01*
X75975580Y-81292119D01*
X75966923Y-81261421D01*
X75917757Y-81087094D01*
X75917756Y-81087092D01*
X75916189Y-81081535D01*
X75904576Y-81057985D01*
X75821972Y-80890482D01*
X75819417Y-80885301D01*
X75796265Y-80854296D01*
X75691957Y-80714611D01*
X75691956Y-80714610D01*
X75688504Y-80709987D01*
X75684268Y-80706071D01*
X75532075Y-80565386D01*
X75532073Y-80565384D01*
X75527835Y-80561467D01*
X75342791Y-80444713D01*
X75139569Y-80363635D01*
X75133901Y-80362508D01*
X75133899Y-80362507D01*
X74930641Y-80322077D01*
X74930639Y-80322077D01*
X74924974Y-80320950D01*
X74919199Y-80320874D01*
X74919195Y-80320874D01*
X74809397Y-80319437D01*
X74706194Y-80318086D01*
X74700497Y-80319065D01*
X74700496Y-80319065D01*
X74496253Y-80354160D01*
X74496252Y-80354160D01*
X74490556Y-80355139D01*
X74285281Y-80430869D01*
X74280320Y-80433821D01*
X74280319Y-80433821D01*
X74193996Y-80485178D01*
X74097244Y-80542739D01*
X73932742Y-80687003D01*
X73797285Y-80858830D01*
X73794597Y-80863939D01*
X73698099Y-81047352D01*
X73698097Y-81047357D01*
X73695410Y-81052464D01*
X73693696Y-81057985D01*
X73644283Y-81217121D01*
X73630527Y-81261421D01*
X73629849Y-81267150D01*
X73613843Y-81402386D01*
X73609500Y-81439077D01*
X73609500Y-83545504D01*
X70990500Y-83545504D01*
X70990500Y-81454496D01*
X70975580Y-81292119D01*
X70966923Y-81261421D01*
X70917757Y-81087094D01*
X70917756Y-81087092D01*
X70916189Y-81081535D01*
X70904576Y-81057985D01*
X70821972Y-80890482D01*
X70819417Y-80885301D01*
X70796265Y-80854296D01*
X70691957Y-80714611D01*
X70691956Y-80714610D01*
X70688504Y-80709987D01*
X70684268Y-80706071D01*
X70532075Y-80565386D01*
X70532073Y-80565384D01*
X70527835Y-80561467D01*
X70342791Y-80444713D01*
X70139569Y-80363635D01*
X70133901Y-80362508D01*
X70133899Y-80362507D01*
X69930641Y-80322077D01*
X69930639Y-80322077D01*
X69924974Y-80320950D01*
X69919199Y-80320874D01*
X69919195Y-80320874D01*
X69809397Y-80319437D01*
X69706194Y-80318086D01*
X69700497Y-80319065D01*
X69700496Y-80319065D01*
X69496253Y-80354160D01*
X69496252Y-80354160D01*
X69490556Y-80355139D01*
X69285281Y-80430869D01*
X69280320Y-80433821D01*
X69280319Y-80433821D01*
X69193996Y-80485178D01*
X69097244Y-80542739D01*
X68932742Y-80687003D01*
X68797285Y-80858830D01*
X68794597Y-80863939D01*
X68698099Y-81047352D01*
X68698097Y-81047357D01*
X68695410Y-81052464D01*
X68693696Y-81057985D01*
X68644283Y-81217121D01*
X68630527Y-81261421D01*
X68629849Y-81267150D01*
X68613843Y-81402386D01*
X68609500Y-81439077D01*
X68609500Y-83545504D01*
X65990500Y-83545504D01*
X65990500Y-80500252D01*
X65986929Y-80482298D01*
X65981288Y-80453939D01*
X65981288Y-80453938D01*
X65978867Y-80441769D01*
X65934552Y-80375448D01*
X65868231Y-80331133D01*
X65856062Y-80328712D01*
X65856061Y-80328712D01*
X65815816Y-80320707D01*
X65809748Y-80319500D01*
X63790252Y-80319500D01*
X63784184Y-80320707D01*
X63743939Y-80328712D01*
X63743938Y-80328712D01*
X63731769Y-80331133D01*
X63665448Y-80375448D01*
X63621133Y-80441769D01*
X63618712Y-80453938D01*
X63618712Y-80453939D01*
X63613071Y-80482298D01*
X63609500Y-80500252D01*
X63609500Y-84499748D01*
X55431342Y-84499748D01*
X55497791Y-84460215D01*
X55497792Y-84460214D01*
X55502756Y-84457261D01*
X55667258Y-84312997D01*
X55713406Y-84254458D01*
X55799141Y-84145704D01*
X55799142Y-84145702D01*
X55802715Y-84141170D01*
X55855480Y-84040880D01*
X55901901Y-83952648D01*
X55901903Y-83952643D01*
X55904590Y-83947536D01*
X55969473Y-83738579D01*
X55990500Y-83560923D01*
X55990500Y-81454496D01*
X55975580Y-81292119D01*
X55966923Y-81261421D01*
X55917757Y-81087094D01*
X55917756Y-81087092D01*
X55916189Y-81081535D01*
X55904576Y-81057985D01*
X55821972Y-80890482D01*
X55819417Y-80885301D01*
X55796265Y-80854296D01*
X55691957Y-80714611D01*
X55691956Y-80714610D01*
X55688504Y-80709987D01*
X55684268Y-80706071D01*
X55532075Y-80565386D01*
X55532073Y-80565384D01*
X55527835Y-80561467D01*
X55342791Y-80444713D01*
X55139569Y-80363635D01*
X55133901Y-80362508D01*
X55133899Y-80362507D01*
X54930641Y-80322077D01*
X54930639Y-80322077D01*
X54924974Y-80320950D01*
X54919199Y-80320874D01*
X54919195Y-80320874D01*
X54809397Y-80319437D01*
X54706194Y-80318086D01*
X54700497Y-80319065D01*
X54700496Y-80319065D01*
X54496253Y-80354160D01*
X54496252Y-80354160D01*
X54490556Y-80355139D01*
X54285281Y-80430869D01*
X54280320Y-80433821D01*
X54280319Y-80433821D01*
X54193996Y-80485178D01*
X54097244Y-80542739D01*
X53932742Y-80687003D01*
X53797285Y-80858830D01*
X53794597Y-80863939D01*
X53698099Y-81047352D01*
X53698097Y-81047357D01*
X53695410Y-81052464D01*
X53693696Y-81057985D01*
X53644283Y-81217121D01*
X53630527Y-81261421D01*
X53629849Y-81267150D01*
X53613843Y-81402386D01*
X53609500Y-81439077D01*
X53609500Y-83545504D01*
X50990500Y-83545504D01*
X50990500Y-81454496D01*
X50975580Y-81292119D01*
X50966923Y-81261421D01*
X50917757Y-81087094D01*
X50917756Y-81087092D01*
X50916189Y-81081535D01*
X50904576Y-81057985D01*
X50821972Y-80890482D01*
X50819417Y-80885301D01*
X50796265Y-80854296D01*
X50691957Y-80714611D01*
X50691956Y-80714610D01*
X50688504Y-80709987D01*
X50684268Y-80706071D01*
X50532075Y-80565386D01*
X50532073Y-80565384D01*
X50527835Y-80561467D01*
X50342791Y-80444713D01*
X50139569Y-80363635D01*
X50133901Y-80362508D01*
X50133899Y-80362507D01*
X49930641Y-80322077D01*
X49930639Y-80322077D01*
X49924974Y-80320950D01*
X49919199Y-80320874D01*
X49919195Y-80320874D01*
X49809397Y-80319437D01*
X49706194Y-80318086D01*
X49700497Y-80319065D01*
X49700496Y-80319065D01*
X49496253Y-80354160D01*
X49496252Y-80354160D01*
X49490556Y-80355139D01*
X49285281Y-80430869D01*
X49280320Y-80433821D01*
X49280319Y-80433821D01*
X49193996Y-80485178D01*
X49097244Y-80542739D01*
X48932742Y-80687003D01*
X48797285Y-80858830D01*
X48794597Y-80863939D01*
X48698099Y-81047352D01*
X48698097Y-81047357D01*
X48695410Y-81052464D01*
X48693696Y-81057985D01*
X48644283Y-81217121D01*
X48630527Y-81261421D01*
X48629849Y-81267150D01*
X48613843Y-81402386D01*
X48609500Y-81439077D01*
X48609500Y-83545504D01*
X45990500Y-83545504D01*
X45990500Y-80500252D01*
X45986929Y-80482298D01*
X45981288Y-80453939D01*
X45981288Y-80453938D01*
X45978867Y-80441769D01*
X45934552Y-80375448D01*
X45868231Y-80331133D01*
X45856062Y-80328712D01*
X45856061Y-80328712D01*
X45815816Y-80320707D01*
X45809748Y-80319500D01*
X43790252Y-80319500D01*
X43784184Y-80320707D01*
X43743939Y-80328712D01*
X43743938Y-80328712D01*
X43731769Y-80331133D01*
X43665448Y-80375448D01*
X43621133Y-80441769D01*
X43618712Y-80453938D01*
X43618712Y-80453939D01*
X43613071Y-80482298D01*
X43609500Y-80500252D01*
X43609500Y-84499748D01*
X39746308Y-84499748D01*
X39787219Y-84435032D01*
X39846153Y-84341808D01*
X39847573Y-84338960D01*
X39847578Y-84338951D01*
X40010690Y-84011797D01*
X40024743Y-83983611D01*
X40166221Y-83609201D01*
X40176733Y-83569696D01*
X40233324Y-83357011D01*
X40269138Y-83222411D01*
X40276140Y-83178701D01*
X40318558Y-82913871D01*
X40332441Y-82827200D01*
X40355481Y-82427615D01*
X40355577Y-82400000D01*
X40350034Y-82290569D01*
X40335488Y-82003437D01*
X40335487Y-82003432D01*
X40335327Y-82000264D01*
X40302393Y-81785037D01*
X40275269Y-81607781D01*
X40275267Y-81607772D01*
X40274785Y-81604621D01*
X40235960Y-81454496D01*
X40175368Y-81220201D01*
X40175365Y-81220193D01*
X40174571Y-81217121D01*
X40173272Y-81213609D01*
X40036820Y-80844729D01*
X40036817Y-80844723D01*
X40035711Y-80841732D01*
X39859626Y-80482298D01*
X39797845Y-80383044D01*
X39649806Y-80145208D01*
X39649798Y-80145197D01*
X39648119Y-80142499D01*
X39403356Y-79825812D01*
X39127843Y-79535482D01*
X39116794Y-79525978D01*
X38826816Y-79276558D01*
X38826813Y-79276556D01*
X38824401Y-79274481D01*
X38496136Y-79045480D01*
X38146410Y-78850825D01*
X38143490Y-78849567D01*
X38143485Y-78849565D01*
X37781738Y-78693772D01*
X37781728Y-78693768D01*
X37778804Y-78692509D01*
X37397080Y-78572152D01*
X37115854Y-78513913D01*
X37008272Y-78491634D01*
X37008269Y-78491634D01*
X37005147Y-78490987D01*
X36699738Y-78459426D01*
X36610175Y-78450170D01*
X36610172Y-78450170D01*
X36607019Y-78449844D01*
X36603852Y-78449838D01*
X36603843Y-78449838D01*
X36406515Y-78449494D01*
X36206771Y-78449145D01*
X35906479Y-78479118D01*
X35811686Y-78488580D01*
X35811684Y-78488580D01*
X35808501Y-78488898D01*
X35805361Y-78489537D01*
X35805360Y-78489537D01*
X35419422Y-78568057D01*
X35419415Y-78568059D01*
X35416288Y-78568695D01*
X35034146Y-78687719D01*
X35031218Y-78688968D01*
X34668919Y-78843501D01*
X34668915Y-78843503D01*
X34665989Y-78844751D01*
X34663210Y-78846285D01*
X34663204Y-78846288D01*
X34362914Y-79012057D01*
X34315586Y-79038184D01*
X34312965Y-79039999D01*
X34312960Y-79040002D01*
X34305049Y-79045480D01*
X33986524Y-79266037D01*
X33682172Y-79525978D01*
X33679972Y-79528280D01*
X33679969Y-79528283D01*
X33561682Y-79652064D01*
X33405648Y-79815344D01*
X33159781Y-80131174D01*
X33158085Y-80133878D01*
X33158082Y-80133882D01*
X33030024Y-80338026D01*
X32947090Y-80470234D01*
X32769751Y-80829051D01*
X32629581Y-81203953D01*
X32528015Y-81591100D01*
X32466092Y-81986530D01*
X32465921Y-81989692D01*
X32465920Y-81989699D01*
X32459141Y-82114879D01*
X32444447Y-82386192D01*
X30775000Y-82386192D01*
X30775000Y-75401000D01*
X30795002Y-75332879D01*
X30848658Y-75286386D01*
X30901000Y-75275000D01*
X130599000Y-75275000D01*
X130667121Y-75295002D01*
G37*
G04 #@! TD.AperFunction*
M02*
