G04 #@! TF.GenerationSoftware,KiCad,Pcbnew,(6.0.1)*
G04 #@! TF.CreationDate,2022-08-11T12:27:20+02:00*
G04 #@! TF.ProjectId,DMX,444d582e-6b69-4636-9164-5f7063625858,rev?*
G04 #@! TF.SameCoordinates,Original*
G04 #@! TF.FileFunction,Copper,L4,Bot*
G04 #@! TF.FilePolarity,Positive*
%FSLAX46Y46*%
G04 Gerber Fmt 4.6, Leading zero omitted, Abs format (unit mm)*
G04 Created by KiCad (PCBNEW (6.0.1)) date 2022-08-11 12:27:20*
%MOMM*%
%LPD*%
G01*
G04 APERTURE LIST*
G04 Aperture macros list*
%AMRoundRect*
0 Rectangle with rounded corners*
0 $1 Rounding radius*
0 $2 $3 $4 $5 $6 $7 $8 $9 X,Y pos of 4 corners*
0 Add a 4 corners polygon primitive as box body*
4,1,4,$2,$3,$4,$5,$6,$7,$8,$9,$2,$3,0*
0 Add four circle primitives for the rounded corners*
1,1,$1+$1,$2,$3*
1,1,$1+$1,$4,$5*
1,1,$1+$1,$6,$7*
1,1,$1+$1,$8,$9*
0 Add four rect primitives between the rounded corners*
20,1,$1+$1,$2,$3,$4,$5,0*
20,1,$1+$1,$4,$5,$6,$7,0*
20,1,$1+$1,$6,$7,$8,$9,0*
20,1,$1+$1,$8,$9,$2,$3,0*%
G04 Aperture macros list end*
G04 #@! TA.AperFunction,ComponentPad*
%ADD10R,1.980000X3.960000*%
G04 #@! TD*
G04 #@! TA.AperFunction,ComponentPad*
%ADD11O,1.980000X3.960000*%
G04 #@! TD*
G04 #@! TA.AperFunction,ComponentPad*
%ADD12R,1.700000X1.700000*%
G04 #@! TD*
G04 #@! TA.AperFunction,ComponentPad*
%ADD13O,1.700000X1.700000*%
G04 #@! TD*
G04 #@! TA.AperFunction,ComponentPad*
%ADD14C,1.700000*%
G04 #@! TD*
G04 #@! TA.AperFunction,ComponentPad*
%ADD15C,3.500000*%
G04 #@! TD*
G04 #@! TA.AperFunction,ComponentPad*
%ADD16C,2.000000*%
G04 #@! TD*
G04 #@! TA.AperFunction,ComponentPad*
%ADD17C,1.500000*%
G04 #@! TD*
G04 #@! TA.AperFunction,ComponentPad*
%ADD18R,1.905000X2.000000*%
G04 #@! TD*
G04 #@! TA.AperFunction,ComponentPad*
%ADD19O,1.905000X2.000000*%
G04 #@! TD*
G04 #@! TA.AperFunction,SMDPad,CuDef*
%ADD20RoundRect,0.250000X-0.350000X-0.450000X0.350000X-0.450000X0.350000X0.450000X-0.350000X0.450000X0*%
G04 #@! TD*
G04 #@! TA.AperFunction,SMDPad,CuDef*
%ADD21RoundRect,0.250000X-0.450000X0.350000X-0.450000X-0.350000X0.450000X-0.350000X0.450000X0.350000X0*%
G04 #@! TD*
G04 #@! TA.AperFunction,SMDPad,CuDef*
%ADD22RoundRect,0.237500X0.237500X-0.300000X0.237500X0.300000X-0.237500X0.300000X-0.237500X-0.300000X0*%
G04 #@! TD*
G04 #@! TA.AperFunction,SMDPad,CuDef*
%ADD23R,3.500000X1.800000*%
G04 #@! TD*
G04 #@! TA.AperFunction,SMDPad,CuDef*
%ADD24RoundRect,0.237500X-0.237500X0.300000X-0.237500X-0.300000X0.237500X-0.300000X0.237500X0.300000X0*%
G04 #@! TD*
G04 #@! TA.AperFunction,ComponentPad*
%ADD25C,7.500000*%
G04 #@! TD*
G04 #@! TA.AperFunction,SMDPad,CuDef*
%ADD26R,0.650000X1.560000*%
G04 #@! TD*
G04 #@! TA.AperFunction,ViaPad*
%ADD27C,0.800000*%
G04 #@! TD*
G04 #@! TA.AperFunction,Conductor*
%ADD28C,0.250000*%
G04 #@! TD*
G04 #@! TA.AperFunction,Conductor*
%ADD29C,2.000000*%
G04 #@! TD*
G04 APERTURE END LIST*
D10*
X104800000Y-82500000D03*
D11*
X109800000Y-82500000D03*
X114800000Y-82500000D03*
D10*
X84800000Y-82500000D03*
D11*
X89800000Y-82500000D03*
X94800000Y-82500000D03*
D10*
X64800000Y-82500000D03*
D11*
X69800000Y-82500000D03*
X74800000Y-82500000D03*
D12*
X34200000Y-102650000D03*
D13*
X34200000Y-105190000D03*
X34200000Y-107730000D03*
X34200000Y-110270000D03*
X34200000Y-112810000D03*
X34200000Y-115350000D03*
D10*
X44800000Y-82500000D03*
D11*
X49800000Y-82500000D03*
X54800000Y-82500000D03*
D12*
X77250000Y-114422500D03*
D14*
X74750000Y-114422500D03*
X74750000Y-116422500D03*
X77250000Y-116422500D03*
D15*
X82020000Y-119132500D03*
X69980000Y-119132500D03*
D16*
X34550000Y-93550000D03*
X41050000Y-93550000D03*
X34550000Y-98050000D03*
X41050000Y-98050000D03*
D17*
X43400000Y-110050000D03*
X43400000Y-114950000D03*
D18*
X88460000Y-115430000D03*
D19*
X91000000Y-115430000D03*
X93540000Y-115430000D03*
D12*
X46200000Y-93075000D03*
D13*
X46200000Y-95615000D03*
X46200000Y-98155000D03*
D20*
X58650000Y-113700000D03*
X60650000Y-113700000D03*
X88750000Y-112725000D03*
X90750000Y-112725000D03*
X58650000Y-108700000D03*
X60650000Y-108700000D03*
X53400000Y-113700000D03*
X55400000Y-113700000D03*
D21*
X38830000Y-94800000D03*
X38830000Y-96800000D03*
D20*
X58650000Y-111200000D03*
X60650000Y-111200000D03*
D22*
X36800000Y-96662500D03*
X36800000Y-94937500D03*
D20*
X53400000Y-116200000D03*
X55400000Y-116200000D03*
D23*
X74800000Y-87500000D03*
X79800000Y-87500000D03*
D24*
X38800000Y-109262500D03*
X38800000Y-110987500D03*
D23*
X114800000Y-87500000D03*
X119800000Y-87500000D03*
X49800000Y-87500000D03*
X44800000Y-87500000D03*
D20*
X88750000Y-110475000D03*
X90750000Y-110475000D03*
D23*
X54800000Y-87500000D03*
X59800000Y-87500000D03*
X109800000Y-87500000D03*
X104800000Y-87500000D03*
D22*
X38800000Y-114737500D03*
X38800000Y-113012500D03*
D25*
X36400000Y-82400000D03*
D23*
X69800000Y-87500000D03*
X64800000Y-87500000D03*
D20*
X53400000Y-111200000D03*
X55400000Y-111200000D03*
X53400000Y-108700000D03*
X55400000Y-108700000D03*
D26*
X71200000Y-114350000D03*
X70250000Y-114350000D03*
X69300000Y-114350000D03*
X69300000Y-111650000D03*
X70250000Y-111650000D03*
X71200000Y-111650000D03*
D23*
X89800000Y-87500000D03*
X84800000Y-87500000D03*
D20*
X58650000Y-116200000D03*
X60650000Y-116200000D03*
D23*
X94800000Y-87500000D03*
X99800000Y-87500000D03*
D27*
X68250000Y-114250000D03*
X69500000Y-108250000D03*
X70250000Y-116000000D03*
X60250000Y-92000000D03*
X62200000Y-118400000D03*
X82800000Y-98850000D03*
X92250000Y-110475000D03*
X56250000Y-124000000D03*
X61500000Y-121750000D03*
X77550000Y-97600000D03*
X80250000Y-108750000D03*
X37300000Y-111125000D03*
X50000000Y-92000000D03*
X78550000Y-93100000D03*
X67250000Y-96750000D03*
X55000000Y-103800000D03*
X55250000Y-95250000D03*
X71050000Y-92350000D03*
X49000000Y-113750000D03*
X62600000Y-107000000D03*
X78300000Y-96600000D03*
X56500000Y-93750000D03*
X60750000Y-96750000D03*
X38550000Y-93050000D03*
X49000000Y-118000000D03*
X70550000Y-96850000D03*
X77800000Y-92350000D03*
X85200000Y-92400000D03*
X50000000Y-97000000D03*
X52400000Y-106400000D03*
X50800000Y-104500000D03*
X69500000Y-106750000D03*
X67250000Y-92000000D03*
X63250000Y-121750000D03*
X59750000Y-125750000D03*
X90400000Y-90000000D03*
X87800000Y-89800000D03*
X112800000Y-89800000D03*
X108200000Y-89600000D03*
X54700000Y-90500000D03*
X49200000Y-93400000D03*
X70400000Y-90200000D03*
X65800000Y-90200000D03*
X61600000Y-106200000D03*
X55000000Y-105200000D03*
X49186759Y-104000000D03*
X72000000Y-113250000D03*
X70989613Y-112933071D03*
X63400000Y-118200000D03*
X81200000Y-104800000D03*
X64400000Y-116600000D03*
X78400000Y-103200000D03*
X64400000Y-115200000D03*
X81200000Y-103600000D03*
X57100000Y-108700000D03*
X57000000Y-111200000D03*
X57100000Y-113700000D03*
X57000000Y-116200000D03*
D28*
X71000000Y-110250000D02*
X74500000Y-110250000D01*
X74500000Y-110250000D02*
X77250000Y-113000000D01*
X77250000Y-113000000D02*
X77250000Y-114422500D01*
X70000000Y-113000000D02*
X70250000Y-112750000D01*
X68750000Y-113000000D02*
X70000000Y-113000000D01*
X70250000Y-111000000D02*
X71000000Y-110250000D01*
X68250000Y-114250000D02*
X68250000Y-113500000D01*
X70250000Y-111650000D02*
X70250000Y-111000000D01*
X70250000Y-112750000D02*
X70250000Y-111650000D01*
X68250000Y-113500000D02*
X68750000Y-113000000D01*
X38800000Y-110987500D02*
X37437500Y-110987500D01*
X60650000Y-113700000D02*
X60650000Y-111200000D01*
D29*
X64800000Y-82500000D02*
X64800000Y-80200000D01*
X104800000Y-81400000D02*
X108400000Y-77800000D01*
D28*
X60650000Y-116200000D02*
X60650000Y-113700000D01*
X37437500Y-110987500D02*
X37300000Y-111125000D01*
D29*
X99800000Y-80200000D02*
X99800000Y-87500000D01*
D28*
X90750000Y-110475000D02*
X92250000Y-110475000D01*
D29*
X67200000Y-77800000D02*
X77200000Y-77800000D01*
D28*
X60650000Y-111200000D02*
X60650000Y-108700000D01*
X35937500Y-94937500D02*
X36800000Y-94937500D01*
X60650000Y-116850000D02*
X62200000Y-118400000D01*
D29*
X84800000Y-87500000D02*
X84800000Y-82500000D01*
X84800000Y-82500000D02*
X84800000Y-80800000D01*
X79800000Y-80400000D02*
X79800000Y-87500000D01*
X57000000Y-77800000D02*
X47400000Y-77800000D01*
X64800000Y-87500000D02*
X64800000Y-82500000D01*
X77200000Y-77800000D02*
X79800000Y-80400000D01*
X64800000Y-80200000D02*
X67200000Y-77800000D01*
X44800000Y-87500000D02*
X44800000Y-82500000D01*
X84800000Y-80800000D02*
X87800000Y-77800000D01*
D28*
X34550000Y-93550000D02*
X35937500Y-94937500D01*
X70250000Y-114350000D02*
X70250000Y-116000000D01*
D29*
X104800000Y-82500000D02*
X104800000Y-81400000D01*
X59800000Y-80600000D02*
X57000000Y-77800000D01*
X117400000Y-77800000D02*
X119800000Y-80200000D01*
X104800000Y-87500000D02*
X104800000Y-82500000D01*
X119800000Y-80200000D02*
X119800000Y-87500000D01*
X108400000Y-77800000D02*
X117400000Y-77800000D01*
X59800000Y-87500000D02*
X59800000Y-80600000D01*
X87800000Y-77800000D02*
X97400000Y-77800000D01*
D28*
X60650000Y-116200000D02*
X60650000Y-116850000D01*
D29*
X47400000Y-77800000D02*
X44800000Y-80400000D01*
D28*
X38800000Y-113012500D02*
X38800000Y-110987500D01*
D29*
X44800000Y-80400000D02*
X44800000Y-82500000D01*
X97400000Y-77800000D02*
X99800000Y-80200000D01*
D28*
X36800000Y-96662500D02*
X38692500Y-96662500D01*
X34550000Y-98050000D02*
X35412500Y-98050000D01*
X38692500Y-96662500D02*
X38830000Y-96800000D01*
X35412500Y-98050000D02*
X36800000Y-96662500D01*
X38830000Y-96800000D02*
X39800000Y-96800000D01*
X39800000Y-96800000D02*
X41050000Y-98050000D01*
X62600000Y-103800000D02*
X62600000Y-107000000D01*
X45810000Y-105190000D02*
X49200000Y-101800000D01*
X34200000Y-105190000D02*
X45810000Y-105190000D01*
X49200000Y-101800000D02*
X60600000Y-101800000D01*
X60600000Y-101800000D02*
X62600000Y-103800000D01*
X39587500Y-110050000D02*
X38800000Y-109262500D01*
X43400000Y-110050000D02*
X39587500Y-110050000D01*
X39012500Y-114950000D02*
X38800000Y-114737500D01*
X43400000Y-114950000D02*
X39012500Y-114950000D01*
X38830000Y-93330000D02*
X38550000Y-93050000D01*
X90750000Y-115205000D02*
X91000000Y-115455000D01*
X53400000Y-108700000D02*
X53400000Y-107400000D01*
X53400000Y-113700000D02*
X53400000Y-111200000D01*
X53400000Y-116200000D02*
X53400000Y-113700000D01*
X53400000Y-107400000D02*
X52400000Y-106400000D01*
X38830000Y-94800000D02*
X38830000Y-93330000D01*
X90750000Y-112725000D02*
X90750000Y-115205000D01*
X53400000Y-111200000D02*
X53400000Y-108700000D01*
X92300000Y-90000000D02*
X94800000Y-87500000D01*
X90400000Y-90000000D02*
X92300000Y-90000000D01*
D29*
X94800000Y-82500000D02*
X94800000Y-87500000D01*
X89800000Y-82500000D02*
X89800000Y-87500000D01*
D28*
X87800000Y-89800000D02*
X89400000Y-89800000D01*
X89400000Y-89800000D02*
X89800000Y-89400000D01*
X89800000Y-89400000D02*
X89800000Y-87500000D01*
D29*
X114800000Y-82500000D02*
X114800000Y-87500000D01*
D28*
X114800000Y-87500000D02*
X114800000Y-87800000D01*
X114800000Y-87800000D02*
X112800000Y-89800000D01*
X109800000Y-88000000D02*
X109800000Y-87500000D01*
D29*
X109800000Y-82500000D02*
X109800000Y-87500000D01*
D28*
X108200000Y-89600000D02*
X109800000Y-88000000D01*
X54700000Y-87600000D02*
X54800000Y-87500000D01*
X54700000Y-90500000D02*
X54700000Y-87600000D01*
D29*
X54800000Y-82500000D02*
X54800000Y-87500000D01*
D28*
X49200000Y-88100000D02*
X49800000Y-87500000D01*
X49200000Y-93400000D02*
X49200000Y-88100000D01*
D29*
X49800000Y-82500000D02*
X49800000Y-87500000D01*
D28*
X72100000Y-90200000D02*
X74800000Y-87500000D01*
D29*
X74800000Y-82500000D02*
X74800000Y-87500000D01*
D28*
X70400000Y-90200000D02*
X72100000Y-90200000D01*
X69800000Y-89400000D02*
X69800000Y-87500000D01*
X65800000Y-90200000D02*
X69000000Y-90200000D01*
X69000000Y-90200000D02*
X69800000Y-89400000D01*
D29*
X69800000Y-82500000D02*
X69800000Y-87500000D01*
D28*
X38670000Y-105800000D02*
X34200000Y-110270000D01*
X61600000Y-106200000D02*
X61600000Y-103600000D01*
X46000000Y-105800000D02*
X38670000Y-105800000D01*
X60400000Y-102400000D02*
X49400000Y-102400000D01*
X61600000Y-103600000D02*
X60400000Y-102400000D01*
X49400000Y-102400000D02*
X46000000Y-105800000D01*
X50586759Y-105400000D02*
X54800000Y-105400000D01*
X49186759Y-104000000D02*
X50586759Y-105400000D01*
X54800000Y-105400000D02*
X55000000Y-105200000D01*
X88460000Y-115455000D02*
X88460000Y-113015000D01*
X88460000Y-113015000D02*
X88750000Y-112725000D01*
X88750000Y-110475000D02*
X88750000Y-112725000D01*
X72940221Y-114612721D02*
X72677500Y-114350000D01*
X73364485Y-115461249D02*
X73364484Y-115461249D01*
X72681712Y-115295492D02*
X72681712Y-115295491D01*
X72940220Y-114612720D02*
X72940221Y-114612721D01*
X72681712Y-115295491D02*
X72940220Y-115036984D01*
X72677500Y-114350000D02*
X71200000Y-114350000D01*
X72000000Y-113250000D02*
X71200000Y-114050000D01*
X71200000Y-114050000D02*
X71200000Y-114350000D01*
X74750000Y-116422500D02*
X73788750Y-115461250D01*
X73364484Y-115461249D02*
X73105977Y-115719757D01*
X72940219Y-114612721D02*
G75*
G02*
X72940219Y-115036983I-212131J-212131D01*
G01*
X72681712Y-115295492D02*
G75*
G03*
X72681713Y-115719757I212128J-212132D01*
G01*
X73364485Y-115461249D02*
G75*
G02*
X73788750Y-115461250I212132J-212128D01*
G01*
X72681714Y-115719756D02*
G75*
G03*
X73105976Y-115719756I212131J212131D01*
G01*
X74750000Y-112500000D02*
X74750000Y-114422500D01*
X73900000Y-111650000D02*
X74750000Y-112500000D01*
X71200000Y-112722684D02*
X70989613Y-112933071D01*
X71200000Y-111650000D02*
X73900000Y-111650000D01*
X71200000Y-111650000D02*
X71200000Y-112722684D01*
X64200000Y-118200000D02*
X63400000Y-118200000D01*
X76400000Y-104800000D02*
X67400000Y-104800000D01*
X65000000Y-114200000D02*
X65000000Y-114400000D01*
X65000000Y-114400000D02*
X65400000Y-114800000D01*
X65400000Y-114800000D02*
X65600000Y-115000000D01*
X65000000Y-107200000D02*
X65000000Y-114200000D01*
X65600000Y-116800000D02*
X64200000Y-118200000D01*
X81200000Y-104800000D02*
X76400000Y-104800000D01*
X67400000Y-104800000D02*
X65000000Y-107200000D01*
X65600000Y-115000000D02*
X65600000Y-116800000D01*
X64200000Y-116600000D02*
X63600000Y-116000000D01*
X63600000Y-111800000D02*
X63600000Y-107000000D01*
X63600000Y-107000000D02*
X64400000Y-106200000D01*
X64400000Y-106200000D02*
X67000000Y-103600000D01*
X78000000Y-103600000D02*
X78400000Y-103200000D01*
X63600000Y-116000000D02*
X63600000Y-111800000D01*
X64400000Y-116600000D02*
X64200000Y-116600000D01*
X67000000Y-103600000D02*
X77600000Y-103600000D01*
X77600000Y-103600000D02*
X78000000Y-103600000D01*
X64400000Y-115200000D02*
X64400000Y-107000000D01*
X67200000Y-104200000D02*
X75400000Y-104200000D01*
X75400000Y-104200000D02*
X80600000Y-104200000D01*
X64400000Y-107000000D02*
X67200000Y-104200000D01*
X80600000Y-104200000D02*
X81200000Y-103600000D01*
X55400000Y-108700000D02*
X58650000Y-108700000D01*
X55400000Y-111200000D02*
X58650000Y-111200000D01*
X55400000Y-113700000D02*
X58650000Y-113700000D01*
X55400000Y-116200000D02*
X58650000Y-116200000D01*
M02*
